<svg width="545" height="545" viewBox="0 0 545 545" fill="none" xmlns="http://www.w3.org/2000/svg">
<path d="M272.5 272.49L272.5 1C422.445 1 544 122.55 544 272.49C544 329.824 525.849 385.685 492.148 432.068L272.5 272.49Z" fill="#5E3FBE" stroke="white"/>
<path d="M272.5 272.49L492.148 432.068C404.012 553.372 234.225 580.263 112.916 492.131C89.8673 475.385 69.5978 455.116 52.8518 432.068L272.5 272.49Z" fill="#F4F0FD" stroke="white"/>
<path d="M272.5 272.49L52.8519 432.068C-16.284 336.914 -16.284 208.066 52.8519 112.912L272.5 272.49Z" fill="#E5DAFB" stroke="white"/>
<path d="M272.5 272.491L52.8518 112.912C86.5526 66.529 134.073 32.0048 188.602 14.2878L272.5 272.491Z" fill="#CBB6F8" stroke="white"/>
<path d="M272.5 272.49L188.602 14.2877C215.697 5.4841 244.01 1 272.5 1V272.49Z" fill="#A88DEB" stroke="white"/>
<path d="M345.288 160.98H337.476V163.5H342.732V173.724H345.288V160.98ZM345.288 172.644H342.948C341.04 174.192 338.808 175.812 337.008 176.928L338.34 179.592C340.392 178.044 342.336 176.46 344.172 174.912C346.404 177.756 349.68 179.016 354.396 179.196C358.428 179.376 366.132 179.304 370.128 179.124C370.272 178.332 370.668 177.072 370.992 176.46C366.672 176.748 358.356 176.856 354.396 176.676C350.148 176.532 347.052 175.308 345.288 172.644ZM338.088 149.28C340.356 150.972 342.984 153.528 344.1 155.292L346.152 153.42C344.964 151.656 342.264 149.208 339.96 147.588L338.088 149.28ZM352.488 152.808C355.98 154.14 360.444 156.192 362.712 157.596L364.548 155.904C362.136 154.464 357.6 152.484 354.216 151.296L352.488 152.808ZM349.068 155.832V174.48H351.624V157.92H367.68V155.832H349.068ZM366.384 155.832V171.744C366.384 172.212 366.276 172.356 365.808 172.356C365.34 172.356 363.828 172.392 362.136 172.32C362.46 172.932 362.784 173.868 362.892 174.552C365.304 174.552 366.816 174.552 367.752 174.12C368.724 173.724 368.976 173.112 368.976 171.78V155.832H366.384ZM349.068 148.272V150.432H367.032V148.272H349.068ZM350.472 161.088V163.104H367.428V161.088H350.472ZM350.472 166.38V168.468H367.428V166.38H350.472ZM357.672 156.696V174.336H360.12V156.696H357.672ZM366.132 148.272V148.776C364.512 150.468 361.164 152.556 358.212 153.708C358.608 154.104 359.292 154.824 359.652 155.292C362.928 153.924 366.564 151.692 368.976 149.424L367.32 148.128L366.744 148.272H366.132ZM391.62 155.256V157.776H404.292V155.256H391.62ZM403.536 155.256V155.868C403.176 170.484 402.78 175.596 401.952 176.676C401.628 177.144 401.304 177.252 400.692 177.252C400.08 177.252 398.568 177.252 396.876 177.072C397.308 177.792 397.56 178.872 397.632 179.628C399.252 179.736 400.872 179.736 401.844 179.628C402.888 179.52 403.572 179.196 404.22 178.296C405.336 176.784 405.66 171.744 406.056 156.588C406.056 156.228 406.056 155.256 406.056 155.256H403.536ZM395.904 147.084C395.868 161.052 396.012 172.248 388.884 178.152C389.496 178.548 390.432 179.412 390.828 180.024C398.352 173.58 398.352 161.7 398.424 147.084H395.904ZM374.772 170.304V172.356H390.792V170.304H374.772ZM374.232 165.516V167.604H391.08V165.516H374.232ZM373.62 149.892V151.98H391.8V149.892H373.62ZM381.36 156.408V176.676H383.88V156.408H381.36ZM377.688 146.796V154.752H380.208V146.796H377.688ZM385.032 146.796V154.752H387.552V146.796H385.032ZM373.44 176.424L373.8 178.8C378.3 178.26 384.924 177.504 391.188 176.712L391.152 174.516C384.636 175.272 377.796 176.028 373.44 176.424ZM377.328 157.524H388.092V161.268H377.328V157.524ZM374.916 155.544V163.284H390.576V155.544H374.916ZM417.036 162.708V164.94H434.892V162.708H417.036ZM416.352 168.864V171.168H435.648V168.864H416.352ZM428.34 163.428V179.232H430.788V163.428H428.34ZM420.96 163.536V170.088C420.96 172.068 420.204 175.884 416.568 178.116C417.18 178.476 418.008 179.232 418.368 179.736C422.436 177 423.3 172.284 423.3 170.088V163.536H420.96ZM412.572 153.312V155.256H422.688V153.312H412.572ZM429.168 153.312V155.256H439.356V153.312H429.168ZM438.312 148.308V176.388C438.312 176.928 438.132 177.144 437.556 177.144C436.98 177.18 435.036 177.18 433.056 177.108C433.452 177.864 433.812 179.124 433.92 179.844C436.656 179.844 438.456 179.808 439.536 179.34C440.616 178.872 440.976 178.008 440.976 176.388V148.308H438.312ZM412.788 148.308V150.396H421.788V158.388H412.788V160.44H424.344V148.308H412.788ZM439.608 148.308H427.512V160.476H439.608V158.424H430.104V150.396H439.608V148.308ZM411.168 148.308V179.916H413.832V148.308H411.168ZM446.988 150.072V152.556H477.012V150.072H446.988ZM445.872 172.176V174.66H478.236V172.176H445.872ZM460.524 146.796V179.988H463.296V146.796H460.524ZM452.244 163.248H471.72V166.992H452.244V163.248ZM452.244 157.452H471.72V161.124H452.244V157.452ZM449.652 155.184V169.224H474.42V155.184H449.652ZM382.52 221.358C380.832 221.358 379.328 221.068 378.007 220.489C376.694 219.909 375.65 219.104 374.875 218.072C374.108 217.033 373.69 215.827 373.622 214.455H376.844C376.912 215.298 377.202 216.027 377.713 216.641C378.224 217.246 378.893 217.714 379.72 218.047C380.547 218.379 381.463 218.545 382.469 218.545C383.594 218.545 384.591 218.349 385.46 217.957C386.329 217.565 387.011 217.02 387.506 216.321C388 215.622 388.247 214.812 388.247 213.892C388.247 212.929 388.008 212.081 387.531 211.348C387.054 210.607 386.355 210.027 385.434 209.609C384.514 209.192 383.389 208.983 382.059 208.983H379.963V206.17H382.059C383.099 206.17 384.011 205.983 384.795 205.608C385.588 205.233 386.206 204.705 386.649 204.023C387.101 203.341 387.327 202.54 387.327 201.619C387.327 200.733 387.131 199.962 386.738 199.305C386.346 198.649 385.792 198.138 385.077 197.771C384.369 197.405 383.534 197.222 382.571 197.222C381.667 197.222 380.815 197.388 380.014 197.72C379.221 198.044 378.574 198.517 378.071 199.139C377.568 199.753 377.295 200.494 377.253 201.364H374.184C374.236 199.991 374.649 198.79 375.425 197.759C376.2 196.719 377.214 195.909 378.467 195.33C379.729 194.75 381.113 194.46 382.622 194.46C384.241 194.46 385.631 194.788 386.79 195.445C387.949 196.092 388.839 196.949 389.461 198.014C390.084 199.08 390.395 200.23 390.395 201.466C390.395 202.94 390.007 204.197 389.231 205.237C388.464 206.277 387.42 206.997 386.099 207.398V207.602C387.753 207.875 389.044 208.578 389.973 209.712C390.902 210.837 391.366 212.23 391.366 213.892C391.366 215.315 390.979 216.594 390.203 217.727C389.436 218.852 388.388 219.739 387.058 220.386C385.729 221.034 384.216 221.358 382.52 221.358ZM404.777 221.358C403.277 221.358 401.926 221.06 400.724 220.463C399.523 219.866 398.559 219.048 397.835 218.009C397.111 216.969 396.714 215.784 396.646 214.455H399.714C399.834 215.639 400.371 216.619 401.325 217.395C402.288 218.162 403.439 218.545 404.777 218.545C405.851 218.545 406.805 218.294 407.64 217.791C408.484 217.288 409.145 216.598 409.622 215.72C410.108 214.834 410.351 213.832 410.351 212.716C410.351 211.574 410.099 210.555 409.596 209.661C409.102 208.757 408.42 208.045 407.551 207.526C406.682 207.006 405.689 206.741 404.572 206.733C403.771 206.724 402.949 206.848 402.105 207.104C401.261 207.351 400.567 207.67 400.021 208.062L397.055 207.705L398.64 194.818H412.243V197.631H401.3L400.379 205.352H400.532C401.069 204.926 401.743 204.572 402.552 204.291C403.362 204.01 404.206 203.869 405.084 203.869C406.686 203.869 408.113 204.253 409.366 205.02C410.628 205.778 411.616 206.818 412.332 208.139C413.057 209.46 413.419 210.969 413.419 212.665C413.419 214.335 413.044 215.827 412.294 217.139C411.552 218.443 410.53 219.474 409.226 220.233C407.922 220.983 406.439 221.358 404.777 221.358ZM431.844 216.091V214.71C431.844 213.756 432.04 212.882 432.432 212.089C432.833 211.288 433.412 210.649 434.171 210.172C434.938 209.686 435.867 209.443 436.958 209.443C438.066 209.443 438.994 209.686 439.744 210.172C440.494 210.649 441.061 211.288 441.445 212.089C441.828 212.882 442.02 213.756 442.02 214.71V216.091C442.02 217.045 441.824 217.923 441.432 218.724C441.048 219.517 440.477 220.156 439.719 220.642C438.969 221.119 438.048 221.358 436.958 221.358C435.85 221.358 434.916 221.119 434.158 220.642C433.399 220.156 432.824 219.517 432.432 218.724C432.04 217.923 431.844 217.045 431.844 216.091ZM434.452 214.71V216.091C434.452 216.884 434.639 217.595 435.014 218.226C435.389 218.848 436.037 219.159 436.958 219.159C437.852 219.159 438.483 218.848 438.85 218.226C439.225 217.595 439.412 216.884 439.412 216.091V214.71C439.412 213.918 439.233 213.21 438.875 212.588C438.517 211.957 437.878 211.642 436.958 211.642C436.063 211.642 435.419 211.957 435.027 212.588C434.644 213.21 434.452 213.918 434.452 214.71ZM418.804 201.108V199.727C418.804 198.773 419 197.899 419.392 197.107C419.793 196.305 420.372 195.666 421.131 195.189C421.898 194.703 422.827 194.46 423.918 194.46C425.026 194.46 425.955 194.703 426.705 195.189C427.455 195.666 428.021 196.305 428.405 197.107C428.789 197.899 428.98 198.773 428.98 199.727V201.108C428.98 202.062 428.784 202.94 428.392 203.741C428.009 204.534 427.438 205.173 426.679 205.659C425.929 206.136 425.009 206.375 423.918 206.375C422.81 206.375 421.877 206.136 421.118 205.659C420.36 205.173 419.784 204.534 419.392 203.741C419 202.94 418.804 202.062 418.804 201.108ZM421.412 199.727V201.108C421.412 201.901 421.6 202.612 421.975 203.243C422.35 203.865 422.997 204.176 423.918 204.176C424.813 204.176 425.443 203.865 425.81 203.243C426.185 202.612 426.372 201.901 426.372 201.108V199.727C426.372 198.935 426.193 198.227 425.835 197.605C425.477 196.974 424.838 196.659 423.918 196.659C423.023 196.659 422.379 196.974 421.987 197.605C421.604 198.227 421.412 198.935 421.412 199.727ZM419.776 221L437.776 194.818H440.691L422.691 221H419.776Z" fill="white"/>
<path d="M232.796 378.192V395.328H235.388V378.192H232.796ZM227.792 384.78V387.264H240.104V384.78H227.792ZM228.764 394.14V409.26H231.14V394.14H228.764ZM230.168 394.14V396.48H236.972V404.544H230.168V406.92H239.384V394.14H230.168ZM243.056 377.796C242.228 383.592 240.752 389.28 238.34 392.988C238.808 393.492 239.708 394.572 239.996 395.076C242.732 390.972 244.46 384.672 245.504 378.192L243.056 377.796ZM242.912 384.78L242.228 387.12H252.56V384.78H242.912ZM248.6 385.716C247.592 397.128 244.928 404.724 237.404 409.08C237.908 409.512 238.808 410.484 239.132 410.952C246.836 406.02 249.788 398.136 251.012 385.896L248.6 385.716ZM243.128 386.4L241.22 387.588C242.012 395.544 243.956 405.732 251.264 410.88C251.624 410.232 252.452 409.26 252.92 408.756C245.792 404.22 243.92 394.32 243.128 386.4ZM226.352 377.976C224.624 383.484 221.78 388.992 218.612 392.592C219.08 393.276 219.8 394.716 220.052 395.328C223.616 391.152 226.82 384.852 228.872 378.66L226.352 377.976ZM223.472 386.796V410.88H225.956V384.42L225.884 384.348L223.472 386.796ZM270.56 377.796V382.584H273.332V377.796H270.56ZM257.132 381V388.164H259.76V383.484H284.312V388.164H287.048V381H257.132ZM261.74 387.084V389.46H282.008V387.084H261.74ZM266.456 392.484C273.44 397.812 273.584 405.948 271.028 407.784C270.308 408.396 269.516 408.468 268.544 408.468C267.716 408.468 266.492 408.432 265.16 408.288C265.628 409.044 265.88 410.16 265.952 410.88C267.068 410.952 268.22 410.988 269.084 410.988C270.704 410.988 271.712 410.736 272.936 409.764C276.644 407.172 276.464 397.128 268.472 391.224L266.456 392.484ZM271.856 387.624C268.58 390.684 262.388 393.132 256.88 394.464C257.348 394.968 258.068 396.084 258.356 396.588C263.972 394.968 270.38 392.196 274.088 388.596L271.856 387.624ZM269.3 394.5C266.636 396.696 261.2 399.252 257.132 400.368C257.672 400.908 258.248 401.844 258.572 402.456C262.712 400.98 268.112 398.172 271.1 395.724L269.3 394.5ZM271.964 398.208C268.58 401.7 261.596 405.444 255.872 406.956C256.376 407.568 256.988 408.54 257.312 409.224C263.072 407.316 270.092 403.356 273.836 399.576L271.964 398.208ZM275.276 388.02L273.044 388.488C275.204 397.524 279.452 404.832 286.544 408.072C286.976 407.316 287.804 406.272 288.416 405.732C281.576 402.996 277.256 396.12 275.276 388.02ZM284.528 390.684C282.476 392.52 278.984 394.968 276.536 396.408L278.228 398.064C280.784 396.696 284.168 394.464 286.616 392.484L284.528 390.684ZM306.488 377.76V407.856C306.488 408.504 306.272 408.72 305.624 408.756C304.976 408.756 302.816 408.792 300.656 408.72C301.016 409.332 301.448 410.34 301.592 410.988C304.616 410.988 306.488 410.952 307.64 410.592C308.756 410.196 309.224 409.548 309.224 407.856V377.76H306.488ZM292.412 380.64V382.872H323.66V380.64H292.412ZM298.748 386.904H317.324V389.496H298.748V386.904ZM296.192 385.032V391.404H320.06V385.032H296.192ZM295.148 393.924V395.94H317.9V407.028H320.6V393.924H295.148ZM291.728 398.424V400.584H324.344V398.424H291.728ZM294.788 403.32V405.408H319.304V403.32H294.788ZM246.221 452.358C244.533 452.358 243.029 452.068 241.708 451.489C240.396 450.909 239.352 450.104 238.576 449.072C237.809 448.033 237.391 446.827 237.323 445.455H240.545C240.613 446.298 240.903 447.027 241.414 447.641C241.925 448.246 242.594 448.714 243.421 449.047C244.248 449.379 245.164 449.545 246.17 449.545C247.295 449.545 248.292 449.349 249.161 448.957C250.031 448.565 250.712 448.02 251.207 447.321C251.701 446.622 251.948 445.812 251.948 444.892C251.948 443.929 251.71 443.081 251.232 442.348C250.755 441.607 250.056 441.027 249.136 440.609C248.215 440.192 247.09 439.983 245.761 439.983H243.664V437.17H245.761C246.8 437.17 247.712 436.983 248.496 436.608C249.289 436.233 249.907 435.705 250.35 435.023C250.802 434.341 251.028 433.54 251.028 432.619C251.028 431.733 250.832 430.962 250.44 430.305C250.048 429.649 249.494 429.138 248.778 428.771C248.07 428.405 247.235 428.222 246.272 428.222C245.369 428.222 244.516 428.388 243.715 428.72C242.923 429.044 242.275 429.517 241.772 430.139C241.269 430.753 240.996 431.494 240.954 432.364H237.886C237.937 430.991 238.35 429.79 239.126 428.759C239.901 427.719 240.915 426.909 242.168 426.33C243.43 425.75 244.815 425.46 246.323 425.46C247.942 425.46 249.332 425.788 250.491 426.445C251.65 427.092 252.54 427.949 253.163 429.014C253.785 430.08 254.096 431.23 254.096 432.466C254.096 433.94 253.708 435.197 252.933 436.237C252.165 437.277 251.121 437.997 249.8 438.398V438.602C251.454 438.875 252.745 439.578 253.674 440.712C254.603 441.837 255.067 443.23 255.067 444.892C255.067 446.315 254.68 447.594 253.904 448.727C253.137 449.852 252.089 450.739 250.759 451.386C249.43 452.034 247.917 452.358 246.221 452.358ZM268.836 452.358C266.91 452.358 265.269 451.834 263.914 450.786C262.559 449.729 261.523 448.199 260.808 446.196C260.092 444.185 259.734 441.756 259.734 438.909C259.734 436.08 260.092 433.663 260.808 431.661C261.532 429.649 262.572 428.115 263.927 427.058C265.29 425.993 266.927 425.46 268.836 425.46C270.745 425.46 272.377 425.993 273.732 427.058C275.096 428.115 276.136 429.649 276.852 431.661C277.576 433.663 277.938 436.08 277.938 438.909C277.938 441.756 277.58 444.185 276.864 446.196C276.148 448.199 275.113 449.729 273.758 450.786C272.403 451.834 270.762 452.358 268.836 452.358ZM268.836 449.545C270.745 449.545 272.228 448.625 273.285 446.784C274.342 444.943 274.87 442.318 274.87 438.909C274.87 436.642 274.627 434.712 274.141 433.118C273.664 431.524 272.974 430.31 272.07 429.474C271.175 428.639 270.097 428.222 268.836 428.222C266.944 428.222 265.465 429.155 264.4 431.021C263.335 432.879 262.802 435.509 262.802 438.909C262.802 441.176 263.04 443.102 263.518 444.688C263.995 446.273 264.681 447.479 265.576 448.305C266.479 449.132 267.566 449.545 268.836 449.545ZM296.143 447.091V445.71C296.143 444.756 296.339 443.882 296.731 443.089C297.131 442.288 297.711 441.649 298.469 441.172C299.237 440.686 300.165 440.443 301.256 440.443C302.364 440.443 303.293 440.686 304.043 441.172C304.793 441.649 305.36 442.288 305.744 443.089C306.127 443.882 306.319 444.756 306.319 445.71V447.091C306.319 448.045 306.123 448.923 305.731 449.724C305.347 450.517 304.776 451.156 304.018 451.642C303.268 452.119 302.347 452.358 301.256 452.358C300.148 452.358 299.215 452.119 298.457 451.642C297.698 451.156 297.123 450.517 296.731 449.724C296.339 448.923 296.143 448.045 296.143 447.091ZM298.751 445.71V447.091C298.751 447.884 298.938 448.595 299.313 449.226C299.688 449.848 300.336 450.159 301.256 450.159C302.151 450.159 302.782 449.848 303.148 449.226C303.523 448.595 303.711 447.884 303.711 447.091V445.71C303.711 444.918 303.532 444.21 303.174 443.588C302.816 442.957 302.177 442.642 301.256 442.642C300.362 442.642 299.718 442.957 299.326 443.588C298.942 444.21 298.751 444.918 298.751 445.71ZM283.103 432.108V430.727C283.103 429.773 283.299 428.899 283.691 428.107C284.092 427.305 284.671 426.666 285.43 426.189C286.197 425.703 287.126 425.46 288.217 425.46C289.325 425.46 290.254 425.703 291.004 426.189C291.754 426.666 292.32 427.305 292.704 428.107C293.087 428.899 293.279 429.773 293.279 430.727V432.108C293.279 433.062 293.083 433.94 292.691 434.741C292.308 435.534 291.737 436.173 290.978 436.659C290.228 437.136 289.308 437.375 288.217 437.375C287.109 437.375 286.175 437.136 285.417 436.659C284.658 436.173 284.083 435.534 283.691 434.741C283.299 433.94 283.103 433.062 283.103 432.108ZM285.711 430.727V432.108C285.711 432.901 285.898 433.612 286.273 434.243C286.648 434.865 287.296 435.176 288.217 435.176C289.112 435.176 289.742 434.865 290.109 434.243C290.484 433.612 290.671 432.901 290.671 432.108V430.727C290.671 429.935 290.492 429.227 290.134 428.605C289.776 427.974 289.137 427.659 288.217 427.659C287.322 427.659 286.678 427.974 286.286 428.605C285.903 429.227 285.711 429.935 285.711 430.727ZM284.075 452L302.075 425.818H304.989L286.989 452H284.075Z" fill="#5E3FBE"/>
<path d="M32.176 257.636V259.652H41.68V257.636H32.176ZM32.176 261.92V263.828H41.68V261.92H32.176ZM32.176 266.168V268.076H41.68V266.168H32.176ZM31.168 257.636V264.152C31.168 266.924 30.88 270.38 28.504 272.936C29.116 273.152 30.124 273.836 30.592 274.232C33.076 271.532 33.508 267.392 33.508 264.188V257.636H31.168ZM40.492 257.636V270.92C40.492 271.352 40.384 271.46 39.916 271.496C39.484 271.532 38.008 271.532 36.316 271.46C36.64 272.108 36.964 273.008 37.072 273.656C39.268 273.656 40.816 273.656 41.716 273.26C42.652 272.9 42.904 272.216 42.904 270.956V257.636H40.492ZM23.788 248.384V250.508H33.4V248.384H23.788ZM40.312 248.384V250.508H50.104V248.384H40.312ZM48.844 243.416V271.532C48.844 272.108 48.628 272.324 48.016 272.36C47.44 272.36 45.568 272.396 43.48 272.324C43.84 273.008 44.236 274.196 44.38 274.88C47.26 274.916 48.988 274.88 50.068 274.412C51.112 273.944 51.508 273.152 51.508 271.532V243.416H48.844ZM23.824 243.416V245.648H32.284V253.352H23.824V255.548H34.84V243.416H23.824ZM50.356 243.416H38.836V255.548H50.356V253.352H41.392V245.648H50.356V243.416ZM22.456 243.416V274.88H25.084V243.416H22.456ZM69.868 258.5V260.804H77.14V258.5H69.868ZM69.868 265.304V267.608H77.752V265.304H69.868ZM78.256 257.384V259.652H87.076V257.384H78.256ZM69.616 243.38V245.684H75.484V252.344H69.616V254.612H77.86V243.38H69.616ZM79.3 243.38V245.72H86.14V252.236H79.3V254.576H88.516V243.38H79.3ZM68.536 243.38V274.772H71.056V243.38H68.536ZM86.464 257.384V257.816C85.168 265.664 81.028 270.704 75.736 272.864C76.24 273.332 76.852 274.268 77.14 274.844C83.08 272.18 87.364 266.96 88.912 257.744L87.4 257.312L86.932 257.384H86.464ZM81.028 259.616L78.976 260.048C80.452 266.564 83.368 272.18 87.976 274.772C88.372 274.16 89.092 273.26 89.668 272.792C85.276 270.632 82.36 265.448 81.028 259.616ZM59.032 244.28V246.692H64.036V265.736H59.032V268.148H66.304V244.28H59.032ZM59.176 254.864V257.276H65.296V254.864H59.176ZM57.664 244.28V271.028H59.896V244.28H57.664ZM104.716 263.684V266.132H125.56V263.684H104.716ZM113.968 245.504H120.808V251.264H113.968V245.504ZM111.52 243.272V253.532H123.364V243.272H111.52ZM106.804 245.144V260.588H109.216V245.144H106.804ZM108.064 256.484V258.896H119.98V264.872H122.572V256.484H108.064ZM113.464 260.552C112.924 266.672 111.34 270.812 103.744 272.864C104.248 273.332 104.932 274.304 105.184 274.88C113.428 272.468 115.372 267.644 116.092 260.552H113.464ZM116.272 264.764L113.968 265.16C115.552 270.128 118.792 273.476 124.048 274.88C124.372 274.16 125.128 273.08 125.74 272.54C120.844 271.532 117.676 268.724 116.272 264.764ZM92.44 249.212V251.732H103.492V249.212H92.44ZM97.372 241.796C96.256 248.6 94.312 258.176 92.872 263.612L95.104 264.836C96.616 258.86 98.668 249.212 99.964 242.048L97.372 241.796ZM94.024 262.244C97.732 264.872 102.088 268.796 104.068 271.532L105.796 269.3C103.78 266.672 99.316 262.928 95.608 260.336L94.024 262.244ZM102.556 249.212V249.752C101.836 262.028 98.416 269.588 92.728 272.72C93.304 273.296 93.988 274.268 94.384 274.916C100.72 270.992 104.212 263.396 105.04 249.356L103.492 249.14L103.024 249.212H102.556ZM129.016 262.352V264.764H160.984V262.352H129.016ZM143.524 259.004V274.808H146.26V259.004H143.524ZM142.3 263.288C139.348 267.104 133.552 270.524 128.296 272.144C128.908 272.684 129.7 273.728 130.132 274.412C135.388 272.504 141.256 268.652 144.532 264.296L142.3 263.288ZM147.52 263.36L145.252 264.44C148.528 268.688 154.396 272.36 159.868 274.16C160.264 273.44 161.092 272.396 161.668 271.856C156.196 270.38 150.436 267.104 147.52 263.36ZM142.12 253.388H147.772V257.348H142.12V253.388ZM142.12 247.448H147.772V251.336H142.12V247.448ZM139.78 245.324V259.472H150.148V245.324H139.78ZM143.992 241.76C143.776 243.056 143.272 244.964 142.84 246.224L144.964 246.692C145.504 245.54 146.116 243.812 146.692 242.192L143.992 241.76ZM129.268 248.78C131.068 250.256 133.192 252.344 134.128 253.784L135.388 251.804C134.452 250.436 132.292 248.42 130.456 247.052L129.268 248.78ZM135.82 254.072C136.864 256.124 137.872 258.896 138.16 260.624L140.068 259.868C139.744 258.212 138.7 255.512 137.62 253.496L135.82 254.072ZM136.72 247.016C135.244 250.292 132.616 254.9 130.528 257.708L132.292 258.536C134.38 255.764 136.936 251.408 138.844 247.844L136.72 247.016ZM133.912 242.012C133.192 244.1 131.824 247.052 130.78 248.888L132.58 249.68C133.696 247.88 134.992 245.144 136.072 242.804L133.912 242.012ZM128.944 257.492L129.232 259.832C131.86 259.4 135.064 258.968 138.376 258.428L138.34 256.484C134.776 256.88 131.392 257.276 128.944 257.492ZM149.932 248.492C151.84 250.148 154 252.488 154.936 254.072L156.34 252.2C155.368 250.688 153.172 248.42 151.3 246.836L149.932 248.492ZM156.628 253.784C157.852 256.052 159.04 259.004 159.4 260.912L161.416 260.084C161.02 258.248 159.76 255.296 158.5 253.1L156.628 253.784ZM157.528 246.98C156.052 250.292 153.316 254.936 151.192 257.78L152.956 258.608C155.116 255.8 157.744 251.408 159.652 247.844L157.528 246.98ZM154.9 241.904C154.18 243.992 152.776 246.944 151.696 248.78L153.496 249.572C154.648 247.772 155.98 245.072 157.096 242.696L154.9 241.904ZM150.076 257.492L150.4 259.832C153.028 259.472 156.304 259.04 159.616 258.608L159.58 256.628C156.016 256.952 152.596 257.276 150.076 257.492ZM56.9368 316V313.699L65.5788 304.239C66.593 303.131 67.4283 302.168 68.0845 301.349C68.7408 300.523 69.2266 299.747 69.5419 299.023C69.8658 298.29 70.0277 297.523 70.0277 296.722C70.0277 295.801 69.8061 295.004 69.3629 294.331C68.9283 293.658 68.3317 293.138 67.5732 292.771C66.8146 292.405 65.9624 292.222 65.0163 292.222C64.0107 292.222 63.1328 292.43 62.3828 292.848C61.6413 293.257 61.0661 293.832 60.657 294.574C60.2564 295.315 60.0561 296.185 60.0561 297.182H57.0391C57.0391 295.648 57.3928 294.301 58.1001 293.142C58.8075 291.983 59.7706 291.08 60.9893 290.432C62.2166 289.784 63.593 289.46 65.1186 289.46C66.6527 289.46 68.0121 289.784 69.1967 290.432C70.3814 291.08 71.3104 291.953 71.9837 293.053C72.657 294.152 72.9936 295.375 72.9936 296.722C72.9936 297.685 72.8189 298.626 72.4695 299.547C72.1286 300.459 71.532 301.477 70.6797 302.602C69.8359 303.719 68.6641 305.082 67.1641 306.693L61.2834 312.983V313.188H73.4538V316H56.9368ZM87.2734 316.358C85.3473 316.358 83.7067 315.834 82.3516 314.786C80.9964 313.729 79.9609 312.199 79.245 310.196C78.5291 308.185 78.1712 305.756 78.1712 302.909C78.1712 300.08 78.5291 297.663 79.245 295.661C79.9695 293.649 81.0092 292.115 82.3643 291.058C83.728 289.993 85.3643 289.46 87.2734 289.46C89.1825 289.46 90.8146 289.993 92.1697 291.058C93.5334 292.115 94.5732 293.649 95.2891 295.661C96.0135 297.663 96.3757 300.08 96.3757 302.909C96.3757 305.756 96.0178 308.185 95.3018 310.196C94.5859 312.199 93.5504 313.729 92.1953 314.786C90.8402 315.834 89.1996 316.358 87.2734 316.358ZM87.2734 313.545C89.1825 313.545 90.6655 312.625 91.7223 310.784C92.7791 308.943 93.3075 306.318 93.3075 302.909C93.3075 300.642 93.0646 298.712 92.5788 297.118C92.1016 295.524 91.4112 294.31 90.5078 293.474C89.6129 292.639 88.5348 292.222 87.2734 292.222C85.3814 292.222 83.9027 293.155 82.8374 295.021C81.772 296.879 81.2393 299.509 81.2393 302.909C81.2393 305.176 81.478 307.102 81.9553 308.688C82.4325 310.273 83.1186 311.479 84.0135 312.305C84.9169 313.132 86.0036 313.545 87.2734 313.545ZM114.58 311.091V309.71C114.58 308.756 114.776 307.882 115.168 307.089C115.569 306.288 116.148 305.649 116.907 305.172C117.674 304.686 118.603 304.443 119.694 304.443C120.802 304.443 121.731 304.686 122.481 305.172C123.231 305.649 123.798 306.288 124.181 307.089C124.565 307.882 124.756 308.756 124.756 309.71V311.091C124.756 312.045 124.56 312.923 124.168 313.724C123.785 314.517 123.214 315.156 122.455 315.642C121.705 316.119 120.785 316.358 119.694 316.358C118.586 316.358 117.653 316.119 116.894 315.642C116.136 315.156 115.56 314.517 115.168 313.724C114.776 312.923 114.58 312.045 114.58 311.091ZM117.188 309.71V311.091C117.188 311.884 117.376 312.595 117.751 313.226C118.126 313.848 118.773 314.159 119.694 314.159C120.589 314.159 121.219 313.848 121.586 313.226C121.961 312.595 122.148 311.884 122.148 311.091V309.71C122.148 308.918 121.969 308.21 121.612 307.588C121.254 306.957 120.614 306.642 119.694 306.642C118.799 306.642 118.156 306.957 117.763 307.588C117.38 308.21 117.188 308.918 117.188 309.71ZM101.54 296.108V294.727C101.54 293.773 101.737 292.899 102.129 292.107C102.529 291.305 103.109 290.666 103.867 290.189C104.634 289.703 105.563 289.46 106.654 289.46C107.762 289.46 108.691 289.703 109.441 290.189C110.191 290.666 110.758 291.305 111.141 292.107C111.525 292.899 111.717 293.773 111.717 294.727V296.108C111.717 297.062 111.521 297.94 111.129 298.741C110.745 299.534 110.174 300.173 109.415 300.659C108.665 301.136 107.745 301.375 106.654 301.375C105.546 301.375 104.613 301.136 103.854 300.659C103.096 300.173 102.521 299.534 102.129 298.741C101.737 297.94 101.54 297.062 101.54 296.108ZM104.148 294.727V296.108C104.148 296.901 104.336 297.612 104.711 298.243C105.086 298.865 105.734 299.176 106.654 299.176C107.549 299.176 108.18 298.865 108.546 298.243C108.921 297.612 109.109 296.901 109.109 296.108V294.727C109.109 293.935 108.93 293.227 108.572 292.605C108.214 291.974 107.575 291.659 106.654 291.659C105.759 291.659 105.116 291.974 104.724 292.605C104.34 293.227 104.148 293.935 104.148 294.727ZM102.512 316L120.512 289.818H123.427L105.427 316H102.512Z" fill="#5E3FBE"/>
<path d="M113.28 89.616V91.416H123.144V89.616H113.28ZM103.224 100.992V102.792H124.776V100.992H103.224ZM112.248 82.2V101.952H114.144V82.2H112.248ZM134.568 84.576V95.52H136.104V84.576H134.568ZM140.664 83.28V84.936H148.584V83.28H140.664ZM139.032 101.424V103.104H149.088V101.424H139.032ZM140.856 92.088V93.72H148.44V92.088H140.856ZM143.688 83.928V102.312H145.392V83.928H143.688ZM138.456 81.84V92.088C138.456 96.408 137.928 100.104 133.752 102.648C134.112 102.96 134.664 103.56 134.88 103.944C139.488 101.112 140.112 96.96 140.112 92.112V81.84H138.456ZM127.008 83.4V85.056H134.112V83.4H127.008ZM127.248 91.128V92.76H133.68V91.128H127.248ZM126.648 100.056L127.032 101.76C129.168 101.112 131.928 100.296 134.592 99.504L134.376 97.896C131.52 98.712 128.64 99.576 126.648 100.056ZM129.696 84.12V99.984L131.376 99.624V84.12H129.696ZM152.496 84.552V86.424H171.6V84.552H152.496ZM151.224 100.296V102.096H172.8V100.296H151.224ZM160.92 85.488V101.04H162.936V85.488H160.92ZM185.688 85.872L184.848 87.6H197.064V85.872H185.688ZM188.688 91.08V92.736H196.512V91.08H188.688ZM188.664 96.36V98.064H196.848V96.36H188.664ZM187.776 86.424V103.92H189.624V86.424H187.776ZM186.6 82.128C185.424 85.656 183.48 89.16 181.296 91.392C181.704 91.68 182.424 92.328 182.688 92.64C184.896 90.168 186.984 86.4 188.352 82.584L186.6 82.128ZM180.84 81.936C179.472 85.584 177.24 89.184 174.84 91.512C175.176 91.944 175.728 92.904 175.896 93.336C178.512 90.648 180.984 86.544 182.568 82.488L180.84 81.936ZM178.272 88.128V103.896H180.096V86.352L180.048 86.328L178.272 88.128ZM135.115 113.545V131H133.001V115.761H132.899L128.638 118.591V116.443L133.001 113.545H135.115ZM145.828 131.239C144.544 131.239 143.45 130.889 142.547 130.19C141.643 129.486 140.953 128.466 140.476 127.131C139.999 125.79 139.76 124.17 139.76 122.273C139.76 120.386 139.999 118.776 140.476 117.44C140.959 116.099 141.652 115.077 142.555 114.372C143.464 113.662 144.555 113.307 145.828 113.307C147.101 113.307 148.189 113.662 149.092 114.372C150.001 115.077 150.695 116.099 151.172 117.44C151.655 118.776 151.896 120.386 151.896 122.273C151.896 124.17 151.658 125.79 151.18 127.131C150.703 128.466 150.013 129.486 149.109 130.19C148.206 130.889 147.112 131.239 145.828 131.239ZM145.828 129.364C147.101 129.364 148.089 128.75 148.794 127.523C149.499 126.295 149.851 124.545 149.851 122.273C149.851 120.761 149.689 119.474 149.365 118.412C149.047 117.349 148.587 116.54 147.984 115.983C147.388 115.426 146.669 115.148 145.828 115.148C144.567 115.148 143.581 115.77 142.871 117.014C142.161 118.253 141.805 120.006 141.805 122.273C141.805 123.784 141.964 125.068 142.283 126.125C142.601 127.182 143.058 127.986 143.655 128.537C144.257 129.088 144.982 129.364 145.828 129.364ZM164.033 127.727V126.807C164.033 126.17 164.163 125.588 164.425 125.06C164.692 124.526 165.078 124.099 165.584 123.781C166.095 123.457 166.714 123.295 167.442 123.295C168.18 123.295 168.8 123.457 169.3 123.781C169.8 124.099 170.178 124.526 170.433 125.06C170.689 125.588 170.817 126.17 170.817 126.807V127.727C170.817 128.364 170.686 128.949 170.425 129.483C170.169 130.011 169.788 130.437 169.283 130.761C168.783 131.08 168.169 131.239 167.442 131.239C166.703 131.239 166.081 131.08 165.575 130.761C165.07 130.437 164.686 130.011 164.425 129.483C164.163 128.949 164.033 128.364 164.033 127.727ZM165.771 126.807V127.727C165.771 128.256 165.896 128.73 166.146 129.151C166.396 129.565 166.828 129.773 167.442 129.773C168.038 129.773 168.459 129.565 168.703 129.151C168.953 128.73 169.078 128.256 169.078 127.727V126.807C169.078 126.278 168.959 125.807 168.72 125.392C168.482 124.972 168.055 124.761 167.442 124.761C166.845 124.761 166.416 124.972 166.155 125.392C165.899 125.807 165.771 126.278 165.771 126.807ZM155.339 117.739V116.818C155.339 116.182 155.47 115.599 155.732 115.071C155.999 114.537 156.385 114.111 156.891 113.793C157.402 113.469 158.021 113.307 158.749 113.307C159.487 113.307 160.107 113.469 160.607 113.793C161.107 114.111 161.484 114.537 161.74 115.071C161.996 115.599 162.124 116.182 162.124 116.818V117.739C162.124 118.375 161.993 118.96 161.732 119.494C161.476 120.023 161.095 120.449 160.589 120.773C160.089 121.091 159.476 121.25 158.749 121.25C158.01 121.25 157.388 121.091 156.882 120.773C156.376 120.449 155.993 120.023 155.732 119.494C155.47 118.96 155.339 118.375 155.339 117.739ZM157.078 116.818V117.739C157.078 118.267 157.203 118.741 157.453 119.162C157.703 119.577 158.135 119.784 158.749 119.784C159.345 119.784 159.766 119.577 160.01 119.162C160.26 118.741 160.385 118.267 160.385 117.739V116.818C160.385 116.29 160.266 115.818 160.027 115.403C159.788 114.983 159.362 114.773 158.749 114.773C158.152 114.773 157.723 114.983 157.462 115.403C157.206 115.818 157.078 116.29 157.078 116.818ZM155.987 131L167.987 113.545H169.93L157.93 131H155.987Z" fill="#5E3FBE"/>
<path d="M216.296 32.104V33.784H237.68V32.104H216.296ZM216.968 19.672V21.328H237.104V19.672H216.968ZM221.864 23.752V25.288H232.16V23.752H221.864ZM221.864 27.904V29.464H232.16V27.904H221.864ZM220.712 16.888V32.848H222.488V16.888H220.712ZM231.44 16.888V32.848H233.264V16.888H231.44ZM228.752 35.464C231.56 36.496 234.416 37.816 236.12 38.824L237.752 37.648C235.88 36.64 232.832 35.32 229.976 34.312L228.752 35.464ZM223.664 34.168C221.96 35.344 218.648 36.76 216.056 37.504C216.44 37.888 216.992 38.512 217.256 38.872C219.848 38.032 223.112 36.64 225.248 35.32L223.664 34.168ZM253.856 16.888V33.568H255.56V16.888H253.856ZM245.504 26.776L246.176 28.36L260.624 22.744L259.928 21.184L245.504 26.776ZM248.528 19.24V35.272C248.528 37.936 249.368 38.608 252.272 38.608C252.92 38.608 257.864 38.608 258.56 38.608C261.224 38.608 261.8 37.528 262.112 34.216C261.584 34.096 260.864 33.784 260.432 33.472C260.24 36.304 259.976 36.976 258.512 36.976C257.456 36.976 253.16 36.976 252.344 36.976C250.64 36.976 250.304 36.664 250.304 35.296V19.24H248.528ZM259.328 21.592C259.328 26.272 259.28 29.416 259.088 30.184C258.92 30.808 258.656 30.904 258.248 30.904C257.936 30.904 257.072 30.904 256.4 30.88C256.616 31.288 256.808 32.032 256.856 32.536C257.576 32.56 258.632 32.536 259.28 32.368C260.024 32.176 260.528 31.72 260.72 30.616C260.96 29.584 261.008 26.128 261.032 21.76L261.104 21.472L259.856 20.944L259.544 21.232L259.112 21.592H259.328ZM245.384 16.936C244.04 20.584 241.808 24.184 239.432 26.512C239.744 26.92 240.248 27.856 240.44 28.264C243.008 25.576 245.48 21.496 247.04 17.464L245.384 16.936ZM242.84 23.128V38.896H244.592V21.4L244.568 21.376L242.84 23.128ZM229.211 66.2386C228.211 66.2386 227.31 66.0398 226.509 65.642C225.708 65.2443 225.066 64.6989 224.583 64.0057C224.1 63.3125 223.836 62.5227 223.79 61.6364H225.836C225.915 62.4261 226.273 63.0795 226.909 63.5966C227.551 64.108 228.319 64.3636 229.211 64.3636C229.926 64.3636 230.563 64.196 231.12 63.8608C231.682 63.5256 232.123 63.0653 232.441 62.4801C232.765 61.8892 232.926 61.2216 232.926 60.4773C232.926 59.7159 232.759 59.0369 232.424 58.4403C232.094 57.8381 231.64 57.3636 231.06 57.017C230.48 56.6705 229.819 56.4943 229.074 56.4886C228.54 56.483 227.992 56.5653 227.429 56.7358C226.867 56.9006 226.404 57.1136 226.04 57.375L224.063 57.1364L225.12 48.5455H234.188V50.4205H226.892L226.279 55.5682H226.381C226.739 55.2841 227.188 55.0483 227.728 54.8608C228.267 54.6733 228.83 54.5795 229.415 54.5795C230.483 54.5795 231.435 54.8352 232.27 55.3466C233.111 55.8523 233.77 56.5455 234.248 57.4261C234.73 58.3068 234.972 59.3125 234.972 60.4432C234.972 61.5568 234.722 62.5511 234.222 63.4261C233.728 64.2955 233.046 64.983 232.176 65.4886C231.307 65.9886 230.319 66.2386 229.211 66.2386ZM247.255 62.7273V61.8068C247.255 61.1705 247.386 60.5881 247.647 60.0597C247.914 59.5256 248.301 59.0994 248.806 58.7812C249.318 58.4574 249.937 58.2955 250.664 58.2955C251.403 58.2955 252.022 58.4574 252.522 58.7812C253.022 59.0994 253.4 59.5256 253.656 60.0597C253.912 60.5881 254.039 61.1705 254.039 61.8068V62.7273C254.039 63.3636 253.909 63.9489 253.647 64.483C253.392 65.0114 253.011 65.4375 252.505 65.7614C252.005 66.0795 251.392 66.2386 250.664 66.2386C249.926 66.2386 249.304 66.0795 248.798 65.7614C248.292 65.4375 247.909 65.0114 247.647 64.483C247.386 63.9489 247.255 63.3636 247.255 62.7273ZM248.994 61.8068V62.7273C248.994 63.2557 249.119 63.7301 249.369 64.1506C249.619 64.5653 250.051 64.7727 250.664 64.7727C251.261 64.7727 251.681 64.5653 251.926 64.1506C252.176 63.7301 252.301 63.2557 252.301 62.7273V61.8068C252.301 61.2784 252.181 60.8068 251.943 60.392C251.704 59.9716 251.278 59.7614 250.664 59.7614C250.068 59.7614 249.639 59.9716 249.377 60.392C249.122 60.8068 248.994 61.2784 248.994 61.8068ZM238.562 52.7386V51.8182C238.562 51.1818 238.693 50.5994 238.954 50.071C239.221 49.5369 239.608 49.1108 240.113 48.7926C240.625 48.4687 241.244 48.3068 241.971 48.3068C242.71 48.3068 243.329 48.4687 243.829 48.7926C244.329 49.1108 244.707 49.5369 244.963 50.071C245.218 50.5994 245.346 51.1818 245.346 51.8182V52.7386C245.346 53.375 245.216 53.9602 244.954 54.4943C244.699 55.0227 244.318 55.4489 243.812 55.7727C243.312 56.0909 242.699 56.25 241.971 56.25C241.233 56.25 240.61 56.0909 240.105 55.7727C239.599 55.4489 239.216 55.0227 238.954 54.4943C238.693 53.9602 238.562 53.375 238.562 52.7386ZM240.301 51.8182V52.7386C240.301 53.267 240.426 53.7415 240.676 54.1619C240.926 54.5767 241.358 54.7841 241.971 54.7841C242.568 54.7841 242.988 54.5767 243.233 54.1619C243.483 53.7415 243.608 53.267 243.608 52.7386V51.8182C243.608 51.2898 243.488 50.8182 243.25 50.4034C243.011 49.983 242.585 49.7727 241.971 49.7727C241.375 49.7727 240.946 49.983 240.684 50.4034C240.429 50.8182 240.301 51.2898 240.301 51.8182ZM239.21 66L251.21 48.5455H253.153L241.153 66H239.21Z" fill="#F4F0FD"/>
</svg>
