<svg width="375" height="667" viewBox="0 0 375 667" fill="none" xmlns="http://www.w3.org/2000/svg">
<g clip-path="url(#clip0_27_94)">
<rect width="375" height="667" fill="white"/>
<rect y="111" width="375" height="556" fill="#C4C4C4" fill-opacity="0.2"/>
<path d="M36.528 89.048C35.792 89.048 35.424 88.848 35.424 88.448V80.552L30.48 73.064C30.336 72.872 30.264 72.712 30.264 72.584C30.264 72.296 30.672 72.152 31.488 72.152H31.992C32.296 72.152 32.536 72.184 32.712 72.248C32.888 72.296 33.024 72.392 33.12 72.536L36.768 78.224L40.488 72.512C40.648 72.272 41.048 72.152 41.688 72.152H42.048C42.784 72.168 43.152 72.312 43.152 72.584C43.152 72.696 43.088 72.856 42.96 73.064L37.992 80.624V88.448C37.992 88.848 37.624 89.048 36.888 89.048H36.528ZM46.5484 89.168C45.3324 89.168 44.3724 88.864 43.6684 88.256C42.9644 87.632 42.6124 86.744 42.6124 85.592C42.6124 83.976 43.2844 82.848 44.6284 82.208C45.9724 81.552 47.8524 81.216 50.2684 81.2V80.168C50.2684 79.608 50.0764 79.16 49.6924 78.824C49.3084 78.488 48.6924 78.32 47.8444 78.32C47.1884 78.32 46.6124 78.4 46.1164 78.56C45.6364 78.704 45.2204 78.864 44.8684 79.04C44.5324 79.2 44.3404 79.28 44.2924 79.28C44.1164 79.28 43.9084 79.096 43.6684 78.728C43.4444 78.344 43.3324 78.056 43.3324 77.864C43.3324 77.64 43.5404 77.408 43.9564 77.168C44.3884 76.912 44.9484 76.704 45.6364 76.544C46.3404 76.368 47.0844 76.28 47.8684 76.28C49.4524 76.28 50.6524 76.624 51.4684 77.312C52.3004 77.984 52.7164 78.92 52.7164 80.12V85.256C52.7164 86.328 52.7644 87.104 52.8604 87.584C52.9564 88.064 53.0044 88.336 53.0044 88.4C53.0044 88.624 52.8044 88.784 52.4044 88.88C52.0204 88.976 51.6604 89.024 51.3244 89.024C51.0684 89.024 50.8844 88.904 50.7724 88.664C50.6764 88.424 50.5964 88.168 50.5324 87.896C50.4844 87.624 50.4524 87.44 50.4364 87.344C50.0044 87.856 49.4604 88.288 48.8044 88.64C48.1644 88.992 47.4124 89.168 46.5484 89.168ZM46.9564 87.104C47.6604 87.104 48.2764 86.96 48.8044 86.672C49.3324 86.384 49.8204 85.992 50.2684 85.496V83.096C48.7164 83.096 47.4764 83.248 46.5484 83.552C45.6204 83.84 45.1564 84.456 45.1564 85.4C45.1564 85.944 45.3084 86.368 45.6124 86.672C45.9324 86.96 46.3804 87.104 46.9564 87.104ZM64.6665 76.4C65.3865 76.4 65.7465 76.544 65.7465 76.832C65.7465 76.912 65.7225 77.04 65.6745 77.216L59.6985 93.464C59.5865 93.8 59.1945 93.968 58.5225 93.968H58.1385C57.4825 93.968 57.1545 93.832 57.1545 93.56C57.1545 93.512 57.1945 93.376 57.2745 93.152L59.1465 88.496L55.0185 77.192C54.9705 77 54.9465 76.88 54.9465 76.832C54.9465 76.544 55.3305 76.4 56.0985 76.4H56.4585C57.0825 76.4 57.4345 76.536 57.5145 76.808L59.6745 82.736C59.8825 83.28 60.1305 84.128 60.4185 85.28H60.4665L60.6585 84.632C60.8825 83.848 61.0745 83.216 61.2345 82.736L63.3465 76.808C63.4265 76.536 63.7945 76.4 64.4505 76.4H64.6665ZM69.4052 89.048C68.6692 89.048 68.3012 88.848 68.3012 88.448V72.992C68.3012 72.72 68.3652 72.52 68.4932 72.392C68.6212 72.264 68.8212 72.2 69.0932 72.2H76.7492C76.9412 72.2 77.0772 72.272 77.1572 72.416C77.2532 72.544 77.3012 72.76 77.3012 73.064V73.544C77.3012 73.848 77.2532 74.072 77.1572 74.216C77.0772 74.344 76.9412 74.408 76.7492 74.408H70.8692V79.856H76.3892C76.5812 79.856 76.7172 79.928 76.7972 80.072C76.8932 80.2 76.9412 80.416 76.9412 80.72V81.2C76.9412 81.504 76.8932 81.728 76.7972 81.872C76.7172 82 76.5812 82.064 76.3892 82.064H70.8692V88.448C70.8692 88.848 70.5012 89.048 69.7652 89.048H69.4052ZM87.8835 84.512C87.5955 84.512 87.3795 84.392 87.2355 84.152L83.3475 77.336C83.2515 77.176 83.0595 76.832 82.7715 76.304L82.6755 76.328C82.7075 76.6 82.7235 77.024 82.7235 77.6V88.448C82.7235 88.848 82.3555 89.048 81.6195 89.048H81.3075C80.5715 89.048 80.2035 88.848 80.2035 88.448V72.752C80.2035 72.352 80.5715 72.152 81.3075 72.152H82.2915C82.8675 72.152 83.2515 72.32 83.4435 72.656L87.8115 80.288C88.0675 80.72 88.2355 81.12 88.3155 81.488C88.4115 81.232 88.6115 80.816 88.9155 80.24L93.2355 72.656C93.4115 72.32 93.7955 72.152 94.3875 72.152H95.2995C96.0355 72.152 96.4035 72.352 96.4035 72.752V88.448C96.4035 88.848 96.0355 89.048 95.2995 89.048H94.9875C94.2515 89.048 93.8835 88.848 93.8835 88.448V77.72C93.8835 77.144 93.8995 76.712 93.9315 76.424L93.8355 76.4C93.6435 76.784 93.4515 77.136 93.2595 77.456L89.4195 84.152C89.2755 84.392 89.0595 84.512 88.7715 84.512H87.8835Z" fill="black"/>
<rect y="111" width="375" height="199" fill="#A7A7A7"/>
<path d="M163.99 219V210.469H166.779C167.705 210.469 168.4 210.66 168.865 211.043C169.334 211.426 169.568 211.992 169.568 212.742C169.568 213.141 169.455 213.494 169.229 213.803C169.002 214.107 168.693 214.344 168.303 214.512C168.764 214.641 169.127 214.887 169.393 215.25C169.662 215.609 169.797 216.039 169.797 216.539C169.797 217.305 169.549 217.906 169.053 218.344C168.557 218.781 167.855 219 166.949 219H163.99ZM165.115 215.01V218.08H166.973C167.496 218.08 167.908 217.945 168.209 217.676C168.514 217.402 168.666 217.027 168.666 216.551C168.666 215.523 168.107 215.01 166.99 215.01H165.115ZM165.115 214.107H166.814C167.307 214.107 167.699 213.984 167.992 213.738C168.289 213.492 168.438 213.158 168.438 212.736C168.438 212.268 168.301 211.928 168.027 211.717C167.754 211.502 167.338 211.395 166.779 211.395H165.115V214.107ZM175.211 219C175.148 218.875 175.098 218.652 175.059 218.332C174.555 218.855 173.953 219.117 173.254 219.117C172.629 219.117 172.115 218.941 171.713 218.59C171.314 218.234 171.115 217.785 171.115 217.242C171.115 216.582 171.365 216.07 171.865 215.707C172.369 215.34 173.076 215.156 173.986 215.156H175.041V214.658C175.041 214.279 174.928 213.979 174.701 213.756C174.475 213.529 174.141 213.416 173.699 213.416C173.312 213.416 172.988 213.514 172.727 213.709C172.465 213.904 172.334 214.141 172.334 214.418H171.244C171.244 214.102 171.355 213.797 171.578 213.504C171.805 213.207 172.109 212.973 172.492 212.801C172.879 212.629 173.303 212.543 173.764 212.543C174.494 212.543 175.066 212.727 175.48 213.094C175.895 213.457 176.109 213.959 176.125 214.6V217.518C176.125 218.1 176.199 218.562 176.348 218.906V219H175.211ZM173.412 218.174C173.752 218.174 174.074 218.086 174.379 217.91C174.684 217.734 174.904 217.506 175.041 217.225V215.924H174.191C172.863 215.924 172.199 216.312 172.199 217.09C172.199 217.43 172.312 217.695 172.539 217.887C172.766 218.078 173.057 218.174 173.412 218.174ZM178.85 212.66L178.885 213.457C179.369 212.848 180.002 212.543 180.783 212.543C182.123 212.543 182.799 213.299 182.811 214.811V219H181.727V214.805C181.723 214.348 181.617 214.01 181.41 213.791C181.207 213.572 180.889 213.463 180.455 213.463C180.104 213.463 179.795 213.557 179.529 213.744C179.264 213.932 179.057 214.178 178.908 214.482V219H177.824V212.66H178.85ZM185.471 212.66L185.506 213.457C185.99 212.848 186.623 212.543 187.404 212.543C188.744 212.543 189.42 213.299 189.432 214.811V219H188.348V214.805C188.344 214.348 188.238 214.01 188.031 213.791C187.828 213.572 187.51 213.463 187.076 213.463C186.725 213.463 186.416 213.557 186.15 213.744C185.885 213.932 185.678 214.178 185.529 214.482V219H184.445V212.66H185.471ZM193.697 219.117C192.838 219.117 192.139 218.836 191.6 218.273C191.061 217.707 190.791 216.951 190.791 216.006V215.807C190.791 215.178 190.91 214.617 191.148 214.125C191.391 213.629 191.727 213.242 192.156 212.965C192.59 212.684 193.059 212.543 193.562 212.543C194.387 212.543 195.027 212.814 195.484 213.357C195.941 213.9 196.17 214.678 196.17 215.689V216.141H191.875C191.891 216.766 192.072 217.271 192.42 217.658C192.771 218.041 193.217 218.232 193.756 218.232C194.139 218.232 194.463 218.154 194.729 217.998C194.994 217.842 195.227 217.635 195.426 217.377L196.088 217.893C195.557 218.709 194.76 219.117 193.697 219.117ZM193.562 213.434C193.125 213.434 192.758 213.594 192.461 213.914C192.164 214.23 191.98 214.676 191.91 215.25H195.086V215.168C195.055 214.617 194.906 214.191 194.641 213.891C194.375 213.586 194.016 213.434 193.562 213.434ZM200.494 213.633C200.33 213.605 200.152 213.592 199.961 213.592C199.25 213.592 198.768 213.895 198.514 214.5V219H197.43V212.66H198.484L198.502 213.393C198.857 212.826 199.361 212.543 200.014 212.543C200.225 212.543 200.385 212.57 200.494 212.625V213.633Z" fill="black"/>
<rect width="375" height="43" fill="#C4C4C4"/>
<path d="M178.504 18.304H174.364V17.788H178.504V18.304ZM178.504 19.312H174.364V18.772H178.504V19.312ZM178.504 20.344H174.364V19.792H178.504V20.344ZM173.524 17.296V20.824H179.368V17.296H176.488L176.704 16.696H180.352V16.048H178.312C178.516 15.784 178.756 15.472 178.972 15.136L178.132 14.944C177.988 15.256 177.688 15.724 177.46 16.048H175.444C175.312 15.724 175.048 15.268 174.772 14.968L174.052 15.148C174.256 15.412 174.46 15.748 174.592 16.048H172.576V16.696H175.864C175.816 16.888 175.768 17.104 175.72 17.296H173.524ZM172.24 16.684C171.904 16.228 171.196 15.616 170.596 15.208L169.996 15.688C170.608 16.12 171.292 16.768 171.604 17.236L172.24 16.684ZM171.64 24.016C172.288 24.412 173.044 25.012 173.392 25.444L174.04 24.88C173.656 24.46 172.888 23.884 172.252 23.5L171.64 24.016ZM177.796 22.06C178.732 22.06 179.632 22.036 180.256 22.012C180.292 21.784 180.412 21.472 180.496 21.292C178.972 21.376 175.876 21.412 174.496 21.364C173.404 21.328 172.504 21.028 172.048 20.332V18.076H169.648V18.772H171.232V20.464C170.68 20.824 170.08 21.172 169.576 21.424L169.936 22.168C170.572 21.76 171.16 21.364 171.748 20.956C172.348 21.688 173.26 22 174.508 22.036C175.108 22.06 176.008 22.072 176.944 22.06V22.792H169.6V23.488H176.944V24.952C176.944 25.108 176.896 25.156 176.692 25.156C176.5 25.168 175.828 25.18 175.06 25.156C175.192 25.372 175.312 25.684 175.36 25.912C176.344 25.912 176.956 25.912 177.328 25.78C177.7 25.66 177.796 25.432 177.796 24.964V23.488H180.412V22.792H177.796V22.06ZM192.304 16.276V15.664H188.668C188.764 15.472 188.848 15.28 188.92 15.088L188.116 14.968C187.876 15.628 187.42 16.396 186.688 16.984C186.868 17.068 187.144 17.308 187.288 17.488C187.72 17.116 188.056 16.708 188.332 16.276H192.304ZM188.152 18.268H188.884V19.144H188.152V18.268ZM189.4 18.268H190.168V19.144H189.4V18.268ZM190.684 18.268H191.452V19.144H190.684V18.268ZM187.504 19.648H192.112V17.776H187.504V19.648ZM188.152 16.744V17.308H191.704V16.744H188.152ZM182.884 18.292H184.132V18.988H182.884V18.292ZM184.132 15.94V16.528H182.884V15.94H184.132ZM185.752 17.752H182.884V17.08H185.752V17.752ZM186.964 18.988H184.864V18.292H186.532V16.528H184.864V15.94H186.868V15.364H182.104V19.564H186.964V18.988ZM184.204 22.792H189.76V23.38H184.204V22.792ZM184.204 21.688H189.76V22.264H184.204V21.688ZM184.204 20.596H189.76V21.16H184.204V20.596ZM189.232 25.06C188.68 25.06 188.584 25.024 188.584 24.748V23.908H190.648V20.056H183.352V23.908H185.068C184.708 24.712 183.832 25.048 181.54 25.216C181.684 25.384 181.888 25.72 181.948 25.912C184.54 25.648 185.56 25.12 185.968 23.908H187.72V24.76C187.72 25.564 188.008 25.768 189.148 25.768H191.212C192.088 25.768 192.352 25.468 192.448 24.244C192.208 24.184 191.872 24.076 191.692 23.956C191.644 24.928 191.572 25.06 191.128 25.06H189.232ZM198.304 18.988C198.1 19.948 197.824 20.812 197.464 21.568C196.912 21.148 196.036 20.572 195.292 20.14C195.496 19.768 195.688 19.384 195.868 18.988H198.304ZM193.756 16.396H195.808C195.412 18.148 194.584 20.116 193.312 21.328C193.492 21.472 193.78 21.748 193.936 21.916C194.272 21.592 194.584 21.22 194.86 20.812C195.628 21.28 196.516 21.88 197.068 22.336C196.288 23.668 195.244 24.64 194.044 25.276C194.248 25.42 194.584 25.756 194.716 25.948C196.924 24.676 198.652 22.24 199.288 18.34L198.736 18.148L198.592 18.172H196.192C196.42 17.584 196.6 16.984 196.744 16.396H199.684V15.58H193.756V16.396ZM201.016 16.336H200.14V22.852H201.016V16.336ZM203.056 15.196V24.76C203.056 24.976 202.96 25.048 202.744 25.06C202.516 25.06 201.784 25.072 200.98 25.048C201.1 25.288 201.232 25.684 201.28 25.924C202.372 25.924 203.02 25.9 203.404 25.768C203.776 25.612 203.932 25.348 203.932 24.748V15.196H203.056Z" fill="black"/>
<path d="M18.86 338.92V343.36H15.96V338.92H18.86ZM15.96 349.28V344.66H18.86V349.28H15.96ZM20.26 337.58H14.6V352.24H15.96V350.62H20.26V337.58ZM21.9 348.78C22.92 349.84 23.98 351.32 24.44 352.3L25.7 351.5C25.24 350.52 24.12 349.1 23.1 348.1L21.9 348.78ZM32.22 343.82V342.5H27.06V339.96H31.36V338.64H27.06V336.26H25.6V338.64H21.44V339.96H25.6V342.5H20.58V343.82H28.24V346.08H20.68V347.4H28.24V352.74C28.24 353.04 28.14 353.12 27.8 353.14C27.48 353.16 26.38 353.16 25.14 353.12C25.36 353.5 25.56 354.1 25.62 354.5C27.24 354.5 28.24 354.48 28.86 354.26C29.46 354.04 29.68 353.6 29.68 352.76V347.4H32V346.08H29.68V343.82H32.22ZM51.84 339.22V337.74H34.18V339.22H41.82V354.5H43.4V343.98C45.68 345.2 48.36 346.84 49.72 347.96L50.76 346.62C49.18 345.42 46.04 343.62 43.66 342.48L43.4 342.78V339.22H51.84ZM59.4 341.42V342.7C59.4 343.78 59.64 344.06 60.7 344.06H61.92C62.7 344.06 63.02 343.72 63.12 342.48C62.8 342.38 62.36 342.24 62.14 342.06C62.1 342.96 62.04 343.06 61.74 343.06H60.86C60.54 343.06 60.52 343.02 60.52 342.7V341.42H62.92V340.3H59.32V338.8H62.28V337.7H59.32V336.36H57.96V337.7H55.06V338.8H57.96V340.3H54.3V341.42H56.62C56.4 342.66 55.74 343.34 53.94 343.74C54.18 343.94 54.5 344.38 54.62 344.66C56.76 344.1 57.54 343.1 57.82 341.42H59.4ZM55.44 354.54C56.44 353.66 57.36 352.2 57.88 350.86L56.52 350.48C55.98 351.8 55.04 353.18 54.06 353.96L55.44 354.54ZM59.86 350.98C60.1 352.08 60.24 353.48 60.26 354.34L61.7 354.16C61.68 353.32 61.5 351.94 61.24 350.86L59.86 350.98ZM63.94 350.96C64.42 352.04 64.88 353.44 65.04 354.32L66.5 354.02C66.34 353.16 65.82 351.76 65.34 350.7L63.94 350.96ZM68.06 350.88C69 352.02 70.06 353.56 70.52 354.54L72 354.02C71.48 353.02 70.38 351.52 69.44 350.42L68.06 350.88ZM70.44 348.44C70.34 348.44 70.24 348.44 70.18 348.38C70.12 348.28 70.1 347.96 70.1 347.46V339.1H66.88C66.92 338.2 66.92 337.26 66.94 336.26H65.58C65.58 337.26 65.56 338.2 65.54 339.1H63.32V340.44H65.48C65.44 341.36 65.36 342.22 65.26 343.02C64.76 342.68 64.26 342.38 63.8 342.1L63.14 343.16C63.74 343.52 64.38 343.96 65 344.42C64.64 346.06 64 347.42 62.92 348.48L62.9 347.66C61.7 347.78 60.48 347.92 59.32 348.02V346.34H62.44V345.2H59.32V343.76H57.96V345.2H54.78V346.34H57.96V348.16C56.5 348.3 55.16 348.42 54.1 348.48L54.24 349.76C56.4 349.54 59.46 349.22 62.46 348.9L62.26 349.04C62.56 349.26 63.02 349.7 63.22 350.02C64.74 348.84 65.64 347.26 66.16 345.28C66.82 345.8 67.4 346.32 67.8 346.74L68.5 345.52C68.02 345.04 67.28 344.44 66.46 343.86C66.64 342.8 66.76 341.66 66.82 340.44H68.74V347.38C68.74 348.72 68.84 349.04 69.1 349.3C69.36 349.54 69.74 349.66 70.1 349.66H70.88C71.22 349.66 71.52 349.58 71.74 349.42C71.98 349.26 72.14 348.98 72.22 348.52C72.3 348.12 72.36 346.86 72.38 345.82C72.04 345.72 71.62 345.52 71.36 345.28C71.36 346.42 71.34 347.3 71.32 347.68C71.28 348.06 71.24 348.26 71.16 348.34C71.08 348.42 70.96 348.44 70.82 348.44H70.44ZM80.6 338.46V340.2H76.36V338.46H80.6ZM76.36 343.26V341.34H80.6V343.26H76.36ZM82 337.2H74.9V354.52H76.36V344.5H82V337.2ZM85.28 343.28V341.34H89.72V343.28H85.28ZM89.72 338.46V340.2H85.28V338.46H89.72ZM91.22 337.2H83.86V344.52H89.72V352.48C89.72 352.88 89.58 352.98 89.22 353C88.8 353.02 87.44 353.04 86.08 352.96C86.3 353.38 86.54 354.08 86.62 354.5C88.42 354.5 89.6 354.46 90.3 354.22C90.96 353.98 91.22 353.5 91.22 352.48V337.2ZM97.6 339.18C98.02 340 98.4 340.98 98.54 341.6L99.8 341.12C99.66 340.6 99.38 339.86 99.02 339.18H102.72V338.02H97.48C97.72 337.54 97.94 337.04 98.12 336.54L96.72 336.18C96.1 337.92 95.02 339.66 93.8 340.82C94.16 341.02 94.74 341.42 95.02 341.64C95.64 340.98 96.28 340.12 96.84 339.18H97.6ZM101.08 343.2V344.74H96.84V343.2H101.08ZM96.84 347.46V345.86H101.08V347.46H96.84ZM99.24 349.62C99.74 350.16 100.22 350.78 100.66 351.42C99.34 351.6 98.04 351.8 96.84 351.98V348.64H102.48V342.02H95.46V352.16C94.9 352.24 94.38 352.3 93.92 352.36L94.14 353.72C96.1 353.42 98.78 353 101.42 352.56C101.72 353.08 101.96 353.56 102.14 353.98L103.38 353.34C102.84 352.12 101.62 350.36 100.4 349.06L99.24 349.62ZM111.2 342H104.16V354.42H105.54V343.36H109.78V350.42C109.78 350.7 109.68 350.8 109.36 350.8C109.06 350.82 107.98 350.82 106.78 350.78C107 351.18 107.2 351.76 107.26 352.18C108.82 352.18 109.82 352.16 110.42 351.92C111.04 351.68 111.2 351.26 111.2 350.44V342ZM105.28 338.02C105.54 337.54 105.76 337.04 105.96 336.54L104.54 336.18C103.9 337.98 102.68 339.64 101.3 340.74C101.64 340.94 102.24 341.36 102.5 341.6C103.24 340.96 103.96 340.12 104.58 339.18H105.98C106.6 340 107.24 341.02 107.48 341.7L108.78 341.2C108.54 340.62 108.08 339.88 107.56 339.18H111.9V338.02H105.28ZM117.68 351.6V348.32H128.14V351.6H117.68ZM128.14 343.62V346.9H117.68V343.62H128.14ZM128.14 338.96V342.2H117.68V338.96H128.14ZM116.22 337.52V354.42H117.68V353.06H128.14V354.42H129.68V337.52H116.22Z" fill="black"/>
<rect x="24" y="382" width="76" height="76" fill="#C4C4C4"/>
<path d="M27.22 467.326C27.514 467.9 27.78 468.586 27.878 469.02L28.76 468.684C28.662 468.32 28.466 467.802 28.214 467.326H30.804V466.514H27.136C27.304 466.178 27.458 465.828 27.584 465.478L26.604 465.226C26.17 466.444 25.414 467.662 24.56 468.474C24.812 468.614 25.218 468.894 25.414 469.048C25.848 468.586 26.296 467.984 26.688 467.326H27.22ZM29.656 470.14V471.218H26.688V470.14H29.656ZM26.688 473.122V472.002H29.656V473.122H26.688ZM28.368 474.634C28.718 475.012 29.054 475.446 29.362 475.894C28.438 476.02 27.528 476.16 26.688 476.286V473.948H30.636V469.314H25.722V476.412C25.33 476.468 24.966 476.51 24.644 476.552L24.798 477.504C26.17 477.294 28.046 477 29.894 476.692C30.104 477.056 30.272 477.392 30.398 477.686L31.266 477.238C30.888 476.384 30.034 475.152 29.18 474.242L28.368 474.634ZM36.74 469.3H31.812V477.994H32.778V470.252H35.746V475.194C35.746 475.39 35.676 475.46 35.452 475.46C35.242 475.474 34.486 475.474 33.646 475.446C33.8 475.726 33.94 476.132 33.982 476.426C35.074 476.426 35.774 476.412 36.194 476.244C36.628 476.076 36.74 475.782 36.74 475.208V469.3ZM32.596 466.514C32.778 466.178 32.932 465.828 33.072 465.478L32.078 465.226C31.63 466.486 30.776 467.648 29.81 468.418C30.048 468.558 30.468 468.852 30.65 469.02C31.168 468.572 31.672 467.984 32.106 467.326H33.086C33.52 467.9 33.968 468.614 34.136 469.09L35.046 468.74C34.878 468.334 34.556 467.816 34.192 467.326H37.23V466.514H32.596ZM41.276 476.02V473.724H48.598V476.02H41.276ZM48.598 470.434V472.73H41.276V470.434H48.598ZM48.598 467.172V469.44H41.276V467.172H48.598ZM40.254 466.164V477.994H41.276V477.042H48.598V477.994H49.676V466.164H40.254ZM57.586 476.552V473.108H63.326V476.552H57.586ZM61.058 467.62C60.456 468.838 59.574 469.944 58.538 470.896C57.894 470.196 56.83 469.3 55.892 468.642C56.256 468.32 56.578 467.97 56.886 467.62H61.058ZM64.376 472.156H58.65C60.274 470.784 61.646 469.062 62.472 466.99L61.786 466.626L61.59 466.682H57.642C57.936 466.276 58.202 465.87 58.44 465.478L57.278 465.24C56.466 466.752 54.87 468.544 52.574 469.79C52.812 469.972 53.162 470.35 53.302 470.588C53.974 470.196 54.576 469.762 55.136 469.314C56.06 470 57.082 470.896 57.698 471.61C56.116 472.856 54.282 473.78 52.504 474.298C52.728 474.494 52.994 474.928 53.12 475.208C54.282 474.83 55.444 474.298 56.564 473.64V478.064H57.586V477.504H63.326V478.092H64.376V472.156ZM71.502 472.842C71.236 472.506 70.088 471.302 69.696 470.952V470.266H71.404V469.426C71.642 469.552 71.936 469.706 72.076 469.804C72.58 469.104 73.056 468.068 73.406 466.99C75.128 466.836 77.074 466.584 78.46 466.234L77.676 465.506C76.668 465.758 74.988 466.024 73.406 466.192L72.622 466.024C72.314 467.242 71.824 468.46 71.18 469.3H69.696V466.892C70.326 466.724 70.928 466.542 71.418 466.318L70.634 465.59C69.724 466.038 68.058 466.43 66.602 466.682C66.728 466.892 66.868 467.228 66.91 467.452C67.484 467.368 68.114 467.256 68.716 467.13V469.3H66.672V470.266H68.548C68.1 471.848 67.274 473.682 66.504 474.676C66.686 474.928 66.938 475.334 67.05 475.628C67.638 474.774 68.24 473.43 68.716 472.058V478.092H69.696V471.96C70.144 472.52 70.676 473.248 70.886 473.626L71.502 472.842ZM77.102 467.004C77.676 467.816 78.264 468.964 78.516 469.692L79.412 469.286C79.146 468.558 78.544 467.48 77.956 466.668L77.102 467.004ZM76.01 468.978C75.926 468.446 75.66 467.648 75.352 467.06L74.484 467.284C74.778 467.9 75.03 468.712 75.086 469.23L76.01 468.978ZM75.814 474.466V473.122H77.788V474.466H75.814ZM73.028 473.122H74.862V474.466H73.028V473.122ZM74.862 471.022V472.338H73.028V471.022H74.862ZM77.788 471.022V472.338H75.814V471.022H77.788ZM79.524 474.466H78.754V470.182H75.814V469.272H74.862V470.182H72.076V474.466H71.082V475.334H72.076V478.05H73.028V475.334H77.788V476.944C77.788 477.112 77.718 477.154 77.536 477.168C77.368 477.168 76.766 477.182 76.108 477.154C76.248 477.392 76.416 477.798 76.472 478.064C77.354 478.064 77.914 478.05 78.264 477.896C78.642 477.742 78.754 477.448 78.754 476.944V475.334H79.524V474.466Z" fill="black"/>
<path d="M30.468 492.652V489.7H34.236V488.848H30.468V486.22H34.728V485.344H30.852L31.416 484.936C30.948 484.372 29.988 483.556 29.22 483.004L28.5 483.508C29.22 484.036 30.072 484.792 30.54 485.344H25.272V486.22H29.52V488.848H25.824V489.7H29.52V492.652H24.72V493.528H35.328V492.652H30.468ZM40.092 488.176L38.904 488.548V486.196H40.164V485.368H38.904V482.968H38.076V485.368H36.54V486.196H38.076V488.788C37.428 488.992 36.84 489.172 36.372 489.304L36.6 490.156C37.044 490.024 37.548 489.868 38.076 489.688V492.844C38.076 493.012 38.016 493.06 37.86 493.06C37.728 493.072 37.26 493.072 36.744 493.048C36.864 493.3 36.972 493.66 37.008 493.888C37.764 493.9 38.22 493.864 38.496 493.72C38.796 493.576 38.904 493.336 38.904 492.844V489.412L40.212 488.992L40.092 488.176ZM41.376 490.552C41.892 491.176 42.468 492.076 42.684 492.652L43.428 492.208C43.176 491.632 42.588 490.768 42.06 490.144L41.376 490.552ZM47.484 487.672V486.844H44.352V485.32H46.908V484.504H44.352V483.016H43.5V484.504H40.956V485.32H43.5V486.844H40.344V487.672H45.084V488.992H40.488V489.808H45.084V492.832C45.084 493 45.036 493.048 44.844 493.06C44.676 493.072 44.04 493.072 43.368 493.048C43.488 493.3 43.608 493.648 43.644 493.912C44.52 493.912 45.108 493.9 45.468 493.756C45.816 493.624 45.936 493.384 45.936 492.832V489.808H47.412V488.992H45.936V487.672H47.484ZM53.388 483.328C53.304 484.912 53.304 490.636 48.444 493.12C48.72 493.3 49.008 493.588 49.164 493.804C52.2 492.16 53.436 489.268 53.964 486.868C54.54 489.268 55.86 492.34 58.956 493.804C59.088 493.564 59.364 493.264 59.616 493.072C55.104 491.008 54.456 485.464 54.348 483.88C54.36 483.676 54.36 483.484 54.372 483.328H53.388Z" fill="black"/>
<rect x="126" y="382" width="76" height="76" fill="#C4C4C4"/>
<path d="M129.22 467.326C129.514 467.9 129.78 468.586 129.878 469.02L130.76 468.684C130.662 468.32 130.466 467.802 130.214 467.326H132.804V466.514H129.136C129.304 466.178 129.458 465.828 129.584 465.478L128.604 465.226C128.17 466.444 127.414 467.662 126.56 468.474C126.812 468.614 127.218 468.894 127.414 469.048C127.848 468.586 128.296 467.984 128.688 467.326H129.22ZM131.656 470.14V471.218H128.688V470.14H131.656ZM128.688 473.122V472.002H131.656V473.122H128.688ZM130.368 474.634C130.718 475.012 131.054 475.446 131.362 475.894C130.438 476.02 129.528 476.16 128.688 476.286V473.948H132.636V469.314H127.722V476.412C127.33 476.468 126.966 476.51 126.644 476.552L126.798 477.504C128.17 477.294 130.046 477 131.894 476.692C132.104 477.056 132.272 477.392 132.398 477.686L133.266 477.238C132.888 476.384 132.034 475.152 131.18 474.242L130.368 474.634ZM138.74 469.3H133.812V477.994H134.778V470.252H137.746V475.194C137.746 475.39 137.676 475.46 137.452 475.46C137.242 475.474 136.486 475.474 135.646 475.446C135.8 475.726 135.94 476.132 135.982 476.426C137.074 476.426 137.774 476.412 138.194 476.244C138.628 476.076 138.74 475.782 138.74 475.208V469.3ZM134.596 466.514C134.778 466.178 134.932 465.828 135.072 465.478L134.078 465.226C133.63 466.486 132.776 467.648 131.81 468.418C132.048 468.558 132.468 468.852 132.65 469.02C133.168 468.572 133.672 467.984 134.106 467.326H135.086C135.52 467.9 135.968 468.614 136.136 469.09L137.046 468.74C136.878 468.334 136.556 467.816 136.192 467.326H139.23V466.514H134.596ZM143.276 476.02V473.724H150.598V476.02H143.276ZM150.598 470.434V472.73H143.276V470.434H150.598ZM150.598 467.172V469.44H143.276V467.172H150.598ZM142.254 466.164V477.994H143.276V477.042H150.598V477.994H151.676V466.164H142.254ZM159.586 476.552V473.108H165.326V476.552H159.586ZM163.058 467.62C162.456 468.838 161.574 469.944 160.538 470.896C159.894 470.196 158.83 469.3 157.892 468.642C158.256 468.32 158.578 467.97 158.886 467.62H163.058ZM166.376 472.156H160.65C162.274 470.784 163.646 469.062 164.472 466.99L163.786 466.626L163.59 466.682H159.642C159.936 466.276 160.202 465.87 160.44 465.478L159.278 465.24C158.466 466.752 156.87 468.544 154.574 469.79C154.812 469.972 155.162 470.35 155.302 470.588C155.974 470.196 156.576 469.762 157.136 469.314C158.06 470 159.082 470.896 159.698 471.61C158.116 472.856 156.282 473.78 154.504 474.298C154.728 474.494 154.994 474.928 155.12 475.208C156.282 474.83 157.444 474.298 158.564 473.64V478.064H159.586V477.504H165.326V478.092H166.376V472.156ZM173.502 472.842C173.236 472.506 172.088 471.302 171.696 470.952V470.266H173.404V469.426C173.642 469.552 173.936 469.706 174.076 469.804C174.58 469.104 175.056 468.068 175.406 466.99C177.128 466.836 179.074 466.584 180.46 466.234L179.676 465.506C178.668 465.758 176.988 466.024 175.406 466.192L174.622 466.024C174.314 467.242 173.824 468.46 173.18 469.3H171.696V466.892C172.326 466.724 172.928 466.542 173.418 466.318L172.634 465.59C171.724 466.038 170.058 466.43 168.602 466.682C168.728 466.892 168.868 467.228 168.91 467.452C169.484 467.368 170.114 467.256 170.716 467.13V469.3H168.672V470.266H170.548C170.1 471.848 169.274 473.682 168.504 474.676C168.686 474.928 168.938 475.334 169.05 475.628C169.638 474.774 170.24 473.43 170.716 472.058V478.092H171.696V471.96C172.144 472.52 172.676 473.248 172.886 473.626L173.502 472.842ZM179.102 467.004C179.676 467.816 180.264 468.964 180.516 469.692L181.412 469.286C181.146 468.558 180.544 467.48 179.956 466.668L179.102 467.004ZM178.01 468.978C177.926 468.446 177.66 467.648 177.352 467.06L176.484 467.284C176.778 467.9 177.03 468.712 177.086 469.23L178.01 468.978ZM177.814 474.466V473.122H179.788V474.466H177.814ZM175.028 473.122H176.862V474.466H175.028V473.122ZM176.862 471.022V472.338H175.028V471.022H176.862ZM179.788 471.022V472.338H177.814V471.022H179.788ZM181.524 474.466H180.754V470.182H177.814V469.272H176.862V470.182H174.076V474.466H173.082V475.334H174.076V478.05H175.028V475.334H179.788V476.944C179.788 477.112 179.718 477.154 179.536 477.168C179.368 477.168 178.766 477.182 178.108 477.154C178.248 477.392 178.416 477.798 178.472 478.064C179.354 478.064 179.914 478.05 180.264 477.896C180.642 477.742 180.754 477.448 180.754 476.944V475.334H181.524V474.466Z" fill="black"/>
<path d="M132.468 492.652V489.7H136.236V488.848H132.468V486.22H136.728V485.344H132.852L133.416 484.936C132.948 484.372 131.988 483.556 131.22 483.004L130.5 483.508C131.22 484.036 132.072 484.792 132.54 485.344H127.272V486.22H131.52V488.848H127.824V489.7H131.52V492.652H126.72V493.528H137.328V492.652H132.468ZM142.092 488.176L140.904 488.548V486.196H142.164V485.368H140.904V482.968H140.076V485.368H138.54V486.196H140.076V488.788C139.428 488.992 138.84 489.172 138.372 489.304L138.6 490.156C139.044 490.024 139.548 489.868 140.076 489.688V492.844C140.076 493.012 140.016 493.06 139.86 493.06C139.728 493.072 139.26 493.072 138.744 493.048C138.864 493.3 138.972 493.66 139.008 493.888C139.764 493.9 140.22 493.864 140.496 493.72C140.796 493.576 140.904 493.336 140.904 492.844V489.412L142.212 488.992L142.092 488.176ZM143.376 490.552C143.892 491.176 144.468 492.076 144.684 492.652L145.428 492.208C145.176 491.632 144.588 490.768 144.06 490.144L143.376 490.552ZM149.484 487.672V486.844H146.352V485.32H148.908V484.504H146.352V483.016H145.5V484.504H142.956V485.32H145.5V486.844H142.344V487.672H147.084V488.992H142.488V489.808H147.084V492.832C147.084 493 147.036 493.048 146.844 493.06C146.676 493.072 146.04 493.072 145.368 493.048C145.488 493.3 145.608 493.648 145.644 493.912C146.52 493.912 147.108 493.9 147.468 493.756C147.816 493.624 147.936 493.384 147.936 492.832V489.808H149.412V488.992H147.936V487.672H149.484ZM155.388 483.328C155.304 484.912 155.304 490.636 150.444 493.12C150.72 493.3 151.008 493.588 151.164 493.804C154.2 492.16 155.436 489.268 155.964 486.868C156.54 489.268 157.86 492.34 160.956 493.804C161.088 493.564 161.364 493.264 161.616 493.072C157.104 491.008 156.456 485.464 156.348 483.88C156.36 483.676 156.36 483.484 156.372 483.328H155.388Z" fill="black"/>
<rect x="228" y="382" width="76" height="76" fill="#C4C4C4"/>
<path d="M231.22 467.326C231.514 467.9 231.78 468.586 231.878 469.02L232.76 468.684C232.662 468.32 232.466 467.802 232.214 467.326H234.804V466.514H231.136C231.304 466.178 231.458 465.828 231.584 465.478L230.604 465.226C230.17 466.444 229.414 467.662 228.56 468.474C228.812 468.614 229.218 468.894 229.414 469.048C229.848 468.586 230.296 467.984 230.688 467.326H231.22ZM233.656 470.14V471.218H230.688V470.14H233.656ZM230.688 473.122V472.002H233.656V473.122H230.688ZM232.368 474.634C232.718 475.012 233.054 475.446 233.362 475.894C232.438 476.02 231.528 476.16 230.688 476.286V473.948H234.636V469.314H229.722V476.412C229.33 476.468 228.966 476.51 228.644 476.552L228.798 477.504C230.17 477.294 232.046 477 233.894 476.692C234.104 477.056 234.272 477.392 234.398 477.686L235.266 477.238C234.888 476.384 234.034 475.152 233.18 474.242L232.368 474.634ZM240.74 469.3H235.812V477.994H236.778V470.252H239.746V475.194C239.746 475.39 239.676 475.46 239.452 475.46C239.242 475.474 238.486 475.474 237.646 475.446C237.8 475.726 237.94 476.132 237.982 476.426C239.074 476.426 239.774 476.412 240.194 476.244C240.628 476.076 240.74 475.782 240.74 475.208V469.3ZM236.596 466.514C236.778 466.178 236.932 465.828 237.072 465.478L236.078 465.226C235.63 466.486 234.776 467.648 233.81 468.418C234.048 468.558 234.468 468.852 234.65 469.02C235.168 468.572 235.672 467.984 236.106 467.326H237.086C237.52 467.9 237.968 468.614 238.136 469.09L239.046 468.74C238.878 468.334 238.556 467.816 238.192 467.326H241.23V466.514H236.596ZM245.276 476.02V473.724H252.598V476.02H245.276ZM252.598 470.434V472.73H245.276V470.434H252.598ZM252.598 467.172V469.44H245.276V467.172H252.598ZM244.254 466.164V477.994H245.276V477.042H252.598V477.994H253.676V466.164H244.254ZM261.586 476.552V473.108H267.326V476.552H261.586ZM265.058 467.62C264.456 468.838 263.574 469.944 262.538 470.896C261.894 470.196 260.83 469.3 259.892 468.642C260.256 468.32 260.578 467.97 260.886 467.62H265.058ZM268.376 472.156H262.65C264.274 470.784 265.646 469.062 266.472 466.99L265.786 466.626L265.59 466.682H261.642C261.936 466.276 262.202 465.87 262.44 465.478L261.278 465.24C260.466 466.752 258.87 468.544 256.574 469.79C256.812 469.972 257.162 470.35 257.302 470.588C257.974 470.196 258.576 469.762 259.136 469.314C260.06 470 261.082 470.896 261.698 471.61C260.116 472.856 258.282 473.78 256.504 474.298C256.728 474.494 256.994 474.928 257.12 475.208C258.282 474.83 259.444 474.298 260.564 473.64V478.064H261.586V477.504H267.326V478.092H268.376V472.156ZM275.502 472.842C275.236 472.506 274.088 471.302 273.696 470.952V470.266H275.404V469.426C275.642 469.552 275.936 469.706 276.076 469.804C276.58 469.104 277.056 468.068 277.406 466.99C279.128 466.836 281.074 466.584 282.46 466.234L281.676 465.506C280.668 465.758 278.988 466.024 277.406 466.192L276.622 466.024C276.314 467.242 275.824 468.46 275.18 469.3H273.696V466.892C274.326 466.724 274.928 466.542 275.418 466.318L274.634 465.59C273.724 466.038 272.058 466.43 270.602 466.682C270.728 466.892 270.868 467.228 270.91 467.452C271.484 467.368 272.114 467.256 272.716 467.13V469.3H270.672V470.266H272.548C272.1 471.848 271.274 473.682 270.504 474.676C270.686 474.928 270.938 475.334 271.05 475.628C271.638 474.774 272.24 473.43 272.716 472.058V478.092H273.696V471.96C274.144 472.52 274.676 473.248 274.886 473.626L275.502 472.842ZM281.102 467.004C281.676 467.816 282.264 468.964 282.516 469.692L283.412 469.286C283.146 468.558 282.544 467.48 281.956 466.668L281.102 467.004ZM280.01 468.978C279.926 468.446 279.66 467.648 279.352 467.06L278.484 467.284C278.778 467.9 279.03 468.712 279.086 469.23L280.01 468.978ZM279.814 474.466V473.122H281.788V474.466H279.814ZM277.028 473.122H278.862V474.466H277.028V473.122ZM278.862 471.022V472.338H277.028V471.022H278.862ZM281.788 471.022V472.338H279.814V471.022H281.788ZM283.524 474.466H282.754V470.182H279.814V469.272H278.862V470.182H276.076V474.466H275.082V475.334H276.076V478.05H277.028V475.334H281.788V476.944C281.788 477.112 281.718 477.154 281.536 477.168C281.368 477.168 280.766 477.182 280.108 477.154C280.248 477.392 280.416 477.798 280.472 478.064C281.354 478.064 281.914 478.05 282.264 477.896C282.642 477.742 282.754 477.448 282.754 476.944V475.334H283.524V474.466Z" fill="black"/>
<path d="M234.468 492.652V489.7H238.236V488.848H234.468V486.22H238.728V485.344H234.852L235.416 484.936C234.948 484.372 233.988 483.556 233.22 483.004L232.5 483.508C233.22 484.036 234.072 484.792 234.54 485.344H229.272V486.22H233.52V488.848H229.824V489.7H233.52V492.652H228.72V493.528H239.328V492.652H234.468ZM244.092 488.176L242.904 488.548V486.196H244.164V485.368H242.904V482.968H242.076V485.368H240.54V486.196H242.076V488.788C241.428 488.992 240.84 489.172 240.372 489.304L240.6 490.156C241.044 490.024 241.548 489.868 242.076 489.688V492.844C242.076 493.012 242.016 493.06 241.86 493.06C241.728 493.072 241.26 493.072 240.744 493.048C240.864 493.3 240.972 493.66 241.008 493.888C241.764 493.9 242.22 493.864 242.496 493.72C242.796 493.576 242.904 493.336 242.904 492.844V489.412L244.212 488.992L244.092 488.176ZM245.376 490.552C245.892 491.176 246.468 492.076 246.684 492.652L247.428 492.208C247.176 491.632 246.588 490.768 246.06 490.144L245.376 490.552ZM251.484 487.672V486.844H248.352V485.32H250.908V484.504H248.352V483.016H247.5V484.504H244.956V485.32H247.5V486.844H244.344V487.672H249.084V488.992H244.488V489.808H249.084V492.832C249.084 493 249.036 493.048 248.844 493.06C248.676 493.072 248.04 493.072 247.368 493.048C247.488 493.3 247.608 493.648 247.644 493.912C248.52 493.912 249.108 493.9 249.468 493.756C249.816 493.624 249.936 493.384 249.936 492.832V489.808H251.412V488.992H249.936V487.672H251.484ZM257.388 483.328C257.304 484.912 257.304 490.636 252.444 493.12C252.72 493.3 253.008 493.588 253.164 493.804C256.2 492.16 257.436 489.268 257.964 486.868C258.54 489.268 259.86 492.34 262.956 493.804C263.088 493.564 263.364 493.264 263.616 493.072C259.104 491.008 258.456 485.464 258.348 483.88C258.36 483.676 258.36 483.484 258.372 483.328H257.388Z" fill="black"/>
<rect x="330" y="382" width="76" height="76" fill="#C4C4C4"/>
<path d="M333.22 467.326C333.514 467.9 333.78 468.586 333.878 469.02L334.76 468.684C334.662 468.32 334.466 467.802 334.214 467.326H336.804V466.514H333.136C333.304 466.178 333.458 465.828 333.584 465.478L332.604 465.226C332.17 466.444 331.414 467.662 330.56 468.474C330.812 468.614 331.218 468.894 331.414 469.048C331.848 468.586 332.296 467.984 332.688 467.326H333.22ZM335.656 470.14V471.218H332.688V470.14H335.656ZM332.688 473.122V472.002H335.656V473.122H332.688ZM334.368 474.634C334.718 475.012 335.054 475.446 335.362 475.894C334.438 476.02 333.528 476.16 332.688 476.286V473.948H336.636V469.314H331.722V476.412C331.33 476.468 330.966 476.51 330.644 476.552L330.798 477.504C332.17 477.294 334.046 477 335.894 476.692C336.104 477.056 336.272 477.392 336.398 477.686L337.266 477.238C336.888 476.384 336.034 475.152 335.18 474.242L334.368 474.634ZM342.74 469.3H337.812V477.994H338.778V470.252H341.746V475.194C341.746 475.39 341.676 475.46 341.452 475.46C341.242 475.474 340.486 475.474 339.646 475.446C339.8 475.726 339.94 476.132 339.982 476.426C341.074 476.426 341.774 476.412 342.194 476.244C342.628 476.076 342.74 475.782 342.74 475.208V469.3ZM338.596 466.514C338.778 466.178 338.932 465.828 339.072 465.478L338.078 465.226C337.63 466.486 336.776 467.648 335.81 468.418C336.048 468.558 336.468 468.852 336.65 469.02C337.168 468.572 337.672 467.984 338.106 467.326H339.086C339.52 467.9 339.968 468.614 340.136 469.09L341.046 468.74C340.878 468.334 340.556 467.816 340.192 467.326H343.23V466.514H338.596ZM347.276 476.02V473.724H354.598V476.02H347.276ZM354.598 470.434V472.73H347.276V470.434H354.598ZM354.598 467.172V469.44H347.276V467.172H354.598ZM346.254 466.164V477.994H347.276V477.042H354.598V477.994H355.676V466.164H346.254ZM363.586 476.552V473.108H369.326V476.552H363.586ZM367.058 467.62C366.456 468.838 365.574 469.944 364.538 470.896C363.894 470.196 362.83 469.3 361.892 468.642C362.256 468.32 362.578 467.97 362.886 467.62H367.058ZM370.376 472.156H364.65C366.274 470.784 367.646 469.062 368.472 466.99L367.786 466.626L367.59 466.682H363.642C363.936 466.276 364.202 465.87 364.44 465.478L363.278 465.24C362.466 466.752 360.87 468.544 358.574 469.79C358.812 469.972 359.162 470.35 359.302 470.588C359.974 470.196 360.576 469.762 361.136 469.314C362.06 470 363.082 470.896 363.698 471.61C362.116 472.856 360.282 473.78 358.504 474.298C358.728 474.494 358.994 474.928 359.12 475.208C360.282 474.83 361.444 474.298 362.564 473.64V478.064H363.586V477.504H369.326V478.092H370.376V472.156ZM377.502 472.842C377.236 472.506 376.088 471.302 375.696 470.952V470.266H377.404V469.426C377.642 469.552 377.936 469.706 378.076 469.804C378.58 469.104 379.056 468.068 379.406 466.99C381.128 466.836 383.074 466.584 384.46 466.234L383.676 465.506C382.668 465.758 380.988 466.024 379.406 466.192L378.622 466.024C378.314 467.242 377.824 468.46 377.18 469.3H375.696V466.892C376.326 466.724 376.928 466.542 377.418 466.318L376.634 465.59C375.724 466.038 374.058 466.43 372.602 466.682C372.728 466.892 372.868 467.228 372.91 467.452C373.484 467.368 374.114 467.256 374.716 467.13V469.3H372.672V470.266H374.548C374.1 471.848 373.274 473.682 372.504 474.676C372.686 474.928 372.938 475.334 373.05 475.628C373.638 474.774 374.24 473.43 374.716 472.058V478.092H375.696V471.96C376.144 472.52 376.676 473.248 376.886 473.626L377.502 472.842ZM383.102 467.004C383.676 467.816 384.264 468.964 384.516 469.692L385.412 469.286C385.146 468.558 384.544 467.48 383.956 466.668L383.102 467.004ZM382.01 468.978C381.926 468.446 381.66 467.648 381.352 467.06L380.484 467.284C380.778 467.9 381.03 468.712 381.086 469.23L382.01 468.978ZM381.814 474.466V473.122H383.788V474.466H381.814ZM379.028 473.122H380.862V474.466H379.028V473.122ZM380.862 471.022V472.338H379.028V471.022H380.862ZM383.788 471.022V472.338H381.814V471.022H383.788ZM385.524 474.466H384.754V470.182H381.814V469.272H380.862V470.182H378.076V474.466H377.082V475.334H378.076V478.05H379.028V475.334H383.788V476.944C383.788 477.112 383.718 477.154 383.536 477.168C383.368 477.168 382.766 477.182 382.108 477.154C382.248 477.392 382.416 477.798 382.472 478.064C383.354 478.064 383.914 478.05 384.264 477.896C384.642 477.742 384.754 477.448 384.754 476.944V475.334H385.524V474.466Z" fill="black"/>
<path d="M336.468 492.652V489.7H340.236V488.848H336.468V486.22H340.728V485.344H336.852L337.416 484.936C336.948 484.372 335.988 483.556 335.22 483.004L334.5 483.508C335.22 484.036 336.072 484.792 336.54 485.344H331.272V486.22H335.52V488.848H331.824V489.7H335.52V492.652H330.72V493.528H341.328V492.652H336.468ZM346.092 488.176L344.904 488.548V486.196H346.164V485.368H344.904V482.968H344.076V485.368H342.54V486.196H344.076V488.788C343.428 488.992 342.84 489.172 342.372 489.304L342.6 490.156C343.044 490.024 343.548 489.868 344.076 489.688V492.844C344.076 493.012 344.016 493.06 343.86 493.06C343.728 493.072 343.26 493.072 342.744 493.048C342.864 493.3 342.972 493.66 343.008 493.888C343.764 493.9 344.22 493.864 344.496 493.72C344.796 493.576 344.904 493.336 344.904 492.844V489.412L346.212 488.992L346.092 488.176ZM347.376 490.552C347.892 491.176 348.468 492.076 348.684 492.652L349.428 492.208C349.176 491.632 348.588 490.768 348.06 490.144L347.376 490.552ZM353.484 487.672V486.844H350.352V485.32H352.908V484.504H350.352V483.016H349.5V484.504H346.956V485.32H349.5V486.844H346.344V487.672H351.084V488.992H346.488V489.808H351.084V492.832C351.084 493 351.036 493.048 350.844 493.06C350.676 493.072 350.04 493.072 349.368 493.048C349.488 493.3 349.608 493.648 349.644 493.912C350.52 493.912 351.108 493.9 351.468 493.756C351.816 493.624 351.936 493.384 351.936 492.832V489.808H353.412V488.992H351.936V487.672H353.484ZM359.388 483.328C359.304 484.912 359.304 490.636 354.444 493.12C354.72 493.3 355.008 493.588 355.164 493.804C358.2 492.16 359.436 489.268 359.964 486.868C360.54 489.268 361.86 492.34 364.956 493.804C365.088 493.564 365.364 493.264 365.616 493.072C361.104 491.008 360.456 485.464 360.348 483.88C360.36 483.676 360.36 483.484 360.372 483.328H359.388Z" fill="black"/>
<path d="M21.98 522.88C21.84 525.52 21.84 535.06 13.74 539.2C14.2 539.5 14.68 539.98 14.94 540.34C20 537.6 22.06 532.78 22.94 528.78C23.9 532.78 26.1 537.9 31.26 540.34C31.48 539.94 31.94 539.44 32.36 539.12C24.84 535.68 23.76 526.44 23.58 523.8C23.6 523.46 23.6 523.14 23.62 522.88H21.98ZM51.36 525.28V524.1H39.14C39.4 523.62 39.62 523.14 39.82 522.64L38.28 522.24C37.36 524.62 35.72 526.86 33.86 528.28C34.24 528.52 34.92 528.96 35.24 529.24C36.38 528.22 37.52 526.84 38.48 525.28H51.36ZM49.86 527.68V526.56H37.98V527.68H49.86ZM41.4 530.6H40V534.1H34.66V535.3H39C37.76 536.82 35.82 538.3 34.14 539.04C34.44 539.3 34.86 539.8 35.08 540.12C36.76 539.24 38.68 537.66 40 535.96V540.5H41.4V536.8C42.92 537.72 44.56 538.86 45.44 539.66L46.42 538.72C45.32 537.78 43.14 536.4 41.46 535.48L41.4 535.54V535.3H46.64V534.1H41.4V530.6ZM36.02 531.44C36.66 532.2 37.32 533.26 37.56 533.98L38.72 533.46C38.48 532.74 37.8 531.7 37.14 530.94L36.02 531.44ZM44.32 530.84C43.9 531.64 43.1 532.82 42.5 533.56L43.46 534C44.1 533.32 44.92 532.28 45.62 531.34L44.32 530.84ZM35.94 529V530.18H47.28C47.46 536.06 47.98 540.5 50.56 540.5C51.76 540.5 52.08 539.54 52.2 537.06C51.88 536.88 51.46 536.5 51.2 536.2C51.16 537.92 51.04 539.06 50.66 539.06C49.22 539.06 48.8 534.18 48.72 529H35.94ZM54.84 533.6C54.62 535.34 54.24 537.14 53.62 538.36C53.9 538.46 54.5 538.72 54.72 538.9C55.36 537.62 55.82 535.7 56.1 533.82L54.84 533.6ZM58.94 533.88C59.44 535.02 59.84 536.54 59.94 537.5L61.1 537.16C60.98 536.18 60.54 534.7 60.04 533.56L58.94 533.88ZM65.78 536.26C65.42 536.26 65.34 536.1 65.34 535.58V532.74H69.58V531.56H66.96V529.52H69.46V528.34H67.94C68.34 527.58 68.82 526.5 69.26 525.54L68.06 525.14C67.84 526 67.38 527.26 67 528.06L67.74 528.34H64.6L65.52 528C65.4 527.28 65.02 526.14 64.56 525.28L63.6 525.62C64.02 526.46 64.38 527.58 64.5 528.34H63.38V529.52H65.68V531.56H63.22V532.74H64.06V535.56C64.06 536.98 64.4 537.44 65.78 537.44H68.12C68.58 537.44 69.04 537.44 69.32 537.38C69.28 537.06 69.22 536.5 69.2 536.18C68.92 536.24 68.38 536.26 68.1 536.26H65.78ZM71.6 523.22H61.3V532.28C60.94 531.2 60.24 529.76 59.5 528.64L58.42 529.08C58.74 529.6 59.04 530.18 59.32 530.76L56.44 530.9C57.8 529.2 59.3 526.94 60.44 525.12L59.2 524.54C58.64 525.62 57.88 526.92 57.06 528.16C56.76 527.76 56.4 527.32 55.98 526.88C56.74 525.76 57.6 524.14 58.28 522.76L56.98 522.28C56.56 523.38 55.86 524.9 55.2 526.04C55 525.84 54.8 525.66 54.6 525.48L53.8 526.42C54.7 527.28 55.7 528.42 56.28 529.32C55.86 529.92 55.44 530.48 55.04 530.98L53.66 531.04L53.8 532.38L56.94 532.18V540.52H58.26V532.1L59.84 532C60.04 532.46 60.18 532.9 60.26 533.28L61.3 532.8V540.56H62.62V524.54H70.24V538.86C70.24 539.14 70.16 539.22 69.9 539.24C69.62 539.24 68.74 539.26 67.82 539.22C68.02 539.58 68.22 540.18 68.26 540.52C69.54 540.54 70.38 540.5 70.92 540.3C71.42 540.06 71.6 539.66 71.6 538.86V523.22ZM75.22 533.58C74.94 535.32 74.48 537.12 73.76 538.32C74.1 538.44 74.72 538.76 75 538.96C75.7 537.68 76.28 535.74 76.6 533.84L75.22 533.58ZM81.6 531.9C81.84 532.36 82.06 532.78 82.2 533.14L83.36 532.5C82.9 531.42 81.8 529.7 80.8 528.46L79.72 529.02C80.1 529.5 80.48 530.06 80.84 530.62C79.52 530.7 78.22 530.76 77.02 530.82C78.5 529.14 80.16 526.94 81.42 525.1L80.06 524.44C79.44 525.54 78.58 526.84 77.66 528.08C77.3 527.64 76.82 527.14 76.3 526.66C77.14 525.58 78.12 524.08 78.88 522.8L77.5 522.24C77 523.34 76.16 524.78 75.42 525.88C75.16 525.66 74.9 525.46 74.64 525.26L73.88 526.24C74.92 527.08 76.12 528.22 76.86 529.16C76.36 529.78 75.86 530.38 75.4 530.9L73.8 530.96L73.98 532.38C75.04 532.32 76.32 532.24 77.68 532.14V540.52H79.14V532.06L81.6 531.9ZM82.92 537.46C82.66 536.38 82.04 534.72 81.38 533.46L80.14 533.88C80.76 535.16 81.42 536.84 81.62 537.96L82.92 537.46ZM87.68 538.38V525.8H91.82V524.38H82.2V525.8H86.16V538.38H81.4V539.8H92.14V538.38H87.68Z" fill="black"/>
<circle cx="59" cy="607" r="32" fill="#C4C4C4"/>
<path d="M32.288 654.22C32.134 655.438 31.868 656.698 31.434 657.552C31.63 657.622 32.05 657.804 32.204 657.93C32.652 657.034 32.974 655.69 33.17 654.374L32.288 654.22ZM35.158 654.416C35.508 655.214 35.788 656.278 35.858 656.95L36.67 656.712C36.586 656.026 36.278 654.99 35.928 654.192L35.158 654.416ZM39.946 656.082C39.694 656.082 39.638 655.97 39.638 655.606V653.618H42.606V652.792H40.772V651.364H42.522V650.538H41.458C41.738 650.006 42.074 649.25 42.382 648.578L41.542 648.298C41.388 648.9 41.066 649.782 40.8 650.342L41.318 650.538H39.12L39.764 650.3C39.68 649.796 39.414 648.998 39.092 648.396L38.42 648.634C38.714 649.222 38.966 650.006 39.05 650.538H38.266V651.364H39.876V652.792H38.154V653.618H38.742V655.592C38.742 656.586 38.98 656.908 39.946 656.908H41.584C41.906 656.908 42.228 656.908 42.424 656.866C42.396 656.642 42.354 656.25 42.34 656.026C42.144 656.068 41.766 656.082 41.57 656.082H39.946ZM44.02 646.954H36.81V653.296C36.558 652.54 36.068 651.532 35.55 650.748L34.794 651.056C35.018 651.42 35.228 651.826 35.424 652.232L33.408 652.33C34.36 651.14 35.41 649.558 36.208 648.284L35.34 647.878C34.948 648.634 34.416 649.544 33.842 650.412C33.632 650.132 33.38 649.824 33.086 649.516C33.618 648.732 34.22 647.598 34.696 646.632L33.786 646.296C33.492 647.066 33.002 648.13 32.54 648.928C32.4 648.788 32.26 648.662 32.12 648.536L31.56 649.194C32.19 649.796 32.89 650.594 33.296 651.224C33.002 651.644 32.708 652.036 32.428 652.386L31.462 652.428L31.56 653.366L33.758 653.226V659.064H34.682V653.17L35.788 653.1C35.928 653.422 36.026 653.73 36.082 653.996L36.81 653.66V659.092H37.734V647.878H43.068V657.902C43.068 658.098 43.012 658.154 42.83 658.168C42.634 658.168 42.018 658.182 41.374 658.154C41.514 658.406 41.654 658.826 41.682 659.064C42.578 659.078 43.166 659.05 43.544 658.91C43.894 658.742 44.02 658.462 44.02 657.902V646.954ZM46.554 654.206C46.358 655.424 46.036 656.684 45.532 657.524C45.77 657.608 46.204 657.832 46.4 657.972C46.89 657.076 47.296 655.718 47.52 654.388L46.554 654.206ZM51.02 653.03C51.188 653.352 51.342 653.646 51.44 653.898L52.252 653.45C51.93 652.694 51.16 651.49 50.46 650.622L49.704 651.014C49.97 651.35 50.236 651.742 50.488 652.134C49.564 652.19 48.654 652.232 47.814 652.274C48.85 651.098 50.012 649.558 50.894 648.27L49.942 647.808C49.508 648.578 48.906 649.488 48.262 650.356C48.01 650.048 47.674 649.698 47.31 649.362C47.898 648.606 48.584 647.556 49.116 646.66L48.15 646.268C47.8 647.038 47.212 648.046 46.694 648.816C46.512 648.662 46.33 648.522 46.148 648.382L45.616 649.068C46.344 649.656 47.184 650.454 47.702 651.112C47.352 651.546 47.002 651.966 46.68 652.33L45.56 652.372L45.686 653.366C46.428 653.324 47.324 653.268 48.276 653.198V659.064H49.298V653.142L51.02 653.03ZM51.944 656.922C51.762 656.166 51.328 655.004 50.866 654.122L49.998 654.416C50.432 655.312 50.894 656.488 51.034 657.272L51.944 656.922ZM55.276 657.566V648.76H58.174V647.766H51.44V648.76H54.212V657.566H50.88V658.56H58.398V657.566H55.276ZM64.586 657.552V654.108H70.326V657.552H64.586ZM68.058 648.62C67.456 649.838 66.574 650.944 65.538 651.896C64.894 651.196 63.83 650.3 62.892 649.642C63.256 649.32 63.578 648.97 63.886 648.62H68.058ZM71.376 653.156H65.65C67.274 651.784 68.646 650.062 69.472 647.99L68.786 647.626L68.59 647.682H64.642C64.936 647.276 65.202 646.87 65.44 646.478L64.278 646.24C63.466 647.752 61.87 649.544 59.574 650.79C59.812 650.972 60.162 651.35 60.302 651.588C60.974 651.196 61.576 650.762 62.136 650.314C63.06 651 64.082 651.896 64.698 652.61C63.116 653.856 61.282 654.78 59.504 655.298C59.728 655.494 59.994 655.928 60.12 656.208C61.282 655.83 62.444 655.298 63.564 654.64V659.064H64.586V658.504H70.326V659.092H71.376V653.156ZM78.502 653.842C78.236 653.506 77.088 652.302 76.696 651.952V651.266H78.404V650.426C78.642 650.552 78.936 650.706 79.076 650.804C79.58 650.104 80.056 649.068 80.406 647.99C82.128 647.836 84.074 647.584 85.46 647.234L84.676 646.506C83.668 646.758 81.988 647.024 80.406 647.192L79.622 647.024C79.314 648.242 78.824 649.46 78.18 650.3H76.696V647.892C77.326 647.724 77.928 647.542 78.418 647.318L77.634 646.59C76.724 647.038 75.058 647.43 73.602 647.682C73.728 647.892 73.868 648.228 73.91 648.452C74.484 648.368 75.114 648.256 75.716 648.13V650.3H73.672V651.266H75.548C75.1 652.848 74.274 654.682 73.504 655.676C73.686 655.928 73.938 656.334 74.05 656.628C74.638 655.774 75.24 654.43 75.716 653.058V659.092H76.696V652.96C77.144 653.52 77.676 654.248 77.886 654.626L78.502 653.842ZM84.102 648.004C84.676 648.816 85.264 649.964 85.516 650.692L86.412 650.286C86.146 649.558 85.544 648.48 84.956 647.668L84.102 648.004ZM83.01 649.978C82.926 649.446 82.66 648.648 82.352 648.06L81.484 648.284C81.778 648.9 82.03 649.712 82.086 650.23L83.01 649.978ZM82.814 655.466V654.122H84.788V655.466H82.814ZM80.028 654.122H81.862V655.466H80.028V654.122ZM81.862 652.022V653.338H80.028V652.022H81.862ZM84.788 652.022V653.338H82.814V652.022H84.788ZM86.524 655.466H85.754V651.182H82.814V650.272H81.862V651.182H79.076V655.466H78.082V656.334H79.076V659.05H80.028V656.334H84.788V657.944C84.788 658.112 84.718 658.154 84.536 658.168C84.368 658.168 83.766 658.182 83.108 658.154C83.248 658.392 83.416 658.798 83.472 659.064C84.354 659.064 84.914 659.05 85.264 658.896C85.642 658.742 85.754 658.448 85.754 657.944V656.334H86.524V655.466Z" fill="black"/>
<circle cx="133" cy="607" r="32" fill="#C4C4C4"/>
<path d="M106.288 654.22C106.134 655.438 105.868 656.698 105.434 657.552C105.63 657.622 106.05 657.804 106.204 657.93C106.652 657.034 106.974 655.69 107.17 654.374L106.288 654.22ZM109.158 654.416C109.508 655.214 109.788 656.278 109.858 656.95L110.67 656.712C110.586 656.026 110.278 654.99 109.928 654.192L109.158 654.416ZM113.946 656.082C113.694 656.082 113.638 655.97 113.638 655.606V653.618H116.606V652.792H114.772V651.364H116.522V650.538H115.458C115.738 650.006 116.074 649.25 116.382 648.578L115.542 648.298C115.388 648.9 115.066 649.782 114.8 650.342L115.318 650.538H113.12L113.764 650.3C113.68 649.796 113.414 648.998 113.092 648.396L112.42 648.634C112.714 649.222 112.966 650.006 113.05 650.538H112.266V651.364H113.876V652.792H112.154V653.618H112.742V655.592C112.742 656.586 112.98 656.908 113.946 656.908H115.584C115.906 656.908 116.228 656.908 116.424 656.866C116.396 656.642 116.354 656.25 116.34 656.026C116.144 656.068 115.766 656.082 115.57 656.082H113.946ZM118.02 646.954H110.81V653.296C110.558 652.54 110.068 651.532 109.55 650.748L108.794 651.056C109.018 651.42 109.228 651.826 109.424 652.232L107.408 652.33C108.36 651.14 109.41 649.558 110.208 648.284L109.34 647.878C108.948 648.634 108.416 649.544 107.842 650.412C107.632 650.132 107.38 649.824 107.086 649.516C107.618 648.732 108.22 647.598 108.696 646.632L107.786 646.296C107.492 647.066 107.002 648.13 106.54 648.928C106.4 648.788 106.26 648.662 106.12 648.536L105.56 649.194C106.19 649.796 106.89 650.594 107.296 651.224C107.002 651.644 106.708 652.036 106.428 652.386L105.462 652.428L105.56 653.366L107.758 653.226V659.064H108.682V653.17L109.788 653.1C109.928 653.422 110.026 653.73 110.082 653.996L110.81 653.66V659.092H111.734V647.878H117.068V657.902C117.068 658.098 117.012 658.154 116.83 658.168C116.634 658.168 116.018 658.182 115.374 658.154C115.514 658.406 115.654 658.826 115.682 659.064C116.578 659.078 117.166 659.05 117.544 658.91C117.894 658.742 118.02 658.462 118.02 657.902V646.954ZM120.554 654.206C120.358 655.424 120.036 656.684 119.532 657.524C119.77 657.608 120.204 657.832 120.4 657.972C120.89 657.076 121.296 655.718 121.52 654.388L120.554 654.206ZM125.02 653.03C125.188 653.352 125.342 653.646 125.44 653.898L126.252 653.45C125.93 652.694 125.16 651.49 124.46 650.622L123.704 651.014C123.97 651.35 124.236 651.742 124.488 652.134C123.564 652.19 122.654 652.232 121.814 652.274C122.85 651.098 124.012 649.558 124.894 648.27L123.942 647.808C123.508 648.578 122.906 649.488 122.262 650.356C122.01 650.048 121.674 649.698 121.31 649.362C121.898 648.606 122.584 647.556 123.116 646.66L122.15 646.268C121.8 647.038 121.212 648.046 120.694 648.816C120.512 648.662 120.33 648.522 120.148 648.382L119.616 649.068C120.344 649.656 121.184 650.454 121.702 651.112C121.352 651.546 121.002 651.966 120.68 652.33L119.56 652.372L119.686 653.366C120.428 653.324 121.324 653.268 122.276 653.198V659.064H123.298V653.142L125.02 653.03ZM125.944 656.922C125.762 656.166 125.328 655.004 124.866 654.122L123.998 654.416C124.432 655.312 124.894 656.488 125.034 657.272L125.944 656.922ZM129.276 657.566V648.76H132.174V647.766H125.44V648.76H128.212V657.566H124.88V658.56H132.398V657.566H129.276ZM138.586 657.552V654.108H144.326V657.552H138.586ZM142.058 648.62C141.456 649.838 140.574 650.944 139.538 651.896C138.894 651.196 137.83 650.3 136.892 649.642C137.256 649.32 137.578 648.97 137.886 648.62H142.058ZM145.376 653.156H139.65C141.274 651.784 142.646 650.062 143.472 647.99L142.786 647.626L142.59 647.682H138.642C138.936 647.276 139.202 646.87 139.44 646.478L138.278 646.24C137.466 647.752 135.87 649.544 133.574 650.79C133.812 650.972 134.162 651.35 134.302 651.588C134.974 651.196 135.576 650.762 136.136 650.314C137.06 651 138.082 651.896 138.698 652.61C137.116 653.856 135.282 654.78 133.504 655.298C133.728 655.494 133.994 655.928 134.12 656.208C135.282 655.83 136.444 655.298 137.564 654.64V659.064H138.586V658.504H144.326V659.092H145.376V653.156ZM152.502 653.842C152.236 653.506 151.088 652.302 150.696 651.952V651.266H152.404V650.426C152.642 650.552 152.936 650.706 153.076 650.804C153.58 650.104 154.056 649.068 154.406 647.99C156.128 647.836 158.074 647.584 159.46 647.234L158.676 646.506C157.668 646.758 155.988 647.024 154.406 647.192L153.622 647.024C153.314 648.242 152.824 649.46 152.18 650.3H150.696V647.892C151.326 647.724 151.928 647.542 152.418 647.318L151.634 646.59C150.724 647.038 149.058 647.43 147.602 647.682C147.728 647.892 147.868 648.228 147.91 648.452C148.484 648.368 149.114 648.256 149.716 648.13V650.3H147.672V651.266H149.548C149.1 652.848 148.274 654.682 147.504 655.676C147.686 655.928 147.938 656.334 148.05 656.628C148.638 655.774 149.24 654.43 149.716 653.058V659.092H150.696V652.96C151.144 653.52 151.676 654.248 151.886 654.626L152.502 653.842ZM158.102 648.004C158.676 648.816 159.264 649.964 159.516 650.692L160.412 650.286C160.146 649.558 159.544 648.48 158.956 647.668L158.102 648.004ZM157.01 649.978C156.926 649.446 156.66 648.648 156.352 648.06L155.484 648.284C155.778 648.9 156.03 649.712 156.086 650.23L157.01 649.978ZM156.814 655.466V654.122H158.788V655.466H156.814ZM154.028 654.122H155.862V655.466H154.028V654.122ZM155.862 652.022V653.338H154.028V652.022H155.862ZM158.788 652.022V653.338H156.814V652.022H158.788ZM160.524 655.466H159.754V651.182H156.814V650.272H155.862V651.182H153.076V655.466H152.082V656.334H153.076V659.05H154.028V656.334H158.788V657.944C158.788 658.112 158.718 658.154 158.536 658.168C158.368 658.168 157.766 658.182 157.108 658.154C157.248 658.392 157.416 658.798 157.472 659.064C158.354 659.064 158.914 659.05 159.264 658.896C159.642 658.742 159.754 658.448 159.754 657.944V656.334H160.524V655.466Z" fill="black"/>
<circle cx="207" cy="607" r="32" fill="#C4C4C4"/>
<path d="M180.288 654.22C180.134 655.438 179.868 656.698 179.434 657.552C179.63 657.622 180.05 657.804 180.204 657.93C180.652 657.034 180.974 655.69 181.17 654.374L180.288 654.22ZM183.158 654.416C183.508 655.214 183.788 656.278 183.858 656.95L184.67 656.712C184.586 656.026 184.278 654.99 183.928 654.192L183.158 654.416ZM187.946 656.082C187.694 656.082 187.638 655.97 187.638 655.606V653.618H190.606V652.792H188.772V651.364H190.522V650.538H189.458C189.738 650.006 190.074 649.25 190.382 648.578L189.542 648.298C189.388 648.9 189.066 649.782 188.8 650.342L189.318 650.538H187.12L187.764 650.3C187.68 649.796 187.414 648.998 187.092 648.396L186.42 648.634C186.714 649.222 186.966 650.006 187.05 650.538H186.266V651.364H187.876V652.792H186.154V653.618H186.742V655.592C186.742 656.586 186.98 656.908 187.946 656.908H189.584C189.906 656.908 190.228 656.908 190.424 656.866C190.396 656.642 190.354 656.25 190.34 656.026C190.144 656.068 189.766 656.082 189.57 656.082H187.946ZM192.02 646.954H184.81V653.296C184.558 652.54 184.068 651.532 183.55 650.748L182.794 651.056C183.018 651.42 183.228 651.826 183.424 652.232L181.408 652.33C182.36 651.14 183.41 649.558 184.208 648.284L183.34 647.878C182.948 648.634 182.416 649.544 181.842 650.412C181.632 650.132 181.38 649.824 181.086 649.516C181.618 648.732 182.22 647.598 182.696 646.632L181.786 646.296C181.492 647.066 181.002 648.13 180.54 648.928C180.4 648.788 180.26 648.662 180.12 648.536L179.56 649.194C180.19 649.796 180.89 650.594 181.296 651.224C181.002 651.644 180.708 652.036 180.428 652.386L179.462 652.428L179.56 653.366L181.758 653.226V659.064H182.682V653.17L183.788 653.1C183.928 653.422 184.026 653.73 184.082 653.996L184.81 653.66V659.092H185.734V647.878H191.068V657.902C191.068 658.098 191.012 658.154 190.83 658.168C190.634 658.168 190.018 658.182 189.374 658.154C189.514 658.406 189.654 658.826 189.682 659.064C190.578 659.078 191.166 659.05 191.544 658.91C191.894 658.742 192.02 658.462 192.02 657.902V646.954ZM194.554 654.206C194.358 655.424 194.036 656.684 193.532 657.524C193.77 657.608 194.204 657.832 194.4 657.972C194.89 657.076 195.296 655.718 195.52 654.388L194.554 654.206ZM199.02 653.03C199.188 653.352 199.342 653.646 199.44 653.898L200.252 653.45C199.93 652.694 199.16 651.49 198.46 650.622L197.704 651.014C197.97 651.35 198.236 651.742 198.488 652.134C197.564 652.19 196.654 652.232 195.814 652.274C196.85 651.098 198.012 649.558 198.894 648.27L197.942 647.808C197.508 648.578 196.906 649.488 196.262 650.356C196.01 650.048 195.674 649.698 195.31 649.362C195.898 648.606 196.584 647.556 197.116 646.66L196.15 646.268C195.8 647.038 195.212 648.046 194.694 648.816C194.512 648.662 194.33 648.522 194.148 648.382L193.616 649.068C194.344 649.656 195.184 650.454 195.702 651.112C195.352 651.546 195.002 651.966 194.68 652.33L193.56 652.372L193.686 653.366C194.428 653.324 195.324 653.268 196.276 653.198V659.064H197.298V653.142L199.02 653.03ZM199.944 656.922C199.762 656.166 199.328 655.004 198.866 654.122L197.998 654.416C198.432 655.312 198.894 656.488 199.034 657.272L199.944 656.922ZM203.276 657.566V648.76H206.174V647.766H199.44V648.76H202.212V657.566H198.88V658.56H206.398V657.566H203.276ZM212.586 657.552V654.108H218.326V657.552H212.586ZM216.058 648.62C215.456 649.838 214.574 650.944 213.538 651.896C212.894 651.196 211.83 650.3 210.892 649.642C211.256 649.32 211.578 648.97 211.886 648.62H216.058ZM219.376 653.156H213.65C215.274 651.784 216.646 650.062 217.472 647.99L216.786 647.626L216.59 647.682H212.642C212.936 647.276 213.202 646.87 213.44 646.478L212.278 646.24C211.466 647.752 209.87 649.544 207.574 650.79C207.812 650.972 208.162 651.35 208.302 651.588C208.974 651.196 209.576 650.762 210.136 650.314C211.06 651 212.082 651.896 212.698 652.61C211.116 653.856 209.282 654.78 207.504 655.298C207.728 655.494 207.994 655.928 208.12 656.208C209.282 655.83 210.444 655.298 211.564 654.64V659.064H212.586V658.504H218.326V659.092H219.376V653.156ZM226.502 653.842C226.236 653.506 225.088 652.302 224.696 651.952V651.266H226.404V650.426C226.642 650.552 226.936 650.706 227.076 650.804C227.58 650.104 228.056 649.068 228.406 647.99C230.128 647.836 232.074 647.584 233.46 647.234L232.676 646.506C231.668 646.758 229.988 647.024 228.406 647.192L227.622 647.024C227.314 648.242 226.824 649.46 226.18 650.3H224.696V647.892C225.326 647.724 225.928 647.542 226.418 647.318L225.634 646.59C224.724 647.038 223.058 647.43 221.602 647.682C221.728 647.892 221.868 648.228 221.91 648.452C222.484 648.368 223.114 648.256 223.716 648.13V650.3H221.672V651.266H223.548C223.1 652.848 222.274 654.682 221.504 655.676C221.686 655.928 221.938 656.334 222.05 656.628C222.638 655.774 223.24 654.43 223.716 653.058V659.092H224.696V652.96C225.144 653.52 225.676 654.248 225.886 654.626L226.502 653.842ZM232.102 648.004C232.676 648.816 233.264 649.964 233.516 650.692L234.412 650.286C234.146 649.558 233.544 648.48 232.956 647.668L232.102 648.004ZM231.01 649.978C230.926 649.446 230.66 648.648 230.352 648.06L229.484 648.284C229.778 648.9 230.03 649.712 230.086 650.23L231.01 649.978ZM230.814 655.466V654.122H232.788V655.466H230.814ZM228.028 654.122H229.862V655.466H228.028V654.122ZM229.862 652.022V653.338H228.028V652.022H229.862ZM232.788 652.022V653.338H230.814V652.022H232.788ZM234.524 655.466H233.754V651.182H230.814V650.272H229.862V651.182H227.076V655.466H226.082V656.334H227.076V659.05H228.028V656.334H232.788V657.944C232.788 658.112 232.718 658.154 232.536 658.168C232.368 658.168 231.766 658.182 231.108 658.154C231.248 658.392 231.416 658.798 231.472 659.064C232.354 659.064 232.914 659.05 233.264 658.896C233.642 658.742 233.754 658.448 233.754 657.944V656.334H234.524V655.466Z" fill="black"/>
<circle cx="281" cy="607" r="32" fill="#C4C4C4"/>
<path d="M254.288 654.22C254.134 655.438 253.868 656.698 253.434 657.552C253.63 657.622 254.05 657.804 254.204 657.93C254.652 657.034 254.974 655.69 255.17 654.374L254.288 654.22ZM257.158 654.416C257.508 655.214 257.788 656.278 257.858 656.95L258.67 656.712C258.586 656.026 258.278 654.99 257.928 654.192L257.158 654.416ZM261.946 656.082C261.694 656.082 261.638 655.97 261.638 655.606V653.618H264.606V652.792H262.772V651.364H264.522V650.538H263.458C263.738 650.006 264.074 649.25 264.382 648.578L263.542 648.298C263.388 648.9 263.066 649.782 262.8 650.342L263.318 650.538H261.12L261.764 650.3C261.68 649.796 261.414 648.998 261.092 648.396L260.42 648.634C260.714 649.222 260.966 650.006 261.05 650.538H260.266V651.364H261.876V652.792H260.154V653.618H260.742V655.592C260.742 656.586 260.98 656.908 261.946 656.908H263.584C263.906 656.908 264.228 656.908 264.424 656.866C264.396 656.642 264.354 656.25 264.34 656.026C264.144 656.068 263.766 656.082 263.57 656.082H261.946ZM266.02 646.954H258.81V653.296C258.558 652.54 258.068 651.532 257.55 650.748L256.794 651.056C257.018 651.42 257.228 651.826 257.424 652.232L255.408 652.33C256.36 651.14 257.41 649.558 258.208 648.284L257.34 647.878C256.948 648.634 256.416 649.544 255.842 650.412C255.632 650.132 255.38 649.824 255.086 649.516C255.618 648.732 256.22 647.598 256.696 646.632L255.786 646.296C255.492 647.066 255.002 648.13 254.54 648.928C254.4 648.788 254.26 648.662 254.12 648.536L253.56 649.194C254.19 649.796 254.89 650.594 255.296 651.224C255.002 651.644 254.708 652.036 254.428 652.386L253.462 652.428L253.56 653.366L255.758 653.226V659.064H256.682V653.17L257.788 653.1C257.928 653.422 258.026 653.73 258.082 653.996L258.81 653.66V659.092H259.734V647.878H265.068V657.902C265.068 658.098 265.012 658.154 264.83 658.168C264.634 658.168 264.018 658.182 263.374 658.154C263.514 658.406 263.654 658.826 263.682 659.064C264.578 659.078 265.166 659.05 265.544 658.91C265.894 658.742 266.02 658.462 266.02 657.902V646.954ZM268.554 654.206C268.358 655.424 268.036 656.684 267.532 657.524C267.77 657.608 268.204 657.832 268.4 657.972C268.89 657.076 269.296 655.718 269.52 654.388L268.554 654.206ZM273.02 653.03C273.188 653.352 273.342 653.646 273.44 653.898L274.252 653.45C273.93 652.694 273.16 651.49 272.46 650.622L271.704 651.014C271.97 651.35 272.236 651.742 272.488 652.134C271.564 652.19 270.654 652.232 269.814 652.274C270.85 651.098 272.012 649.558 272.894 648.27L271.942 647.808C271.508 648.578 270.906 649.488 270.262 650.356C270.01 650.048 269.674 649.698 269.31 649.362C269.898 648.606 270.584 647.556 271.116 646.66L270.15 646.268C269.8 647.038 269.212 648.046 268.694 648.816C268.512 648.662 268.33 648.522 268.148 648.382L267.616 649.068C268.344 649.656 269.184 650.454 269.702 651.112C269.352 651.546 269.002 651.966 268.68 652.33L267.56 652.372L267.686 653.366C268.428 653.324 269.324 653.268 270.276 653.198V659.064H271.298V653.142L273.02 653.03ZM273.944 656.922C273.762 656.166 273.328 655.004 272.866 654.122L271.998 654.416C272.432 655.312 272.894 656.488 273.034 657.272L273.944 656.922ZM277.276 657.566V648.76H280.174V647.766H273.44V648.76H276.212V657.566H272.88V658.56H280.398V657.566H277.276ZM286.586 657.552V654.108H292.326V657.552H286.586ZM290.058 648.62C289.456 649.838 288.574 650.944 287.538 651.896C286.894 651.196 285.83 650.3 284.892 649.642C285.256 649.32 285.578 648.97 285.886 648.62H290.058ZM293.376 653.156H287.65C289.274 651.784 290.646 650.062 291.472 647.99L290.786 647.626L290.59 647.682H286.642C286.936 647.276 287.202 646.87 287.44 646.478L286.278 646.24C285.466 647.752 283.87 649.544 281.574 650.79C281.812 650.972 282.162 651.35 282.302 651.588C282.974 651.196 283.576 650.762 284.136 650.314C285.06 651 286.082 651.896 286.698 652.61C285.116 653.856 283.282 654.78 281.504 655.298C281.728 655.494 281.994 655.928 282.12 656.208C283.282 655.83 284.444 655.298 285.564 654.64V659.064H286.586V658.504H292.326V659.092H293.376V653.156ZM300.502 653.842C300.236 653.506 299.088 652.302 298.696 651.952V651.266H300.404V650.426C300.642 650.552 300.936 650.706 301.076 650.804C301.58 650.104 302.056 649.068 302.406 647.99C304.128 647.836 306.074 647.584 307.46 647.234L306.676 646.506C305.668 646.758 303.988 647.024 302.406 647.192L301.622 647.024C301.314 648.242 300.824 649.46 300.18 650.3H298.696V647.892C299.326 647.724 299.928 647.542 300.418 647.318L299.634 646.59C298.724 647.038 297.058 647.43 295.602 647.682C295.728 647.892 295.868 648.228 295.91 648.452C296.484 648.368 297.114 648.256 297.716 648.13V650.3H295.672V651.266H297.548C297.1 652.848 296.274 654.682 295.504 655.676C295.686 655.928 295.938 656.334 296.05 656.628C296.638 655.774 297.24 654.43 297.716 653.058V659.092H298.696V652.96C299.144 653.52 299.676 654.248 299.886 654.626L300.502 653.842ZM306.102 648.004C306.676 648.816 307.264 649.964 307.516 650.692L308.412 650.286C308.146 649.558 307.544 648.48 306.956 647.668L306.102 648.004ZM305.01 649.978C304.926 649.446 304.66 648.648 304.352 648.06L303.484 648.284C303.778 648.9 304.03 649.712 304.086 650.23L305.01 649.978ZM304.814 655.466V654.122H306.788V655.466H304.814ZM302.028 654.122H303.862V655.466H302.028V654.122ZM303.862 652.022V653.338H302.028V652.022H303.862ZM306.788 652.022V653.338H304.814V652.022H306.788ZM308.524 655.466H307.754V651.182H304.814V650.272H303.862V651.182H301.076V655.466H300.082V656.334H301.076V659.05H302.028V656.334H306.788V657.944C306.788 658.112 306.718 658.154 306.536 658.168C306.368 658.168 305.766 658.182 305.108 658.154C305.248 658.392 305.416 658.798 305.472 659.064C306.354 659.064 306.914 659.05 307.264 658.896C307.642 658.742 307.754 658.448 307.754 657.944V656.334H308.524V655.466Z" fill="black"/>
<circle cx="355" cy="607" r="32" fill="#C4C4C4"/>
<path d="M328.288 654.22C328.134 655.438 327.868 656.698 327.434 657.552C327.63 657.622 328.05 657.804 328.204 657.93C328.652 657.034 328.974 655.69 329.17 654.374L328.288 654.22ZM331.158 654.416C331.508 655.214 331.788 656.278 331.858 656.95L332.67 656.712C332.586 656.026 332.278 654.99 331.928 654.192L331.158 654.416ZM335.946 656.082C335.694 656.082 335.638 655.97 335.638 655.606V653.618H338.606V652.792H336.772V651.364H338.522V650.538H337.458C337.738 650.006 338.074 649.25 338.382 648.578L337.542 648.298C337.388 648.9 337.066 649.782 336.8 650.342L337.318 650.538H335.12L335.764 650.3C335.68 649.796 335.414 648.998 335.092 648.396L334.42 648.634C334.714 649.222 334.966 650.006 335.05 650.538H334.266V651.364H335.876V652.792H334.154V653.618H334.742V655.592C334.742 656.586 334.98 656.908 335.946 656.908H337.584C337.906 656.908 338.228 656.908 338.424 656.866C338.396 656.642 338.354 656.25 338.34 656.026C338.144 656.068 337.766 656.082 337.57 656.082H335.946ZM340.02 646.954H332.81V653.296C332.558 652.54 332.068 651.532 331.55 650.748L330.794 651.056C331.018 651.42 331.228 651.826 331.424 652.232L329.408 652.33C330.36 651.14 331.41 649.558 332.208 648.284L331.34 647.878C330.948 648.634 330.416 649.544 329.842 650.412C329.632 650.132 329.38 649.824 329.086 649.516C329.618 648.732 330.22 647.598 330.696 646.632L329.786 646.296C329.492 647.066 329.002 648.13 328.54 648.928C328.4 648.788 328.26 648.662 328.12 648.536L327.56 649.194C328.19 649.796 328.89 650.594 329.296 651.224C329.002 651.644 328.708 652.036 328.428 652.386L327.462 652.428L327.56 653.366L329.758 653.226V659.064H330.682V653.17L331.788 653.1C331.928 653.422 332.026 653.73 332.082 653.996L332.81 653.66V659.092H333.734V647.878H339.068V657.902C339.068 658.098 339.012 658.154 338.83 658.168C338.634 658.168 338.018 658.182 337.374 658.154C337.514 658.406 337.654 658.826 337.682 659.064C338.578 659.078 339.166 659.05 339.544 658.91C339.894 658.742 340.02 658.462 340.02 657.902V646.954ZM342.554 654.206C342.358 655.424 342.036 656.684 341.532 657.524C341.77 657.608 342.204 657.832 342.4 657.972C342.89 657.076 343.296 655.718 343.52 654.388L342.554 654.206ZM347.02 653.03C347.188 653.352 347.342 653.646 347.44 653.898L348.252 653.45C347.93 652.694 347.16 651.49 346.46 650.622L345.704 651.014C345.97 651.35 346.236 651.742 346.488 652.134C345.564 652.19 344.654 652.232 343.814 652.274C344.85 651.098 346.012 649.558 346.894 648.27L345.942 647.808C345.508 648.578 344.906 649.488 344.262 650.356C344.01 650.048 343.674 649.698 343.31 649.362C343.898 648.606 344.584 647.556 345.116 646.66L344.15 646.268C343.8 647.038 343.212 648.046 342.694 648.816C342.512 648.662 342.33 648.522 342.148 648.382L341.616 649.068C342.344 649.656 343.184 650.454 343.702 651.112C343.352 651.546 343.002 651.966 342.68 652.33L341.56 652.372L341.686 653.366C342.428 653.324 343.324 653.268 344.276 653.198V659.064H345.298V653.142L347.02 653.03ZM347.944 656.922C347.762 656.166 347.328 655.004 346.866 654.122L345.998 654.416C346.432 655.312 346.894 656.488 347.034 657.272L347.944 656.922ZM351.276 657.566V648.76H354.174V647.766H347.44V648.76H350.212V657.566H346.88V658.56H354.398V657.566H351.276ZM360.586 657.552V654.108H366.326V657.552H360.586ZM364.058 648.62C363.456 649.838 362.574 650.944 361.538 651.896C360.894 651.196 359.83 650.3 358.892 649.642C359.256 649.32 359.578 648.97 359.886 648.62H364.058ZM367.376 653.156H361.65C363.274 651.784 364.646 650.062 365.472 647.99L364.786 647.626L364.59 647.682H360.642C360.936 647.276 361.202 646.87 361.44 646.478L360.278 646.24C359.466 647.752 357.87 649.544 355.574 650.79C355.812 650.972 356.162 651.35 356.302 651.588C356.974 651.196 357.576 650.762 358.136 650.314C359.06 651 360.082 651.896 360.698 652.61C359.116 653.856 357.282 654.78 355.504 655.298C355.728 655.494 355.994 655.928 356.12 656.208C357.282 655.83 358.444 655.298 359.564 654.64V659.064H360.586V658.504H366.326V659.092H367.376V653.156ZM374.502 653.842C374.236 653.506 373.088 652.302 372.696 651.952V651.266H374.404V650.426C374.642 650.552 374.936 650.706 375.076 650.804C375.58 650.104 376.056 649.068 376.406 647.99C378.128 647.836 380.074 647.584 381.46 647.234L380.676 646.506C379.668 646.758 377.988 647.024 376.406 647.192L375.622 647.024C375.314 648.242 374.824 649.46 374.18 650.3H372.696V647.892C373.326 647.724 373.928 647.542 374.418 647.318L373.634 646.59C372.724 647.038 371.058 647.43 369.602 647.682C369.728 647.892 369.868 648.228 369.91 648.452C370.484 648.368 371.114 648.256 371.716 648.13V650.3H369.672V651.266H371.548C371.1 652.848 370.274 654.682 369.504 655.676C369.686 655.928 369.938 656.334 370.05 656.628C370.638 655.774 371.24 654.43 371.716 653.058V659.092H372.696V652.96C373.144 653.52 373.676 654.248 373.886 654.626L374.502 653.842ZM380.102 648.004C380.676 648.816 381.264 649.964 381.516 650.692L382.412 650.286C382.146 649.558 381.544 648.48 380.956 647.668L380.102 648.004ZM379.01 649.978C378.926 649.446 378.66 648.648 378.352 648.06L377.484 648.284C377.778 648.9 378.03 649.712 378.086 650.23L379.01 649.978ZM378.814 655.466V654.122H380.788V655.466H378.814ZM376.028 654.122H377.862V655.466H376.028V654.122ZM377.862 652.022V653.338H376.028V652.022H377.862ZM380.788 652.022V653.338H378.814V652.022H380.788ZM382.524 655.466H381.754V651.182H378.814V650.272H377.862V651.182H375.076V655.466H374.082V656.334H375.076V659.05H376.028V656.334H380.788V657.944C380.788 658.112 380.718 658.154 380.536 658.168C380.368 658.168 379.766 658.182 379.108 658.154C379.248 658.392 379.416 658.798 379.472 659.064C380.354 659.064 380.914 659.05 381.264 658.896C381.642 658.742 381.754 658.448 381.754 657.944V656.334H382.524V655.466Z" fill="black"/>
<circle cx="337.5" cy="79.5" r="17.5" fill="#C4C4C4"/>
<path d="M299 76C299 74.4087 298.368 72.8826 297.243 71.7574C296.117 70.6321 294.591 70 293 70C291.409 70 289.883 70.6321 288.757 71.7574C287.632 72.8826 287 74.4087 287 76C287 83 284 85 284 85H302C302 85 299 83 299 76Z" stroke="#C4C4C4" stroke-width="2" stroke-linecap="round" stroke-linejoin="round"/>
<path d="M294.73 89C294.554 89.3031 294.302 89.5547 293.998 89.7295C293.695 89.9044 293.35 89.9965 293 89.9965C292.65 89.9965 292.305 89.9044 292.002 89.7295C291.698 89.5547 291.446 89.3031 291.27 89" stroke="#C4C4C4" stroke-width="2" stroke-linecap="round" stroke-linejoin="round"/>
<g filter="url(#filter0_d_27_94)">
<line y1="110.5" x2="375" y2="110.5" stroke="black" stroke-opacity="0.2" shape-rendering="crispEdges"/>
</g>
<rect x="290" y="334" width="75" height="25" rx="4" fill="#F3AA3B"/>
<path d="M304.924 351.54H315.124V350.736H304.924V351.54ZM312.388 347.76H307.552V346.764H312.388V347.76ZM312.388 349.38H307.552V348.384H312.388V349.38ZM306.676 346.128V350.016H313.3V346.128H306.676ZM315.292 343.272V342.48H310.408V340.968H309.532V342.48H304.72V343.272H308.56C307.54 344.4 305.932 345.408 304.468 345.912C304.648 346.08 304.912 346.416 305.056 346.62C306.676 345.972 308.452 344.736 309.532 343.332V345.768H310.408V343.32C311.512 344.688 313.276 345.912 314.932 346.524C315.064 346.308 315.328 345.96 315.52 345.804C314.008 345.336 312.4 344.352 311.356 343.272H315.292ZM325.204 347.796H319.996V346.968H325.204V347.796ZM319.996 350.76V349.872H325.204V350.76H319.996ZM325.204 349.248H319.996V348.408H325.204V349.248ZM327.256 345.432V344.688H320.968C321.112 344.4 321.244 344.1 321.364 343.812H326.56V343.092H321.616C321.712 342.792 321.808 342.504 321.892 342.204C323.608 342.108 325.24 341.952 326.44 341.7L325.876 341.052C323.992 341.436 320.356 341.628 317.452 341.652C317.536 341.844 317.62 342.132 317.632 342.336C318.664 342.336 319.792 342.312 320.908 342.252C320.836 342.54 320.752 342.816 320.656 343.092H317.62V343.812H320.392C320.284 344.1 320.14 344.4 319.996 344.688H316.744V345.432H319.576C318.832 346.68 317.8 347.796 316.456 348.576C316.624 348.732 316.888 349.056 317.008 349.26C317.824 348.768 318.532 348.168 319.144 347.496V351.948H319.996V351.48H325.204V351.948H326.08V346.26H320.104C320.284 345.996 320.44 345.708 320.596 345.432H327.256ZM330.76 347.28V346.068H333.616V346.548C333.616 346.788 333.616 347.04 333.592 347.28H330.76ZM330.76 344.16H333.616V345.36H330.76V344.16ZM337.552 344.16V345.36H334.528V344.16H337.552ZM337.552 347.28H334.504C334.516 347.052 334.528 346.8 334.528 346.56V346.068H337.552V347.28ZM338.428 348.024V343.416H334.528V342.408H339.184V341.604H328.816V342.408H333.616V343.416H329.908V348.024H333.472C333.328 348.6 333.052 349.14 332.5 349.608C331.936 349.236 331.456 348.744 331.048 348.12L330.304 348.42C330.712 349.116 331.204 349.668 331.78 350.112C331.048 350.532 330.028 350.868 328.6 351.144C328.792 351.348 329.032 351.72 329.128 351.924C330.688 351.6 331.804 351.156 332.608 350.628C334.24 351.492 336.424 351.756 339.196 351.876C339.244 351.588 339.412 351.216 339.568 351C336.904 350.928 334.84 350.748 333.328 350.064C333.928 349.452 334.252 348.768 334.396 348.024H338.428ZM348.16 342.72C347.632 343.416 346.912 344.04 346.096 344.58C345.604 344.148 344.752 343.632 343.972 343.236C344.236 343.068 344.488 342.9 344.728 342.72H348.16ZM348.88 341.916L348.724 341.964H345.652C345.94 341.7 346.204 341.436 346.444 341.16L345.448 340.944C344.62 341.94 343.06 343.068 340.912 343.824C341.104 343.968 341.392 344.268 341.524 344.484C342.136 344.232 342.7 343.968 343.228 343.68C343.972 344.064 344.812 344.592 345.328 345.036C343.936 345.804 342.316 346.356 340.816 346.632C340.984 346.824 341.164 347.172 341.248 347.412C344.392 346.728 347.908 345.048 349.444 342.276L348.88 341.916ZM349.972 346.896C349.444 347.808 348.676 348.552 347.764 349.152C347.224 348.66 346.3 348.036 345.472 347.58C345.844 347.352 346.204 347.136 346.528 346.896H349.972ZM350.632 346.092L350.464 346.128H347.488C347.812 345.84 348.1 345.54 348.364 345.24L347.38 345.012C346.444 346.152 344.632 347.388 342.124 348.18C342.304 348.336 342.556 348.66 342.664 348.852C343.384 348.6 344.056 348.312 344.668 348.012C345.496 348.456 346.408 349.104 346.972 349.62C345.436 350.424 343.588 350.904 341.716 351.132C341.86 351.324 342.04 351.708 342.112 351.936C345.988 351.372 349.708 349.884 351.208 346.416L350.632 346.092Z" fill="black"/>
<rect x="290" y="520" width="75" height="25" rx="4" fill="#F3AA3B"/>
<path d="M304.924 537.54H315.124V536.736H304.924V537.54ZM312.388 533.76H307.552V532.764H312.388V533.76ZM312.388 535.38H307.552V534.384H312.388V535.38ZM306.676 532.128V536.016H313.3V532.128H306.676ZM315.292 529.272V528.48H310.408V526.968H309.532V528.48H304.72V529.272H308.56C307.54 530.4 305.932 531.408 304.468 531.912C304.648 532.08 304.912 532.416 305.056 532.62C306.676 531.972 308.452 530.736 309.532 529.332V531.768H310.408V529.32C311.512 530.688 313.276 531.912 314.932 532.524C315.064 532.308 315.328 531.96 315.52 531.804C314.008 531.336 312.4 530.352 311.356 529.272H315.292ZM325.204 533.796H319.996V532.968H325.204V533.796ZM319.996 536.76V535.872H325.204V536.76H319.996ZM325.204 535.248H319.996V534.408H325.204V535.248ZM327.256 531.432V530.688H320.968C321.112 530.4 321.244 530.1 321.364 529.812H326.56V529.092H321.616C321.712 528.792 321.808 528.504 321.892 528.204C323.608 528.108 325.24 527.952 326.44 527.7L325.876 527.052C323.992 527.436 320.356 527.628 317.452 527.652C317.536 527.844 317.62 528.132 317.632 528.336C318.664 528.336 319.792 528.312 320.908 528.252C320.836 528.54 320.752 528.816 320.656 529.092H317.62V529.812H320.392C320.284 530.1 320.14 530.4 319.996 530.688H316.744V531.432H319.576C318.832 532.68 317.8 533.796 316.456 534.576C316.624 534.732 316.888 535.056 317.008 535.26C317.824 534.768 318.532 534.168 319.144 533.496V537.948H319.996V537.48H325.204V537.948H326.08V532.26H320.104C320.284 531.996 320.44 531.708 320.596 531.432H327.256ZM330.76 533.28V532.068H333.616V532.548C333.616 532.788 333.616 533.04 333.592 533.28H330.76ZM330.76 530.16H333.616V531.36H330.76V530.16ZM337.552 530.16V531.36H334.528V530.16H337.552ZM337.552 533.28H334.504C334.516 533.052 334.528 532.8 334.528 532.56V532.068H337.552V533.28ZM338.428 534.024V529.416H334.528V528.408H339.184V527.604H328.816V528.408H333.616V529.416H329.908V534.024H333.472C333.328 534.6 333.052 535.14 332.5 535.608C331.936 535.236 331.456 534.744 331.048 534.12L330.304 534.42C330.712 535.116 331.204 535.668 331.78 536.112C331.048 536.532 330.028 536.868 328.6 537.144C328.792 537.348 329.032 537.72 329.128 537.924C330.688 537.6 331.804 537.156 332.608 536.628C334.24 537.492 336.424 537.756 339.196 537.876C339.244 537.588 339.412 537.216 339.568 537C336.904 536.928 334.84 536.748 333.328 536.064C333.928 535.452 334.252 534.768 334.396 534.024H338.428ZM348.16 528.72C347.632 529.416 346.912 530.04 346.096 530.58C345.604 530.148 344.752 529.632 343.972 529.236C344.236 529.068 344.488 528.9 344.728 528.72H348.16ZM348.88 527.916L348.724 527.964H345.652C345.94 527.7 346.204 527.436 346.444 527.16L345.448 526.944C344.62 527.94 343.06 529.068 340.912 529.824C341.104 529.968 341.392 530.268 341.524 530.484C342.136 530.232 342.7 529.968 343.228 529.68C343.972 530.064 344.812 530.592 345.328 531.036C343.936 531.804 342.316 532.356 340.816 532.632C340.984 532.824 341.164 533.172 341.248 533.412C344.392 532.728 347.908 531.048 349.444 528.276L348.88 527.916ZM349.972 532.896C349.444 533.808 348.676 534.552 347.764 535.152C347.224 534.66 346.3 534.036 345.472 533.58C345.844 533.352 346.204 533.136 346.528 532.896H349.972ZM350.632 532.092L350.464 532.128H347.488C347.812 531.84 348.1 531.54 348.364 531.24L347.38 531.012C346.444 532.152 344.632 533.388 342.124 534.18C342.304 534.336 342.556 534.66 342.664 534.852C343.384 534.6 344.056 534.312 344.668 534.012C345.496 534.456 346.408 535.104 346.972 535.62C345.436 536.424 343.588 536.904 341.716 537.132C341.86 537.324 342.04 537.708 342.112 537.936C345.988 537.372 349.708 535.884 351.208 532.416L350.632 532.092Z" fill="black"/>
</g>
<defs>
<filter id="filter0_d_27_94" x="-2" y="109" width="379" height="5" filterUnits="userSpaceOnUse" color-interpolation-filters="sRGB">
<feFlood flood-opacity="0" result="BackgroundImageFix"/>
<feColorMatrix in="SourceAlpha" type="matrix" values="0 0 0 0 0 0 0 0 0 0 0 0 0 0 0 0 0 0 127 0" result="hardAlpha"/>
<feOffset dy="1"/>
<feGaussianBlur stdDeviation="1"/>
<feComposite in2="hardAlpha" operator="out"/>
<feColorMatrix type="matrix" values="0 0 0 0 0 0 0 0 0 0 0 0 0 0 0 0 0 0 0.1 0"/>
<feBlend mode="normal" in2="BackgroundImageFix" result="effect1_dropShadow_27_94"/>
<feBlend mode="normal" in="SourceGraphic" in2="effect1_dropShadow_27_94" result="shape"/>
</filter>
<clipPath id="clip0_27_94">
<rect width="375" height="667" fill="white"/>
</clipPath>
</defs>
</svg>
