<svg width="375" height="667" viewBox="0 0 375 667" fill="none" xmlns="http://www.w3.org/2000/svg">
<g clip-path="url(#clip0_27_95)">
<rect width="375" height="667" fill="white"/>
<rect y="113" width="375" height="556" fill="#C4C4C4" fill-opacity="0.2"/>
<rect width="375" height="43" fill="#C4C4C4"/>
<path d="M178.504 18.304H174.364V17.788H178.504V18.304ZM178.504 19.312H174.364V18.772H178.504V19.312ZM178.504 20.344H174.364V19.792H178.504V20.344ZM173.524 17.296V20.824H179.368V17.296H176.488L176.704 16.696H180.352V16.048H178.312C178.516 15.784 178.756 15.472 178.972 15.136L178.132 14.944C177.988 15.256 177.688 15.724 177.46 16.048H175.444C175.312 15.724 175.048 15.268 174.772 14.968L174.052 15.148C174.256 15.412 174.46 15.748 174.592 16.048H172.576V16.696H175.864C175.816 16.888 175.768 17.104 175.72 17.296H173.524ZM172.24 16.684C171.904 16.228 171.196 15.616 170.596 15.208L169.996 15.688C170.608 16.12 171.292 16.768 171.604 17.236L172.24 16.684ZM171.64 24.016C172.288 24.412 173.044 25.012 173.392 25.444L174.04 24.88C173.656 24.46 172.888 23.884 172.252 23.5L171.64 24.016ZM177.796 22.06C178.732 22.06 179.632 22.036 180.256 22.012C180.292 21.784 180.412 21.472 180.496 21.292C178.972 21.376 175.876 21.412 174.496 21.364C173.404 21.328 172.504 21.028 172.048 20.332V18.076H169.648V18.772H171.232V20.464C170.68 20.824 170.08 21.172 169.576 21.424L169.936 22.168C170.572 21.76 171.16 21.364 171.748 20.956C172.348 21.688 173.26 22 174.508 22.036C175.108 22.06 176.008 22.072 176.944 22.06V22.792H169.6V23.488H176.944V24.952C176.944 25.108 176.896 25.156 176.692 25.156C176.5 25.168 175.828 25.18 175.06 25.156C175.192 25.372 175.312 25.684 175.36 25.912C176.344 25.912 176.956 25.912 177.328 25.78C177.7 25.66 177.796 25.432 177.796 24.964V23.488H180.412V22.792H177.796V22.06ZM192.304 16.276V15.664H188.668C188.764 15.472 188.848 15.28 188.92 15.088L188.116 14.968C187.876 15.628 187.42 16.396 186.688 16.984C186.868 17.068 187.144 17.308 187.288 17.488C187.72 17.116 188.056 16.708 188.332 16.276H192.304ZM188.152 18.268H188.884V19.144H188.152V18.268ZM189.4 18.268H190.168V19.144H189.4V18.268ZM190.684 18.268H191.452V19.144H190.684V18.268ZM187.504 19.648H192.112V17.776H187.504V19.648ZM188.152 16.744V17.308H191.704V16.744H188.152ZM182.884 18.292H184.132V18.988H182.884V18.292ZM184.132 15.94V16.528H182.884V15.94H184.132ZM185.752 17.752H182.884V17.08H185.752V17.752ZM186.964 18.988H184.864V18.292H186.532V16.528H184.864V15.94H186.868V15.364H182.104V19.564H186.964V18.988ZM184.204 22.792H189.76V23.38H184.204V22.792ZM184.204 21.688H189.76V22.264H184.204V21.688ZM184.204 20.596H189.76V21.16H184.204V20.596ZM189.232 25.06C188.68 25.06 188.584 25.024 188.584 24.748V23.908H190.648V20.056H183.352V23.908H185.068C184.708 24.712 183.832 25.048 181.54 25.216C181.684 25.384 181.888 25.72 181.948 25.912C184.54 25.648 185.56 25.12 185.968 23.908H187.72V24.76C187.72 25.564 188.008 25.768 189.148 25.768H191.212C192.088 25.768 192.352 25.468 192.448 24.244C192.208 24.184 191.872 24.076 191.692 23.956C191.644 24.928 191.572 25.06 191.128 25.06H189.232ZM198.304 18.988C198.1 19.948 197.824 20.812 197.464 21.568C196.912 21.148 196.036 20.572 195.292 20.14C195.496 19.768 195.688 19.384 195.868 18.988H198.304ZM193.756 16.396H195.808C195.412 18.148 194.584 20.116 193.312 21.328C193.492 21.472 193.78 21.748 193.936 21.916C194.272 21.592 194.584 21.22 194.86 20.812C195.628 21.28 196.516 21.88 197.068 22.336C196.288 23.668 195.244 24.64 194.044 25.276C194.248 25.42 194.584 25.756 194.716 25.948C196.924 24.676 198.652 22.24 199.288 18.34L198.736 18.148L198.592 18.172H196.192C196.42 17.584 196.6 16.984 196.744 16.396H199.684V15.58H193.756V16.396ZM201.016 16.336H200.14V22.852H201.016V16.336ZM203.056 15.196V24.76C203.056 24.976 202.96 25.048 202.744 25.06C202.516 25.06 201.784 25.072 200.98 25.048C201.1 25.288 201.232 25.684 201.28 25.924C202.372 25.924 203.02 25.9 203.404 25.768C203.776 25.612 203.932 25.348 203.932 24.748V15.196H203.056Z" fill="black"/>
<path d="M36.528 89.048C35.792 89.048 35.424 88.848 35.424 88.448V80.552L30.48 73.064C30.336 72.872 30.264 72.712 30.264 72.584C30.264 72.296 30.672 72.152 31.488 72.152H31.992C32.296 72.152 32.536 72.184 32.712 72.248C32.888 72.296 33.024 72.392 33.12 72.536L36.768 78.224L40.488 72.512C40.648 72.272 41.048 72.152 41.688 72.152H42.048C42.784 72.168 43.152 72.312 43.152 72.584C43.152 72.696 43.088 72.856 42.96 73.064L37.992 80.624V88.448C37.992 88.848 37.624 89.048 36.888 89.048H36.528ZM46.5484 89.168C45.3324 89.168 44.3724 88.864 43.6684 88.256C42.9644 87.632 42.6124 86.744 42.6124 85.592C42.6124 83.976 43.2844 82.848 44.6284 82.208C45.9724 81.552 47.8524 81.216 50.2684 81.2V80.168C50.2684 79.608 50.0764 79.16 49.6924 78.824C49.3084 78.488 48.6924 78.32 47.8444 78.32C47.1884 78.32 46.6124 78.4 46.1164 78.56C45.6364 78.704 45.2204 78.864 44.8684 79.04C44.5324 79.2 44.3404 79.28 44.2924 79.28C44.1164 79.28 43.9084 79.096 43.6684 78.728C43.4444 78.344 43.3324 78.056 43.3324 77.864C43.3324 77.64 43.5404 77.408 43.9564 77.168C44.3884 76.912 44.9484 76.704 45.6364 76.544C46.3404 76.368 47.0844 76.28 47.8684 76.28C49.4524 76.28 50.6524 76.624 51.4684 77.312C52.3004 77.984 52.7164 78.92 52.7164 80.12V85.256C52.7164 86.328 52.7644 87.104 52.8604 87.584C52.9564 88.064 53.0044 88.336 53.0044 88.4C53.0044 88.624 52.8044 88.784 52.4044 88.88C52.0204 88.976 51.6604 89.024 51.3244 89.024C51.0684 89.024 50.8844 88.904 50.7724 88.664C50.6764 88.424 50.5964 88.168 50.5324 87.896C50.4844 87.624 50.4524 87.44 50.4364 87.344C50.0044 87.856 49.4604 88.288 48.8044 88.64C48.1644 88.992 47.4124 89.168 46.5484 89.168ZM46.9564 87.104C47.6604 87.104 48.2764 86.96 48.8044 86.672C49.3324 86.384 49.8204 85.992 50.2684 85.496V83.096C48.7164 83.096 47.4764 83.248 46.5484 83.552C45.6204 83.84 45.1564 84.456 45.1564 85.4C45.1564 85.944 45.3084 86.368 45.6124 86.672C45.9324 86.96 46.3804 87.104 46.9564 87.104ZM64.6665 76.4C65.3865 76.4 65.7465 76.544 65.7465 76.832C65.7465 76.912 65.7225 77.04 65.6745 77.216L59.6985 93.464C59.5865 93.8 59.1945 93.968 58.5225 93.968H58.1385C57.4825 93.968 57.1545 93.832 57.1545 93.56C57.1545 93.512 57.1945 93.376 57.2745 93.152L59.1465 88.496L55.0185 77.192C54.9705 77 54.9465 76.88 54.9465 76.832C54.9465 76.544 55.3305 76.4 56.0985 76.4H56.4585C57.0825 76.4 57.4345 76.536 57.5145 76.808L59.6745 82.736C59.8825 83.28 60.1305 84.128 60.4185 85.28H60.4665L60.6585 84.632C60.8825 83.848 61.0745 83.216 61.2345 82.736L63.3465 76.808C63.4265 76.536 63.7945 76.4 64.4505 76.4H64.6665ZM69.4052 89.048C68.6692 89.048 68.3012 88.848 68.3012 88.448V72.992C68.3012 72.72 68.3652 72.52 68.4932 72.392C68.6212 72.264 68.8212 72.2 69.0932 72.2H76.7492C76.9412 72.2 77.0772 72.272 77.1572 72.416C77.2532 72.544 77.3012 72.76 77.3012 73.064V73.544C77.3012 73.848 77.2532 74.072 77.1572 74.216C77.0772 74.344 76.9412 74.408 76.7492 74.408H70.8692V79.856H76.3892C76.5812 79.856 76.7172 79.928 76.7972 80.072C76.8932 80.2 76.9412 80.416 76.9412 80.72V81.2C76.9412 81.504 76.8932 81.728 76.7972 81.872C76.7172 82 76.5812 82.064 76.3892 82.064H70.8692V88.448C70.8692 88.848 70.5012 89.048 69.7652 89.048H69.4052ZM87.8835 84.512C87.5955 84.512 87.3795 84.392 87.2355 84.152L83.3475 77.336C83.2515 77.176 83.0595 76.832 82.7715 76.304L82.6755 76.328C82.7075 76.6 82.7235 77.024 82.7235 77.6V88.448C82.7235 88.848 82.3555 89.048 81.6195 89.048H81.3075C80.5715 89.048 80.2035 88.848 80.2035 88.448V72.752C80.2035 72.352 80.5715 72.152 81.3075 72.152H82.2915C82.8675 72.152 83.2515 72.32 83.4435 72.656L87.8115 80.288C88.0675 80.72 88.2355 81.12 88.3155 81.488C88.4115 81.232 88.6115 80.816 88.9155 80.24L93.2355 72.656C93.4115 72.32 93.7955 72.152 94.3875 72.152H95.2995C96.0355 72.152 96.4035 72.352 96.4035 72.752V88.448C96.4035 88.848 96.0355 89.048 95.2995 89.048H94.9875C94.2515 89.048 93.8835 88.848 93.8835 88.448V77.72C93.8835 77.144 93.8995 76.712 93.9315 76.424L93.8355 76.4C93.6435 76.784 93.4515 77.136 93.2595 77.456L89.4195 84.152C89.2755 84.392 89.0595 84.512 88.7715 84.512H87.8835Z" fill="black"/>
<path d="M32.412 148.568C32.124 151.592 31.62 154.796 30.576 156.92C31.44 157.244 32.988 157.928 33.708 158.432C34.716 156.128 35.508 152.564 35.832 149.144L32.412 148.568ZM54.516 152.456C54.048 152.456 53.976 152.168 53.976 151.268V148.1H59.196V144.86H55.992V142.052H59.088V138.812H57.36C57.936 137.588 58.62 135.932 59.376 134.384L56.136 133.448C55.884 134.852 55.272 136.976 54.732 138.308L56.172 138.812H51.708L53.436 138.2C53.292 136.976 52.716 135.032 51.996 133.628L49.476 134.528C50.016 135.824 50.484 137.588 50.664 138.812H49.368V142.052H52.392V144.86H49.26V148.1H50.412V151.232C50.412 154.616 51.132 155.804 54.516 155.804H56.928C57.756 155.804 58.512 155.768 59.052 155.552C58.944 154.724 58.836 153.104 58.764 152.24C58.26 152.384 57.432 152.456 56.928 152.456H54.516ZM63.948 129.056H44.616V143.816C44.004 142.232 43.176 140.54 42.348 139.1L39.324 140.36C39.72 141.08 40.116 141.872 40.476 142.664L37.344 142.844C39.612 139.964 42.06 136.4 44.04 133.376L40.548 131.756C39.72 133.52 38.568 135.572 37.308 137.588C36.984 137.156 36.588 136.652 36.156 136.184C37.488 134.168 38.964 131.324 40.224 128.84L36.516 127.544C35.94 129.38 34.932 131.792 33.924 133.772C33.636 133.52 33.348 133.268 33.096 133.016L31.008 135.896C32.448 137.372 34.104 139.316 35.112 140.936C34.572 141.692 34.032 142.412 33.492 143.06L30.9 143.204L31.332 146.912L36.336 146.516V161.132H40.008V146.228L41.808 146.084C42.024 146.876 42.24 147.596 42.348 148.208L44.616 147.164V152.168C44.256 150.908 43.824 149.54 43.32 148.424L40.332 149.324C41.124 151.376 41.808 154.04 41.988 155.804L44.616 154.94V161.204H48.432V132.764H60.06V156.884C60.06 157.388 59.88 157.568 59.376 157.604C58.872 157.604 57.252 157.604 55.812 157.532C56.316 158.504 56.82 160.124 56.928 161.132C59.448 161.168 61.14 161.06 62.364 160.448C63.552 159.836 63.948 158.864 63.948 156.884V129.056ZM68.988 148.46C68.592 151.484 67.836 154.724 66.684 156.812C67.656 157.172 69.42 158 70.248 158.54C71.436 156.236 72.408 152.6 72.876 149.144L68.988 148.46ZM81.048 145.904C81.372 146.624 81.66 147.272 81.84 147.848L85.188 146.048C84.432 144.068 82.524 141.008 80.904 138.74L77.844 140.288C78.276 140.936 78.708 141.656 79.14 142.412L74.82 142.628C77.232 139.856 79.824 136.508 81.984 133.556L78.096 131.612C77.124 133.376 75.828 135.428 74.424 137.408C73.992 136.904 73.452 136.364 72.912 135.86C74.388 133.916 76.044 131.324 77.52 128.984L73.488 127.472C72.732 129.308 71.544 131.648 70.32 133.592C69.924 133.304 69.528 132.98 69.168 132.692L67.116 135.644C68.772 137.048 70.752 138.92 72.084 140.54C71.472 141.368 70.824 142.124 70.212 142.844L67.008 142.988L67.44 146.948L73.452 146.516V161.132H77.664V146.192L81.048 145.904ZM93.576 155.948V135.248H100.2V131.144H82.704V135.248H89.148V155.948H83.388L84.36 155.588C83.82 153.572 82.704 150.584 81.66 148.244L78.132 149.432C79.104 151.808 80.256 154.94 80.652 156.956L81.444 156.668V160.016H100.812V155.948H93.576ZM114.6 142.988L111.864 143.708V138.236H114.636V134.312H111.864V127.544H107.76V134.312H103.584V138.236H107.76V144.716C105.924 145.148 104.232 145.544 102.864 145.832L103.764 149.972L107.76 148.892V156.272C107.76 156.812 107.58 156.956 107.148 156.956C106.68 156.992 105.204 156.992 103.8 156.92C104.34 158.108 104.88 159.944 104.988 161.096C107.472 161.096 109.164 160.952 110.352 160.232C111.504 159.584 111.864 158.432 111.864 156.308V147.74C112.944 147.416 114.024 147.128 115.068 146.804L114.6 142.988ZM121.368 151.88H125.544V155.444H121.368V151.88ZM125.544 141.188H121.368V137.84H125.544V141.188ZM125.544 148.28H121.368V144.788H125.544V148.28ZM136.704 155.444H129.504V151.88H135.12V148.28H129.504V144.788H135.12V141.188H129.504V137.84H136.056V134.06H129.936C130.764 132.332 131.592 130.388 132.384 128.516L127.848 127.58C127.344 129.524 126.516 131.972 125.688 134.06H121.728C122.52 132.224 123.204 130.352 123.744 128.444L119.64 127.472C118.308 132.368 115.932 137.192 112.98 140.18C113.808 141.08 115.14 143.024 115.68 143.96C116.22 143.384 116.76 142.736 117.264 142.052V161.096H121.368V159.332H136.704V155.444ZM146.28 161.204C148.008 159.872 149.124 157.856 149.916 155.948L146.784 154.652C146.136 156.344 144.876 158.216 143.328 159.296L146.28 161.204ZM150.852 155.552C151.212 157.172 151.464 159.368 151.392 160.772L154.74 160.268C154.704 158.9 154.416 156.74 154.02 155.12L150.852 155.552ZM155.424 155.552C156.108 156.992 156.792 158.936 157.008 160.196L160.14 159.224C159.852 157.964 159.132 156.056 158.376 154.688L155.424 155.552ZM145.884 143.24V142.052H150.132V143.78H145.884V143.24ZM150.132 138.2V139.676H145.884V138.2H150.132ZM157.908 139.676H153.732V138.2H157.908V139.676ZM166.044 142.052V143.78H161.544V142.052H166.044ZM153.732 143.78V142.052H157.908V143.78H153.732ZM152.364 146.12H170.22V139.676H161.544V138.2H171.696V135.32H157.836V133.592H153.84V135.32H141.888V143.24C141.888 147.776 141.636 154.22 138.792 158.72C139.764 159.116 141.528 160.16 142.284 160.808C144.804 156.776 145.632 150.944 145.812 146.12H148.368C147.828 148.892 147.036 152.168 146.316 154.328L150.204 154.688L150.348 154.148H162.12L159.96 155.048C160.752 156.056 161.652 157.46 162.048 158.396L164.892 157.064C164.496 156.236 163.668 155.048 162.84 154.148H167.268C167.052 156.416 166.764 157.424 166.44 157.784C166.188 158.036 165.936 158.072 165.468 158.072C165 158.072 164.1 158.072 163.02 157.964C163.524 158.828 163.848 160.124 163.92 161.06C165.36 161.132 166.728 161.096 167.484 160.988C168.384 160.916 169.104 160.664 169.752 159.98C170.544 159.152 170.976 157.1 171.3 152.672C171.372 152.24 171.408 151.376 171.408 151.376H151.104L151.428 150.116H171.84V147.416H152.076L152.364 146.12ZM164.532 129.38V127.508H160.248V129.38H151.86V127.508H147.612V129.38H140.088V132.764H147.612V134.636H151.86V132.764H160.248V134.636H164.532V132.764H171.984V129.38H164.532Z" fill="black"/>
<path d="M40.776 178.656C40.608 181.824 40.608 193.272 30.888 198.24C31.44 198.6 32.016 199.176 32.328 199.608C38.4 196.32 40.872 190.536 41.928 185.736C43.08 190.536 45.72 196.68 51.912 199.608C52.176 199.128 52.728 198.528 53.232 198.144C44.208 194.016 42.912 182.928 42.696 179.76C42.72 179.352 42.72 178.968 42.744 178.656H40.776ZM76.032 181.536V180.12H61.368C61.68 179.544 61.944 178.968 62.184 178.368L60.336 177.888C59.232 180.744 57.264 183.432 55.032 185.136C55.488 185.424 56.304 185.952 56.688 186.288C58.056 185.064 59.424 183.408 60.576 181.536H76.032ZM74.232 184.416V183.072H59.976V184.416H74.232ZM64.08 187.92H62.4V192.12H55.992V193.56H61.2C59.712 195.384 57.384 197.16 55.368 198.048C55.728 198.36 56.232 198.96 56.496 199.344C58.512 198.288 60.816 196.392 62.4 194.352V199.8H64.08V195.36C65.904 196.464 67.872 197.832 68.928 198.792L70.104 197.664C68.784 196.536 66.168 194.88 64.152 193.776L64.08 193.848V193.56H70.368V192.12H64.08V187.92ZM57.624 188.928C58.392 189.84 59.184 191.112 59.472 191.976L60.864 191.352C60.576 190.488 59.76 189.24 58.968 188.328L57.624 188.928ZM67.584 188.208C67.08 189.168 66.12 190.584 65.4 191.472L66.552 192C67.32 191.184 68.304 189.936 69.144 188.808L67.584 188.208ZM57.528 186V187.416H71.136C71.352 194.472 71.976 199.8 75.072 199.8C76.512 199.8 76.896 198.648 77.04 195.672C76.656 195.456 76.152 195 75.84 194.64C75.792 196.704 75.648 198.072 75.192 198.072C73.464 198.072 72.96 192.216 72.864 186H57.528ZM80.208 191.52C79.944 193.608 79.488 195.768 78.744 197.232C79.08 197.352 79.8 197.664 80.064 197.88C80.832 196.344 81.384 194.04 81.72 191.784L80.208 191.52ZM85.128 191.856C85.728 193.224 86.208 195.048 86.328 196.2L87.72 195.792C87.576 194.616 87.048 192.84 86.448 191.472L85.128 191.856ZM93.336 194.712C92.904 194.712 92.808 194.52 92.808 193.896V190.488H97.896V189.072H94.752V186.624H97.752V185.208H95.928C96.408 184.296 96.984 183 97.512 181.848L96.072 181.368C95.808 182.4 95.256 183.912 94.8 184.872L95.688 185.208H91.92L93.024 184.8C92.88 183.936 92.424 182.568 91.872 181.536L90.72 181.944C91.224 182.952 91.656 184.296 91.8 185.208H90.456V186.624H93.216V189.072H90.264V190.488H91.272V193.872C91.272 195.576 91.68 196.128 93.336 196.128H96.144C96.696 196.128 97.248 196.128 97.584 196.056C97.536 195.672 97.464 195 97.44 194.616C97.104 194.688 96.456 194.712 96.12 194.712H93.336ZM100.32 179.064H87.96V189.936C87.528 188.64 86.688 186.912 85.8 185.568L84.504 186.096C84.888 186.72 85.248 187.416 85.584 188.112L82.128 188.28C83.76 186.24 85.56 183.528 86.928 181.344L85.44 180.648C84.768 181.944 83.856 183.504 82.872 184.992C82.512 184.512 82.08 183.984 81.576 183.456C82.488 182.112 83.52 180.168 84.336 178.512L82.776 177.936C82.272 179.256 81.432 181.08 80.64 182.448C80.4 182.208 80.16 181.992 79.92 181.776L78.96 182.904C80.04 183.936 81.24 185.304 81.936 186.384C81.432 187.104 80.928 187.776 80.448 188.376L78.792 188.448L78.96 190.056L82.728 189.816V199.824H84.312V189.72L86.208 189.6C86.448 190.152 86.616 190.68 86.712 191.136L87.96 190.56V199.872H89.544V180.648H98.688V197.832C98.688 198.168 98.592 198.264 98.28 198.288C97.944 198.288 96.888 198.312 95.784 198.264C96.024 198.696 96.264 199.416 96.312 199.824C97.848 199.848 98.856 199.8 99.504 199.56C100.104 199.272 100.32 198.792 100.32 197.832V179.064ZM104.664 191.496C104.328 193.584 103.776 195.744 102.912 197.184C103.32 197.328 104.064 197.712 104.4 197.952C105.24 196.416 105.936 194.088 106.32 191.808L104.664 191.496ZM112.32 189.48C112.608 190.032 112.872 190.536 113.04 190.968L114.432 190.2C113.88 188.904 112.56 186.84 111.36 185.352L110.064 186.024C110.52 186.6 110.976 187.272 111.408 187.944C109.824 188.04 108.264 188.112 106.824 188.184C108.6 186.168 110.592 183.528 112.104 181.32L110.472 180.528C109.728 181.848 108.696 183.408 107.592 184.896C107.16 184.368 106.584 183.768 105.96 183.192C106.968 181.896 108.144 180.096 109.056 178.56L107.4 177.888C106.8 179.208 105.792 180.936 104.904 182.256C104.592 181.992 104.28 181.752 103.968 181.512L103.056 182.688C104.304 183.696 105.744 185.064 106.632 186.192C106.032 186.936 105.432 187.656 104.88 188.28L102.96 188.352L103.176 190.056C104.448 189.984 105.984 189.888 107.616 189.768V199.824H109.368V189.672L112.32 189.48ZM113.904 196.152C113.592 194.856 112.848 192.864 112.056 191.352L110.568 191.856C111.312 193.392 112.104 195.408 112.344 196.752L113.904 196.152ZM119.616 197.256V182.16H124.584V180.456H113.04V182.16H117.792V197.256H112.08V198.96H124.968V197.256H119.616Z" fill="black"/>
<path d="M45.02 326.34H35.02V324.96H45.02V326.34ZM45.02 328.74H35.02V327.34H45.02V328.74ZM46.48 323.9H33.62V329.8H46.48V323.9ZM46.28 334.58C45.76 335.7 45.02 336.68 44.12 337.52C43.3 336.68 42.62 335.68 42.16 334.58H46.28ZM34.32 337.14H37.94V338.36C36.7 338.5 35.46 338.62 34.32 338.74V337.14ZM34.32 334.62H37.94V336.02H34.32V334.62ZM37.94 332.16V333.5H34.32V332.16H37.94ZM47.2 333.36L46.94 333.4H40.06V334.58H41.78L40.92 334.84C41.46 336.18 42.2 337.36 43.12 338.36C41.98 339.22 40.68 339.86 39.36 340.26V332.16H48.72V330.92H31.24V332.16H32.96V338.88C32.26 338.96 31.62 339.02 31.06 339.06L31.2 340.38C33.06 340.16 35.5 339.88 37.94 339.58V341.52H39.36V340.28C39.62 340.54 39.98 341.06 40.14 341.4C41.54 340.92 42.9 340.24 44.12 339.3C45.3 340.28 46.7 341.04 48.3 341.5C48.48 341.16 48.88 340.62 49.2 340.34C47.66 339.96 46.3 339.3 45.16 338.42C46.44 337.18 47.48 335.62 48.1 333.72L47.2 333.36ZM60.06 325.36H56.42V323.34H54.98V325.36H51.3V326.6H60.06V325.36ZM57.76 329.8C58.14 329.08 58.54 327.96 58.92 326.96L57.56 326.64C57.38 327.5 56.92 328.74 56.56 329.54L57.76 329.8ZM54.52 329.52C54.42 328.76 54.08 327.58 53.66 326.68L52.5 326.98C52.88 327.88 53.2 329.08 53.28 329.86L54.52 329.52ZM59.58 337.54C59.12 337.12 57.18 335.54 56.42 334.98V334.5H60.14V333.24H56.42V331.14H60.3V329.88H51.02V331.14H54.98V333.24H51.08V334.5H54.66C53.66 336.26 52.08 338.06 50.64 339C50.96 339.26 51.4 339.74 51.64 340.08C52.76 339.2 54 337.78 54.98 336.24V341.48H56.42V336.4C57.26 337.16 58.28 338.14 58.7 338.64L59.58 337.54ZM69.12 329.96H62.44V326.4C64.66 325.96 67.16 325.36 68.86 324.6L67.66 323.5C66.38 324.14 64.14 324.78 62.1 325.22L61.02 324.88V331.84C61.02 334.64 60.74 338.1 58.2 340.58C58.54 340.78 59.08 341.3 59.26 341.62C62.06 338.84 62.44 334.84 62.44 331.86V331.36H65.42V341.4H66.88V331.36H69.12V329.96ZM71.84 334.6C71.62 336.34 71.24 338.14 70.62 339.36C70.9 339.46 71.5 339.72 71.72 339.9C72.36 338.62 72.82 336.7 73.1 334.82L71.84 334.6ZM75.94 334.88C76.44 336.02 76.84 337.54 76.94 338.5L78.1 338.16C77.98 337.18 77.54 335.7 77.04 334.56L75.94 334.88ZM82.78 337.26C82.42 337.26 82.34 337.1 82.34 336.58V333.74H86.58V332.56H83.96V330.52H86.46V329.34H84.94C85.34 328.58 85.82 327.5 86.26 326.54L85.06 326.14C84.84 327 84.38 328.26 84 329.06L84.74 329.34H81.6L82.52 329C82.4 328.28 82.02 327.14 81.56 326.28L80.6 326.62C81.02 327.46 81.38 328.58 81.5 329.34H80.38V330.52H82.68V332.56H80.22V333.74H81.06V336.56C81.06 337.98 81.4 338.44 82.78 338.44H85.12C85.58 338.44 86.04 338.44 86.32 338.38C86.28 338.06 86.22 337.5 86.2 337.18C85.92 337.24 85.38 337.26 85.1 337.26H82.78ZM88.6 324.22H78.3V333.28C77.94 332.2 77.24 330.76 76.5 329.64L75.42 330.08C75.74 330.6 76.04 331.18 76.32 331.76L73.44 331.9C74.8 330.2 76.3 327.94 77.44 326.12L76.2 325.54C75.64 326.62 74.88 327.92 74.06 329.16C73.76 328.76 73.4 328.32 72.98 327.88C73.74 326.76 74.6 325.14 75.28 323.76L73.98 323.28C73.56 324.38 72.86 325.9 72.2 327.04C72 326.84 71.8 326.66 71.6 326.48L70.8 327.42C71.7 328.28 72.7 329.42 73.28 330.32C72.86 330.92 72.44 331.48 72.04 331.98L70.66 332.04L70.8 333.38L73.94 333.18V341.52H75.26V333.1L76.84 333C77.04 333.46 77.18 333.9 77.26 334.28L78.3 333.8V341.56H79.62V325.54H87.24V339.86C87.24 340.14 87.16 340.22 86.9 340.24C86.62 340.24 85.74 340.26 84.82 340.22C85.02 340.58 85.22 341.18 85.26 341.52C86.54 341.54 87.38 341.5 87.92 341.3C88.42 341.06 88.6 340.66 88.6 339.86V324.22ZM92.22 334.58C91.94 336.32 91.48 338.12 90.76 339.32C91.1 339.44 91.72 339.76 92 339.96C92.7 338.68 93.28 336.74 93.6 334.84L92.22 334.58ZM98.6 332.9C98.84 333.36 99.06 333.78 99.2 334.14L100.36 333.5C99.9 332.42 98.8 330.7 97.8 329.46L96.72 330.02C97.1 330.5 97.48 331.06 97.84 331.62C96.52 331.7 95.22 331.76 94.02 331.82C95.5 330.14 97.16 327.94 98.42 326.1L97.06 325.44C96.44 326.54 95.58 327.84 94.66 329.08C94.3 328.64 93.82 328.14 93.3 327.66C94.14 326.58 95.12 325.08 95.88 323.8L94.5 323.24C94 324.34 93.16 325.78 92.42 326.88C92.16 326.66 91.9 326.46 91.64 326.26L90.88 327.24C91.92 328.08 93.12 329.22 93.86 330.16C93.36 330.78 92.86 331.38 92.4 331.9L90.8 331.96L90.98 333.38C92.04 333.32 93.32 333.24 94.68 333.14V341.52H96.14V333.06L98.6 332.9ZM99.92 338.46C99.66 337.38 99.04 335.72 98.38 334.46L97.14 334.88C97.76 336.16 98.42 337.84 98.62 338.96L99.92 338.46ZM104.68 339.38V326.8H108.82V325.38H99.2V326.8H103.16V339.38H98.4V340.8H109.14V339.38H104.68ZM117 332.02L115.08 332.58V328.64H117.02V327.28H115.08V323.28H113.64V327.28H110.96V328.64H113.64V333C112.5 333.34 111.44 333.64 110.62 333.84L110.96 335.28L113.64 334.46V339.72C113.64 340.02 113.56 340.1 113.3 340.1C113.04 340.12 112.22 340.12 111.32 340.08C111.52 340.48 111.7 341.14 111.76 341.5C113.08 341.52 113.88 341.48 114.4 341.24C114.9 340.98 115.08 340.56 115.08 339.72V334.02L117.18 333.36L117 332.02ZM120.1 336.34H123.36V339.12H120.1V336.34ZM123.36 331.04H120.1V328.36H123.36V331.04ZM123.36 335.04H120.1V332.32H123.36V335.04ZM129.14 339.12H124.72V336.34H128.32V335.04H124.72V332.32H128.32V331.04H124.72V328.36H128.8V327.02H124.82C125.3 326 125.84 324.78 126.28 323.68L124.72 323.32C124.42 324.4 123.88 325.88 123.36 327.02H120.3C120.8 325.92 121.22 324.78 121.58 323.6L120.16 323.24C119.34 326.12 117.94 328.86 116.2 330.62C116.5 330.92 117 331.56 117.2 331.86C117.72 331.3 118.22 330.66 118.68 329.96V341.5H120.1V340.48H129.14V339.12ZM133.94 341.52C134.9 340.78 135.54 339.56 135.94 338.46L134.84 338.02C134.48 339.04 133.78 340.2 132.9 340.84L133.94 341.52ZM137.2 338.3C137.46 339.24 137.64 340.46 137.62 341.26L138.84 341.06C138.82 340.3 138.62 339.08 138.34 338.14L137.2 338.3ZM139.8 338.24C140.3 339.04 140.76 340.14 140.94 340.88L142.08 340.46C141.88 339.76 141.4 338.68 140.88 337.9L139.8 338.24ZM142.5 338C143.08 338.58 143.7 339.38 143.98 339.94L145 339.38C144.7 338.86 144.08 338.1 143.46 337.54L142.5 338ZM141.54 329.78H138.3V328.68H141.54V329.78ZM146.24 330.72V332.22H142.84V330.72H146.24ZM138.3 330.72H141.54V332.22H138.3V330.72ZM137.02 332.22H133.78V330.72H137.02V332.22ZM137.02 328.68V329.78H133.78V328.68H137.02ZM140.6 326.3H139.22V327.6H132.4V332.24C132.4 334.72 132.24 338.2 130.68 340.7C131.04 340.84 131.64 341.24 131.88 341.44C133.36 339.12 133.7 335.78 133.76 333.18H135.82C135.5 334.68 135.08 336.46 134.7 337.6L136.06 337.8L136.18 337.4H146.88C146.72 339.26 146.54 340.02 146.32 340.28C146.18 340.4 146.02 340.42 145.74 340.42C145.46 340.42 144.82 340.42 144.12 340.34C144.3 340.66 144.4 341.16 144.42 341.48C145.22 341.54 145.96 341.54 146.36 341.5C146.82 341.46 147.16 341.36 147.44 341.08C147.86 340.62 148.08 339.54 148.3 336.88C148.32 336.7 148.34 336.34 148.34 336.34H136.48C136.56 335.98 136.66 335.62 136.74 335.24H148.5V334.18H137L137.24 333.18H147.68V329.78H142.84V328.68H148.5V327.6H140.6V326.3ZM144.18 324.62V323.26H142.7V324.62H137.32V323.26H135.86V324.62H131.24V325.82H135.86V327.08H137.32V325.82H142.7V327.08H144.18V325.82H148.84V324.62H144.18Z" fill="black"/>
<rect x="27" y="351" width="40" height="40" fill="#C4C4C4"/>
<rect x="67" y="391" width="40" height="40" fill="#C4C4C4"/>
<rect x="67" y="351" width="40" height="40" fill="#E6E6E6"/>
<rect x="67" y="351" width="40" height="40" fill="#E6E6E6"/>
<rect x="67" y="351" width="40" height="40" fill="#E6E6E6"/>
<rect x="67" y="351" width="40" height="40" fill="#E6E6E6"/>
<rect x="27" y="391" width="40" height="40" fill="#E6E6E6"/>
<rect x="27" y="391" width="40" height="40" fill="#E6E6E6"/>
<rect x="27" y="391" width="40" height="40" fill="#E6E6E6"/>
<rect x="27" y="391" width="40" height="40" fill="#E6E6E6"/>
<path d="M132.248 354.096C131.608 353.568 130.328 352.896 129.352 352.528L128.312 353.936C129.32 354.368 130.568 355.104 131.144 355.664L132.248 354.096ZM131.464 358.352C130.824 357.808 129.496 357.184 128.504 356.832L127.496 358.256C128.504 358.688 129.768 359.392 130.376 359.936L131.464 358.352ZM129.608 367.168C130.504 365.6 131.448 363.76 132.248 362.064L130.808 360.88C129.896 362.752 128.744 364.768 127.944 365.984L129.608 367.168ZM135.144 363.216V362.448H139.496V363.216H135.144ZM139.496 360.528V361.232H135.144V360.528H139.496ZM141.304 359.136H133.384V367.36H135.144V364.48H139.496V365.472C139.496 365.664 139.416 365.712 139.208 365.712C139 365.728 138.248 365.728 137.592 365.712C137.8 366.144 138.04 366.848 138.104 367.328C139.208 367.328 140.008 367.312 140.568 367.04C141.16 366.784 141.304 366.336 141.304 365.488V359.136ZM138.088 357.184V356.528H141.544V355.248H138.088V354.64H141.976V353.28H138.088V352.448H136.2V353.28H132.52V354.64H136.2V355.248H132.952V356.528H136.2V357.184H132.024V358.544H142.488V357.184H138.088ZM155.48 355.136H153.192V354.208H155.48V355.136ZM157.256 353.072H151.512V356.272H157.256V353.072ZM148.76 355.136H146.52V354.208H148.76V355.136ZM150.536 353.072H144.824V356.272H150.536V353.072ZM147.256 361.44V360.576H149.96V361.44H147.256ZM147.256 358.368H149.96V359.216H147.256V358.368ZM154.792 359.216H151.912V358.368H154.792V359.216ZM154.792 361.44H151.912V360.576H154.792V361.44ZM158.136 363.728H151.912V362.896H156.744V356.896H145.4V362.896H149.96V363.728H143.88V365.36H149.96V367.392H151.912V365.36H158.136V363.728ZM165.928 365.04V361.92H171.352V365.04H165.928ZM168.744 355.68C168.168 356.736 167.416 357.728 166.52 358.608C165.848 357.92 164.824 357.12 163.976 356.496C164.248 356.224 164.504 355.952 164.76 355.68H168.744ZM173.336 360.192H167.624C169.224 358.672 170.52 356.8 171.336 354.608L170.024 353.92L169.704 354.016H166.072C166.36 353.6 166.632 353.184 166.872 352.768L164.728 352.368C163.8 354.112 162.04 356.064 159.416 357.456C159.848 357.776 160.472 358.48 160.76 358.944C161.4 358.56 161.992 358.16 162.536 357.728C163.384 358.4 164.344 359.232 164.984 359.936C163.32 361.168 161.384 362.128 159.384 362.704C159.784 363.088 160.264 363.872 160.488 364.4C161.704 363.984 162.904 363.472 164.024 362.832V367.376H165.928V366.752H171.352V367.392H173.336V360.192ZM181.432 361.104C181.144 360.784 179.912 359.536 179.48 359.168V358.752H181.08V357.312C181.496 357.52 181.976 357.808 182.216 358C182.792 357.216 183.352 356.08 183.752 354.864C185.72 354.672 187.896 354.352 189.56 353.904L188.216 352.576C187.064 352.928 185.272 353.248 183.528 353.456L182.312 353.2C182.008 354.624 181.432 356.064 180.664 357.024H179.48V354.672C180.152 354.496 180.776 354.288 181.336 354.064L180.008 352.72C178.92 353.232 177.112 353.696 175.464 353.984C175.672 354.336 175.896 354.976 175.976 355.36C176.52 355.28 177.096 355.2 177.672 355.088V357.024H175.608V358.752H177.368C176.904 360.288 176.136 362.032 175.352 363.072C175.64 363.552 176.056 364.336 176.216 364.88C176.744 364.128 177.24 363.056 177.672 361.904V367.392H179.48V361.088C179.832 361.632 180.184 362.192 180.376 362.56L181.432 361.104ZM187.448 354.88C188.024 355.776 188.616 357.024 188.856 357.824L190.488 357.12C190.216 356.304 189.624 355.152 189 354.256L187.448 354.88ZM186.584 362.896V361.936H188.008V362.896H186.584ZM183.544 361.936H184.872V362.896H183.544V361.936ZM184.872 359.632V360.544H183.544V359.632H184.872ZM188.008 359.632V360.544H186.584V359.632H188.008ZM190.552 362.896H189.768V358.144H186.584V357.232H185.432L186.792 356.848C186.712 356.256 186.424 355.392 186.088 354.752L184.52 355.168C184.808 355.792 185.064 356.656 185.128 357.232H184.872V358.144H181.816V362.896H180.824V364.432H181.816V367.36H183.544V364.432H188.008V365.472C188.008 365.664 187.928 365.712 187.72 365.728C187.512 365.728 186.824 365.744 186.2 365.712C186.44 366.144 186.712 366.88 186.792 367.36C187.8 367.36 188.536 367.344 189.064 367.056C189.608 366.784 189.768 366.32 189.768 365.504V364.432H190.552V362.896Z" fill="black"/>
<path d="M133.58 381.266V382.064H129.912V381.266H133.58ZM129.898 383.562C129.912 383.282 129.912 383.016 129.912 382.764V382.75H133.58V383.562H129.898ZM133.804 386.012V387.664H130.584V386.012H133.804ZM134.518 384.346V380.482H128.988V382.75C128.988 384.346 128.834 386.516 127.518 388.112C127.714 388.224 128.092 388.56 128.218 388.756C129.002 387.79 129.436 386.586 129.674 385.396V389.036H130.584V388.462H133.804V388.938H134.728V385.214H129.702C129.758 384.92 129.8 384.626 129.828 384.346H134.518ZM131.186 376.422C130.5 377.556 129.254 378.97 127.518 380.006C127.728 380.146 128.05 380.496 128.176 380.706C128.946 380.216 129.632 379.67 130.206 379.124V379.712H133.608V378.956H130.374C130.948 378.396 131.424 377.822 131.816 377.318C132.782 378.074 133.916 379.166 134.518 379.838L135.204 379.054C134.504 378.326 133.174 377.206 132.138 376.422H131.186ZM136.646 377.962H135.666V385.662H136.646V377.962ZM138.788 376.562V387.706C138.788 387.958 138.676 388.042 138.438 388.042C138.172 388.056 137.346 388.07 136.394 388.028C136.548 388.322 136.716 388.798 136.758 389.064C138.004 389.078 138.746 389.05 139.18 388.882C139.614 388.7 139.796 388.392 139.796 387.692V376.562H138.788ZM145.018 376.338C144.234 378.466 142.946 380.552 141.56 381.896C141.756 382.12 142.064 382.694 142.162 382.932C142.638 382.442 143.114 381.882 143.548 381.266V389.05H144.584V379.656C145.13 378.69 145.634 377.668 146.012 376.66L145.018 376.338ZM154.412 379.614V378.62H148.588C148.868 378.004 149.134 377.374 149.358 376.73L148.364 376.464C147.678 378.508 146.544 380.524 145.284 381.826C145.522 381.994 145.928 382.344 146.096 382.526C146.796 381.742 147.482 380.734 148.084 379.614H149.05V389.064H150.1V385.676H154.286V384.696H150.1V382.582H154.09V381.616H150.1V379.614H154.412ZM161.622 380.762V378.97H164.73C164.072 379.6 163.358 380.202 162.602 380.762H161.622ZM165.416 385.424H159.746V384.038H165.416V385.424ZM159.746 387.706V386.25H165.416V387.706H159.746ZM168.188 381.7V380.762H164.156C165.43 379.712 166.578 378.536 167.558 377.248L166.676 376.772C166.2 377.416 165.668 378.032 165.08 378.62V378.046H161.622V376.296H160.6V378.046H157.03V378.97H160.6V380.762H155.812V381.7H161.258C159.494 382.834 157.534 383.758 155.504 384.472C155.7 384.682 156.036 385.102 156.162 385.326C157.016 385.004 157.884 384.626 158.724 384.22V389.064H159.746V388.616H165.416V389.008H166.48V383.156H160.698C161.468 382.708 162.224 382.218 162.952 381.7H168.188ZM178.73 382.68C178.73 385.41 179.836 387.636 181.516 389.344L182.356 388.91C180.746 387.244 179.752 385.172 179.752 382.68C179.752 380.188 180.746 378.116 182.356 376.45L181.516 376.016C179.836 377.724 178.73 379.95 178.73 382.68ZM184.288 384.22C184.134 385.438 183.868 386.698 183.434 387.552C183.63 387.622 184.05 387.804 184.204 387.93C184.652 387.034 184.974 385.69 185.17 384.374L184.288 384.22ZM187.158 384.416C187.508 385.214 187.788 386.278 187.858 386.95L188.67 386.712C188.586 386.026 188.278 384.99 187.928 384.192L187.158 384.416ZM191.946 386.082C191.694 386.082 191.638 385.97 191.638 385.606V383.618H194.606V382.792H192.772V381.364H194.522V380.538H193.458C193.738 380.006 194.074 379.25 194.382 378.578L193.542 378.298C193.388 378.9 193.066 379.782 192.8 380.342L193.318 380.538H191.12L191.764 380.3C191.68 379.796 191.414 378.998 191.092 378.396L190.42 378.634C190.714 379.222 190.966 380.006 191.05 380.538H190.266V381.364H191.876V382.792H190.154V383.618H190.742V385.592C190.742 386.586 190.98 386.908 191.946 386.908H193.584C193.906 386.908 194.228 386.908 194.424 386.866C194.396 386.642 194.354 386.25 194.34 386.026C194.144 386.068 193.766 386.082 193.57 386.082H191.946ZM196.02 376.954H188.81V383.296C188.558 382.54 188.068 381.532 187.55 380.748L186.794 381.056C187.018 381.42 187.228 381.826 187.424 382.232L185.408 382.33C186.36 381.14 187.41 379.558 188.208 378.284L187.34 377.878C186.948 378.634 186.416 379.544 185.842 380.412C185.632 380.132 185.38 379.824 185.086 379.516C185.618 378.732 186.22 377.598 186.696 376.632L185.786 376.296C185.492 377.066 185.002 378.13 184.54 378.928C184.4 378.788 184.26 378.662 184.12 378.536L183.56 379.194C184.19 379.796 184.89 380.594 185.296 381.224C185.002 381.644 184.708 382.036 184.428 382.386L183.462 382.428L183.56 383.366L185.758 383.226V389.064H186.682V383.17L187.788 383.1C187.928 383.422 188.026 383.73 188.082 383.996L188.81 383.66V389.092H189.734V377.878H195.068V387.902C195.068 388.098 195.012 388.154 194.83 388.168C194.634 388.168 194.018 388.182 193.374 388.154C193.514 388.406 193.654 388.826 193.682 389.064C194.578 389.078 195.166 389.05 195.544 388.91C195.894 388.742 196.02 388.462 196.02 387.902V376.954ZM198.554 384.206C198.358 385.424 198.036 386.684 197.532 387.524C197.77 387.608 198.204 387.832 198.4 387.972C198.89 387.076 199.296 385.718 199.52 384.388L198.554 384.206ZM203.02 383.03C203.188 383.352 203.342 383.646 203.44 383.898L204.252 383.45C203.93 382.694 203.16 381.49 202.46 380.622L201.704 381.014C201.97 381.35 202.236 381.742 202.488 382.134C201.564 382.19 200.654 382.232 199.814 382.274C200.85 381.098 202.012 379.558 202.894 378.27L201.942 377.808C201.508 378.578 200.906 379.488 200.262 380.356C200.01 380.048 199.674 379.698 199.31 379.362C199.898 378.606 200.584 377.556 201.116 376.66L200.15 376.268C199.8 377.038 199.212 378.046 198.694 378.816C198.512 378.662 198.33 378.522 198.148 378.382L197.616 379.068C198.344 379.656 199.184 380.454 199.702 381.112C199.352 381.546 199.002 381.966 198.68 382.33L197.56 382.372L197.686 383.366C198.428 383.324 199.324 383.268 200.276 383.198V389.064H201.298V383.142L203.02 383.03ZM203.944 386.922C203.762 386.166 203.328 385.004 202.866 384.122L201.998 384.416C202.432 385.312 202.894 386.488 203.034 387.272L203.944 386.922ZM207.276 387.566V378.76H210.174V377.766H203.44V378.76H206.212V387.566H202.88V388.56H210.398V387.566H207.276ZM215.27 382.68C215.27 379.95 214.164 377.724 212.484 376.016L211.644 376.45C213.254 378.116 214.248 380.188 214.248 382.68C214.248 385.172 213.254 387.244 211.644 388.91L212.484 389.344C214.164 387.636 215.27 385.41 215.27 382.68Z" fill="black"/>
<rect x="127" y="402" width="226" height="3" fill="#C4C4C4"/>
<rect x="127" y="410" width="226" height="3" fill="#C4C4C4"/>
<rect x="127" y="418" width="113" height="3" fill="#C4C4C4"/>
<rect x="27" y="440" width="40" height="40" fill="#C4C4C4"/>
<rect x="67" y="480" width="40" height="40" fill="#C4C4C4"/>
<rect x="67" y="440" width="40" height="40" fill="#E6E6E6"/>
<rect x="67" y="440" width="40" height="40" fill="#E6E6E6"/>
<rect x="67" y="440" width="40" height="40" fill="#E6E6E6"/>
<rect x="67" y="440" width="40" height="40" fill="#E6E6E6"/>
<rect x="27" y="480" width="40" height="40" fill="#E6E6E6"/>
<rect x="27" y="480" width="40" height="40" fill="#E6E6E6"/>
<rect x="27" y="480" width="40" height="40" fill="#E6E6E6"/>
<rect x="27" y="480" width="40" height="40" fill="#E6E6E6"/>
<path d="M132.248 443.096C131.608 442.568 130.328 441.896 129.352 441.528L128.312 442.936C129.32 443.368 130.568 444.104 131.144 444.664L132.248 443.096ZM131.464 447.352C130.824 446.808 129.496 446.184 128.504 445.832L127.496 447.256C128.504 447.688 129.768 448.392 130.376 448.936L131.464 447.352ZM129.608 456.168C130.504 454.6 131.448 452.76 132.248 451.064L130.808 449.88C129.896 451.752 128.744 453.768 127.944 454.984L129.608 456.168ZM135.144 452.216V451.448H139.496V452.216H135.144ZM139.496 449.528V450.232H135.144V449.528H139.496ZM141.304 448.136H133.384V456.36H135.144V453.48H139.496V454.472C139.496 454.664 139.416 454.712 139.208 454.712C139 454.728 138.248 454.728 137.592 454.712C137.8 455.144 138.04 455.848 138.104 456.328C139.208 456.328 140.008 456.312 140.568 456.04C141.16 455.784 141.304 455.336 141.304 454.488V448.136ZM138.088 446.184V445.528H141.544V444.248H138.088V443.64H141.976V442.28H138.088V441.448H136.2V442.28H132.52V443.64H136.2V444.248H132.952V445.528H136.2V446.184H132.024V447.544H142.488V446.184H138.088ZM155.48 444.136H153.192V443.208H155.48V444.136ZM157.256 442.072H151.512V445.272H157.256V442.072ZM148.76 444.136H146.52V443.208H148.76V444.136ZM150.536 442.072H144.824V445.272H150.536V442.072ZM147.256 450.44V449.576H149.96V450.44H147.256ZM147.256 447.368H149.96V448.216H147.256V447.368ZM154.792 448.216H151.912V447.368H154.792V448.216ZM154.792 450.44H151.912V449.576H154.792V450.44ZM158.136 452.728H151.912V451.896H156.744V445.896H145.4V451.896H149.96V452.728H143.88V454.36H149.96V456.392H151.912V454.36H158.136V452.728ZM165.928 454.04V450.92H171.352V454.04H165.928ZM168.744 444.68C168.168 445.736 167.416 446.728 166.52 447.608C165.848 446.92 164.824 446.12 163.976 445.496C164.248 445.224 164.504 444.952 164.76 444.68H168.744ZM173.336 449.192H167.624C169.224 447.672 170.52 445.8 171.336 443.608L170.024 442.92L169.704 443.016H166.072C166.36 442.6 166.632 442.184 166.872 441.768L164.728 441.368C163.8 443.112 162.04 445.064 159.416 446.456C159.848 446.776 160.472 447.48 160.76 447.944C161.4 447.56 161.992 447.16 162.536 446.728C163.384 447.4 164.344 448.232 164.984 448.936C163.32 450.168 161.384 451.128 159.384 451.704C159.784 452.088 160.264 452.872 160.488 453.4C161.704 452.984 162.904 452.472 164.024 451.832V456.376H165.928V455.752H171.352V456.392H173.336V449.192ZM181.432 450.104C181.144 449.784 179.912 448.536 179.48 448.168V447.752H181.08V446.312C181.496 446.52 181.976 446.808 182.216 447C182.792 446.216 183.352 445.08 183.752 443.864C185.72 443.672 187.896 443.352 189.56 442.904L188.216 441.576C187.064 441.928 185.272 442.248 183.528 442.456L182.312 442.2C182.008 443.624 181.432 445.064 180.664 446.024H179.48V443.672C180.152 443.496 180.776 443.288 181.336 443.064L180.008 441.72C178.92 442.232 177.112 442.696 175.464 442.984C175.672 443.336 175.896 443.976 175.976 444.36C176.52 444.28 177.096 444.2 177.672 444.088V446.024H175.608V447.752H177.368C176.904 449.288 176.136 451.032 175.352 452.072C175.64 452.552 176.056 453.336 176.216 453.88C176.744 453.128 177.24 452.056 177.672 450.904V456.392H179.48V450.088C179.832 450.632 180.184 451.192 180.376 451.56L181.432 450.104ZM187.448 443.88C188.024 444.776 188.616 446.024 188.856 446.824L190.488 446.12C190.216 445.304 189.624 444.152 189 443.256L187.448 443.88ZM186.584 451.896V450.936H188.008V451.896H186.584ZM183.544 450.936H184.872V451.896H183.544V450.936ZM184.872 448.632V449.544H183.544V448.632H184.872ZM188.008 448.632V449.544H186.584V448.632H188.008ZM190.552 451.896H189.768V447.144H186.584V446.232H185.432L186.792 445.848C186.712 445.256 186.424 444.392 186.088 443.752L184.52 444.168C184.808 444.792 185.064 445.656 185.128 446.232H184.872V447.144H181.816V451.896H180.824V453.432H181.816V456.36H183.544V453.432H188.008V454.472C188.008 454.664 187.928 454.712 187.72 454.728C187.512 454.728 186.824 454.744 186.2 454.712C186.44 455.144 186.712 455.88 186.792 456.36C187.8 456.36 188.536 456.344 189.064 456.056C189.608 455.784 189.768 455.32 189.768 454.504V453.432H190.552V451.896Z" fill="black"/>
<path d="M133.58 470.266V471.064H129.912V470.266H133.58ZM129.898 472.562C129.912 472.282 129.912 472.016 129.912 471.764V471.75H133.58V472.562H129.898ZM133.804 475.012V476.664H130.584V475.012H133.804ZM134.518 473.346V469.482H128.988V471.75C128.988 473.346 128.834 475.516 127.518 477.112C127.714 477.224 128.092 477.56 128.218 477.756C129.002 476.79 129.436 475.586 129.674 474.396V478.036H130.584V477.462H133.804V477.938H134.728V474.214H129.702C129.758 473.92 129.8 473.626 129.828 473.346H134.518ZM131.186 465.422C130.5 466.556 129.254 467.97 127.518 469.006C127.728 469.146 128.05 469.496 128.176 469.706C128.946 469.216 129.632 468.67 130.206 468.124V468.712H133.608V467.956H130.374C130.948 467.396 131.424 466.822 131.816 466.318C132.782 467.074 133.916 468.166 134.518 468.838L135.204 468.054C134.504 467.326 133.174 466.206 132.138 465.422H131.186ZM136.646 466.962H135.666V474.662H136.646V466.962ZM138.788 465.562V476.706C138.788 476.958 138.676 477.042 138.438 477.042C138.172 477.056 137.346 477.07 136.394 477.028C136.548 477.322 136.716 477.798 136.758 478.064C138.004 478.078 138.746 478.05 139.18 477.882C139.614 477.7 139.796 477.392 139.796 476.692V465.562H138.788ZM145.018 465.338C144.234 467.466 142.946 469.552 141.56 470.896C141.756 471.12 142.064 471.694 142.162 471.932C142.638 471.442 143.114 470.882 143.548 470.266V478.05H144.584V468.656C145.13 467.69 145.634 466.668 146.012 465.66L145.018 465.338ZM154.412 468.614V467.62H148.588C148.868 467.004 149.134 466.374 149.358 465.73L148.364 465.464C147.678 467.508 146.544 469.524 145.284 470.826C145.522 470.994 145.928 471.344 146.096 471.526C146.796 470.742 147.482 469.734 148.084 468.614H149.05V478.064H150.1V474.676H154.286V473.696H150.1V471.582H154.09V470.616H150.1V468.614H154.412ZM161.622 469.762V467.97H164.73C164.072 468.6 163.358 469.202 162.602 469.762H161.622ZM165.416 474.424H159.746V473.038H165.416V474.424ZM159.746 476.706V475.25H165.416V476.706H159.746ZM168.188 470.7V469.762H164.156C165.43 468.712 166.578 467.536 167.558 466.248L166.676 465.772C166.2 466.416 165.668 467.032 165.08 467.62V467.046H161.622V465.296H160.6V467.046H157.03V467.97H160.6V469.762H155.812V470.7H161.258C159.494 471.834 157.534 472.758 155.504 473.472C155.7 473.682 156.036 474.102 156.162 474.326C157.016 474.004 157.884 473.626 158.724 473.22V478.064H159.746V477.616H165.416V478.008H166.48V472.156H160.698C161.468 471.708 162.224 471.218 162.952 470.7H168.188ZM178.73 471.68C178.73 474.41 179.836 476.636 181.516 478.344L182.356 477.91C180.746 476.244 179.752 474.172 179.752 471.68C179.752 469.188 180.746 467.116 182.356 465.45L181.516 465.016C179.836 466.724 178.73 468.95 178.73 471.68ZM184.288 473.22C184.134 474.438 183.868 475.698 183.434 476.552C183.63 476.622 184.05 476.804 184.204 476.93C184.652 476.034 184.974 474.69 185.17 473.374L184.288 473.22ZM187.158 473.416C187.508 474.214 187.788 475.278 187.858 475.95L188.67 475.712C188.586 475.026 188.278 473.99 187.928 473.192L187.158 473.416ZM191.946 475.082C191.694 475.082 191.638 474.97 191.638 474.606V472.618H194.606V471.792H192.772V470.364H194.522V469.538H193.458C193.738 469.006 194.074 468.25 194.382 467.578L193.542 467.298C193.388 467.9 193.066 468.782 192.8 469.342L193.318 469.538H191.12L191.764 469.3C191.68 468.796 191.414 467.998 191.092 467.396L190.42 467.634C190.714 468.222 190.966 469.006 191.05 469.538H190.266V470.364H191.876V471.792H190.154V472.618H190.742V474.592C190.742 475.586 190.98 475.908 191.946 475.908H193.584C193.906 475.908 194.228 475.908 194.424 475.866C194.396 475.642 194.354 475.25 194.34 475.026C194.144 475.068 193.766 475.082 193.57 475.082H191.946ZM196.02 465.954H188.81V472.296C188.558 471.54 188.068 470.532 187.55 469.748L186.794 470.056C187.018 470.42 187.228 470.826 187.424 471.232L185.408 471.33C186.36 470.14 187.41 468.558 188.208 467.284L187.34 466.878C186.948 467.634 186.416 468.544 185.842 469.412C185.632 469.132 185.38 468.824 185.086 468.516C185.618 467.732 186.22 466.598 186.696 465.632L185.786 465.296C185.492 466.066 185.002 467.13 184.54 467.928C184.4 467.788 184.26 467.662 184.12 467.536L183.56 468.194C184.19 468.796 184.89 469.594 185.296 470.224C185.002 470.644 184.708 471.036 184.428 471.386L183.462 471.428L183.56 472.366L185.758 472.226V478.064H186.682V472.17L187.788 472.1C187.928 472.422 188.026 472.73 188.082 472.996L188.81 472.66V478.092H189.734V466.878H195.068V476.902C195.068 477.098 195.012 477.154 194.83 477.168C194.634 477.168 194.018 477.182 193.374 477.154C193.514 477.406 193.654 477.826 193.682 478.064C194.578 478.078 195.166 478.05 195.544 477.91C195.894 477.742 196.02 477.462 196.02 476.902V465.954ZM198.554 473.206C198.358 474.424 198.036 475.684 197.532 476.524C197.77 476.608 198.204 476.832 198.4 476.972C198.89 476.076 199.296 474.718 199.52 473.388L198.554 473.206ZM203.02 472.03C203.188 472.352 203.342 472.646 203.44 472.898L204.252 472.45C203.93 471.694 203.16 470.49 202.46 469.622L201.704 470.014C201.97 470.35 202.236 470.742 202.488 471.134C201.564 471.19 200.654 471.232 199.814 471.274C200.85 470.098 202.012 468.558 202.894 467.27L201.942 466.808C201.508 467.578 200.906 468.488 200.262 469.356C200.01 469.048 199.674 468.698 199.31 468.362C199.898 467.606 200.584 466.556 201.116 465.66L200.15 465.268C199.8 466.038 199.212 467.046 198.694 467.816C198.512 467.662 198.33 467.522 198.148 467.382L197.616 468.068C198.344 468.656 199.184 469.454 199.702 470.112C199.352 470.546 199.002 470.966 198.68 471.33L197.56 471.372L197.686 472.366C198.428 472.324 199.324 472.268 200.276 472.198V478.064H201.298V472.142L203.02 472.03ZM203.944 475.922C203.762 475.166 203.328 474.004 202.866 473.122L201.998 473.416C202.432 474.312 202.894 475.488 203.034 476.272L203.944 475.922ZM207.276 476.566V467.76H210.174V466.766H203.44V467.76H206.212V476.566H202.88V477.56H210.398V476.566H207.276ZM215.27 471.68C215.27 468.95 214.164 466.724 212.484 465.016L211.644 465.45C213.254 467.116 214.248 469.188 214.248 471.68C214.248 474.172 213.254 476.244 211.644 477.91L212.484 478.344C214.164 476.636 215.27 474.41 215.27 471.68Z" fill="black"/>
<rect x="127" y="491" width="226" height="3" fill="#C4C4C4"/>
<rect x="127" y="499" width="226" height="3" fill="#C4C4C4"/>
<rect x="127" y="507" width="113" height="3" fill="#C4C4C4"/>
<rect x="27" y="529" width="40" height="40" fill="#C4C4C4"/>
<rect x="67" y="569" width="40" height="40" fill="#C4C4C4"/>
<rect x="67" y="529" width="40" height="40" fill="#E6E6E6"/>
<rect x="67" y="529" width="40" height="40" fill="#E6E6E6"/>
<rect x="67" y="529" width="40" height="40" fill="#E6E6E6"/>
<rect x="67" y="529" width="40" height="40" fill="#E6E6E6"/>
<rect x="27" y="569" width="40" height="40" fill="#E6E6E6"/>
<rect x="27" y="569" width="40" height="40" fill="#E6E6E6"/>
<rect x="27" y="569" width="40" height="40" fill="#E6E6E6"/>
<rect x="27" y="569" width="40" height="40" fill="#E6E6E6"/>
<path d="M132.248 532.096C131.608 531.568 130.328 530.896 129.352 530.528L128.312 531.936C129.32 532.368 130.568 533.104 131.144 533.664L132.248 532.096ZM131.464 536.352C130.824 535.808 129.496 535.184 128.504 534.832L127.496 536.256C128.504 536.688 129.768 537.392 130.376 537.936L131.464 536.352ZM129.608 545.168C130.504 543.6 131.448 541.76 132.248 540.064L130.808 538.88C129.896 540.752 128.744 542.768 127.944 543.984L129.608 545.168ZM135.144 541.216V540.448H139.496V541.216H135.144ZM139.496 538.528V539.232H135.144V538.528H139.496ZM141.304 537.136H133.384V545.36H135.144V542.48H139.496V543.472C139.496 543.664 139.416 543.712 139.208 543.712C139 543.728 138.248 543.728 137.592 543.712C137.8 544.144 138.04 544.848 138.104 545.328C139.208 545.328 140.008 545.312 140.568 545.04C141.16 544.784 141.304 544.336 141.304 543.488V537.136ZM138.088 535.184V534.528H141.544V533.248H138.088V532.64H141.976V531.28H138.088V530.448H136.2V531.28H132.52V532.64H136.2V533.248H132.952V534.528H136.2V535.184H132.024V536.544H142.488V535.184H138.088ZM155.48 533.136H153.192V532.208H155.48V533.136ZM157.256 531.072H151.512V534.272H157.256V531.072ZM148.76 533.136H146.52V532.208H148.76V533.136ZM150.536 531.072H144.824V534.272H150.536V531.072ZM147.256 539.44V538.576H149.96V539.44H147.256ZM147.256 536.368H149.96V537.216H147.256V536.368ZM154.792 537.216H151.912V536.368H154.792V537.216ZM154.792 539.44H151.912V538.576H154.792V539.44ZM158.136 541.728H151.912V540.896H156.744V534.896H145.4V540.896H149.96V541.728H143.88V543.36H149.96V545.392H151.912V543.36H158.136V541.728ZM165.928 543.04V539.92H171.352V543.04H165.928ZM168.744 533.68C168.168 534.736 167.416 535.728 166.52 536.608C165.848 535.92 164.824 535.12 163.976 534.496C164.248 534.224 164.504 533.952 164.76 533.68H168.744ZM173.336 538.192H167.624C169.224 536.672 170.52 534.8 171.336 532.608L170.024 531.92L169.704 532.016H166.072C166.36 531.6 166.632 531.184 166.872 530.768L164.728 530.368C163.8 532.112 162.04 534.064 159.416 535.456C159.848 535.776 160.472 536.48 160.76 536.944C161.4 536.56 161.992 536.16 162.536 535.728C163.384 536.4 164.344 537.232 164.984 537.936C163.32 539.168 161.384 540.128 159.384 540.704C159.784 541.088 160.264 541.872 160.488 542.4C161.704 541.984 162.904 541.472 164.024 540.832V545.376H165.928V544.752H171.352V545.392H173.336V538.192ZM181.432 539.104C181.144 538.784 179.912 537.536 179.48 537.168V536.752H181.08V535.312C181.496 535.52 181.976 535.808 182.216 536C182.792 535.216 183.352 534.08 183.752 532.864C185.72 532.672 187.896 532.352 189.56 531.904L188.216 530.576C187.064 530.928 185.272 531.248 183.528 531.456L182.312 531.2C182.008 532.624 181.432 534.064 180.664 535.024H179.48V532.672C180.152 532.496 180.776 532.288 181.336 532.064L180.008 530.72C178.92 531.232 177.112 531.696 175.464 531.984C175.672 532.336 175.896 532.976 175.976 533.36C176.52 533.28 177.096 533.2 177.672 533.088V535.024H175.608V536.752H177.368C176.904 538.288 176.136 540.032 175.352 541.072C175.64 541.552 176.056 542.336 176.216 542.88C176.744 542.128 177.24 541.056 177.672 539.904V545.392H179.48V539.088C179.832 539.632 180.184 540.192 180.376 540.56L181.432 539.104ZM187.448 532.88C188.024 533.776 188.616 535.024 188.856 535.824L190.488 535.12C190.216 534.304 189.624 533.152 189 532.256L187.448 532.88ZM186.584 540.896V539.936H188.008V540.896H186.584ZM183.544 539.936H184.872V540.896H183.544V539.936ZM184.872 537.632V538.544H183.544V537.632H184.872ZM188.008 537.632V538.544H186.584V537.632H188.008ZM190.552 540.896H189.768V536.144H186.584V535.232H185.432L186.792 534.848C186.712 534.256 186.424 533.392 186.088 532.752L184.52 533.168C184.808 533.792 185.064 534.656 185.128 535.232H184.872V536.144H181.816V540.896H180.824V542.432H181.816V545.36H183.544V542.432H188.008V543.472C188.008 543.664 187.928 543.712 187.72 543.728C187.512 543.728 186.824 543.744 186.2 543.712C186.44 544.144 186.712 544.88 186.792 545.36C187.8 545.36 188.536 545.344 189.064 545.056C189.608 544.784 189.768 544.32 189.768 543.504V542.432H190.552V540.896Z" fill="black"/>
<path d="M133.58 559.266V560.064H129.912V559.266H133.58ZM129.898 561.562C129.912 561.282 129.912 561.016 129.912 560.764V560.75H133.58V561.562H129.898ZM133.804 564.012V565.664H130.584V564.012H133.804ZM134.518 562.346V558.482H128.988V560.75C128.988 562.346 128.834 564.516 127.518 566.112C127.714 566.224 128.092 566.56 128.218 566.756C129.002 565.79 129.436 564.586 129.674 563.396V567.036H130.584V566.462H133.804V566.938H134.728V563.214H129.702C129.758 562.92 129.8 562.626 129.828 562.346H134.518ZM131.186 554.422C130.5 555.556 129.254 556.97 127.518 558.006C127.728 558.146 128.05 558.496 128.176 558.706C128.946 558.216 129.632 557.67 130.206 557.124V557.712H133.608V556.956H130.374C130.948 556.396 131.424 555.822 131.816 555.318C132.782 556.074 133.916 557.166 134.518 557.838L135.204 557.054C134.504 556.326 133.174 555.206 132.138 554.422H131.186ZM136.646 555.962H135.666V563.662H136.646V555.962ZM138.788 554.562V565.706C138.788 565.958 138.676 566.042 138.438 566.042C138.172 566.056 137.346 566.07 136.394 566.028C136.548 566.322 136.716 566.798 136.758 567.064C138.004 567.078 138.746 567.05 139.18 566.882C139.614 566.7 139.796 566.392 139.796 565.692V554.562H138.788ZM145.018 554.338C144.234 556.466 142.946 558.552 141.56 559.896C141.756 560.12 142.064 560.694 142.162 560.932C142.638 560.442 143.114 559.882 143.548 559.266V567.05H144.584V557.656C145.13 556.69 145.634 555.668 146.012 554.66L145.018 554.338ZM154.412 557.614V556.62H148.588C148.868 556.004 149.134 555.374 149.358 554.73L148.364 554.464C147.678 556.508 146.544 558.524 145.284 559.826C145.522 559.994 145.928 560.344 146.096 560.526C146.796 559.742 147.482 558.734 148.084 557.614H149.05V567.064H150.1V563.676H154.286V562.696H150.1V560.582H154.09V559.616H150.1V557.614H154.412ZM161.622 558.762V556.97H164.73C164.072 557.6 163.358 558.202 162.602 558.762H161.622ZM165.416 563.424H159.746V562.038H165.416V563.424ZM159.746 565.706V564.25H165.416V565.706H159.746ZM168.188 559.7V558.762H164.156C165.43 557.712 166.578 556.536 167.558 555.248L166.676 554.772C166.2 555.416 165.668 556.032 165.08 556.62V556.046H161.622V554.296H160.6V556.046H157.03V556.97H160.6V558.762H155.812V559.7H161.258C159.494 560.834 157.534 561.758 155.504 562.472C155.7 562.682 156.036 563.102 156.162 563.326C157.016 563.004 157.884 562.626 158.724 562.22V567.064H159.746V566.616H165.416V567.008H166.48V561.156H160.698C161.468 560.708 162.224 560.218 162.952 559.7H168.188ZM178.73 560.68C178.73 563.41 179.836 565.636 181.516 567.344L182.356 566.91C180.746 565.244 179.752 563.172 179.752 560.68C179.752 558.188 180.746 556.116 182.356 554.45L181.516 554.016C179.836 555.724 178.73 557.95 178.73 560.68ZM184.288 562.22C184.134 563.438 183.868 564.698 183.434 565.552C183.63 565.622 184.05 565.804 184.204 565.93C184.652 565.034 184.974 563.69 185.17 562.374L184.288 562.22ZM187.158 562.416C187.508 563.214 187.788 564.278 187.858 564.95L188.67 564.712C188.586 564.026 188.278 562.99 187.928 562.192L187.158 562.416ZM191.946 564.082C191.694 564.082 191.638 563.97 191.638 563.606V561.618H194.606V560.792H192.772V559.364H194.522V558.538H193.458C193.738 558.006 194.074 557.25 194.382 556.578L193.542 556.298C193.388 556.9 193.066 557.782 192.8 558.342L193.318 558.538H191.12L191.764 558.3C191.68 557.796 191.414 556.998 191.092 556.396L190.42 556.634C190.714 557.222 190.966 558.006 191.05 558.538H190.266V559.364H191.876V560.792H190.154V561.618H190.742V563.592C190.742 564.586 190.98 564.908 191.946 564.908H193.584C193.906 564.908 194.228 564.908 194.424 564.866C194.396 564.642 194.354 564.25 194.34 564.026C194.144 564.068 193.766 564.082 193.57 564.082H191.946ZM196.02 554.954H188.81V561.296C188.558 560.54 188.068 559.532 187.55 558.748L186.794 559.056C187.018 559.42 187.228 559.826 187.424 560.232L185.408 560.33C186.36 559.14 187.41 557.558 188.208 556.284L187.34 555.878C186.948 556.634 186.416 557.544 185.842 558.412C185.632 558.132 185.38 557.824 185.086 557.516C185.618 556.732 186.22 555.598 186.696 554.632L185.786 554.296C185.492 555.066 185.002 556.13 184.54 556.928C184.4 556.788 184.26 556.662 184.12 556.536L183.56 557.194C184.19 557.796 184.89 558.594 185.296 559.224C185.002 559.644 184.708 560.036 184.428 560.386L183.462 560.428L183.56 561.366L185.758 561.226V567.064H186.682V561.17L187.788 561.1C187.928 561.422 188.026 561.73 188.082 561.996L188.81 561.66V567.092H189.734V555.878H195.068V565.902C195.068 566.098 195.012 566.154 194.83 566.168C194.634 566.168 194.018 566.182 193.374 566.154C193.514 566.406 193.654 566.826 193.682 567.064C194.578 567.078 195.166 567.05 195.544 566.91C195.894 566.742 196.02 566.462 196.02 565.902V554.954ZM198.554 562.206C198.358 563.424 198.036 564.684 197.532 565.524C197.77 565.608 198.204 565.832 198.4 565.972C198.89 565.076 199.296 563.718 199.52 562.388L198.554 562.206ZM203.02 561.03C203.188 561.352 203.342 561.646 203.44 561.898L204.252 561.45C203.93 560.694 203.16 559.49 202.46 558.622L201.704 559.014C201.97 559.35 202.236 559.742 202.488 560.134C201.564 560.19 200.654 560.232 199.814 560.274C200.85 559.098 202.012 557.558 202.894 556.27L201.942 555.808C201.508 556.578 200.906 557.488 200.262 558.356C200.01 558.048 199.674 557.698 199.31 557.362C199.898 556.606 200.584 555.556 201.116 554.66L200.15 554.268C199.8 555.038 199.212 556.046 198.694 556.816C198.512 556.662 198.33 556.522 198.148 556.382L197.616 557.068C198.344 557.656 199.184 558.454 199.702 559.112C199.352 559.546 199.002 559.966 198.68 560.33L197.56 560.372L197.686 561.366C198.428 561.324 199.324 561.268 200.276 561.198V567.064H201.298V561.142L203.02 561.03ZM203.944 564.922C203.762 564.166 203.328 563.004 202.866 562.122L201.998 562.416C202.432 563.312 202.894 564.488 203.034 565.272L203.944 564.922ZM207.276 565.566V556.76H210.174V555.766H203.44V556.76H206.212V565.566H202.88V566.56H210.398V565.566H207.276ZM215.27 560.68C215.27 557.95 214.164 555.724 212.484 554.016L211.644 554.45C213.254 556.116 214.248 558.188 214.248 560.68C214.248 563.172 213.254 565.244 211.644 566.91L212.484 567.344C214.164 565.636 215.27 563.41 215.27 560.68Z" fill="black"/>
<rect x="127" y="580" width="226" height="3" fill="#C4C4C4"/>
<rect x="127" y="588" width="226" height="3" fill="#C4C4C4"/>
<rect x="127" y="596" width="113" height="3" fill="#C4C4C4"/>
<rect x="27" y="618" width="40" height="40" fill="#C4C4C4"/>
<rect x="67" y="658" width="40" height="40" fill="#C4C4C4"/>
<rect x="67" y="618" width="40" height="40" fill="#E6E6E6"/>
<rect x="67" y="618" width="40" height="40" fill="#E6E6E6"/>
<rect x="67" y="618" width="40" height="40" fill="#E6E6E6"/>
<rect x="67" y="618" width="40" height="40" fill="#E6E6E6"/>
<rect x="27" y="658" width="40" height="40" fill="#E6E6E6"/>
<rect x="27" y="658" width="40" height="40" fill="#E6E6E6"/>
<rect x="27" y="658" width="40" height="40" fill="#E6E6E6"/>
<rect x="27" y="658" width="40" height="40" fill="#E6E6E6"/>
<path d="M132.248 621.096C131.608 620.568 130.328 619.896 129.352 619.528L128.312 620.936C129.32 621.368 130.568 622.104 131.144 622.664L132.248 621.096ZM131.464 625.352C130.824 624.808 129.496 624.184 128.504 623.832L127.496 625.256C128.504 625.688 129.768 626.392 130.376 626.936L131.464 625.352ZM129.608 634.168C130.504 632.6 131.448 630.76 132.248 629.064L130.808 627.88C129.896 629.752 128.744 631.768 127.944 632.984L129.608 634.168ZM135.144 630.216V629.448H139.496V630.216H135.144ZM139.496 627.528V628.232H135.144V627.528H139.496ZM141.304 626.136H133.384V634.36H135.144V631.48H139.496V632.472C139.496 632.664 139.416 632.712 139.208 632.712C139 632.728 138.248 632.728 137.592 632.712C137.8 633.144 138.04 633.848 138.104 634.328C139.208 634.328 140.008 634.312 140.568 634.04C141.16 633.784 141.304 633.336 141.304 632.488V626.136ZM138.088 624.184V623.528H141.544V622.248H138.088V621.64H141.976V620.28H138.088V619.448H136.2V620.28H132.52V621.64H136.2V622.248H132.952V623.528H136.2V624.184H132.024V625.544H142.488V624.184H138.088ZM155.48 622.136H153.192V621.208H155.48V622.136ZM157.256 620.072H151.512V623.272H157.256V620.072ZM148.76 622.136H146.52V621.208H148.76V622.136ZM150.536 620.072H144.824V623.272H150.536V620.072ZM147.256 628.44V627.576H149.96V628.44H147.256ZM147.256 625.368H149.96V626.216H147.256V625.368ZM154.792 626.216H151.912V625.368H154.792V626.216ZM154.792 628.44H151.912V627.576H154.792V628.44ZM158.136 630.728H151.912V629.896H156.744V623.896H145.4V629.896H149.96V630.728H143.88V632.36H149.96V634.392H151.912V632.36H158.136V630.728ZM165.928 632.04V628.92H171.352V632.04H165.928ZM168.744 622.68C168.168 623.736 167.416 624.728 166.52 625.608C165.848 624.92 164.824 624.12 163.976 623.496C164.248 623.224 164.504 622.952 164.76 622.68H168.744ZM173.336 627.192H167.624C169.224 625.672 170.52 623.8 171.336 621.608L170.024 620.92L169.704 621.016H166.072C166.36 620.6 166.632 620.184 166.872 619.768L164.728 619.368C163.8 621.112 162.04 623.064 159.416 624.456C159.848 624.776 160.472 625.48 160.76 625.944C161.4 625.56 161.992 625.16 162.536 624.728C163.384 625.4 164.344 626.232 164.984 626.936C163.32 628.168 161.384 629.128 159.384 629.704C159.784 630.088 160.264 630.872 160.488 631.4C161.704 630.984 162.904 630.472 164.024 629.832V634.376H165.928V633.752H171.352V634.392H173.336V627.192ZM181.432 628.104C181.144 627.784 179.912 626.536 179.48 626.168V625.752H181.08V624.312C181.496 624.52 181.976 624.808 182.216 625C182.792 624.216 183.352 623.08 183.752 621.864C185.72 621.672 187.896 621.352 189.56 620.904L188.216 619.576C187.064 619.928 185.272 620.248 183.528 620.456L182.312 620.2C182.008 621.624 181.432 623.064 180.664 624.024H179.48V621.672C180.152 621.496 180.776 621.288 181.336 621.064L180.008 619.72C178.92 620.232 177.112 620.696 175.464 620.984C175.672 621.336 175.896 621.976 175.976 622.36C176.52 622.28 177.096 622.2 177.672 622.088V624.024H175.608V625.752H177.368C176.904 627.288 176.136 629.032 175.352 630.072C175.64 630.552 176.056 631.336 176.216 631.88C176.744 631.128 177.24 630.056 177.672 628.904V634.392H179.48V628.088C179.832 628.632 180.184 629.192 180.376 629.56L181.432 628.104ZM187.448 621.88C188.024 622.776 188.616 624.024 188.856 624.824L190.488 624.12C190.216 623.304 189.624 622.152 189 621.256L187.448 621.88ZM186.584 629.896V628.936H188.008V629.896H186.584ZM183.544 628.936H184.872V629.896H183.544V628.936ZM184.872 626.632V627.544H183.544V626.632H184.872ZM188.008 626.632V627.544H186.584V626.632H188.008ZM190.552 629.896H189.768V625.144H186.584V624.232H185.432L186.792 623.848C186.712 623.256 186.424 622.392 186.088 621.752L184.52 622.168C184.808 622.792 185.064 623.656 185.128 624.232H184.872V625.144H181.816V629.896H180.824V631.432H181.816V634.36H183.544V631.432H188.008V632.472C188.008 632.664 187.928 632.712 187.72 632.728C187.512 632.728 186.824 632.744 186.2 632.712C186.44 633.144 186.712 633.88 186.792 634.36C187.8 634.36 188.536 634.344 189.064 634.056C189.608 633.784 189.768 633.32 189.768 632.504V631.432H190.552V629.896Z" fill="black"/>
<path d="M133.58 648.266V649.064H129.912V648.266H133.58ZM129.898 650.562C129.912 650.282 129.912 650.016 129.912 649.764V649.75H133.58V650.562H129.898ZM133.804 653.012V654.664H130.584V653.012H133.804ZM134.518 651.346V647.482H128.988V649.75C128.988 651.346 128.834 653.516 127.518 655.112C127.714 655.224 128.092 655.56 128.218 655.756C129.002 654.79 129.436 653.586 129.674 652.396V656.036H130.584V655.462H133.804V655.938H134.728V652.214H129.702C129.758 651.92 129.8 651.626 129.828 651.346H134.518ZM131.186 643.422C130.5 644.556 129.254 645.97 127.518 647.006C127.728 647.146 128.05 647.496 128.176 647.706C128.946 647.216 129.632 646.67 130.206 646.124V646.712H133.608V645.956H130.374C130.948 645.396 131.424 644.822 131.816 644.318C132.782 645.074 133.916 646.166 134.518 646.838L135.204 646.054C134.504 645.326 133.174 644.206 132.138 643.422H131.186ZM136.646 644.962H135.666V652.662H136.646V644.962ZM138.788 643.562V654.706C138.788 654.958 138.676 655.042 138.438 655.042C138.172 655.056 137.346 655.07 136.394 655.028C136.548 655.322 136.716 655.798 136.758 656.064C138.004 656.078 138.746 656.05 139.18 655.882C139.614 655.7 139.796 655.392 139.796 654.692V643.562H138.788ZM145.018 643.338C144.234 645.466 142.946 647.552 141.56 648.896C141.756 649.12 142.064 649.694 142.162 649.932C142.638 649.442 143.114 648.882 143.548 648.266V656.05H144.584V646.656C145.13 645.69 145.634 644.668 146.012 643.66L145.018 643.338ZM154.412 646.614V645.62H148.588C148.868 645.004 149.134 644.374 149.358 643.73L148.364 643.464C147.678 645.508 146.544 647.524 145.284 648.826C145.522 648.994 145.928 649.344 146.096 649.526C146.796 648.742 147.482 647.734 148.084 646.614H149.05V656.064H150.1V652.676H154.286V651.696H150.1V649.582H154.09V648.616H150.1V646.614H154.412ZM161.622 647.762V645.97H164.73C164.072 646.6 163.358 647.202 162.602 647.762H161.622ZM165.416 652.424H159.746V651.038H165.416V652.424ZM159.746 654.706V653.25H165.416V654.706H159.746ZM168.188 648.7V647.762H164.156C165.43 646.712 166.578 645.536 167.558 644.248L166.676 643.772C166.2 644.416 165.668 645.032 165.08 645.62V645.046H161.622V643.296H160.6V645.046H157.03V645.97H160.6V647.762H155.812V648.7H161.258C159.494 649.834 157.534 650.758 155.504 651.472C155.7 651.682 156.036 652.102 156.162 652.326C157.016 652.004 157.884 651.626 158.724 651.22V656.064H159.746V655.616H165.416V656.008H166.48V650.156H160.698C161.468 649.708 162.224 649.218 162.952 648.7H168.188ZM178.73 649.68C178.73 652.41 179.836 654.636 181.516 656.344L182.356 655.91C180.746 654.244 179.752 652.172 179.752 649.68C179.752 647.188 180.746 645.116 182.356 643.45L181.516 643.016C179.836 644.724 178.73 646.95 178.73 649.68ZM184.288 651.22C184.134 652.438 183.868 653.698 183.434 654.552C183.63 654.622 184.05 654.804 184.204 654.93C184.652 654.034 184.974 652.69 185.17 651.374L184.288 651.22ZM187.158 651.416C187.508 652.214 187.788 653.278 187.858 653.95L188.67 653.712C188.586 653.026 188.278 651.99 187.928 651.192L187.158 651.416ZM191.946 653.082C191.694 653.082 191.638 652.97 191.638 652.606V650.618H194.606V649.792H192.772V648.364H194.522V647.538H193.458C193.738 647.006 194.074 646.25 194.382 645.578L193.542 645.298C193.388 645.9 193.066 646.782 192.8 647.342L193.318 647.538H191.12L191.764 647.3C191.68 646.796 191.414 645.998 191.092 645.396L190.42 645.634C190.714 646.222 190.966 647.006 191.05 647.538H190.266V648.364H191.876V649.792H190.154V650.618H190.742V652.592C190.742 653.586 190.98 653.908 191.946 653.908H193.584C193.906 653.908 194.228 653.908 194.424 653.866C194.396 653.642 194.354 653.25 194.34 653.026C194.144 653.068 193.766 653.082 193.57 653.082H191.946ZM196.02 643.954H188.81V650.296C188.558 649.54 188.068 648.532 187.55 647.748L186.794 648.056C187.018 648.42 187.228 648.826 187.424 649.232L185.408 649.33C186.36 648.14 187.41 646.558 188.208 645.284L187.34 644.878C186.948 645.634 186.416 646.544 185.842 647.412C185.632 647.132 185.38 646.824 185.086 646.516C185.618 645.732 186.22 644.598 186.696 643.632L185.786 643.296C185.492 644.066 185.002 645.13 184.54 645.928C184.4 645.788 184.26 645.662 184.12 645.536L183.56 646.194C184.19 646.796 184.89 647.594 185.296 648.224C185.002 648.644 184.708 649.036 184.428 649.386L183.462 649.428L183.56 650.366L185.758 650.226V656.064H186.682V650.17L187.788 650.1C187.928 650.422 188.026 650.73 188.082 650.996L188.81 650.66V656.092H189.734V644.878H195.068V654.902C195.068 655.098 195.012 655.154 194.83 655.168C194.634 655.168 194.018 655.182 193.374 655.154C193.514 655.406 193.654 655.826 193.682 656.064C194.578 656.078 195.166 656.05 195.544 655.91C195.894 655.742 196.02 655.462 196.02 654.902V643.954ZM198.554 651.206C198.358 652.424 198.036 653.684 197.532 654.524C197.77 654.608 198.204 654.832 198.4 654.972C198.89 654.076 199.296 652.718 199.52 651.388L198.554 651.206ZM203.02 650.03C203.188 650.352 203.342 650.646 203.44 650.898L204.252 650.45C203.93 649.694 203.16 648.49 202.46 647.622L201.704 648.014C201.97 648.35 202.236 648.742 202.488 649.134C201.564 649.19 200.654 649.232 199.814 649.274C200.85 648.098 202.012 646.558 202.894 645.27L201.942 644.808C201.508 645.578 200.906 646.488 200.262 647.356C200.01 647.048 199.674 646.698 199.31 646.362C199.898 645.606 200.584 644.556 201.116 643.66L200.15 643.268C199.8 644.038 199.212 645.046 198.694 645.816C198.512 645.662 198.33 645.522 198.148 645.382L197.616 646.068C198.344 646.656 199.184 647.454 199.702 648.112C199.352 648.546 199.002 648.966 198.68 649.33L197.56 649.372L197.686 650.366C198.428 650.324 199.324 650.268 200.276 650.198V656.064H201.298V650.142L203.02 650.03ZM203.944 653.922C203.762 653.166 203.328 652.004 202.866 651.122L201.998 651.416C202.432 652.312 202.894 653.488 203.034 654.272L203.944 653.922ZM207.276 654.566V645.76H210.174V644.766H203.44V645.76H206.212V654.566H202.88V655.56H210.398V654.566H207.276ZM215.27 649.68C215.27 646.95 214.164 644.724 212.484 643.016L211.644 643.45C213.254 645.116 214.248 647.188 214.248 649.68C214.248 652.172 213.254 654.244 211.644 655.91L212.484 656.344C214.164 654.636 215.27 652.41 215.27 649.68Z" fill="black"/>
<g filter="url(#filter0_d_27_95)">
<line y1="111.5" x2="375" y2="111.5" stroke="black" stroke-opacity="0.2" shape-rendering="crispEdges"/>
</g>
<circle cx="62" cy="244" r="32" fill="#C4C4C4"/>
<path d="M35.288 291.22C35.134 292.438 34.868 293.698 34.434 294.552C34.63 294.622 35.05 294.804 35.204 294.93C35.652 294.034 35.974 292.69 36.17 291.374L35.288 291.22ZM38.158 291.416C38.508 292.214 38.788 293.278 38.858 293.95L39.67 293.712C39.586 293.026 39.278 291.99 38.928 291.192L38.158 291.416ZM42.946 293.082C42.694 293.082 42.638 292.97 42.638 292.606V290.618H45.606V289.792H43.772V288.364H45.522V287.538H44.458C44.738 287.006 45.074 286.25 45.382 285.578L44.542 285.298C44.388 285.9 44.066 286.782 43.8 287.342L44.318 287.538H42.12L42.764 287.3C42.68 286.796 42.414 285.998 42.092 285.396L41.42 285.634C41.714 286.222 41.966 287.006 42.05 287.538H41.266V288.364H42.876V289.792H41.154V290.618H41.742V292.592C41.742 293.586 41.98 293.908 42.946 293.908H44.584C44.906 293.908 45.228 293.908 45.424 293.866C45.396 293.642 45.354 293.25 45.34 293.026C45.144 293.068 44.766 293.082 44.57 293.082H42.946ZM47.02 283.954H39.81V290.296C39.558 289.54 39.068 288.532 38.55 287.748L37.794 288.056C38.018 288.42 38.228 288.826 38.424 289.232L36.408 289.33C37.36 288.14 38.41 286.558 39.208 285.284L38.34 284.878C37.948 285.634 37.416 286.544 36.842 287.412C36.632 287.132 36.38 286.824 36.086 286.516C36.618 285.732 37.22 284.598 37.696 283.632L36.786 283.296C36.492 284.066 36.002 285.13 35.54 285.928C35.4 285.788 35.26 285.662 35.12 285.536L34.56 286.194C35.19 286.796 35.89 287.594 36.296 288.224C36.002 288.644 35.708 289.036 35.428 289.386L34.462 289.428L34.56 290.366L36.758 290.226V296.064H37.682V290.17L38.788 290.1C38.928 290.422 39.026 290.73 39.082 290.996L39.81 290.66V296.092H40.734V284.878H46.068V294.902C46.068 295.098 46.012 295.154 45.83 295.168C45.634 295.168 45.018 295.182 44.374 295.154C44.514 295.406 44.654 295.826 44.682 296.064C45.578 296.078 46.166 296.05 46.544 295.91C46.894 295.742 47.02 295.462 47.02 294.902V283.954ZM49.554 291.206C49.358 292.424 49.036 293.684 48.532 294.524C48.77 294.608 49.204 294.832 49.4 294.972C49.89 294.076 50.296 292.718 50.52 291.388L49.554 291.206ZM54.02 290.03C54.188 290.352 54.342 290.646 54.44 290.898L55.252 290.45C54.93 289.694 54.16 288.49 53.46 287.622L52.704 288.014C52.97 288.35 53.236 288.742 53.488 289.134C52.564 289.19 51.654 289.232 50.814 289.274C51.85 288.098 53.012 286.558 53.894 285.27L52.942 284.808C52.508 285.578 51.906 286.488 51.262 287.356C51.01 287.048 50.674 286.698 50.31 286.362C50.898 285.606 51.584 284.556 52.116 283.66L51.15 283.268C50.8 284.038 50.212 285.046 49.694 285.816C49.512 285.662 49.33 285.522 49.148 285.382L48.616 286.068C49.344 286.656 50.184 287.454 50.702 288.112C50.352 288.546 50.002 288.966 49.68 289.33L48.56 289.372L48.686 290.366C49.428 290.324 50.324 290.268 51.276 290.198V296.064H52.298V290.142L54.02 290.03ZM54.944 293.922C54.762 293.166 54.328 292.004 53.866 291.122L52.998 291.416C53.432 292.312 53.894 293.488 54.034 294.272L54.944 293.922ZM58.276 294.566V285.76H61.174V284.766H54.44V285.76H57.212V294.566H53.88V295.56H61.398V294.566H58.276ZM67.586 294.552V291.108H73.326V294.552H67.586ZM71.058 285.62C70.456 286.838 69.574 287.944 68.538 288.896C67.894 288.196 66.83 287.3 65.892 286.642C66.256 286.32 66.578 285.97 66.886 285.62H71.058ZM74.376 290.156H68.65C70.274 288.784 71.646 287.062 72.472 284.99L71.786 284.626L71.59 284.682H67.642C67.936 284.276 68.202 283.87 68.44 283.478L67.278 283.24C66.466 284.752 64.87 286.544 62.574 287.79C62.812 287.972 63.162 288.35 63.302 288.588C63.974 288.196 64.576 287.762 65.136 287.314C66.06 288 67.082 288.896 67.698 289.61C66.116 290.856 64.282 291.78 62.504 292.298C62.728 292.494 62.994 292.928 63.12 293.208C64.282 292.83 65.444 292.298 66.564 291.64V296.064H67.586V295.504H73.326V296.092H74.376V290.156ZM81.502 290.842C81.236 290.506 80.088 289.302 79.696 288.952V288.266H81.404V287.426C81.642 287.552 81.936 287.706 82.076 287.804C82.58 287.104 83.056 286.068 83.406 284.99C85.128 284.836 87.074 284.584 88.46 284.234L87.676 283.506C86.668 283.758 84.988 284.024 83.406 284.192L82.622 284.024C82.314 285.242 81.824 286.46 81.18 287.3H79.696V284.892C80.326 284.724 80.928 284.542 81.418 284.318L80.634 283.59C79.724 284.038 78.058 284.43 76.602 284.682C76.728 284.892 76.868 285.228 76.91 285.452C77.484 285.368 78.114 285.256 78.716 285.13V287.3H76.672V288.266H78.548C78.1 289.848 77.274 291.682 76.504 292.676C76.686 292.928 76.938 293.334 77.05 293.628C77.638 292.774 78.24 291.43 78.716 290.058V296.092H79.696V289.96C80.144 290.52 80.676 291.248 80.886 291.626L81.502 290.842ZM87.102 285.004C87.676 285.816 88.264 286.964 88.516 287.692L89.412 287.286C89.146 286.558 88.544 285.48 87.956 284.668L87.102 285.004ZM86.01 286.978C85.926 286.446 85.66 285.648 85.352 285.06L84.484 285.284C84.778 285.9 85.03 286.712 85.086 287.23L86.01 286.978ZM85.814 292.466V291.122H87.788V292.466H85.814ZM83.028 291.122H84.862V292.466H83.028V291.122ZM84.862 289.022V290.338H83.028V289.022H84.862ZM87.788 289.022V290.338H85.814V289.022H87.788ZM89.524 292.466H88.754V288.182H85.814V287.272H84.862V288.182H82.076V292.466H81.082V293.334H82.076V296.05H83.028V293.334H87.788V294.944C87.788 295.112 87.718 295.154 87.536 295.168C87.368 295.168 86.766 295.182 86.108 295.154C86.248 295.392 86.416 295.798 86.472 296.064C87.354 296.064 87.914 296.05 88.264 295.896C88.642 295.742 88.754 295.448 88.754 294.944V293.334H89.524V292.466Z" fill="black"/>
<circle cx="136" cy="244" r="32" fill="#C4C4C4"/>
<path d="M109.288 291.22C109.134 292.438 108.868 293.698 108.434 294.552C108.63 294.622 109.05 294.804 109.204 294.93C109.652 294.034 109.974 292.69 110.17 291.374L109.288 291.22ZM112.158 291.416C112.508 292.214 112.788 293.278 112.858 293.95L113.67 293.712C113.586 293.026 113.278 291.99 112.928 291.192L112.158 291.416ZM116.946 293.082C116.694 293.082 116.638 292.97 116.638 292.606V290.618H119.606V289.792H117.772V288.364H119.522V287.538H118.458C118.738 287.006 119.074 286.25 119.382 285.578L118.542 285.298C118.388 285.9 118.066 286.782 117.8 287.342L118.318 287.538H116.12L116.764 287.3C116.68 286.796 116.414 285.998 116.092 285.396L115.42 285.634C115.714 286.222 115.966 287.006 116.05 287.538H115.266V288.364H116.876V289.792H115.154V290.618H115.742V292.592C115.742 293.586 115.98 293.908 116.946 293.908H118.584C118.906 293.908 119.228 293.908 119.424 293.866C119.396 293.642 119.354 293.25 119.34 293.026C119.144 293.068 118.766 293.082 118.57 293.082H116.946ZM121.02 283.954H113.81V290.296C113.558 289.54 113.068 288.532 112.55 287.748L111.794 288.056C112.018 288.42 112.228 288.826 112.424 289.232L110.408 289.33C111.36 288.14 112.41 286.558 113.208 285.284L112.34 284.878C111.948 285.634 111.416 286.544 110.842 287.412C110.632 287.132 110.38 286.824 110.086 286.516C110.618 285.732 111.22 284.598 111.696 283.632L110.786 283.296C110.492 284.066 110.002 285.13 109.54 285.928C109.4 285.788 109.26 285.662 109.12 285.536L108.56 286.194C109.19 286.796 109.89 287.594 110.296 288.224C110.002 288.644 109.708 289.036 109.428 289.386L108.462 289.428L108.56 290.366L110.758 290.226V296.064H111.682V290.17L112.788 290.1C112.928 290.422 113.026 290.73 113.082 290.996L113.81 290.66V296.092H114.734V284.878H120.068V294.902C120.068 295.098 120.012 295.154 119.83 295.168C119.634 295.168 119.018 295.182 118.374 295.154C118.514 295.406 118.654 295.826 118.682 296.064C119.578 296.078 120.166 296.05 120.544 295.91C120.894 295.742 121.02 295.462 121.02 294.902V283.954ZM123.554 291.206C123.358 292.424 123.036 293.684 122.532 294.524C122.77 294.608 123.204 294.832 123.4 294.972C123.89 294.076 124.296 292.718 124.52 291.388L123.554 291.206ZM128.02 290.03C128.188 290.352 128.342 290.646 128.44 290.898L129.252 290.45C128.93 289.694 128.16 288.49 127.46 287.622L126.704 288.014C126.97 288.35 127.236 288.742 127.488 289.134C126.564 289.19 125.654 289.232 124.814 289.274C125.85 288.098 127.012 286.558 127.894 285.27L126.942 284.808C126.508 285.578 125.906 286.488 125.262 287.356C125.01 287.048 124.674 286.698 124.31 286.362C124.898 285.606 125.584 284.556 126.116 283.66L125.15 283.268C124.8 284.038 124.212 285.046 123.694 285.816C123.512 285.662 123.33 285.522 123.148 285.382L122.616 286.068C123.344 286.656 124.184 287.454 124.702 288.112C124.352 288.546 124.002 288.966 123.68 289.33L122.56 289.372L122.686 290.366C123.428 290.324 124.324 290.268 125.276 290.198V296.064H126.298V290.142L128.02 290.03ZM128.944 293.922C128.762 293.166 128.328 292.004 127.866 291.122L126.998 291.416C127.432 292.312 127.894 293.488 128.034 294.272L128.944 293.922ZM132.276 294.566V285.76H135.174V284.766H128.44V285.76H131.212V294.566H127.88V295.56H135.398V294.566H132.276ZM141.586 294.552V291.108H147.326V294.552H141.586ZM145.058 285.62C144.456 286.838 143.574 287.944 142.538 288.896C141.894 288.196 140.83 287.3 139.892 286.642C140.256 286.32 140.578 285.97 140.886 285.62H145.058ZM148.376 290.156H142.65C144.274 288.784 145.646 287.062 146.472 284.99L145.786 284.626L145.59 284.682H141.642C141.936 284.276 142.202 283.87 142.44 283.478L141.278 283.24C140.466 284.752 138.87 286.544 136.574 287.79C136.812 287.972 137.162 288.35 137.302 288.588C137.974 288.196 138.576 287.762 139.136 287.314C140.06 288 141.082 288.896 141.698 289.61C140.116 290.856 138.282 291.78 136.504 292.298C136.728 292.494 136.994 292.928 137.12 293.208C138.282 292.83 139.444 292.298 140.564 291.64V296.064H141.586V295.504H147.326V296.092H148.376V290.156ZM155.502 290.842C155.236 290.506 154.088 289.302 153.696 288.952V288.266H155.404V287.426C155.642 287.552 155.936 287.706 156.076 287.804C156.58 287.104 157.056 286.068 157.406 284.99C159.128 284.836 161.074 284.584 162.46 284.234L161.676 283.506C160.668 283.758 158.988 284.024 157.406 284.192L156.622 284.024C156.314 285.242 155.824 286.46 155.18 287.3H153.696V284.892C154.326 284.724 154.928 284.542 155.418 284.318L154.634 283.59C153.724 284.038 152.058 284.43 150.602 284.682C150.728 284.892 150.868 285.228 150.91 285.452C151.484 285.368 152.114 285.256 152.716 285.13V287.3H150.672V288.266H152.548C152.1 289.848 151.274 291.682 150.504 292.676C150.686 292.928 150.938 293.334 151.05 293.628C151.638 292.774 152.24 291.43 152.716 290.058V296.092H153.696V289.96C154.144 290.52 154.676 291.248 154.886 291.626L155.502 290.842ZM161.102 285.004C161.676 285.816 162.264 286.964 162.516 287.692L163.412 287.286C163.146 286.558 162.544 285.48 161.956 284.668L161.102 285.004ZM160.01 286.978C159.926 286.446 159.66 285.648 159.352 285.06L158.484 285.284C158.778 285.9 159.03 286.712 159.086 287.23L160.01 286.978ZM159.814 292.466V291.122H161.788V292.466H159.814ZM157.028 291.122H158.862V292.466H157.028V291.122ZM158.862 289.022V290.338H157.028V289.022H158.862ZM161.788 289.022V290.338H159.814V289.022H161.788ZM163.524 292.466H162.754V288.182H159.814V287.272H158.862V288.182H156.076V292.466H155.082V293.334H156.076V296.05H157.028V293.334H161.788V294.944C161.788 295.112 161.718 295.154 161.536 295.168C161.368 295.168 160.766 295.182 160.108 295.154C160.248 295.392 160.416 295.798 160.472 296.064C161.354 296.064 161.914 296.05 162.264 295.896C162.642 295.742 162.754 295.448 162.754 294.944V293.334H163.524V292.466Z" fill="black"/>
<circle cx="210" cy="244" r="32" fill="#C4C4C4"/>
<path d="M183.288 291.22C183.134 292.438 182.868 293.698 182.434 294.552C182.63 294.622 183.05 294.804 183.204 294.93C183.652 294.034 183.974 292.69 184.17 291.374L183.288 291.22ZM186.158 291.416C186.508 292.214 186.788 293.278 186.858 293.95L187.67 293.712C187.586 293.026 187.278 291.99 186.928 291.192L186.158 291.416ZM190.946 293.082C190.694 293.082 190.638 292.97 190.638 292.606V290.618H193.606V289.792H191.772V288.364H193.522V287.538H192.458C192.738 287.006 193.074 286.25 193.382 285.578L192.542 285.298C192.388 285.9 192.066 286.782 191.8 287.342L192.318 287.538H190.12L190.764 287.3C190.68 286.796 190.414 285.998 190.092 285.396L189.42 285.634C189.714 286.222 189.966 287.006 190.05 287.538H189.266V288.364H190.876V289.792H189.154V290.618H189.742V292.592C189.742 293.586 189.98 293.908 190.946 293.908H192.584C192.906 293.908 193.228 293.908 193.424 293.866C193.396 293.642 193.354 293.25 193.34 293.026C193.144 293.068 192.766 293.082 192.57 293.082H190.946ZM195.02 283.954H187.81V290.296C187.558 289.54 187.068 288.532 186.55 287.748L185.794 288.056C186.018 288.42 186.228 288.826 186.424 289.232L184.408 289.33C185.36 288.14 186.41 286.558 187.208 285.284L186.34 284.878C185.948 285.634 185.416 286.544 184.842 287.412C184.632 287.132 184.38 286.824 184.086 286.516C184.618 285.732 185.22 284.598 185.696 283.632L184.786 283.296C184.492 284.066 184.002 285.13 183.54 285.928C183.4 285.788 183.26 285.662 183.12 285.536L182.56 286.194C183.19 286.796 183.89 287.594 184.296 288.224C184.002 288.644 183.708 289.036 183.428 289.386L182.462 289.428L182.56 290.366L184.758 290.226V296.064H185.682V290.17L186.788 290.1C186.928 290.422 187.026 290.73 187.082 290.996L187.81 290.66V296.092H188.734V284.878H194.068V294.902C194.068 295.098 194.012 295.154 193.83 295.168C193.634 295.168 193.018 295.182 192.374 295.154C192.514 295.406 192.654 295.826 192.682 296.064C193.578 296.078 194.166 296.05 194.544 295.91C194.894 295.742 195.02 295.462 195.02 294.902V283.954ZM197.554 291.206C197.358 292.424 197.036 293.684 196.532 294.524C196.77 294.608 197.204 294.832 197.4 294.972C197.89 294.076 198.296 292.718 198.52 291.388L197.554 291.206ZM202.02 290.03C202.188 290.352 202.342 290.646 202.44 290.898L203.252 290.45C202.93 289.694 202.16 288.49 201.46 287.622L200.704 288.014C200.97 288.35 201.236 288.742 201.488 289.134C200.564 289.19 199.654 289.232 198.814 289.274C199.85 288.098 201.012 286.558 201.894 285.27L200.942 284.808C200.508 285.578 199.906 286.488 199.262 287.356C199.01 287.048 198.674 286.698 198.31 286.362C198.898 285.606 199.584 284.556 200.116 283.66L199.15 283.268C198.8 284.038 198.212 285.046 197.694 285.816C197.512 285.662 197.33 285.522 197.148 285.382L196.616 286.068C197.344 286.656 198.184 287.454 198.702 288.112C198.352 288.546 198.002 288.966 197.68 289.33L196.56 289.372L196.686 290.366C197.428 290.324 198.324 290.268 199.276 290.198V296.064H200.298V290.142L202.02 290.03ZM202.944 293.922C202.762 293.166 202.328 292.004 201.866 291.122L200.998 291.416C201.432 292.312 201.894 293.488 202.034 294.272L202.944 293.922ZM206.276 294.566V285.76H209.174V284.766H202.44V285.76H205.212V294.566H201.88V295.56H209.398V294.566H206.276ZM215.586 294.552V291.108H221.326V294.552H215.586ZM219.058 285.62C218.456 286.838 217.574 287.944 216.538 288.896C215.894 288.196 214.83 287.3 213.892 286.642C214.256 286.32 214.578 285.97 214.886 285.62H219.058ZM222.376 290.156H216.65C218.274 288.784 219.646 287.062 220.472 284.99L219.786 284.626L219.59 284.682H215.642C215.936 284.276 216.202 283.87 216.44 283.478L215.278 283.24C214.466 284.752 212.87 286.544 210.574 287.79C210.812 287.972 211.162 288.35 211.302 288.588C211.974 288.196 212.576 287.762 213.136 287.314C214.06 288 215.082 288.896 215.698 289.61C214.116 290.856 212.282 291.78 210.504 292.298C210.728 292.494 210.994 292.928 211.12 293.208C212.282 292.83 213.444 292.298 214.564 291.64V296.064H215.586V295.504H221.326V296.092H222.376V290.156ZM229.502 290.842C229.236 290.506 228.088 289.302 227.696 288.952V288.266H229.404V287.426C229.642 287.552 229.936 287.706 230.076 287.804C230.58 287.104 231.056 286.068 231.406 284.99C233.128 284.836 235.074 284.584 236.46 284.234L235.676 283.506C234.668 283.758 232.988 284.024 231.406 284.192L230.622 284.024C230.314 285.242 229.824 286.46 229.18 287.3H227.696V284.892C228.326 284.724 228.928 284.542 229.418 284.318L228.634 283.59C227.724 284.038 226.058 284.43 224.602 284.682C224.728 284.892 224.868 285.228 224.91 285.452C225.484 285.368 226.114 285.256 226.716 285.13V287.3H224.672V288.266H226.548C226.1 289.848 225.274 291.682 224.504 292.676C224.686 292.928 224.938 293.334 225.05 293.628C225.638 292.774 226.24 291.43 226.716 290.058V296.092H227.696V289.96C228.144 290.52 228.676 291.248 228.886 291.626L229.502 290.842ZM235.102 285.004C235.676 285.816 236.264 286.964 236.516 287.692L237.412 287.286C237.146 286.558 236.544 285.48 235.956 284.668L235.102 285.004ZM234.01 286.978C233.926 286.446 233.66 285.648 233.352 285.06L232.484 285.284C232.778 285.9 233.03 286.712 233.086 287.23L234.01 286.978ZM233.814 292.466V291.122H235.788V292.466H233.814ZM231.028 291.122H232.862V292.466H231.028V291.122ZM232.862 289.022V290.338H231.028V289.022H232.862ZM235.788 289.022V290.338H233.814V289.022H235.788ZM237.524 292.466H236.754V288.182H233.814V287.272H232.862V288.182H230.076V292.466H229.082V293.334H230.076V296.05H231.028V293.334H235.788V294.944C235.788 295.112 235.718 295.154 235.536 295.168C235.368 295.168 234.766 295.182 234.108 295.154C234.248 295.392 234.416 295.798 234.472 296.064C235.354 296.064 235.914 296.05 236.264 295.896C236.642 295.742 236.754 295.448 236.754 294.944V293.334H237.524V292.466Z" fill="black"/>
<circle cx="284" cy="244" r="32" fill="#C4C4C4"/>
<path d="M257.288 291.22C257.134 292.438 256.868 293.698 256.434 294.552C256.63 294.622 257.05 294.804 257.204 294.93C257.652 294.034 257.974 292.69 258.17 291.374L257.288 291.22ZM260.158 291.416C260.508 292.214 260.788 293.278 260.858 293.95L261.67 293.712C261.586 293.026 261.278 291.99 260.928 291.192L260.158 291.416ZM264.946 293.082C264.694 293.082 264.638 292.97 264.638 292.606V290.618H267.606V289.792H265.772V288.364H267.522V287.538H266.458C266.738 287.006 267.074 286.25 267.382 285.578L266.542 285.298C266.388 285.9 266.066 286.782 265.8 287.342L266.318 287.538H264.12L264.764 287.3C264.68 286.796 264.414 285.998 264.092 285.396L263.42 285.634C263.714 286.222 263.966 287.006 264.05 287.538H263.266V288.364H264.876V289.792H263.154V290.618H263.742V292.592C263.742 293.586 263.98 293.908 264.946 293.908H266.584C266.906 293.908 267.228 293.908 267.424 293.866C267.396 293.642 267.354 293.25 267.34 293.026C267.144 293.068 266.766 293.082 266.57 293.082H264.946ZM269.02 283.954H261.81V290.296C261.558 289.54 261.068 288.532 260.55 287.748L259.794 288.056C260.018 288.42 260.228 288.826 260.424 289.232L258.408 289.33C259.36 288.14 260.41 286.558 261.208 285.284L260.34 284.878C259.948 285.634 259.416 286.544 258.842 287.412C258.632 287.132 258.38 286.824 258.086 286.516C258.618 285.732 259.22 284.598 259.696 283.632L258.786 283.296C258.492 284.066 258.002 285.13 257.54 285.928C257.4 285.788 257.26 285.662 257.12 285.536L256.56 286.194C257.19 286.796 257.89 287.594 258.296 288.224C258.002 288.644 257.708 289.036 257.428 289.386L256.462 289.428L256.56 290.366L258.758 290.226V296.064H259.682V290.17L260.788 290.1C260.928 290.422 261.026 290.73 261.082 290.996L261.81 290.66V296.092H262.734V284.878H268.068V294.902C268.068 295.098 268.012 295.154 267.83 295.168C267.634 295.168 267.018 295.182 266.374 295.154C266.514 295.406 266.654 295.826 266.682 296.064C267.578 296.078 268.166 296.05 268.544 295.91C268.894 295.742 269.02 295.462 269.02 294.902V283.954ZM271.554 291.206C271.358 292.424 271.036 293.684 270.532 294.524C270.77 294.608 271.204 294.832 271.4 294.972C271.89 294.076 272.296 292.718 272.52 291.388L271.554 291.206ZM276.02 290.03C276.188 290.352 276.342 290.646 276.44 290.898L277.252 290.45C276.93 289.694 276.16 288.49 275.46 287.622L274.704 288.014C274.97 288.35 275.236 288.742 275.488 289.134C274.564 289.19 273.654 289.232 272.814 289.274C273.85 288.098 275.012 286.558 275.894 285.27L274.942 284.808C274.508 285.578 273.906 286.488 273.262 287.356C273.01 287.048 272.674 286.698 272.31 286.362C272.898 285.606 273.584 284.556 274.116 283.66L273.15 283.268C272.8 284.038 272.212 285.046 271.694 285.816C271.512 285.662 271.33 285.522 271.148 285.382L270.616 286.068C271.344 286.656 272.184 287.454 272.702 288.112C272.352 288.546 272.002 288.966 271.68 289.33L270.56 289.372L270.686 290.366C271.428 290.324 272.324 290.268 273.276 290.198V296.064H274.298V290.142L276.02 290.03ZM276.944 293.922C276.762 293.166 276.328 292.004 275.866 291.122L274.998 291.416C275.432 292.312 275.894 293.488 276.034 294.272L276.944 293.922ZM280.276 294.566V285.76H283.174V284.766H276.44V285.76H279.212V294.566H275.88V295.56H283.398V294.566H280.276ZM289.586 294.552V291.108H295.326V294.552H289.586ZM293.058 285.62C292.456 286.838 291.574 287.944 290.538 288.896C289.894 288.196 288.83 287.3 287.892 286.642C288.256 286.32 288.578 285.97 288.886 285.62H293.058ZM296.376 290.156H290.65C292.274 288.784 293.646 287.062 294.472 284.99L293.786 284.626L293.59 284.682H289.642C289.936 284.276 290.202 283.87 290.44 283.478L289.278 283.24C288.466 284.752 286.87 286.544 284.574 287.79C284.812 287.972 285.162 288.35 285.302 288.588C285.974 288.196 286.576 287.762 287.136 287.314C288.06 288 289.082 288.896 289.698 289.61C288.116 290.856 286.282 291.78 284.504 292.298C284.728 292.494 284.994 292.928 285.12 293.208C286.282 292.83 287.444 292.298 288.564 291.64V296.064H289.586V295.504H295.326V296.092H296.376V290.156ZM303.502 290.842C303.236 290.506 302.088 289.302 301.696 288.952V288.266H303.404V287.426C303.642 287.552 303.936 287.706 304.076 287.804C304.58 287.104 305.056 286.068 305.406 284.99C307.128 284.836 309.074 284.584 310.46 284.234L309.676 283.506C308.668 283.758 306.988 284.024 305.406 284.192L304.622 284.024C304.314 285.242 303.824 286.46 303.18 287.3H301.696V284.892C302.326 284.724 302.928 284.542 303.418 284.318L302.634 283.59C301.724 284.038 300.058 284.43 298.602 284.682C298.728 284.892 298.868 285.228 298.91 285.452C299.484 285.368 300.114 285.256 300.716 285.13V287.3H298.672V288.266H300.548C300.1 289.848 299.274 291.682 298.504 292.676C298.686 292.928 298.938 293.334 299.05 293.628C299.638 292.774 300.24 291.43 300.716 290.058V296.092H301.696V289.96C302.144 290.52 302.676 291.248 302.886 291.626L303.502 290.842ZM309.102 285.004C309.676 285.816 310.264 286.964 310.516 287.692L311.412 287.286C311.146 286.558 310.544 285.48 309.956 284.668L309.102 285.004ZM308.01 286.978C307.926 286.446 307.66 285.648 307.352 285.06L306.484 285.284C306.778 285.9 307.03 286.712 307.086 287.23L308.01 286.978ZM307.814 292.466V291.122H309.788V292.466H307.814ZM305.028 291.122H306.862V292.466H305.028V291.122ZM306.862 289.022V290.338H305.028V289.022H306.862ZM309.788 289.022V290.338H307.814V289.022H309.788ZM311.524 292.466H310.754V288.182H307.814V287.272H306.862V288.182H304.076V292.466H303.082V293.334H304.076V296.05H305.028V293.334H309.788V294.944C309.788 295.112 309.718 295.154 309.536 295.168C309.368 295.168 308.766 295.182 308.108 295.154C308.248 295.392 308.416 295.798 308.472 296.064C309.354 296.064 309.914 296.05 310.264 295.896C310.642 295.742 310.754 295.448 310.754 294.944V293.334H311.524V292.466Z" fill="black"/>
<circle cx="358" cy="244" r="32" fill="#C4C4C4"/>
<path d="M331.288 291.22C331.134 292.438 330.868 293.698 330.434 294.552C330.63 294.622 331.05 294.804 331.204 294.93C331.652 294.034 331.974 292.69 332.17 291.374L331.288 291.22ZM334.158 291.416C334.508 292.214 334.788 293.278 334.858 293.95L335.67 293.712C335.586 293.026 335.278 291.99 334.928 291.192L334.158 291.416ZM338.946 293.082C338.694 293.082 338.638 292.97 338.638 292.606V290.618H341.606V289.792H339.772V288.364H341.522V287.538H340.458C340.738 287.006 341.074 286.25 341.382 285.578L340.542 285.298C340.388 285.9 340.066 286.782 339.8 287.342L340.318 287.538H338.12L338.764 287.3C338.68 286.796 338.414 285.998 338.092 285.396L337.42 285.634C337.714 286.222 337.966 287.006 338.05 287.538H337.266V288.364H338.876V289.792H337.154V290.618H337.742V292.592C337.742 293.586 337.98 293.908 338.946 293.908H340.584C340.906 293.908 341.228 293.908 341.424 293.866C341.396 293.642 341.354 293.25 341.34 293.026C341.144 293.068 340.766 293.082 340.57 293.082H338.946ZM343.02 283.954H335.81V290.296C335.558 289.54 335.068 288.532 334.55 287.748L333.794 288.056C334.018 288.42 334.228 288.826 334.424 289.232L332.408 289.33C333.36 288.14 334.41 286.558 335.208 285.284L334.34 284.878C333.948 285.634 333.416 286.544 332.842 287.412C332.632 287.132 332.38 286.824 332.086 286.516C332.618 285.732 333.22 284.598 333.696 283.632L332.786 283.296C332.492 284.066 332.002 285.13 331.54 285.928C331.4 285.788 331.26 285.662 331.12 285.536L330.56 286.194C331.19 286.796 331.89 287.594 332.296 288.224C332.002 288.644 331.708 289.036 331.428 289.386L330.462 289.428L330.56 290.366L332.758 290.226V296.064H333.682V290.17L334.788 290.1C334.928 290.422 335.026 290.73 335.082 290.996L335.81 290.66V296.092H336.734V284.878H342.068V294.902C342.068 295.098 342.012 295.154 341.83 295.168C341.634 295.168 341.018 295.182 340.374 295.154C340.514 295.406 340.654 295.826 340.682 296.064C341.578 296.078 342.166 296.05 342.544 295.91C342.894 295.742 343.02 295.462 343.02 294.902V283.954ZM345.554 291.206C345.358 292.424 345.036 293.684 344.532 294.524C344.77 294.608 345.204 294.832 345.4 294.972C345.89 294.076 346.296 292.718 346.52 291.388L345.554 291.206ZM350.02 290.03C350.188 290.352 350.342 290.646 350.44 290.898L351.252 290.45C350.93 289.694 350.16 288.49 349.46 287.622L348.704 288.014C348.97 288.35 349.236 288.742 349.488 289.134C348.564 289.19 347.654 289.232 346.814 289.274C347.85 288.098 349.012 286.558 349.894 285.27L348.942 284.808C348.508 285.578 347.906 286.488 347.262 287.356C347.01 287.048 346.674 286.698 346.31 286.362C346.898 285.606 347.584 284.556 348.116 283.66L347.15 283.268C346.8 284.038 346.212 285.046 345.694 285.816C345.512 285.662 345.33 285.522 345.148 285.382L344.616 286.068C345.344 286.656 346.184 287.454 346.702 288.112C346.352 288.546 346.002 288.966 345.68 289.33L344.56 289.372L344.686 290.366C345.428 290.324 346.324 290.268 347.276 290.198V296.064H348.298V290.142L350.02 290.03ZM350.944 293.922C350.762 293.166 350.328 292.004 349.866 291.122L348.998 291.416C349.432 292.312 349.894 293.488 350.034 294.272L350.944 293.922ZM354.276 294.566V285.76H357.174V284.766H350.44V285.76H353.212V294.566H349.88V295.56H357.398V294.566H354.276ZM363.586 294.552V291.108H369.326V294.552H363.586ZM367.058 285.62C366.456 286.838 365.574 287.944 364.538 288.896C363.894 288.196 362.83 287.3 361.892 286.642C362.256 286.32 362.578 285.97 362.886 285.62H367.058ZM370.376 290.156H364.65C366.274 288.784 367.646 287.062 368.472 284.99L367.786 284.626L367.59 284.682H363.642C363.936 284.276 364.202 283.87 364.44 283.478L363.278 283.24C362.466 284.752 360.87 286.544 358.574 287.79C358.812 287.972 359.162 288.35 359.302 288.588C359.974 288.196 360.576 287.762 361.136 287.314C362.06 288 363.082 288.896 363.698 289.61C362.116 290.856 360.282 291.78 358.504 292.298C358.728 292.494 358.994 292.928 359.12 293.208C360.282 292.83 361.444 292.298 362.564 291.64V296.064H363.586V295.504H369.326V296.092H370.376V290.156ZM377.502 290.842C377.236 290.506 376.088 289.302 375.696 288.952V288.266H377.404V287.426C377.642 287.552 377.936 287.706 378.076 287.804C378.58 287.104 379.056 286.068 379.406 284.99C381.128 284.836 383.074 284.584 384.46 284.234L383.676 283.506C382.668 283.758 380.988 284.024 379.406 284.192L378.622 284.024C378.314 285.242 377.824 286.46 377.18 287.3H375.696V284.892C376.326 284.724 376.928 284.542 377.418 284.318L376.634 283.59C375.724 284.038 374.058 284.43 372.602 284.682C372.728 284.892 372.868 285.228 372.91 285.452C373.484 285.368 374.114 285.256 374.716 285.13V287.3H372.672V288.266H374.548C374.1 289.848 373.274 291.682 372.504 292.676C372.686 292.928 372.938 293.334 373.05 293.628C373.638 292.774 374.24 291.43 374.716 290.058V296.092H375.696V289.96C376.144 290.52 376.676 291.248 376.886 291.626L377.502 290.842ZM383.102 285.004C383.676 285.816 384.264 286.964 384.516 287.692L385.412 287.286C385.146 286.558 384.544 285.48 383.956 284.668L383.102 285.004ZM382.01 286.978C381.926 286.446 381.66 285.648 381.352 285.06L380.484 285.284C380.778 285.9 381.03 286.712 381.086 287.23L382.01 286.978ZM381.814 292.466V291.122H383.788V292.466H381.814ZM379.028 291.122H380.862V292.466H379.028V291.122ZM380.862 289.022V290.338H379.028V289.022H380.862ZM383.788 289.022V290.338H381.814V289.022H383.788ZM385.524 292.466H384.754V288.182H381.814V287.272H380.862V288.182H378.076V292.466H377.082V293.334H378.076V296.05H379.028V293.334H383.788V294.944C383.788 295.112 383.718 295.154 383.536 295.168C383.368 295.168 382.766 295.182 382.108 295.154C382.248 295.392 382.416 295.798 382.472 296.064C383.354 296.064 383.914 296.05 384.264 295.896C384.642 295.742 384.754 295.448 384.754 294.944V293.334H385.524V292.466Z" fill="black"/>
<circle cx="337.5" cy="76.5" r="17.5" fill="#C4C4C4"/>
<path d="M299 73C299 71.4087 298.368 69.8826 297.243 68.7574C296.117 67.6321 294.591 67 293 67C291.409 67 289.883 67.6321 288.757 68.7574C287.632 69.8826 287 71.4087 287 73C287 80 284 82 284 82H302C302 82 299 80 299 73Z" stroke="#C4C4C4" stroke-width="2" stroke-linecap="round" stroke-linejoin="round"/>
<path d="M294.73 86C294.554 86.3031 294.302 86.5547 293.998 86.7295C293.695 86.9044 293.35 86.9965 293 86.9965C292.65 86.9965 292.305 86.9044 292.002 86.7295C291.698 86.5547 291.446 86.3031 291.27 86" stroke="#C4C4C4" stroke-width="2" stroke-linecap="round" stroke-linejoin="round"/>
</g>
<defs>
<filter id="filter0_d_27_95" x="-2" y="110" width="379" height="5" filterUnits="userSpaceOnUse" color-interpolation-filters="sRGB">
<feFlood flood-opacity="0" result="BackgroundImageFix"/>
<feColorMatrix in="SourceAlpha" type="matrix" values="0 0 0 0 0 0 0 0 0 0 0 0 0 0 0 0 0 0 127 0" result="hardAlpha"/>
<feOffset dy="1"/>
<feGaussianBlur stdDeviation="1"/>
<feComposite in2="hardAlpha" operator="out"/>
<feColorMatrix type="matrix" values="0 0 0 0 0 0 0 0 0 0 0 0 0 0 0 0 0 0 0.1 0"/>
<feBlend mode="normal" in2="BackgroundImageFix" result="effect1_dropShadow_27_95"/>
<feBlend mode="normal" in="SourceGraphic" in2="effect1_dropShadow_27_95" result="shape"/>
</filter>
<clipPath id="clip0_27_95">
<rect width="375" height="667" fill="white"/>
</clipPath>
</defs>
</svg>
