<svg width="375" height="667" viewBox="0 0 375 667" fill="none" xmlns="http://www.w3.org/2000/svg">
<g clip-path="url(#clip0_27_97)">
<rect width="375" height="667" fill="white"/>
<rect y="111" width="375" height="556" fill="#C4C4C4" fill-opacity="0.2"/>
<path d="M58.47 200.91C59.338 200.21 59.758 198.992 60.024 197.844L59.142 197.55C58.904 198.642 58.442 199.748 57.63 200.378L58.47 200.91ZM61.032 197.956C61.256 198.768 61.382 199.818 61.354 200.504L62.264 200.364C62.264 199.678 62.124 198.642 61.872 197.83L61.032 197.956ZM63.3 197.914C63.636 198.656 63.916 199.636 64 200.238L64.84 200C64.77 199.412 64.448 198.446 64.098 197.718L63.3 197.914ZM67.192 190.438V192.328H60.57V190.438H67.192ZM70.244 195.072V194.218H60.57V193.168H68.214V189.598H64.056C64.266 189.234 64.49 188.814 64.686 188.408L63.496 188.24C63.398 188.618 63.202 189.15 63.02 189.598H59.534V197.074H68.69C68.55 199.048 68.41 199.846 68.186 200.084C68.088 200.21 67.948 200.224 67.724 200.224C67.5 200.224 66.884 200.224 66.212 200.154C66.366 200.392 66.464 200.77 66.478 201.036C67.164 201.078 67.822 201.078 68.172 201.05C68.55 201.022 68.802 200.938 69.04 200.686C69.39 200.294 69.544 199.286 69.712 196.626C69.726 196.472 69.74 196.178 69.74 196.178H60.57V195.072H70.244ZM67.29 199.258C67.108 198.768 66.66 198.012 66.24 197.466L65.512 197.732C65.932 198.306 66.366 199.076 66.534 199.58L67.29 199.258ZM73.38 197.676V196.668H76.362V197.676H73.38ZM76.362 194.96V195.94H73.38V194.96H76.362ZM77.384 194.176H72.4V201.036H73.38V198.418H76.362V199.93C76.362 200.084 76.32 200.126 76.166 200.14C75.998 200.154 75.48 200.154 74.892 200.126C75.018 200.378 75.172 200.784 75.228 201.05C76.012 201.05 76.572 201.036 76.936 200.882C77.286 200.728 77.384 200.434 77.384 199.944V194.176ZM76.236 190.396H77.79V189.5H75.34V188.296H74.318V189.5H71.882V190.396H76.138C75.998 190.928 75.732 191.698 75.536 192.188L76.208 192.384H73.366L74.15 192.174C74.052 191.712 73.814 190.97 73.562 190.41L72.75 190.606C72.974 191.166 73.184 191.908 73.268 192.384H71.644V193.28H78.042V192.384H76.32C76.558 191.922 76.81 191.25 77.062 190.62L76.236 190.396ZM80.52 200.112C79.848 200.112 79.736 200.014 79.736 199.552V198.964H83.726V198.278H79.736V197.382H83.586V196.696H79.736V195.842H83.67V195.156H79.736V194.288H83.684V191.39H79.736V190.256H84.23V189.388H79.736V188.282H78.742V192.216H82.676V193.476H78.742V199.552C78.742 200.714 79.12 200.966 80.422 200.966H83.012C84.062 200.966 84.356 200.616 84.482 199.342C84.202 199.286 83.81 199.132 83.572 198.964C83.53 199.93 83.432 200.112 82.942 200.112H80.52ZM91.51 188.492V199.622C91.51 199.902 91.398 200 91.104 200C90.838 200.014 89.83 200.028 88.808 199.986C88.976 200.28 89.172 200.77 89.242 201.064C90.544 201.078 91.412 201.05 91.916 200.882C92.406 200.7 92.616 200.392 92.616 199.622V188.492H91.51ZM94.856 192.02C96.046 194.022 97.166 196.626 97.502 198.278L98.594 197.816C98.244 196.15 97.068 193.602 95.836 191.642L94.856 192.02ZM87.856 191.74C87.52 193.616 86.75 196.024 85.504 197.494C85.784 197.606 86.232 197.858 86.484 198.04C87.744 196.486 88.556 193.98 89.004 191.95L87.856 191.74ZM100.288 196.22C100.134 197.438 99.868 198.698 99.434 199.552C99.63 199.622 100.05 199.804 100.204 199.93C100.652 199.034 100.974 197.69 101.17 196.374L100.288 196.22ZM103.158 196.416C103.508 197.214 103.788 198.278 103.858 198.95L104.67 198.712C104.586 198.026 104.278 196.99 103.928 196.192L103.158 196.416ZM107.946 198.082C107.694 198.082 107.638 197.97 107.638 197.606V195.618H110.606V194.792H108.772V193.364H110.522V192.538H109.458C109.738 192.006 110.074 191.25 110.382 190.578L109.542 190.298C109.388 190.9 109.066 191.782 108.8 192.342L109.318 192.538H107.12L107.764 192.3C107.68 191.796 107.414 190.998 107.092 190.396L106.42 190.634C106.714 191.222 106.966 192.006 107.05 192.538H106.266V193.364H107.876V194.792H106.154V195.618H106.742V197.592C106.742 198.586 106.98 198.908 107.946 198.908H109.584C109.906 198.908 110.228 198.908 110.424 198.866C110.396 198.642 110.354 198.25 110.34 198.026C110.144 198.068 109.766 198.082 109.57 198.082H107.946ZM112.02 188.954H104.81V195.296C104.558 194.54 104.068 193.532 103.55 192.748L102.794 193.056C103.018 193.42 103.228 193.826 103.424 194.232L101.408 194.33C102.36 193.14 103.41 191.558 104.208 190.284L103.34 189.878C102.948 190.634 102.416 191.544 101.842 192.412C101.632 192.132 101.38 191.824 101.086 191.516C101.618 190.732 102.22 189.598 102.696 188.632L101.786 188.296C101.492 189.066 101.002 190.13 100.54 190.928C100.4 190.788 100.26 190.662 100.12 190.536L99.56 191.194C100.19 191.796 100.89 192.594 101.296 193.224C101.002 193.644 100.708 194.036 100.428 194.386L99.462 194.428L99.56 195.366L101.758 195.226V201.064H102.682V195.17L103.788 195.1C103.928 195.422 104.026 195.73 104.082 195.996L104.81 195.66V201.092H105.734V189.878H111.068V199.902C111.068 200.098 111.012 200.154 110.83 200.168C110.634 200.168 110.018 200.182 109.374 200.154C109.514 200.406 109.654 200.826 109.682 201.064C110.578 201.078 111.166 201.05 111.544 200.91C111.894 200.742 112.02 200.462 112.02 199.902V188.954ZM114.554 196.206C114.358 197.424 114.036 198.684 113.532 199.524C113.77 199.608 114.204 199.832 114.4 199.972C114.89 199.076 115.296 197.718 115.52 196.388L114.554 196.206ZM119.02 195.03C119.188 195.352 119.342 195.646 119.44 195.898L120.252 195.45C119.93 194.694 119.16 193.49 118.46 192.622L117.704 193.014C117.97 193.35 118.236 193.742 118.488 194.134C117.564 194.19 116.654 194.232 115.814 194.274C116.85 193.098 118.012 191.558 118.894 190.27L117.942 189.808C117.508 190.578 116.906 191.488 116.262 192.356C116.01 192.048 115.674 191.698 115.31 191.362C115.898 190.606 116.584 189.556 117.116 188.66L116.15 188.268C115.8 189.038 115.212 190.046 114.694 190.816C114.512 190.662 114.33 190.522 114.148 190.382L113.616 191.068C114.344 191.656 115.184 192.454 115.702 193.112C115.352 193.546 115.002 193.966 114.68 194.33L113.56 194.372L113.686 195.366C114.428 195.324 115.324 195.268 116.276 195.198V201.064H117.298V195.142L119.02 195.03ZM119.944 198.922C119.762 198.166 119.328 197.004 118.866 196.122L117.998 196.416C118.432 197.312 118.894 198.488 119.034 199.272L119.944 198.922ZM123.276 199.566V190.76H126.174V189.766H119.44V190.76H122.212V199.566H118.88V200.56H126.398V199.566H123.276Z" fill="black"/>
<path d="M30.46 138.94H21.82V140.74H30.46V138.94ZM31.57 142.87H20.26V144.7H31.57V142.87ZM28.57 156.73V161.77H23.56V156.73H28.57ZM30.52 154.9H21.61V164.95H23.56V163.57H30.52V154.9ZM21.67 152.68H30.55V150.88H21.67V152.68ZM21.67 148.69H30.55V146.92H21.67V148.69ZM36.04 140.83H41.17V146.17C41.17 148.3 41.71 148.87 43.54 148.87H45.61C47.2 148.87 47.74 148 47.92 144.49C47.35 144.37 46.48 144.04 46.06 143.68C46 146.56 45.88 146.95 45.34 146.95H43.84C43.36 146.95 43.27 146.83 43.27 146.17V138.85H33.91V142.45C33.91 144.52 33.46 147.01 30.58 148.84C31.03 149.14 31.87 149.92 32.2 150.31C35.38 148.21 36.04 145.06 36.04 142.48V140.83ZM44.68 150.7L44.29 150.79H31.96V152.83H43.3C42.4 155.14 41.05 157.09 39.37 158.68C37.69 157.03 36.37 155.08 35.5 152.89L33.52 153.49C34.54 156.01 35.95 158.2 37.72 160.03C35.62 161.59 33.19 162.67 30.64 163.33C31.06 163.78 31.63 164.74 31.84 165.28C34.57 164.47 37.15 163.27 39.37 161.56C41.41 163.21 43.78 164.44 46.51 165.25C46.81 164.71 47.47 163.81 47.95 163.36C45.31 162.7 43 161.59 41.05 160.12C43.33 157.87 45.1 154.96 46.12 151.27L44.68 150.7ZM60.97 138.94H51.82V140.74H60.97V138.94ZM62.08 142.87H50.26V144.7H62.08V142.87ZM58.87 156.73V161.77H53.62V156.73H58.87ZM60.88 154.9H51.64V164.95H53.62V163.57H60.88V154.9ZM51.67 152.68H60.97V150.88H51.67V152.68ZM51.67 148.69H60.97V146.92H51.67V148.69ZM78.01 148.09H71.29V137.98H69.07V148.09H62.05V150.28H69.07V165.28H71.29V150.28H78.01V148.09ZM88.75 155.32V160.45H83.53V155.32H88.75ZM88.48 144.31V148.72H83.53V144.31H88.48ZM83.53 150.61H90.46V142.39H86.05C86.59 141.16 87.22 139.6 87.7 138.25L85.3 137.89C85.03 139.21 84.52 141.01 84.01 142.39H81.49V164.38H83.53V162.37H90.76V153.4H83.53V150.61ZM107.56 141.49V139.48H91.66V141.49H98.5V145.18H92.77V160.81H94.81V147.22H98.5V165.25H100.6V147.22H104.59V158.44C104.59 158.74 104.5 158.86 104.17 158.86C103.87 158.86 102.94 158.86 101.86 158.83C102.1 159.37 102.4 160.21 102.46 160.78C104.08 160.78 105.1 160.75 105.79 160.42C106.48 160.09 106.66 159.46 106.66 158.47V145.18H100.6V141.49H107.56ZM121.87 137.89C120.07 138.58 116.98 139.27 114.07 139.75L112.72 139.45C112.15 141.76 111.25 144.16 110.02 145.78C110.5 145.99 111.31 146.53 111.64 146.83C112.66 145.42 113.53 143.44 114.16 141.34C117.37 140.92 121 140.17 123.52 139.3L121.87 137.89ZM119.86 141.13C120.91 142.57 121.99 144.55 122.44 145.87L124.12 145.12C123.61 143.83 122.53 141.88 121.42 140.47L119.86 141.13ZM116.47 154.69C116.44 155.5 116.35 156.22 116.26 156.91H110.56V158.65H115.9C115.18 161.14 113.62 162.7 110.08 163.69C110.53 164.05 111.07 164.83 111.28 165.31C114.34 164.35 116.08 162.97 117.1 160.99C119.08 162.25 121.21 163.87 122.32 165.01L123.61 163.63C122.35 162.37 119.86 160.63 117.76 159.34C117.82 159.13 117.88 158.89 117.94 158.65H123.88V156.91H118.27C118.36 156.22 118.42 155.47 118.48 154.69H116.47ZM119.29 151.18C119.74 151.63 120.19 152.14 120.61 152.65C119.05 152.71 117.52 152.77 116.05 152.83C117.79 151.24 119.71 149.23 121.21 147.52L119.41 146.65C118.66 147.7 117.58 148.99 116.47 150.22C116.05 149.8 115.51 149.32 114.94 148.87C115.84 147.88 116.92 146.53 117.85 145.27L117.07 144.97L118.54 144.61C118.45 143.77 118.09 142.39 117.67 141.37L116.05 141.7C116.41 142.72 116.74 143.98 116.83 144.88L115.96 144.55C115.45 145.54 114.58 146.89 113.74 147.94C113.41 147.7 113.08 147.46 112.75 147.25L111.64 148.48C112.87 149.35 114.28 150.55 115.21 151.54C114.73 152.02 114.25 152.47 113.8 152.89L110.65 152.98L110.83 154.78C113.77 154.69 117.82 154.51 121.84 154.33C122.08 154.69 122.29 155.05 122.47 155.35L124 154.36C123.34 153.22 122.02 151.54 120.7 150.31L119.29 151.18ZM127.36 157.72H130.84V161.83H127.36V157.72ZM130.84 149.83H127.36V145.87H130.84V149.83ZM130.84 155.83H127.36V151.75H130.84V155.83ZM137.71 161.83H132.94V157.72H136.84V155.83H132.94V151.75H136.84V149.83H132.94V145.87H137.38V143.89H132.85C133.42 142.42 134.05 140.5 134.62 138.82L132.4 138.31C132.1 139.93 131.44 142.27 130.81 143.89H127.66C128.32 142.12 128.86 140.26 129.31 138.4L127.15 137.92C126.16 142.48 124.45 146.98 122.17 149.86C122.68 150.25 123.46 151.12 123.82 151.57C124.33 150.88 124.81 150.13 125.26 149.29V165.25H127.36V163.84H137.71V161.83ZM162.97 142.9H152.89V140.62H162.97V142.9ZM162.97 146.83H152.89V144.49H162.97V146.83ZM165.13 138.91H150.79V148.51H165.13V138.91ZM148.12 141.37C147.07 140.29 144.82 138.97 143.02 138.16L141.76 139.78C143.59 140.65 145.78 142.09 146.83 143.14L148.12 141.37ZM146.65 149.11C145.54 148.12 143.29 146.89 141.49 146.14L140.23 147.79C142.09 148.63 144.31 149.95 145.36 150.94L146.65 149.11ZM145.75 153.94C144.28 157.33 142.3 161.23 140.89 163.51L142.87 164.89C144.4 162.1 146.14 158.41 147.46 155.26L145.75 153.94ZM167.71 152.23V150.37H148V152.23H152.23C150.88 154.54 148.87 156.67 146.77 158.11C147.25 158.44 148.03 159.1 148.36 159.49C149.53 158.59 150.73 157.45 151.81 156.16H154.72C153.19 158.89 150.85 161.35 148.36 163C148.84 163.36 149.59 164.05 149.92 164.44C152.59 162.46 155.23 159.46 156.94 156.16H159.91C158.71 159.34 156.82 162.16 154.42 163.99C154.9 164.29 155.74 164.92 156.1 165.25C158.56 163.09 160.69 159.85 161.98 156.16H164.47C164.11 160.72 163.72 162.52 163.24 163.03C163 163.33 162.76 163.36 162.31 163.36C161.92 163.36 160.9 163.36 159.82 163.24C160.12 163.75 160.33 164.59 160.36 165.16C161.56 165.25 162.7 165.25 163.3 165.19C164.02 165.1 164.53 164.95 165.01 164.41C165.76 163.54 166.21 161.26 166.63 155.29C166.69 154.96 166.72 154.36 166.72 154.36H153.19C153.67 153.67 154.09 152.95 154.48 152.23H167.71Z" fill="black"/>
<path d="M36.528 89.048C35.792 89.048 35.424 88.848 35.424 88.448V80.552L30.48 73.064C30.336 72.872 30.264 72.712 30.264 72.584C30.264 72.296 30.672 72.152 31.488 72.152H31.992C32.296 72.152 32.536 72.184 32.712 72.248C32.888 72.296 33.024 72.392 33.12 72.536L36.768 78.224L40.488 72.512C40.648 72.272 41.048 72.152 41.688 72.152H42.048C42.784 72.168 43.152 72.312 43.152 72.584C43.152 72.696 43.088 72.856 42.96 73.064L37.992 80.624V88.448C37.992 88.848 37.624 89.048 36.888 89.048H36.528ZM46.5484 89.168C45.3324 89.168 44.3724 88.864 43.6684 88.256C42.9644 87.632 42.6124 86.744 42.6124 85.592C42.6124 83.976 43.2844 82.848 44.6284 82.208C45.9724 81.552 47.8524 81.216 50.2684 81.2V80.168C50.2684 79.608 50.0764 79.16 49.6924 78.824C49.3084 78.488 48.6924 78.32 47.8444 78.32C47.1884 78.32 46.6124 78.4 46.1164 78.56C45.6364 78.704 45.2204 78.864 44.8684 79.04C44.5324 79.2 44.3404 79.28 44.2924 79.28C44.1164 79.28 43.9084 79.096 43.6684 78.728C43.4444 78.344 43.3324 78.056 43.3324 77.864C43.3324 77.64 43.5404 77.408 43.9564 77.168C44.3884 76.912 44.9484 76.704 45.6364 76.544C46.3404 76.368 47.0844 76.28 47.8684 76.28C49.4524 76.28 50.6524 76.624 51.4684 77.312C52.3004 77.984 52.7164 78.92 52.7164 80.12V85.256C52.7164 86.328 52.7644 87.104 52.8604 87.584C52.9564 88.064 53.0044 88.336 53.0044 88.4C53.0044 88.624 52.8044 88.784 52.4044 88.88C52.0204 88.976 51.6604 89.024 51.3244 89.024C51.0684 89.024 50.8844 88.904 50.7724 88.664C50.6764 88.424 50.5964 88.168 50.5324 87.896C50.4844 87.624 50.4524 87.44 50.4364 87.344C50.0044 87.856 49.4604 88.288 48.8044 88.64C48.1644 88.992 47.4124 89.168 46.5484 89.168ZM46.9564 87.104C47.6604 87.104 48.2764 86.96 48.8044 86.672C49.3324 86.384 49.8204 85.992 50.2684 85.496V83.096C48.7164 83.096 47.4764 83.248 46.5484 83.552C45.6204 83.84 45.1564 84.456 45.1564 85.4C45.1564 85.944 45.3084 86.368 45.6124 86.672C45.9324 86.96 46.3804 87.104 46.9564 87.104ZM64.6665 76.4C65.3865 76.4 65.7465 76.544 65.7465 76.832C65.7465 76.912 65.7225 77.04 65.6745 77.216L59.6985 93.464C59.5865 93.8 59.1945 93.968 58.5225 93.968H58.1385C57.4825 93.968 57.1545 93.832 57.1545 93.56C57.1545 93.512 57.1945 93.376 57.2745 93.152L59.1465 88.496L55.0185 77.192C54.9705 77 54.9465 76.88 54.9465 76.832C54.9465 76.544 55.3305 76.4 56.0985 76.4H56.4585C57.0825 76.4 57.4345 76.536 57.5145 76.808L59.6745 82.736C59.8825 83.28 60.1305 84.128 60.4185 85.28H60.4665L60.6585 84.632C60.8825 83.848 61.0745 83.216 61.2345 82.736L63.3465 76.808C63.4265 76.536 63.7945 76.4 64.4505 76.4H64.6665ZM69.4052 89.048C68.6692 89.048 68.3012 88.848 68.3012 88.448V72.992C68.3012 72.72 68.3652 72.52 68.4932 72.392C68.6212 72.264 68.8212 72.2 69.0932 72.2H76.7492C76.9412 72.2 77.0772 72.272 77.1572 72.416C77.2532 72.544 77.3012 72.76 77.3012 73.064V73.544C77.3012 73.848 77.2532 74.072 77.1572 74.216C77.0772 74.344 76.9412 74.408 76.7492 74.408H70.8692V79.856H76.3892C76.5812 79.856 76.7172 79.928 76.7972 80.072C76.8932 80.2 76.9412 80.416 76.9412 80.72V81.2C76.9412 81.504 76.8932 81.728 76.7972 81.872C76.7172 82 76.5812 82.064 76.3892 82.064H70.8692V88.448C70.8692 88.848 70.5012 89.048 69.7652 89.048H69.4052ZM87.8835 84.512C87.5955 84.512 87.3795 84.392 87.2355 84.152L83.3475 77.336C83.2515 77.176 83.0595 76.832 82.7715 76.304L82.6755 76.328C82.7075 76.6 82.7235 77.024 82.7235 77.6V88.448C82.7235 88.848 82.3555 89.048 81.6195 89.048H81.3075C80.5715 89.048 80.2035 88.848 80.2035 88.448V72.752C80.2035 72.352 80.5715 72.152 81.3075 72.152H82.2915C82.8675 72.152 83.2515 72.32 83.4435 72.656L87.8115 80.288C88.0675 80.72 88.2355 81.12 88.3155 81.488C88.4115 81.232 88.6115 80.816 88.9155 80.24L93.2355 72.656C93.4115 72.32 93.7955 72.152 94.3875 72.152H95.2995C96.0355 72.152 96.4035 72.352 96.4035 72.752V88.448C96.4035 88.848 96.0355 89.048 95.2995 89.048H94.9875C94.2515 89.048 93.8835 88.848 93.8835 88.448V77.72C93.8835 77.144 93.8995 76.712 93.9315 76.424L93.8355 76.4C93.6435 76.784 93.4515 77.136 93.2595 77.456L89.4195 84.152C89.2755 84.392 89.0595 84.512 88.7715 84.512H87.8835Z" fill="black"/>
<rect width="375" height="43" fill="#C4C4C4"/>
<path d="M178.504 18.304H174.364V17.788H178.504V18.304ZM178.504 19.312H174.364V18.772H178.504V19.312ZM178.504 20.344H174.364V19.792H178.504V20.344ZM173.524 17.296V20.824H179.368V17.296H176.488L176.704 16.696H180.352V16.048H178.312C178.516 15.784 178.756 15.472 178.972 15.136L178.132 14.944C177.988 15.256 177.688 15.724 177.46 16.048H175.444C175.312 15.724 175.048 15.268 174.772 14.968L174.052 15.148C174.256 15.412 174.46 15.748 174.592 16.048H172.576V16.696H175.864C175.816 16.888 175.768 17.104 175.72 17.296H173.524ZM172.24 16.684C171.904 16.228 171.196 15.616 170.596 15.208L169.996 15.688C170.608 16.12 171.292 16.768 171.604 17.236L172.24 16.684ZM171.64 24.016C172.288 24.412 173.044 25.012 173.392 25.444L174.04 24.88C173.656 24.46 172.888 23.884 172.252 23.5L171.64 24.016ZM177.796 22.06C178.732 22.06 179.632 22.036 180.256 22.012C180.292 21.784 180.412 21.472 180.496 21.292C178.972 21.376 175.876 21.412 174.496 21.364C173.404 21.328 172.504 21.028 172.048 20.332V18.076H169.648V18.772H171.232V20.464C170.68 20.824 170.08 21.172 169.576 21.424L169.936 22.168C170.572 21.76 171.16 21.364 171.748 20.956C172.348 21.688 173.26 22 174.508 22.036C175.108 22.06 176.008 22.072 176.944 22.06V22.792H169.6V23.488H176.944V24.952C176.944 25.108 176.896 25.156 176.692 25.156C176.5 25.168 175.828 25.18 175.06 25.156C175.192 25.372 175.312 25.684 175.36 25.912C176.344 25.912 176.956 25.912 177.328 25.78C177.7 25.66 177.796 25.432 177.796 24.964V23.488H180.412V22.792H177.796V22.06ZM192.304 16.276V15.664H188.668C188.764 15.472 188.848 15.28 188.92 15.088L188.116 14.968C187.876 15.628 187.42 16.396 186.688 16.984C186.868 17.068 187.144 17.308 187.288 17.488C187.72 17.116 188.056 16.708 188.332 16.276H192.304ZM188.152 18.268H188.884V19.144H188.152V18.268ZM189.4 18.268H190.168V19.144H189.4V18.268ZM190.684 18.268H191.452V19.144H190.684V18.268ZM187.504 19.648H192.112V17.776H187.504V19.648ZM188.152 16.744V17.308H191.704V16.744H188.152ZM182.884 18.292H184.132V18.988H182.884V18.292ZM184.132 15.94V16.528H182.884V15.94H184.132ZM185.752 17.752H182.884V17.08H185.752V17.752ZM186.964 18.988H184.864V18.292H186.532V16.528H184.864V15.94H186.868V15.364H182.104V19.564H186.964V18.988ZM184.204 22.792H189.76V23.38H184.204V22.792ZM184.204 21.688H189.76V22.264H184.204V21.688ZM184.204 20.596H189.76V21.16H184.204V20.596ZM189.232 25.06C188.68 25.06 188.584 25.024 188.584 24.748V23.908H190.648V20.056H183.352V23.908H185.068C184.708 24.712 183.832 25.048 181.54 25.216C181.684 25.384 181.888 25.72 181.948 25.912C184.54 25.648 185.56 25.12 185.968 23.908H187.72V24.76C187.72 25.564 188.008 25.768 189.148 25.768H191.212C192.088 25.768 192.352 25.468 192.448 24.244C192.208 24.184 191.872 24.076 191.692 23.956C191.644 24.928 191.572 25.06 191.128 25.06H189.232ZM198.304 18.988C198.1 19.948 197.824 20.812 197.464 21.568C196.912 21.148 196.036 20.572 195.292 20.14C195.496 19.768 195.688 19.384 195.868 18.988H198.304ZM193.756 16.396H195.808C195.412 18.148 194.584 20.116 193.312 21.328C193.492 21.472 193.78 21.748 193.936 21.916C194.272 21.592 194.584 21.22 194.86 20.812C195.628 21.28 196.516 21.88 197.068 22.336C196.288 23.668 195.244 24.64 194.044 25.276C194.248 25.42 194.584 25.756 194.716 25.948C196.924 24.676 198.652 22.24 199.288 18.34L198.736 18.148L198.592 18.172H196.192C196.42 17.584 196.6 16.984 196.744 16.396H199.684V15.58H193.756V16.396ZM201.016 16.336H200.14V22.852H201.016V16.336ZM203.056 15.196V24.76C203.056 24.976 202.96 25.048 202.744 25.06C202.516 25.06 201.784 25.072 200.98 25.048C201.1 25.288 201.232 25.684 201.28 25.924C202.372 25.924 203.02 25.9 203.404 25.768C203.776 25.612 203.932 25.348 203.932 24.748V15.196H203.056Z" fill="black"/>
<g filter="url(#filter0_d_27_97)">
<line y1="111.5" x2="375" y2="111.5" stroke="black" stroke-opacity="0.2" shape-rendering="crispEdges"/>
</g>
<g filter="url(#filter1_d_27_97)">
<line y1="256.5" x2="375" y2="256.5" stroke="black" stroke-opacity="0.2" shape-rendering="crispEdges"/>
</g>
<circle cx="337.5" cy="77.5" r="17.5" fill="#C4C4C4"/>
<path d="M299 74C299 72.4087 298.368 70.8826 297.243 69.7574C296.117 68.6321 294.591 68 293 68C291.409 68 289.883 68.6321 288.757 69.7574C287.632 70.8826 287 72.4087 287 74C287 81 284 83 284 83H302C302 83 299 81 299 74Z" stroke="#C4C4C4" stroke-width="2" stroke-linecap="round" stroke-linejoin="round"/>
<path d="M294.73 87C294.554 87.3031 294.302 87.5547 293.998 87.7295C293.695 87.9044 293.35 87.9965 293 87.9965C292.65 87.9965 292.305 87.9044 292.002 87.7295C291.698 87.5547 291.446 87.3031 291.27 87" stroke="#C4C4C4" stroke-width="2" stroke-linecap="round" stroke-linejoin="round"/>
<circle cx="39" cy="195" r="10" fill="#C4C4C4"/>
<rect x="30" y="214" width="325" height="3" fill="#C4C4C4"/>
<rect x="29" y="227" width="162.5" height="3" fill="#C4C4C4"/>
<rect y="257" width="375" height="410" fill="white"/>
<rect x="12" y="269" width="350" height="30" rx="4" fill="#F3AA3B"/>
<path d="M163.648 283.106L162.36 283.568V281.062H163.844V280.096H162.36V277.296H161.38V280.096H159.644V281.062H161.38V283.932C160.638 284.184 159.966 284.422 159.434 284.604L159.658 285.612C160.19 285.416 160.764 285.206 161.38 284.968V288.86C161.38 289.07 161.31 289.112 161.142 289.112C160.988 289.126 160.428 289.126 159.826 289.112C159.966 289.406 160.092 289.826 160.134 290.078C161.016 290.092 161.548 290.05 161.87 289.882C162.22 289.714 162.36 289.434 162.36 288.86V284.604C162.85 284.422 163.354 284.226 163.83 284.044L163.648 283.106ZM164.95 279.27C165.244 279.788 165.58 280.502 165.734 280.922L166.602 280.6C166.434 280.194 166.084 279.522 165.79 279.018L164.95 279.27ZM168.408 288.664V287.46H170.508V288.664H168.408ZM165.622 287.46H167.512V288.664H165.622V287.46ZM167.512 285.486V286.676H165.622V285.486H167.512ZM170.508 286.676H168.408V285.486H170.508V286.676ZM172.216 281.79V280.922H170.2C170.522 280.376 170.886 279.676 171.194 279.046L170.284 278.752C170.074 279.382 169.626 280.306 169.276 280.922H168.464V278.64C169.64 278.528 170.76 278.36 171.628 278.15L171.026 277.38C169.402 277.772 166.462 278.038 164.054 278.178C164.152 278.388 164.264 278.724 164.292 278.948C165.3 278.906 166.434 278.836 167.512 278.738V280.922H163.886V281.79H166.672C165.832 282.854 164.502 283.834 163.256 284.352C163.466 284.52 163.76 284.884 163.9 285.094C165.216 284.492 166.63 283.344 167.512 282.084V284.38H168.464V282.028C169.206 283.022 170.354 284.044 171.474 284.688H164.684V290.064H165.622V289.448H170.508V289.98H171.474V284.688C171.642 284.786 171.796 284.87 171.95 284.954C172.104 284.702 172.412 284.366 172.608 284.184C171.46 283.708 170.172 282.77 169.346 281.79H172.216ZM176.29 282.378V280.502H179.832V279.55H177.228V277.31H176.22V279.55H173.658V280.502H175.31V283.4C175.31 285.374 175.1 287.586 173.406 289.378C173.658 289.56 173.994 289.84 174.162 290.05C176.024 288.09 176.29 285.724 176.29 283.414V283.316H178.208C178.124 287.208 178.026 288.58 177.774 288.916C177.662 289.07 177.564 289.112 177.354 289.098C177.13 289.098 176.612 289.098 176.038 289.056C176.192 289.308 176.29 289.714 176.304 289.994C176.906 290.022 177.494 290.022 177.816 289.994C178.194 289.952 178.432 289.854 178.656 289.546C179.006 289.07 179.104 287.488 179.202 282.84C179.216 282.7 179.216 282.378 179.216 282.378H176.29ZM184.368 280.852C184.074 282.644 183.64 284.156 182.968 285.416C182.352 284.142 181.904 282.658 181.61 281.048C181.624 280.992 181.652 280.922 181.68 280.852H184.368ZM186.426 280.852V279.886H181.96C182.184 279.102 182.366 278.276 182.52 277.436L181.456 277.282C181.05 279.676 180.336 282 179.23 283.47C179.482 283.638 179.944 283.974 180.126 284.156C180.448 283.694 180.728 283.176 180.994 282.602C181.344 284.016 181.778 285.29 182.366 286.41C181.526 287.6 180.392 288.524 178.894 289.196C179.076 289.406 179.384 289.868 179.496 290.092C180.924 289.378 182.044 288.482 182.912 287.348C183.668 288.496 184.606 289.42 185.796 290.036C185.936 289.756 186.272 289.35 186.51 289.154C185.278 288.58 184.298 287.628 183.542 286.438C184.438 284.94 185.012 283.106 185.39 280.852H186.426ZM191.354 278.906C190.822 278.402 189.716 277.786 188.848 277.408L188.274 278.164C189.156 278.57 190.234 279.242 190.752 279.732L191.354 278.906ZM190.71 282.546C190.15 282.084 189.03 281.496 188.148 281.146L187.574 281.93C188.484 282.308 189.576 282.938 190.122 283.414L190.71 282.546ZM188.876 289.868C189.646 288.566 190.57 286.816 191.256 285.332L190.472 284.688C189.716 286.284 188.694 288.118 187.994 289.21L188.876 289.868ZM193.608 286.788V285.738H198.354V286.788H193.608ZM198.354 283.974V284.996H193.608V283.974H198.354ZM199.334 283.162H192.642V290.036H193.608V287.544H198.354V288.888C198.354 289.07 198.284 289.126 198.088 289.126C197.892 289.14 197.234 289.14 196.52 289.126C196.66 289.364 196.8 289.756 196.828 290.008C197.822 290.008 198.452 289.994 198.844 289.854C199.222 289.714 199.334 289.434 199.334 288.902V283.162ZM196.31 281.58V280.6H199.614V279.844H196.31V278.962H199.95V278.192H196.31V277.282H195.274V278.192H191.816V278.962H195.274V279.844H192.152V280.6H195.274V281.58H191.354V282.378H200.412V281.58H196.31ZM212.242 279.844H209.54V278.528H212.242V279.844ZM213.208 277.828H208.588V280.544H213.208V277.828ZM206.488 279.844H203.814V278.528H206.488V279.844ZM207.468 277.828H202.876V280.544H207.468V277.828ZM204.262 285.276V284.072H207.426V285.276H204.262ZM204.262 282.084H207.426V283.274H204.262V282.084ZM211.822 283.274H208.49V282.084H211.822V283.274ZM211.822 285.276H208.49V284.072H211.822V285.276ZM214.174 287.18H208.49V286.116H212.886V281.244H203.254V286.116H207.426V287.18H201.854V288.09H207.426V290.064H208.49V288.09H214.174V287.18Z" fill="black"/>
<path d="M136.584 346.376H133.128V347.096H136.584V346.376ZM137.028 347.948H132.504V348.68H137.028V347.948ZM135.828 353.492V355.508H133.824V353.492H135.828ZM136.608 352.76H133.044V356.78H133.824V356.228H136.608V352.76ZM133.068 351.872H136.62V351.152H133.068V351.872ZM133.068 350.276H136.62V349.568H133.068V350.276ZM138.816 347.132H140.868V349.268C140.868 350.12 141.084 350.348 141.816 350.348H142.644C143.28 350.348 143.496 350 143.568 348.596C143.34 348.548 142.992 348.416 142.824 348.272C142.8 349.424 142.752 349.58 142.536 349.58H141.936C141.744 349.58 141.708 349.532 141.708 349.268V346.34H137.964V347.78C137.964 348.608 137.784 349.604 136.632 350.336C136.812 350.456 137.148 350.768 137.28 350.924C138.552 350.084 138.816 348.824 138.816 347.792V347.132ZM142.272 351.08L142.116 351.116H137.184V351.932H141.72C141.36 352.856 140.82 353.636 140.148 354.272C139.476 353.612 138.948 352.832 138.6 351.956L137.808 352.196C138.216 353.204 138.78 354.08 139.488 354.812C138.648 355.436 137.676 355.868 136.656 356.132C136.824 356.312 137.052 356.696 137.136 356.912C138.228 356.588 139.26 356.108 140.148 355.424C140.964 356.084 141.912 356.576 143.004 356.9C143.124 356.684 143.388 356.324 143.58 356.144C142.524 355.88 141.6 355.436 140.82 354.848C141.732 353.948 142.44 352.784 142.848 351.308L142.272 351.08ZM148.788 346.376H145.128V347.096H148.788V346.376ZM149.232 347.948H144.504V348.68H149.232V347.948ZM147.948 353.492V355.508H145.848V353.492H147.948ZM148.752 352.76H145.056V356.78H145.848V356.228H148.752V352.76ZM145.068 351.872H148.788V351.152H145.068V351.872ZM145.068 350.276H148.788V349.568H145.068V350.276ZM155.604 350.036H152.916V345.992H152.028V350.036H149.22V350.912H152.028V356.912H152.916V350.912H155.604V350.036ZM165.804 352.34H167.424V351.596H165.804V351.128C166.308 350.66 166.872 350 167.256 349.388L166.764 349.028L166.608 349.076H163.812V349.76H166.092C165.888 350.048 165.648 350.348 165.408 350.6H165.024V351.596H163.416V352.34H165.024V354.368C165.024 354.476 164.988 354.512 164.844 354.512C164.712 354.524 164.256 354.524 163.764 354.512C163.872 354.728 163.992 355.04 164.028 355.268C164.7 355.268 165.156 355.256 165.432 355.124C165.732 355.004 165.804 354.776 165.804 354.38V352.34ZM162.3 350.348C162.24 353.168 162.156 354.164 161.976 354.404C161.904 354.524 161.82 354.536 161.688 354.536C161.532 354.536 161.208 354.536 160.848 354.5C160.956 354.704 161.04 355.028 161.052 355.244C161.424 355.256 161.796 355.256 162.036 355.232C162.3 355.208 162.48 355.112 162.66 354.896C162.912 354.536 162.996 353.384 163.08 349.976C163.08 349.868 163.092 349.616 163.092 349.616H161.16V348.344H163.308C163.188 348.524 163.068 348.692 162.936 348.836C163.116 348.944 163.452 349.184 163.572 349.316C163.86 348.956 164.136 348.512 164.364 348.02H167.364V347.264H164.676C164.82 346.88 164.94 346.484 165.036 346.088L164.256 345.92C164.088 346.748 163.788 347.552 163.392 348.2V347.588H161.76V345.968H160.944V347.588H159.312V348.344H160.416V350.12C160.416 351.512 160.284 353.336 159.156 354.68C159.348 354.8 159.588 355.04 159.732 355.196C160.932 353.804 161.148 351.896 161.16 350.348H162.3ZM158.988 348.296C158.7 347.696 157.98 346.844 157.32 346.244L156.612 346.688C157.26 347.312 157.968 348.176 158.244 348.788L158.988 348.296ZM158.796 350.66H156.576V351.5H157.968V354.608C157.464 355.1 156.912 355.616 156.444 355.976L156.912 356.804C157.464 356.276 157.968 355.772 158.448 355.244C159.204 356.192 160.308 356.624 161.892 356.684C163.272 356.732 165.9 356.708 167.268 356.648C167.316 356.396 167.448 356 167.556 355.808C166.08 355.904 163.248 355.94 161.88 355.88C160.464 355.82 159.384 355.412 158.796 354.512V350.66ZM172.932 351.452L171.6 351.848V349.232H172.956V348.38H171.6V345.968H170.748V348.38H169.788C169.884 347.84 169.956 347.276 170.016 346.724L169.236 346.604C169.092 348.128 168.864 349.724 168.408 350.78C168.588 350.876 168.936 351.092 169.08 351.2C169.296 350.66 169.488 349.976 169.632 349.232H170.748V352.1C169.896 352.364 169.092 352.58 168.48 352.748L168.684 353.612C169.296 353.42 170.004 353.192 170.748 352.964V356.924H171.6V352.688C172.08 352.532 172.572 352.388 173.052 352.232L172.932 351.452ZM177.624 349.172C177.3 350.792 176.832 352.136 176.112 353.228C175.416 352.088 174.936 350.708 174.612 349.172H177.624ZM179.424 349.172V348.32H174.828C175.092 347.612 175.308 346.868 175.476 346.124L174.612 345.956C174.204 347.804 173.496 349.604 172.548 350.756C172.752 350.9 173.088 351.224 173.232 351.38C173.52 351.02 173.784 350.6 174.036 350.132C174.396 351.596 174.888 352.88 175.572 353.96C174.768 354.92 173.7 355.652 172.332 356.192C172.5 356.372 172.8 356.744 172.908 356.948C174.228 356.36 175.26 355.628 176.088 354.692C176.856 355.664 177.816 356.432 179.016 356.936C179.148 356.696 179.424 356.36 179.604 356.18C178.38 355.724 177.408 354.968 176.64 353.996C177.552 352.724 178.14 351.152 178.536 349.172H179.424Z" fill="black"/>
<rect x="26" y="316" width="84" height="84" fill="#C4C4C4"/>
<circle cx="58.5" cy="364.5" r="13" stroke="black"/>
<path d="M66.6077 356L77 338L87.3923 356H66.6077Z" stroke="black"/>
<path d="M137.088 332.563C135.962 332.24 135.142 331.843 134.627 331.374C134.117 330.9 133.861 330.317 133.861 329.624C133.861 328.84 134.174 328.193 134.798 327.683C135.427 327.168 136.243 326.91 137.245 326.91C137.929 326.91 138.537 327.042 139.07 327.307C139.608 327.571 140.023 327.936 140.314 328.4C140.611 328.865 140.759 329.373 140.759 329.925H139.439C139.439 329.323 139.248 328.852 138.865 328.51C138.482 328.163 137.942 327.99 137.245 327.99C136.598 327.99 136.092 328.134 135.728 328.421C135.368 328.703 135.188 329.098 135.188 329.604C135.188 330.009 135.358 330.353 135.7 330.636C136.047 330.914 136.632 331.169 137.457 331.401C138.286 331.634 138.934 331.891 139.398 332.174C139.868 332.452 140.214 332.778 140.438 333.151C140.665 333.525 140.779 333.965 140.779 334.471C140.779 335.277 140.465 335.924 139.836 336.412C139.207 336.895 138.366 337.137 137.313 337.137C136.63 337.137 135.992 337.007 135.399 336.747C134.807 336.483 134.349 336.123 134.025 335.667C133.706 335.211 133.547 334.694 133.547 334.115H134.866C134.866 334.717 135.087 335.193 135.529 335.544C135.976 335.89 136.571 336.063 137.313 336.063C138.006 336.063 138.537 335.922 138.906 335.64C139.275 335.357 139.46 334.972 139.46 334.484C139.46 333.997 139.289 333.621 138.947 333.356C138.605 333.088 137.986 332.823 137.088 332.563ZM143.979 331.408H144.929C145.526 331.399 145.995 331.242 146.337 330.937C146.679 330.631 146.85 330.219 146.85 329.699C146.85 328.533 146.269 327.949 145.106 327.949C144.56 327.949 144.122 328.106 143.794 328.421C143.47 328.731 143.309 329.143 143.309 329.658H142.044C142.044 328.87 142.331 328.216 142.905 327.696C143.484 327.172 144.218 326.91 145.106 326.91C146.045 326.91 146.781 327.159 147.314 327.655C147.848 328.152 148.114 328.842 148.114 329.727C148.114 330.16 147.973 330.579 147.69 330.984C147.412 331.39 147.032 331.693 146.549 331.894C147.096 332.067 147.517 332.354 147.813 332.755C148.114 333.156 148.265 333.646 148.265 334.225C148.265 335.118 147.973 335.826 147.39 336.351C146.806 336.875 146.048 337.137 145.113 337.137C144.179 337.137 143.418 336.884 142.83 336.378C142.247 335.872 141.955 335.204 141.955 334.375H143.227C143.227 334.899 143.397 335.318 143.739 335.633C144.081 335.947 144.539 336.104 145.113 336.104C145.724 336.104 146.191 335.945 146.515 335.626C146.838 335.307 147 334.849 147 334.252C147 333.673 146.822 333.229 146.467 332.919C146.111 332.609 145.599 332.45 144.929 332.44H143.979V331.408ZM155.955 332.399H151.642V335.927H156.652V337H150.329V327.047H156.584V328.127H151.642V331.326H155.955V332.399ZM159.599 333.104V337H158.286V327.047H161.957C163.046 327.047 163.898 327.325 164.514 327.881C165.133 328.437 165.443 329.173 165.443 330.089C165.443 331.055 165.14 331.8 164.534 332.324C163.933 332.844 163.069 333.104 161.943 333.104H159.599ZM159.599 332.03H161.957C162.659 332.03 163.197 331.866 163.57 331.538C163.944 331.205 164.131 330.727 164.131 330.103C164.131 329.51 163.944 329.036 163.57 328.681C163.197 328.325 162.684 328.141 162.032 328.127H159.599V332.03ZM168.629 331.408H169.579C170.176 331.399 170.646 331.242 170.987 330.937C171.329 330.631 171.5 330.219 171.5 329.699C171.5 328.533 170.919 327.949 169.757 327.949C169.21 327.949 168.772 328.106 168.444 328.421C168.121 328.731 167.959 329.143 167.959 329.658H166.694C166.694 328.87 166.981 328.216 167.556 327.696C168.134 327.172 168.868 326.91 169.757 326.91C170.696 326.91 171.432 327.159 171.965 327.655C172.498 328.152 172.765 328.842 172.765 329.727C172.765 330.16 172.623 330.579 172.341 330.984C172.063 331.39 171.682 331.693 171.199 331.894C171.746 332.067 172.168 332.354 172.464 332.755C172.765 333.156 172.915 333.646 172.915 334.225C172.915 335.118 172.623 335.826 172.04 336.351C171.457 336.875 170.698 337.137 169.764 337.137C168.829 337.137 168.068 336.884 167.48 336.378C166.897 335.872 166.605 335.204 166.605 334.375H167.877C167.877 334.899 168.048 335.318 168.39 335.633C168.731 335.947 169.189 336.104 169.764 336.104C170.374 336.104 170.841 335.945 171.165 335.626C171.489 335.307 171.65 334.849 171.65 334.252C171.65 333.673 171.473 333.229 171.117 332.919C170.762 332.609 170.249 332.45 169.579 332.44H168.629V331.408ZM176.49 331.408H177.44C178.037 331.399 178.507 331.242 178.849 330.937C179.19 330.631 179.361 330.219 179.361 329.699C179.361 328.533 178.78 327.949 177.618 327.949C177.071 327.949 176.634 328.106 176.306 328.421C175.982 328.731 175.82 329.143 175.82 329.658H174.556C174.556 328.87 174.843 328.216 175.417 327.696C175.996 327.172 176.729 326.91 177.618 326.91C178.557 326.91 179.293 327.159 179.826 327.655C180.359 328.152 180.626 328.842 180.626 329.727C180.626 330.16 180.485 330.579 180.202 330.984C179.924 331.39 179.544 331.693 179.061 331.894C179.607 332.067 180.029 332.354 180.325 332.755C180.626 333.156 180.776 333.646 180.776 334.225C180.776 335.118 180.485 335.826 179.901 336.351C179.318 336.875 178.559 337.137 177.625 337.137C176.691 337.137 175.93 336.884 175.342 336.378C174.758 335.872 174.467 335.204 174.467 334.375H175.738C175.738 334.899 175.909 335.318 176.251 335.633C176.593 335.947 177.051 336.104 177.625 336.104C178.236 336.104 178.703 335.945 179.026 335.626C179.35 335.307 179.512 334.849 179.512 334.252C179.512 333.673 179.334 333.229 178.979 332.919C178.623 332.609 178.11 332.45 177.44 332.44H176.49V331.408ZM192.69 335.964V327.928H197.716V326.864H186.656V327.928H191.556V335.964H185.928V337H198.416V335.964H192.69ZM203.176 325.338C202.392 327.466 201.104 329.552 199.718 330.896C199.914 331.12 200.222 331.694 200.32 331.932C200.796 331.442 201.272 330.882 201.706 330.266V338.05H202.742V328.656C203.288 327.69 203.792 326.668 204.17 325.66L203.176 325.338ZM212.57 328.614V327.62H206.746C207.026 327.004 207.292 326.374 207.516 325.73L206.522 325.464C205.836 327.508 204.702 329.524 203.442 330.826C203.68 330.994 204.086 331.344 204.254 331.526C204.954 330.742 205.64 329.734 206.242 328.614H207.208V338.064H208.258V334.676H212.444V333.696H208.258V331.582H212.248V330.616H208.258V328.614H212.57ZM223.98 326.15C223.588 326.864 222.846 327.844 222.286 328.446L223.098 328.782C223.672 328.194 224.386 327.298 224.946 326.472L223.98 326.15ZM216.966 326.262C216.672 327.158 216.07 328.054 215.132 328.53L215.86 329.09C216.91 328.516 217.456 327.55 217.778 326.528L216.966 326.262ZM219.584 325.296C219.304 328.292 218.632 330.168 214.222 331.008C214.418 331.218 214.656 331.61 214.754 331.862C218.114 331.176 219.514 329.86 220.172 327.914C220.984 330.196 222.524 331.386 225.576 331.834C225.688 331.554 225.94 331.12 226.15 330.91C222.552 330.518 221.124 328.992 220.592 325.912C220.62 325.716 220.648 325.506 220.662 325.296H219.584ZM223.084 334.732C223.644 334.13 224.344 333.192 224.918 332.366L223.924 332.002C223.518 332.73 222.804 333.766 222.258 334.396L223.084 334.732ZM215.664 335.124C216.756 334.494 217.288 333.416 217.61 332.296L216.77 332.016C216.476 333.066 215.874 334.046 214.894 334.578L215.664 335.124ZM219.584 330.812C219.318 334.046 218.716 336.23 214.026 337.182C214.236 337.406 214.474 337.826 214.572 338.078C218.058 337.308 219.5 335.866 220.158 333.808C220.984 336.286 222.566 337.588 225.842 338.078C225.968 337.77 226.22 337.322 226.43 337.084C222.58 336.65 221.138 334.984 220.592 331.596C220.634 331.344 220.648 331.078 220.676 330.812H219.584ZM234.242 336.37V330.826H239.45V329.79H234.242V325.506H233.15V336.37H227.928V337.406H240.402V336.37H234.242ZM247.696 333.612H248.62L248.9 328.18L248.928 326.528H247.388L247.416 328.18L247.696 333.612ZM248.158 337.07C248.648 337.07 249.054 336.706 249.054 336.146C249.054 335.586 248.648 335.208 248.158 335.208C247.668 335.208 247.262 335.586 247.262 336.146C247.262 336.706 247.654 337.07 248.158 337.07Z" fill="black"/>
<rect x="133" y="375" width="222" height="3" fill="#C4C4C4"/>
<rect x="133" y="366" width="222" height="3" fill="#C4C4C4"/>
<rect x="133" y="384" width="222" height="3" fill="#C4C4C4"/>
<rect x="133" y="393" width="111" height="3" fill="#C4C4C4"/>
<path d="M136.584 442.376H133.128V443.096H136.584V442.376ZM137.028 443.948H132.504V444.68H137.028V443.948ZM135.828 449.492V451.508H133.824V449.492H135.828ZM136.608 448.76H133.044V452.78H133.824V452.228H136.608V448.76ZM133.068 447.872H136.62V447.152H133.068V447.872ZM133.068 446.276H136.62V445.568H133.068V446.276ZM138.816 443.132H140.868V445.268C140.868 446.12 141.084 446.348 141.816 446.348H142.644C143.28 446.348 143.496 446 143.568 444.596C143.34 444.548 142.992 444.416 142.824 444.272C142.8 445.424 142.752 445.58 142.536 445.58H141.936C141.744 445.58 141.708 445.532 141.708 445.268V442.34H137.964V443.78C137.964 444.608 137.784 445.604 136.632 446.336C136.812 446.456 137.148 446.768 137.28 446.924C138.552 446.084 138.816 444.824 138.816 443.792V443.132ZM142.272 447.08L142.116 447.116H137.184V447.932H141.72C141.36 448.856 140.82 449.636 140.148 450.272C139.476 449.612 138.948 448.832 138.6 447.956L137.808 448.196C138.216 449.204 138.78 450.08 139.488 450.812C138.648 451.436 137.676 451.868 136.656 452.132C136.824 452.312 137.052 452.696 137.136 452.912C138.228 452.588 139.26 452.108 140.148 451.424C140.964 452.084 141.912 452.576 143.004 452.9C143.124 452.684 143.388 452.324 143.58 452.144C142.524 451.88 141.6 451.436 140.82 450.848C141.732 449.948 142.44 448.784 142.848 447.308L142.272 447.08ZM148.788 442.376H145.128V443.096H148.788V442.376ZM149.232 443.948H144.504V444.68H149.232V443.948ZM147.948 449.492V451.508H145.848V449.492H147.948ZM148.752 448.76H145.056V452.78H145.848V452.228H148.752V448.76ZM145.068 447.872H148.788V447.152H145.068V447.872ZM145.068 446.276H148.788V445.568H145.068V446.276ZM155.604 446.036H152.916V441.992H152.028V446.036H149.22V446.912H152.028V452.912H152.916V446.912H155.604V446.036ZM165.804 448.34H167.424V447.596H165.804V447.128C166.308 446.66 166.872 446 167.256 445.388L166.764 445.028L166.608 445.076H163.812V445.76H166.092C165.888 446.048 165.648 446.348 165.408 446.6H165.024V447.596H163.416V448.34H165.024V450.368C165.024 450.476 164.988 450.512 164.844 450.512C164.712 450.524 164.256 450.524 163.764 450.512C163.872 450.728 163.992 451.04 164.028 451.268C164.7 451.268 165.156 451.256 165.432 451.124C165.732 451.004 165.804 450.776 165.804 450.38V448.34ZM162.3 446.348C162.24 449.168 162.156 450.164 161.976 450.404C161.904 450.524 161.82 450.536 161.688 450.536C161.532 450.536 161.208 450.536 160.848 450.5C160.956 450.704 161.04 451.028 161.052 451.244C161.424 451.256 161.796 451.256 162.036 451.232C162.3 451.208 162.48 451.112 162.66 450.896C162.912 450.536 162.996 449.384 163.08 445.976C163.08 445.868 163.092 445.616 163.092 445.616H161.16V444.344H163.308C163.188 444.524 163.068 444.692 162.936 444.836C163.116 444.944 163.452 445.184 163.572 445.316C163.86 444.956 164.136 444.512 164.364 444.02H167.364V443.264H164.676C164.82 442.88 164.94 442.484 165.036 442.088L164.256 441.92C164.088 442.748 163.788 443.552 163.392 444.2V443.588H161.76V441.968H160.944V443.588H159.312V444.344H160.416V446.12C160.416 447.512 160.284 449.336 159.156 450.68C159.348 450.8 159.588 451.04 159.732 451.196C160.932 449.804 161.148 447.896 161.16 446.348H162.3ZM158.988 444.296C158.7 443.696 157.98 442.844 157.32 442.244L156.612 442.688C157.26 443.312 157.968 444.176 158.244 444.788L158.988 444.296ZM158.796 446.66H156.576V447.5H157.968V450.608C157.464 451.1 156.912 451.616 156.444 451.976L156.912 452.804C157.464 452.276 157.968 451.772 158.448 451.244C159.204 452.192 160.308 452.624 161.892 452.684C163.272 452.732 165.9 452.708 167.268 452.648C167.316 452.396 167.448 452 167.556 451.808C166.08 451.904 163.248 451.94 161.88 451.88C160.464 451.82 159.384 451.412 158.796 450.512V446.66ZM172.932 447.452L171.6 447.848V445.232H172.956V444.38H171.6V441.968H170.748V444.38H169.788C169.884 443.84 169.956 443.276 170.016 442.724L169.236 442.604C169.092 444.128 168.864 445.724 168.408 446.78C168.588 446.876 168.936 447.092 169.08 447.2C169.296 446.66 169.488 445.976 169.632 445.232H170.748V448.1C169.896 448.364 169.092 448.58 168.48 448.748L168.684 449.612C169.296 449.42 170.004 449.192 170.748 448.964V452.924H171.6V448.688C172.08 448.532 172.572 448.388 173.052 448.232L172.932 447.452ZM177.624 445.172C177.3 446.792 176.832 448.136 176.112 449.228C175.416 448.088 174.936 446.708 174.612 445.172H177.624ZM179.424 445.172V444.32H174.828C175.092 443.612 175.308 442.868 175.476 442.124L174.612 441.956C174.204 443.804 173.496 445.604 172.548 446.756C172.752 446.9 173.088 447.224 173.232 447.38C173.52 447.02 173.784 446.6 174.036 446.132C174.396 447.596 174.888 448.88 175.572 449.96C174.768 450.92 173.7 451.652 172.332 452.192C172.5 452.372 172.8 452.744 172.908 452.948C174.228 452.36 175.26 451.628 176.088 450.692C176.856 451.664 177.816 452.432 179.016 452.936C179.148 452.696 179.424 452.36 179.604 452.18C178.38 451.724 177.408 450.968 176.64 449.996C177.552 448.724 178.14 447.152 178.536 445.172H179.424Z" fill="black"/>
<rect x="26" y="412" width="84" height="84" fill="#C4C4C4"/>
<circle cx="58.5" cy="460.5" r="13" stroke="black"/>
<path d="M66.6077 452L77 434L87.3923 452H66.6077Z" stroke="black"/>
<path d="M137.088 428.563C135.962 428.24 135.142 427.843 134.627 427.374C134.117 426.9 133.861 426.317 133.861 425.624C133.861 424.84 134.174 424.193 134.798 423.683C135.427 423.168 136.243 422.91 137.245 422.91C137.929 422.91 138.537 423.042 139.07 423.307C139.608 423.571 140.023 423.936 140.314 424.4C140.611 424.865 140.759 425.373 140.759 425.925H139.439C139.439 425.323 139.248 424.852 138.865 424.51C138.482 424.163 137.942 423.99 137.245 423.99C136.598 423.99 136.092 424.134 135.728 424.421C135.368 424.703 135.188 425.098 135.188 425.604C135.188 426.009 135.358 426.353 135.7 426.636C136.047 426.914 136.632 427.169 137.457 427.401C138.286 427.634 138.934 427.891 139.398 428.174C139.868 428.452 140.214 428.778 140.438 429.151C140.665 429.525 140.779 429.965 140.779 430.471C140.779 431.277 140.465 431.924 139.836 432.412C139.207 432.895 138.366 433.137 137.313 433.137C136.63 433.137 135.992 433.007 135.399 432.747C134.807 432.483 134.349 432.123 134.025 431.667C133.706 431.211 133.547 430.694 133.547 430.115H134.866C134.866 430.717 135.087 431.193 135.529 431.544C135.976 431.89 136.571 432.063 137.313 432.063C138.006 432.063 138.537 431.922 138.906 431.64C139.275 431.357 139.46 430.972 139.46 430.484C139.46 429.997 139.289 429.621 138.947 429.356C138.605 429.088 137.986 428.823 137.088 428.563ZM143.979 427.408H144.929C145.526 427.399 145.995 427.242 146.337 426.937C146.679 426.631 146.85 426.219 146.85 425.699C146.85 424.533 146.269 423.949 145.106 423.949C144.56 423.949 144.122 424.106 143.794 424.421C143.47 424.731 143.309 425.143 143.309 425.658H142.044C142.044 424.87 142.331 424.216 142.905 423.696C143.484 423.172 144.218 422.91 145.106 422.91C146.045 422.91 146.781 423.159 147.314 423.655C147.848 424.152 148.114 424.842 148.114 425.727C148.114 426.16 147.973 426.579 147.69 426.984C147.412 427.39 147.032 427.693 146.549 427.894C147.096 428.067 147.517 428.354 147.813 428.755C148.114 429.156 148.265 429.646 148.265 430.225C148.265 431.118 147.973 431.826 147.39 432.351C146.806 432.875 146.048 433.137 145.113 433.137C144.179 433.137 143.418 432.884 142.83 432.378C142.247 431.872 141.955 431.204 141.955 430.375H143.227C143.227 430.899 143.397 431.318 143.739 431.633C144.081 431.947 144.539 432.104 145.113 432.104C145.724 432.104 146.191 431.945 146.515 431.626C146.838 431.307 147 430.849 147 430.252C147 429.673 146.822 429.229 146.467 428.919C146.111 428.609 145.599 428.45 144.929 428.44H143.979V427.408ZM155.955 428.399H151.642V431.927H156.652V433H150.329V423.047H156.584V424.127H151.642V427.326H155.955V428.399ZM159.599 429.104V433H158.286V423.047H161.957C163.046 423.047 163.898 423.325 164.514 423.881C165.133 424.437 165.443 425.173 165.443 426.089C165.443 427.055 165.14 427.8 164.534 428.324C163.933 428.844 163.069 429.104 161.943 429.104H159.599ZM159.599 428.03H161.957C162.659 428.03 163.197 427.866 163.57 427.538C163.944 427.205 164.131 426.727 164.131 426.103C164.131 425.51 163.944 425.036 163.57 424.681C163.197 424.325 162.684 424.141 162.032 424.127H159.599V428.03ZM168.629 427.408H169.579C170.176 427.399 170.646 427.242 170.987 426.937C171.329 426.631 171.5 426.219 171.5 425.699C171.5 424.533 170.919 423.949 169.757 423.949C169.21 423.949 168.772 424.106 168.444 424.421C168.121 424.731 167.959 425.143 167.959 425.658H166.694C166.694 424.87 166.981 424.216 167.556 423.696C168.134 423.172 168.868 422.91 169.757 422.91C170.696 422.91 171.432 423.159 171.965 423.655C172.498 424.152 172.765 424.842 172.765 425.727C172.765 426.16 172.623 426.579 172.341 426.984C172.063 427.39 171.682 427.693 171.199 427.894C171.746 428.067 172.168 428.354 172.464 428.755C172.765 429.156 172.915 429.646 172.915 430.225C172.915 431.118 172.623 431.826 172.04 432.351C171.457 432.875 170.698 433.137 169.764 433.137C168.829 433.137 168.068 432.884 167.48 432.378C166.897 431.872 166.605 431.204 166.605 430.375H167.877C167.877 430.899 168.048 431.318 168.39 431.633C168.731 431.947 169.189 432.104 169.764 432.104C170.374 432.104 170.841 431.945 171.165 431.626C171.489 431.307 171.65 430.849 171.65 430.252C171.65 429.673 171.473 429.229 171.117 428.919C170.762 428.609 170.249 428.45 169.579 428.44H168.629V427.408ZM176.49 427.408H177.44C178.037 427.399 178.507 427.242 178.849 426.937C179.19 426.631 179.361 426.219 179.361 425.699C179.361 424.533 178.78 423.949 177.618 423.949C177.071 423.949 176.634 424.106 176.306 424.421C175.982 424.731 175.82 425.143 175.82 425.658H174.556C174.556 424.87 174.843 424.216 175.417 423.696C175.996 423.172 176.729 422.91 177.618 422.91C178.557 422.91 179.293 423.159 179.826 423.655C180.359 424.152 180.626 424.842 180.626 425.727C180.626 426.16 180.485 426.579 180.202 426.984C179.924 427.39 179.544 427.693 179.061 427.894C179.607 428.067 180.029 428.354 180.325 428.755C180.626 429.156 180.776 429.646 180.776 430.225C180.776 431.118 180.485 431.826 179.901 432.351C179.318 432.875 178.559 433.137 177.625 433.137C176.691 433.137 175.93 432.884 175.342 432.378C174.758 431.872 174.467 431.204 174.467 430.375H175.738C175.738 430.899 175.909 431.318 176.251 431.633C176.593 431.947 177.051 432.104 177.625 432.104C178.236 432.104 178.703 431.945 179.026 431.626C179.35 431.307 179.512 430.849 179.512 430.252C179.512 429.673 179.334 429.229 178.979 428.919C178.623 428.609 178.11 428.45 177.44 428.44H176.49V427.408ZM192.69 431.964V423.928H197.716V422.864H186.656V423.928H191.556V431.964H185.928V433H198.416V431.964H192.69ZM203.176 421.338C202.392 423.466 201.104 425.552 199.718 426.896C199.914 427.12 200.222 427.694 200.32 427.932C200.796 427.442 201.272 426.882 201.706 426.266V434.05H202.742V424.656C203.288 423.69 203.792 422.668 204.17 421.66L203.176 421.338ZM212.57 424.614V423.62H206.746C207.026 423.004 207.292 422.374 207.516 421.73L206.522 421.464C205.836 423.508 204.702 425.524 203.442 426.826C203.68 426.994 204.086 427.344 204.254 427.526C204.954 426.742 205.64 425.734 206.242 424.614H207.208V434.064H208.258V430.676H212.444V429.696H208.258V427.582H212.248V426.616H208.258V424.614H212.57ZM223.98 422.15C223.588 422.864 222.846 423.844 222.286 424.446L223.098 424.782C223.672 424.194 224.386 423.298 224.946 422.472L223.98 422.15ZM216.966 422.262C216.672 423.158 216.07 424.054 215.132 424.53L215.86 425.09C216.91 424.516 217.456 423.55 217.778 422.528L216.966 422.262ZM219.584 421.296C219.304 424.292 218.632 426.168 214.222 427.008C214.418 427.218 214.656 427.61 214.754 427.862C218.114 427.176 219.514 425.86 220.172 423.914C220.984 426.196 222.524 427.386 225.576 427.834C225.688 427.554 225.94 427.12 226.15 426.91C222.552 426.518 221.124 424.992 220.592 421.912C220.62 421.716 220.648 421.506 220.662 421.296H219.584ZM223.084 430.732C223.644 430.13 224.344 429.192 224.918 428.366L223.924 428.002C223.518 428.73 222.804 429.766 222.258 430.396L223.084 430.732ZM215.664 431.124C216.756 430.494 217.288 429.416 217.61 428.296L216.77 428.016C216.476 429.066 215.874 430.046 214.894 430.578L215.664 431.124ZM219.584 426.812C219.318 430.046 218.716 432.23 214.026 433.182C214.236 433.406 214.474 433.826 214.572 434.078C218.058 433.308 219.5 431.866 220.158 429.808C220.984 432.286 222.566 433.588 225.842 434.078C225.968 433.77 226.22 433.322 226.43 433.084C222.58 432.65 221.138 430.984 220.592 427.596C220.634 427.344 220.648 427.078 220.676 426.812H219.584ZM234.242 432.37V426.826H239.45V425.79H234.242V421.506H233.15V432.37H227.928V433.406H240.402V432.37H234.242ZM247.696 429.612H248.62L248.9 424.18L248.928 422.528H247.388L247.416 424.18L247.696 429.612ZM248.158 433.07C248.648 433.07 249.054 432.706 249.054 432.146C249.054 431.586 248.648 431.208 248.158 431.208C247.668 431.208 247.262 431.586 247.262 432.146C247.262 432.706 247.654 433.07 248.158 433.07Z" fill="black"/>
<rect x="133" y="471" width="222" height="3" fill="#C4C4C4"/>
<rect x="133" y="462" width="222" height="3" fill="#C4C4C4"/>
<rect x="133" y="480" width="222" height="3" fill="#C4C4C4"/>
<rect x="133" y="489" width="111" height="3" fill="#C4C4C4"/>
<path d="M136.584 538.376H133.128V539.096H136.584V538.376ZM137.028 539.948H132.504V540.68H137.028V539.948ZM135.828 545.492V547.508H133.824V545.492H135.828ZM136.608 544.76H133.044V548.78H133.824V548.228H136.608V544.76ZM133.068 543.872H136.62V543.152H133.068V543.872ZM133.068 542.276H136.62V541.568H133.068V542.276ZM138.816 539.132H140.868V541.268C140.868 542.12 141.084 542.348 141.816 542.348H142.644C143.28 542.348 143.496 542 143.568 540.596C143.34 540.548 142.992 540.416 142.824 540.272C142.8 541.424 142.752 541.58 142.536 541.58H141.936C141.744 541.58 141.708 541.532 141.708 541.268V538.34H137.964V539.78C137.964 540.608 137.784 541.604 136.632 542.336C136.812 542.456 137.148 542.768 137.28 542.924C138.552 542.084 138.816 540.824 138.816 539.792V539.132ZM142.272 543.08L142.116 543.116H137.184V543.932H141.72C141.36 544.856 140.82 545.636 140.148 546.272C139.476 545.612 138.948 544.832 138.6 543.956L137.808 544.196C138.216 545.204 138.78 546.08 139.488 546.812C138.648 547.436 137.676 547.868 136.656 548.132C136.824 548.312 137.052 548.696 137.136 548.912C138.228 548.588 139.26 548.108 140.148 547.424C140.964 548.084 141.912 548.576 143.004 548.9C143.124 548.684 143.388 548.324 143.58 548.144C142.524 547.88 141.6 547.436 140.82 546.848C141.732 545.948 142.44 544.784 142.848 543.308L142.272 543.08ZM148.788 538.376H145.128V539.096H148.788V538.376ZM149.232 539.948H144.504V540.68H149.232V539.948ZM147.948 545.492V547.508H145.848V545.492H147.948ZM148.752 544.76H145.056V548.78H145.848V548.228H148.752V544.76ZM145.068 543.872H148.788V543.152H145.068V543.872ZM145.068 542.276H148.788V541.568H145.068V542.276ZM155.604 542.036H152.916V537.992H152.028V542.036H149.22V542.912H152.028V548.912H152.916V542.912H155.604V542.036ZM165.804 544.34H167.424V543.596H165.804V543.128C166.308 542.66 166.872 542 167.256 541.388L166.764 541.028L166.608 541.076H163.812V541.76H166.092C165.888 542.048 165.648 542.348 165.408 542.6H165.024V543.596H163.416V544.34H165.024V546.368C165.024 546.476 164.988 546.512 164.844 546.512C164.712 546.524 164.256 546.524 163.764 546.512C163.872 546.728 163.992 547.04 164.028 547.268C164.7 547.268 165.156 547.256 165.432 547.124C165.732 547.004 165.804 546.776 165.804 546.38V544.34ZM162.3 542.348C162.24 545.168 162.156 546.164 161.976 546.404C161.904 546.524 161.82 546.536 161.688 546.536C161.532 546.536 161.208 546.536 160.848 546.5C160.956 546.704 161.04 547.028 161.052 547.244C161.424 547.256 161.796 547.256 162.036 547.232C162.3 547.208 162.48 547.112 162.66 546.896C162.912 546.536 162.996 545.384 163.08 541.976C163.08 541.868 163.092 541.616 163.092 541.616H161.16V540.344H163.308C163.188 540.524 163.068 540.692 162.936 540.836C163.116 540.944 163.452 541.184 163.572 541.316C163.86 540.956 164.136 540.512 164.364 540.02H167.364V539.264H164.676C164.82 538.88 164.94 538.484 165.036 538.088L164.256 537.92C164.088 538.748 163.788 539.552 163.392 540.2V539.588H161.76V537.968H160.944V539.588H159.312V540.344H160.416V542.12C160.416 543.512 160.284 545.336 159.156 546.68C159.348 546.8 159.588 547.04 159.732 547.196C160.932 545.804 161.148 543.896 161.16 542.348H162.3ZM158.988 540.296C158.7 539.696 157.98 538.844 157.32 538.244L156.612 538.688C157.26 539.312 157.968 540.176 158.244 540.788L158.988 540.296ZM158.796 542.66H156.576V543.5H157.968V546.608C157.464 547.1 156.912 547.616 156.444 547.976L156.912 548.804C157.464 548.276 157.968 547.772 158.448 547.244C159.204 548.192 160.308 548.624 161.892 548.684C163.272 548.732 165.9 548.708 167.268 548.648C167.316 548.396 167.448 548 167.556 547.808C166.08 547.904 163.248 547.94 161.88 547.88C160.464 547.82 159.384 547.412 158.796 546.512V542.66ZM172.932 543.452L171.6 543.848V541.232H172.956V540.38H171.6V537.968H170.748V540.38H169.788C169.884 539.84 169.956 539.276 170.016 538.724L169.236 538.604C169.092 540.128 168.864 541.724 168.408 542.78C168.588 542.876 168.936 543.092 169.08 543.2C169.296 542.66 169.488 541.976 169.632 541.232H170.748V544.1C169.896 544.364 169.092 544.58 168.48 544.748L168.684 545.612C169.296 545.42 170.004 545.192 170.748 544.964V548.924H171.6V544.688C172.08 544.532 172.572 544.388 173.052 544.232L172.932 543.452ZM177.624 541.172C177.3 542.792 176.832 544.136 176.112 545.228C175.416 544.088 174.936 542.708 174.612 541.172H177.624ZM179.424 541.172V540.32H174.828C175.092 539.612 175.308 538.868 175.476 538.124L174.612 537.956C174.204 539.804 173.496 541.604 172.548 542.756C172.752 542.9 173.088 543.224 173.232 543.38C173.52 543.02 173.784 542.6 174.036 542.132C174.396 543.596 174.888 544.88 175.572 545.96C174.768 546.92 173.7 547.652 172.332 548.192C172.5 548.372 172.8 548.744 172.908 548.948C174.228 548.36 175.26 547.628 176.088 546.692C176.856 547.664 177.816 548.432 179.016 548.936C179.148 548.696 179.424 548.36 179.604 548.18C178.38 547.724 177.408 546.968 176.64 545.996C177.552 544.724 178.14 543.152 178.536 541.172H179.424Z" fill="black"/>
<rect x="26" y="508" width="84" height="84" fill="#C4C4C4"/>
<circle cx="58.5" cy="556.5" r="13" stroke="black"/>
<path d="M66.6077 548L77 530L87.3923 548H66.6077Z" stroke="black"/>
<path d="M137.088 524.563C135.962 524.24 135.142 523.843 134.627 523.374C134.117 522.9 133.861 522.317 133.861 521.624C133.861 520.84 134.174 520.193 134.798 519.683C135.427 519.168 136.243 518.91 137.245 518.91C137.929 518.91 138.537 519.042 139.07 519.307C139.608 519.571 140.023 519.936 140.314 520.4C140.611 520.865 140.759 521.373 140.759 521.925H139.439C139.439 521.323 139.248 520.852 138.865 520.51C138.482 520.163 137.942 519.99 137.245 519.99C136.598 519.99 136.092 520.134 135.728 520.421C135.368 520.703 135.188 521.098 135.188 521.604C135.188 522.009 135.358 522.353 135.7 522.636C136.047 522.914 136.632 523.169 137.457 523.401C138.286 523.634 138.934 523.891 139.398 524.174C139.868 524.452 140.214 524.778 140.438 525.151C140.665 525.525 140.779 525.965 140.779 526.471C140.779 527.277 140.465 527.924 139.836 528.412C139.207 528.895 138.366 529.137 137.313 529.137C136.63 529.137 135.992 529.007 135.399 528.747C134.807 528.483 134.349 528.123 134.025 527.667C133.706 527.211 133.547 526.694 133.547 526.115H134.866C134.866 526.717 135.087 527.193 135.529 527.544C135.976 527.89 136.571 528.063 137.313 528.063C138.006 528.063 138.537 527.922 138.906 527.64C139.275 527.357 139.46 526.972 139.46 526.484C139.46 525.997 139.289 525.621 138.947 525.356C138.605 525.088 137.986 524.823 137.088 524.563ZM143.979 523.408H144.929C145.526 523.399 145.995 523.242 146.337 522.937C146.679 522.631 146.85 522.219 146.85 521.699C146.85 520.533 146.269 519.949 145.106 519.949C144.56 519.949 144.122 520.106 143.794 520.421C143.47 520.731 143.309 521.143 143.309 521.658H142.044C142.044 520.87 142.331 520.216 142.905 519.696C143.484 519.172 144.218 518.91 145.106 518.91C146.045 518.91 146.781 519.159 147.314 519.655C147.848 520.152 148.114 520.842 148.114 521.727C148.114 522.16 147.973 522.579 147.69 522.984C147.412 523.39 147.032 523.693 146.549 523.894C147.096 524.067 147.517 524.354 147.813 524.755C148.114 525.156 148.265 525.646 148.265 526.225C148.265 527.118 147.973 527.826 147.39 528.351C146.806 528.875 146.048 529.137 145.113 529.137C144.179 529.137 143.418 528.884 142.83 528.378C142.247 527.872 141.955 527.204 141.955 526.375H143.227C143.227 526.899 143.397 527.318 143.739 527.633C144.081 527.947 144.539 528.104 145.113 528.104C145.724 528.104 146.191 527.945 146.515 527.626C146.838 527.307 147 526.849 147 526.252C147 525.673 146.822 525.229 146.467 524.919C146.111 524.609 145.599 524.45 144.929 524.44H143.979V523.408ZM155.955 524.399H151.642V527.927H156.652V529H150.329V519.047H156.584V520.127H151.642V523.326H155.955V524.399ZM159.599 525.104V529H158.286V519.047H161.957C163.046 519.047 163.898 519.325 164.514 519.881C165.133 520.437 165.443 521.173 165.443 522.089C165.443 523.055 165.14 523.8 164.534 524.324C163.933 524.844 163.069 525.104 161.943 525.104H159.599ZM159.599 524.03H161.957C162.659 524.03 163.197 523.866 163.57 523.538C163.944 523.205 164.131 522.727 164.131 522.103C164.131 521.51 163.944 521.036 163.57 520.681C163.197 520.325 162.684 520.141 162.032 520.127H159.599V524.03ZM168.629 523.408H169.579C170.176 523.399 170.646 523.242 170.987 522.937C171.329 522.631 171.5 522.219 171.5 521.699C171.5 520.533 170.919 519.949 169.757 519.949C169.21 519.949 168.772 520.106 168.444 520.421C168.121 520.731 167.959 521.143 167.959 521.658H166.694C166.694 520.87 166.981 520.216 167.556 519.696C168.134 519.172 168.868 518.91 169.757 518.91C170.696 518.91 171.432 519.159 171.965 519.655C172.498 520.152 172.765 520.842 172.765 521.727C172.765 522.16 172.623 522.579 172.341 522.984C172.063 523.39 171.682 523.693 171.199 523.894C171.746 524.067 172.168 524.354 172.464 524.755C172.765 525.156 172.915 525.646 172.915 526.225C172.915 527.118 172.623 527.826 172.04 528.351C171.457 528.875 170.698 529.137 169.764 529.137C168.829 529.137 168.068 528.884 167.48 528.378C166.897 527.872 166.605 527.204 166.605 526.375H167.877C167.877 526.899 168.048 527.318 168.39 527.633C168.731 527.947 169.189 528.104 169.764 528.104C170.374 528.104 170.841 527.945 171.165 527.626C171.489 527.307 171.65 526.849 171.65 526.252C171.65 525.673 171.473 525.229 171.117 524.919C170.762 524.609 170.249 524.45 169.579 524.44H168.629V523.408ZM176.49 523.408H177.44C178.037 523.399 178.507 523.242 178.849 522.937C179.19 522.631 179.361 522.219 179.361 521.699C179.361 520.533 178.78 519.949 177.618 519.949C177.071 519.949 176.634 520.106 176.306 520.421C175.982 520.731 175.82 521.143 175.82 521.658H174.556C174.556 520.87 174.843 520.216 175.417 519.696C175.996 519.172 176.729 518.91 177.618 518.91C178.557 518.91 179.293 519.159 179.826 519.655C180.359 520.152 180.626 520.842 180.626 521.727C180.626 522.16 180.485 522.579 180.202 522.984C179.924 523.39 179.544 523.693 179.061 523.894C179.607 524.067 180.029 524.354 180.325 524.755C180.626 525.156 180.776 525.646 180.776 526.225C180.776 527.118 180.485 527.826 179.901 528.351C179.318 528.875 178.559 529.137 177.625 529.137C176.691 529.137 175.93 528.884 175.342 528.378C174.758 527.872 174.467 527.204 174.467 526.375H175.738C175.738 526.899 175.909 527.318 176.251 527.633C176.593 527.947 177.051 528.104 177.625 528.104C178.236 528.104 178.703 527.945 179.026 527.626C179.35 527.307 179.512 526.849 179.512 526.252C179.512 525.673 179.334 525.229 178.979 524.919C178.623 524.609 178.11 524.45 177.44 524.44H176.49V523.408ZM192.69 527.964V519.928H197.716V518.864H186.656V519.928H191.556V527.964H185.928V529H198.416V527.964H192.69ZM203.176 517.338C202.392 519.466 201.104 521.552 199.718 522.896C199.914 523.12 200.222 523.694 200.32 523.932C200.796 523.442 201.272 522.882 201.706 522.266V530.05H202.742V520.656C203.288 519.69 203.792 518.668 204.17 517.66L203.176 517.338ZM212.57 520.614V519.62H206.746C207.026 519.004 207.292 518.374 207.516 517.73L206.522 517.464C205.836 519.508 204.702 521.524 203.442 522.826C203.68 522.994 204.086 523.344 204.254 523.526C204.954 522.742 205.64 521.734 206.242 520.614H207.208V530.064H208.258V526.676H212.444V525.696H208.258V523.582H212.248V522.616H208.258V520.614H212.57ZM223.98 518.15C223.588 518.864 222.846 519.844 222.286 520.446L223.098 520.782C223.672 520.194 224.386 519.298 224.946 518.472L223.98 518.15ZM216.966 518.262C216.672 519.158 216.07 520.054 215.132 520.53L215.86 521.09C216.91 520.516 217.456 519.55 217.778 518.528L216.966 518.262ZM219.584 517.296C219.304 520.292 218.632 522.168 214.222 523.008C214.418 523.218 214.656 523.61 214.754 523.862C218.114 523.176 219.514 521.86 220.172 519.914C220.984 522.196 222.524 523.386 225.576 523.834C225.688 523.554 225.94 523.12 226.15 522.91C222.552 522.518 221.124 520.992 220.592 517.912C220.62 517.716 220.648 517.506 220.662 517.296H219.584ZM223.084 526.732C223.644 526.13 224.344 525.192 224.918 524.366L223.924 524.002C223.518 524.73 222.804 525.766 222.258 526.396L223.084 526.732ZM215.664 527.124C216.756 526.494 217.288 525.416 217.61 524.296L216.77 524.016C216.476 525.066 215.874 526.046 214.894 526.578L215.664 527.124ZM219.584 522.812C219.318 526.046 218.716 528.23 214.026 529.182C214.236 529.406 214.474 529.826 214.572 530.078C218.058 529.308 219.5 527.866 220.158 525.808C220.984 528.286 222.566 529.588 225.842 530.078C225.968 529.77 226.22 529.322 226.43 529.084C222.58 528.65 221.138 526.984 220.592 523.596C220.634 523.344 220.648 523.078 220.676 522.812H219.584ZM234.242 528.37V522.826H239.45V521.79H234.242V517.506H233.15V528.37H227.928V529.406H240.402V528.37H234.242ZM247.696 525.612H248.62L248.9 520.18L248.928 518.528H247.388L247.416 520.18L247.696 525.612ZM248.158 529.07C248.648 529.07 249.054 528.706 249.054 528.146C249.054 527.586 248.648 527.208 248.158 527.208C247.668 527.208 247.262 527.586 247.262 528.146C247.262 528.706 247.654 529.07 248.158 529.07Z" fill="black"/>
<rect x="133" y="567" width="222" height="3" fill="#C4C4C4"/>
<rect x="133" y="558" width="222" height="3" fill="#C4C4C4"/>
<rect x="133" y="576" width="222" height="3" fill="#C4C4C4"/>
<rect x="133" y="585" width="111" height="3" fill="#C4C4C4"/>
<path d="M136.584 634.376H133.128V635.096H136.584V634.376ZM137.028 635.948H132.504V636.68H137.028V635.948ZM135.828 641.492V643.508H133.824V641.492H135.828ZM136.608 640.76H133.044V644.78H133.824V644.228H136.608V640.76ZM133.068 639.872H136.62V639.152H133.068V639.872ZM133.068 638.276H136.62V637.568H133.068V638.276ZM138.816 635.132H140.868V637.268C140.868 638.12 141.084 638.348 141.816 638.348H142.644C143.28 638.348 143.496 638 143.568 636.596C143.34 636.548 142.992 636.416 142.824 636.272C142.8 637.424 142.752 637.58 142.536 637.58H141.936C141.744 637.58 141.708 637.532 141.708 637.268V634.34H137.964V635.78C137.964 636.608 137.784 637.604 136.632 638.336C136.812 638.456 137.148 638.768 137.28 638.924C138.552 638.084 138.816 636.824 138.816 635.792V635.132ZM142.272 639.08L142.116 639.116H137.184V639.932H141.72C141.36 640.856 140.82 641.636 140.148 642.272C139.476 641.612 138.948 640.832 138.6 639.956L137.808 640.196C138.216 641.204 138.78 642.08 139.488 642.812C138.648 643.436 137.676 643.868 136.656 644.132C136.824 644.312 137.052 644.696 137.136 644.912C138.228 644.588 139.26 644.108 140.148 643.424C140.964 644.084 141.912 644.576 143.004 644.9C143.124 644.684 143.388 644.324 143.58 644.144C142.524 643.88 141.6 643.436 140.82 642.848C141.732 641.948 142.44 640.784 142.848 639.308L142.272 639.08ZM148.788 634.376H145.128V635.096H148.788V634.376ZM149.232 635.948H144.504V636.68H149.232V635.948ZM147.948 641.492V643.508H145.848V641.492H147.948ZM148.752 640.76H145.056V644.78H145.848V644.228H148.752V640.76ZM145.068 639.872H148.788V639.152H145.068V639.872ZM145.068 638.276H148.788V637.568H145.068V638.276ZM155.604 638.036H152.916V633.992H152.028V638.036H149.22V638.912H152.028V644.912H152.916V638.912H155.604V638.036ZM165.804 640.34H167.424V639.596H165.804V639.128C166.308 638.66 166.872 638 167.256 637.388L166.764 637.028L166.608 637.076H163.812V637.76H166.092C165.888 638.048 165.648 638.348 165.408 638.6H165.024V639.596H163.416V640.34H165.024V642.368C165.024 642.476 164.988 642.512 164.844 642.512C164.712 642.524 164.256 642.524 163.764 642.512C163.872 642.728 163.992 643.04 164.028 643.268C164.7 643.268 165.156 643.256 165.432 643.124C165.732 643.004 165.804 642.776 165.804 642.38V640.34ZM162.3 638.348C162.24 641.168 162.156 642.164 161.976 642.404C161.904 642.524 161.82 642.536 161.688 642.536C161.532 642.536 161.208 642.536 160.848 642.5C160.956 642.704 161.04 643.028 161.052 643.244C161.424 643.256 161.796 643.256 162.036 643.232C162.3 643.208 162.48 643.112 162.66 642.896C162.912 642.536 162.996 641.384 163.08 637.976C163.08 637.868 163.092 637.616 163.092 637.616H161.16V636.344H163.308C163.188 636.524 163.068 636.692 162.936 636.836C163.116 636.944 163.452 637.184 163.572 637.316C163.86 636.956 164.136 636.512 164.364 636.02H167.364V635.264H164.676C164.82 634.88 164.94 634.484 165.036 634.088L164.256 633.92C164.088 634.748 163.788 635.552 163.392 636.2V635.588H161.76V633.968H160.944V635.588H159.312V636.344H160.416V638.12C160.416 639.512 160.284 641.336 159.156 642.68C159.348 642.8 159.588 643.04 159.732 643.196C160.932 641.804 161.148 639.896 161.16 638.348H162.3ZM158.988 636.296C158.7 635.696 157.98 634.844 157.32 634.244L156.612 634.688C157.26 635.312 157.968 636.176 158.244 636.788L158.988 636.296ZM158.796 638.66H156.576V639.5H157.968V642.608C157.464 643.1 156.912 643.616 156.444 643.976L156.912 644.804C157.464 644.276 157.968 643.772 158.448 643.244C159.204 644.192 160.308 644.624 161.892 644.684C163.272 644.732 165.9 644.708 167.268 644.648C167.316 644.396 167.448 644 167.556 643.808C166.08 643.904 163.248 643.94 161.88 643.88C160.464 643.82 159.384 643.412 158.796 642.512V638.66ZM172.932 639.452L171.6 639.848V637.232H172.956V636.38H171.6V633.968H170.748V636.38H169.788C169.884 635.84 169.956 635.276 170.016 634.724L169.236 634.604C169.092 636.128 168.864 637.724 168.408 638.78C168.588 638.876 168.936 639.092 169.08 639.2C169.296 638.66 169.488 637.976 169.632 637.232H170.748V640.1C169.896 640.364 169.092 640.58 168.48 640.748L168.684 641.612C169.296 641.42 170.004 641.192 170.748 640.964V644.924H171.6V640.688C172.08 640.532 172.572 640.388 173.052 640.232L172.932 639.452ZM177.624 637.172C177.3 638.792 176.832 640.136 176.112 641.228C175.416 640.088 174.936 638.708 174.612 637.172H177.624ZM179.424 637.172V636.32H174.828C175.092 635.612 175.308 634.868 175.476 634.124L174.612 633.956C174.204 635.804 173.496 637.604 172.548 638.756C172.752 638.9 173.088 639.224 173.232 639.38C173.52 639.02 173.784 638.6 174.036 638.132C174.396 639.596 174.888 640.88 175.572 641.96C174.768 642.92 173.7 643.652 172.332 644.192C172.5 644.372 172.8 644.744 172.908 644.948C174.228 644.36 175.26 643.628 176.088 642.692C176.856 643.664 177.816 644.432 179.016 644.936C179.148 644.696 179.424 644.36 179.604 644.18C178.38 643.724 177.408 642.968 176.64 641.996C177.552 640.724 178.14 639.152 178.536 637.172H179.424Z" fill="black"/>
<rect x="26" y="604" width="84" height="84" fill="#C4C4C4"/>
<circle cx="58.5" cy="652.5" r="13" stroke="black"/>
<path d="M66.6077 644L77 626L87.3923 644H66.6077Z" stroke="black"/>
<path d="M137.088 620.563C135.962 620.24 135.142 619.843 134.627 619.374C134.117 618.9 133.861 618.317 133.861 617.624C133.861 616.84 134.174 616.193 134.798 615.683C135.427 615.168 136.243 614.91 137.245 614.91C137.929 614.91 138.537 615.042 139.07 615.307C139.608 615.571 140.023 615.936 140.314 616.4C140.611 616.865 140.759 617.373 140.759 617.925H139.439C139.439 617.323 139.248 616.852 138.865 616.51C138.482 616.163 137.942 615.99 137.245 615.99C136.598 615.99 136.092 616.134 135.728 616.421C135.368 616.703 135.188 617.098 135.188 617.604C135.188 618.009 135.358 618.353 135.7 618.636C136.047 618.914 136.632 619.169 137.457 619.401C138.286 619.634 138.934 619.891 139.398 620.174C139.868 620.452 140.214 620.778 140.438 621.151C140.665 621.525 140.779 621.965 140.779 622.471C140.779 623.277 140.465 623.924 139.836 624.412C139.207 624.895 138.366 625.137 137.313 625.137C136.63 625.137 135.992 625.007 135.399 624.747C134.807 624.483 134.349 624.123 134.025 623.667C133.706 623.211 133.547 622.694 133.547 622.115H134.866C134.866 622.717 135.087 623.193 135.529 623.544C135.976 623.89 136.571 624.063 137.313 624.063C138.006 624.063 138.537 623.922 138.906 623.64C139.275 623.357 139.46 622.972 139.46 622.484C139.46 621.997 139.289 621.621 138.947 621.356C138.605 621.088 137.986 620.823 137.088 620.563ZM143.979 619.408H144.929C145.526 619.399 145.995 619.242 146.337 618.937C146.679 618.631 146.85 618.219 146.85 617.699C146.85 616.533 146.269 615.949 145.106 615.949C144.56 615.949 144.122 616.106 143.794 616.421C143.47 616.731 143.309 617.143 143.309 617.658H142.044C142.044 616.87 142.331 616.216 142.905 615.696C143.484 615.172 144.218 614.91 145.106 614.91C146.045 614.91 146.781 615.159 147.314 615.655C147.848 616.152 148.114 616.842 148.114 617.727C148.114 618.16 147.973 618.579 147.69 618.984C147.412 619.39 147.032 619.693 146.549 619.894C147.096 620.067 147.517 620.354 147.813 620.755C148.114 621.156 148.265 621.646 148.265 622.225C148.265 623.118 147.973 623.826 147.39 624.351C146.806 624.875 146.048 625.137 145.113 625.137C144.179 625.137 143.418 624.884 142.83 624.378C142.247 623.872 141.955 623.204 141.955 622.375H143.227C143.227 622.899 143.397 623.318 143.739 623.633C144.081 623.947 144.539 624.104 145.113 624.104C145.724 624.104 146.191 623.945 146.515 623.626C146.838 623.307 147 622.849 147 622.252C147 621.673 146.822 621.229 146.467 620.919C146.111 620.609 145.599 620.45 144.929 620.44H143.979V619.408ZM155.955 620.399H151.642V623.927H156.652V625H150.329V615.047H156.584V616.127H151.642V619.326H155.955V620.399ZM159.599 621.104V625H158.286V615.047H161.957C163.046 615.047 163.898 615.325 164.514 615.881C165.133 616.437 165.443 617.173 165.443 618.089C165.443 619.055 165.14 619.8 164.534 620.324C163.933 620.844 163.069 621.104 161.943 621.104H159.599ZM159.599 620.03H161.957C162.659 620.03 163.197 619.866 163.57 619.538C163.944 619.205 164.131 618.727 164.131 618.103C164.131 617.51 163.944 617.036 163.57 616.681C163.197 616.325 162.684 616.141 162.032 616.127H159.599V620.03ZM168.629 619.408H169.579C170.176 619.399 170.646 619.242 170.987 618.937C171.329 618.631 171.5 618.219 171.5 617.699C171.5 616.533 170.919 615.949 169.757 615.949C169.21 615.949 168.772 616.106 168.444 616.421C168.121 616.731 167.959 617.143 167.959 617.658H166.694C166.694 616.87 166.981 616.216 167.556 615.696C168.134 615.172 168.868 614.91 169.757 614.91C170.696 614.91 171.432 615.159 171.965 615.655C172.498 616.152 172.765 616.842 172.765 617.727C172.765 618.16 172.623 618.579 172.341 618.984C172.063 619.39 171.682 619.693 171.199 619.894C171.746 620.067 172.168 620.354 172.464 620.755C172.765 621.156 172.915 621.646 172.915 622.225C172.915 623.118 172.623 623.826 172.04 624.351C171.457 624.875 170.698 625.137 169.764 625.137C168.829 625.137 168.068 624.884 167.48 624.378C166.897 623.872 166.605 623.204 166.605 622.375H167.877C167.877 622.899 168.048 623.318 168.39 623.633C168.731 623.947 169.189 624.104 169.764 624.104C170.374 624.104 170.841 623.945 171.165 623.626C171.489 623.307 171.65 622.849 171.65 622.252C171.65 621.673 171.473 621.229 171.117 620.919C170.762 620.609 170.249 620.45 169.579 620.44H168.629V619.408ZM176.49 619.408H177.44C178.037 619.399 178.507 619.242 178.849 618.937C179.19 618.631 179.361 618.219 179.361 617.699C179.361 616.533 178.78 615.949 177.618 615.949C177.071 615.949 176.634 616.106 176.306 616.421C175.982 616.731 175.82 617.143 175.82 617.658H174.556C174.556 616.87 174.843 616.216 175.417 615.696C175.996 615.172 176.729 614.91 177.618 614.91C178.557 614.91 179.293 615.159 179.826 615.655C180.359 616.152 180.626 616.842 180.626 617.727C180.626 618.16 180.485 618.579 180.202 618.984C179.924 619.39 179.544 619.693 179.061 619.894C179.607 620.067 180.029 620.354 180.325 620.755C180.626 621.156 180.776 621.646 180.776 622.225C180.776 623.118 180.485 623.826 179.901 624.351C179.318 624.875 178.559 625.137 177.625 625.137C176.691 625.137 175.93 624.884 175.342 624.378C174.758 623.872 174.467 623.204 174.467 622.375H175.738C175.738 622.899 175.909 623.318 176.251 623.633C176.593 623.947 177.051 624.104 177.625 624.104C178.236 624.104 178.703 623.945 179.026 623.626C179.35 623.307 179.512 622.849 179.512 622.252C179.512 621.673 179.334 621.229 178.979 620.919C178.623 620.609 178.11 620.45 177.44 620.44H176.49V619.408ZM192.69 623.964V615.928H197.716V614.864H186.656V615.928H191.556V623.964H185.928V625H198.416V623.964H192.69ZM203.176 613.338C202.392 615.466 201.104 617.552 199.718 618.896C199.914 619.12 200.222 619.694 200.32 619.932C200.796 619.442 201.272 618.882 201.706 618.266V626.05H202.742V616.656C203.288 615.69 203.792 614.668 204.17 613.66L203.176 613.338ZM212.57 616.614V615.62H206.746C207.026 615.004 207.292 614.374 207.516 613.73L206.522 613.464C205.836 615.508 204.702 617.524 203.442 618.826C203.68 618.994 204.086 619.344 204.254 619.526C204.954 618.742 205.64 617.734 206.242 616.614H207.208V626.064H208.258V622.676H212.444V621.696H208.258V619.582H212.248V618.616H208.258V616.614H212.57ZM223.98 614.15C223.588 614.864 222.846 615.844 222.286 616.446L223.098 616.782C223.672 616.194 224.386 615.298 224.946 614.472L223.98 614.15ZM216.966 614.262C216.672 615.158 216.07 616.054 215.132 616.53L215.86 617.09C216.91 616.516 217.456 615.55 217.778 614.528L216.966 614.262ZM219.584 613.296C219.304 616.292 218.632 618.168 214.222 619.008C214.418 619.218 214.656 619.61 214.754 619.862C218.114 619.176 219.514 617.86 220.172 615.914C220.984 618.196 222.524 619.386 225.576 619.834C225.688 619.554 225.94 619.12 226.15 618.91C222.552 618.518 221.124 616.992 220.592 613.912C220.62 613.716 220.648 613.506 220.662 613.296H219.584ZM223.084 622.732C223.644 622.13 224.344 621.192 224.918 620.366L223.924 620.002C223.518 620.73 222.804 621.766 222.258 622.396L223.084 622.732ZM215.664 623.124C216.756 622.494 217.288 621.416 217.61 620.296L216.77 620.016C216.476 621.066 215.874 622.046 214.894 622.578L215.664 623.124ZM219.584 618.812C219.318 622.046 218.716 624.23 214.026 625.182C214.236 625.406 214.474 625.826 214.572 626.078C218.058 625.308 219.5 623.866 220.158 621.808C220.984 624.286 222.566 625.588 225.842 626.078C225.968 625.77 226.22 625.322 226.43 625.084C222.58 624.65 221.138 622.984 220.592 619.596C220.634 619.344 220.648 619.078 220.676 618.812H219.584ZM234.242 624.37V618.826H239.45V617.79H234.242V613.506H233.15V624.37H227.928V625.406H240.402V624.37H234.242ZM247.696 621.612H248.62L248.9 616.18L248.928 614.528H247.388L247.416 616.18L247.696 621.612ZM248.158 625.07C248.648 625.07 249.054 624.706 249.054 624.146C249.054 623.586 248.648 623.208 248.158 623.208C247.668 623.208 247.262 623.586 247.262 624.146C247.262 624.706 247.654 625.07 248.158 625.07Z" fill="black"/>
<rect x="133" y="663" width="222" height="3" fill="#C4C4C4"/>
<rect x="133" y="654" width="222" height="3" fill="#C4C4C4"/>
</g>
<defs>
<filter id="filter0_d_27_97" x="-2" y="110" width="379" height="5" filterUnits="userSpaceOnUse" color-interpolation-filters="sRGB">
<feFlood flood-opacity="0" result="BackgroundImageFix"/>
<feColorMatrix in="SourceAlpha" type="matrix" values="0 0 0 0 0 0 0 0 0 0 0 0 0 0 0 0 0 0 127 0" result="hardAlpha"/>
<feOffset dy="1"/>
<feGaussianBlur stdDeviation="1"/>
<feComposite in2="hardAlpha" operator="out"/>
<feColorMatrix type="matrix" values="0 0 0 0 0 0 0 0 0 0 0 0 0 0 0 0 0 0 0.1 0"/>
<feBlend mode="normal" in2="BackgroundImageFix" result="effect1_dropShadow_27_97"/>
<feBlend mode="normal" in="SourceGraphic" in2="effect1_dropShadow_27_97" result="shape"/>
</filter>
<filter id="filter1_d_27_97" x="-2" y="255" width="379" height="5" filterUnits="userSpaceOnUse" color-interpolation-filters="sRGB">
<feFlood flood-opacity="0" result="BackgroundImageFix"/>
<feColorMatrix in="SourceAlpha" type="matrix" values="0 0 0 0 0 0 0 0 0 0 0 0 0 0 0 0 0 0 127 0" result="hardAlpha"/>
<feOffset dy="1"/>
<feGaussianBlur stdDeviation="1"/>
<feComposite in2="hardAlpha" operator="out"/>
<feColorMatrix type="matrix" values="0 0 0 0 0 0 0 0 0 0 0 0 0 0 0 0 0 0 0.1 0"/>
<feBlend mode="normal" in2="BackgroundImageFix" result="effect1_dropShadow_27_97"/>
<feBlend mode="normal" in="SourceGraphic" in2="effect1_dropShadow_27_97" result="shape"/>
</filter>
<clipPath id="clip0_27_97">
<rect width="375" height="667" fill="white"/>
</clipPath>
</defs>
</svg>
