<svg width="375" height="667" viewBox="0 0 375 667" fill="none" xmlns="http://www.w3.org/2000/svg">
<g clip-path="url(#clip0_27_96)">
<rect width="375" height="667" fill="white"/>
<rect y="111" width="375" height="556" fill="#C4C4C4" fill-opacity="0.2"/>
<rect y="381" width="375" height="286" fill="white"/>
<path d="M36.528 89.048C35.792 89.048 35.424 88.848 35.424 88.448V80.552L30.48 73.064C30.336 72.872 30.264 72.712 30.264 72.584C30.264 72.296 30.672 72.152 31.488 72.152H31.992C32.296 72.152 32.536 72.184 32.712 72.248C32.888 72.296 33.024 72.392 33.12 72.536L36.768 78.224L40.488 72.512C40.648 72.272 41.048 72.152 41.688 72.152H42.048C42.784 72.168 43.152 72.312 43.152 72.584C43.152 72.696 43.088 72.856 42.96 73.064L37.992 80.624V88.448C37.992 88.848 37.624 89.048 36.888 89.048H36.528ZM46.5484 89.168C45.3324 89.168 44.3724 88.864 43.6684 88.256C42.9644 87.632 42.6124 86.744 42.6124 85.592C42.6124 83.976 43.2844 82.848 44.6284 82.208C45.9724 81.552 47.8524 81.216 50.2684 81.2V80.168C50.2684 79.608 50.0764 79.16 49.6924 78.824C49.3084 78.488 48.6924 78.32 47.8444 78.32C47.1884 78.32 46.6124 78.4 46.1164 78.56C45.6364 78.704 45.2204 78.864 44.8684 79.04C44.5324 79.2 44.3404 79.28 44.2924 79.28C44.1164 79.28 43.9084 79.096 43.6684 78.728C43.4444 78.344 43.3324 78.056 43.3324 77.864C43.3324 77.64 43.5404 77.408 43.9564 77.168C44.3884 76.912 44.9484 76.704 45.6364 76.544C46.3404 76.368 47.0844 76.28 47.8684 76.28C49.4524 76.28 50.6524 76.624 51.4684 77.312C52.3004 77.984 52.7164 78.92 52.7164 80.12V85.256C52.7164 86.328 52.7644 87.104 52.8604 87.584C52.9564 88.064 53.0044 88.336 53.0044 88.4C53.0044 88.624 52.8044 88.784 52.4044 88.88C52.0204 88.976 51.6604 89.024 51.3244 89.024C51.0684 89.024 50.8844 88.904 50.7724 88.664C50.6764 88.424 50.5964 88.168 50.5324 87.896C50.4844 87.624 50.4524 87.44 50.4364 87.344C50.0044 87.856 49.4604 88.288 48.8044 88.64C48.1644 88.992 47.4124 89.168 46.5484 89.168ZM46.9564 87.104C47.6604 87.104 48.2764 86.96 48.8044 86.672C49.3324 86.384 49.8204 85.992 50.2684 85.496V83.096C48.7164 83.096 47.4764 83.248 46.5484 83.552C45.6204 83.84 45.1564 84.456 45.1564 85.4C45.1564 85.944 45.3084 86.368 45.6124 86.672C45.9324 86.96 46.3804 87.104 46.9564 87.104ZM64.6665 76.4C65.3865 76.4 65.7465 76.544 65.7465 76.832C65.7465 76.912 65.7225 77.04 65.6745 77.216L59.6985 93.464C59.5865 93.8 59.1945 93.968 58.5225 93.968H58.1385C57.4825 93.968 57.1545 93.832 57.1545 93.56C57.1545 93.512 57.1945 93.376 57.2745 93.152L59.1465 88.496L55.0185 77.192C54.9705 77 54.9465 76.88 54.9465 76.832C54.9465 76.544 55.3305 76.4 56.0985 76.4H56.4585C57.0825 76.4 57.4345 76.536 57.5145 76.808L59.6745 82.736C59.8825 83.28 60.1305 84.128 60.4185 85.28H60.4665L60.6585 84.632C60.8825 83.848 61.0745 83.216 61.2345 82.736L63.3465 76.808C63.4265 76.536 63.7945 76.4 64.4505 76.4H64.6665ZM69.4052 89.048C68.6692 89.048 68.3012 88.848 68.3012 88.448V72.992C68.3012 72.72 68.3652 72.52 68.4932 72.392C68.6212 72.264 68.8212 72.2 69.0932 72.2H76.7492C76.9412 72.2 77.0772 72.272 77.1572 72.416C77.2532 72.544 77.3012 72.76 77.3012 73.064V73.544C77.3012 73.848 77.2532 74.072 77.1572 74.216C77.0772 74.344 76.9412 74.408 76.7492 74.408H70.8692V79.856H76.3892C76.5812 79.856 76.7172 79.928 76.7972 80.072C76.8932 80.2 76.9412 80.416 76.9412 80.72V81.2C76.9412 81.504 76.8932 81.728 76.7972 81.872C76.7172 82 76.5812 82.064 76.3892 82.064H70.8692V88.448C70.8692 88.848 70.5012 89.048 69.7652 89.048H69.4052ZM87.8835 84.512C87.5955 84.512 87.3795 84.392 87.2355 84.152L83.3475 77.336C83.2515 77.176 83.0595 76.832 82.7715 76.304L82.6755 76.328C82.7075 76.6 82.7235 77.024 82.7235 77.6V88.448C82.7235 88.848 82.3555 89.048 81.6195 89.048H81.3075C80.5715 89.048 80.2035 88.848 80.2035 88.448V72.752C80.2035 72.352 80.5715 72.152 81.3075 72.152H82.2915C82.8675 72.152 83.2515 72.32 83.4435 72.656L87.8115 80.288C88.0675 80.72 88.2355 81.12 88.3155 81.488C88.4115 81.232 88.6115 80.816 88.9155 80.24L93.2355 72.656C93.4115 72.32 93.7955 72.152 94.3875 72.152H95.2995C96.0355 72.152 96.4035 72.352 96.4035 72.752V88.448C96.4035 88.848 96.0355 89.048 95.2995 89.048H94.9875C94.2515 89.048 93.8835 88.848 93.8835 88.448V77.72C93.8835 77.144 93.8995 76.712 93.9315 76.424L93.8355 76.4C93.6435 76.784 93.4515 77.136 93.2595 77.456L89.4195 84.152C89.2755 84.392 89.0595 84.512 88.7715 84.512H87.8835Z" fill="black"/>
<rect width="375" height="43" fill="#C4C4C4"/>
<path d="M178.504 18.304H174.364V17.788H178.504V18.304ZM178.504 19.312H174.364V18.772H178.504V19.312ZM178.504 20.344H174.364V19.792H178.504V20.344ZM173.524 17.296V20.824H179.368V17.296H176.488L176.704 16.696H180.352V16.048H178.312C178.516 15.784 178.756 15.472 178.972 15.136L178.132 14.944C177.988 15.256 177.688 15.724 177.46 16.048H175.444C175.312 15.724 175.048 15.268 174.772 14.968L174.052 15.148C174.256 15.412 174.46 15.748 174.592 16.048H172.576V16.696H175.864C175.816 16.888 175.768 17.104 175.72 17.296H173.524ZM172.24 16.684C171.904 16.228 171.196 15.616 170.596 15.208L169.996 15.688C170.608 16.12 171.292 16.768 171.604 17.236L172.24 16.684ZM171.64 24.016C172.288 24.412 173.044 25.012 173.392 25.444L174.04 24.88C173.656 24.46 172.888 23.884 172.252 23.5L171.64 24.016ZM177.796 22.06C178.732 22.06 179.632 22.036 180.256 22.012C180.292 21.784 180.412 21.472 180.496 21.292C178.972 21.376 175.876 21.412 174.496 21.364C173.404 21.328 172.504 21.028 172.048 20.332V18.076H169.648V18.772H171.232V20.464C170.68 20.824 170.08 21.172 169.576 21.424L169.936 22.168C170.572 21.76 171.16 21.364 171.748 20.956C172.348 21.688 173.26 22 174.508 22.036C175.108 22.06 176.008 22.072 176.944 22.06V22.792H169.6V23.488H176.944V24.952C176.944 25.108 176.896 25.156 176.692 25.156C176.5 25.168 175.828 25.18 175.06 25.156C175.192 25.372 175.312 25.684 175.36 25.912C176.344 25.912 176.956 25.912 177.328 25.78C177.7 25.66 177.796 25.432 177.796 24.964V23.488H180.412V22.792H177.796V22.06ZM192.304 16.276V15.664H188.668C188.764 15.472 188.848 15.28 188.92 15.088L188.116 14.968C187.876 15.628 187.42 16.396 186.688 16.984C186.868 17.068 187.144 17.308 187.288 17.488C187.72 17.116 188.056 16.708 188.332 16.276H192.304ZM188.152 18.268H188.884V19.144H188.152V18.268ZM189.4 18.268H190.168V19.144H189.4V18.268ZM190.684 18.268H191.452V19.144H190.684V18.268ZM187.504 19.648H192.112V17.776H187.504V19.648ZM188.152 16.744V17.308H191.704V16.744H188.152ZM182.884 18.292H184.132V18.988H182.884V18.292ZM184.132 15.94V16.528H182.884V15.94H184.132ZM185.752 17.752H182.884V17.08H185.752V17.752ZM186.964 18.988H184.864V18.292H186.532V16.528H184.864V15.94H186.868V15.364H182.104V19.564H186.964V18.988ZM184.204 22.792H189.76V23.38H184.204V22.792ZM184.204 21.688H189.76V22.264H184.204V21.688ZM184.204 20.596H189.76V21.16H184.204V20.596ZM189.232 25.06C188.68 25.06 188.584 25.024 188.584 24.748V23.908H190.648V20.056H183.352V23.908H185.068C184.708 24.712 183.832 25.048 181.54 25.216C181.684 25.384 181.888 25.72 181.948 25.912C184.54 25.648 185.56 25.12 185.968 23.908H187.72V24.76C187.72 25.564 188.008 25.768 189.148 25.768H191.212C192.088 25.768 192.352 25.468 192.448 24.244C192.208 24.184 191.872 24.076 191.692 23.956C191.644 24.928 191.572 25.06 191.128 25.06H189.232ZM198.304 18.988C198.1 19.948 197.824 20.812 197.464 21.568C196.912 21.148 196.036 20.572 195.292 20.14C195.496 19.768 195.688 19.384 195.868 18.988H198.304ZM193.756 16.396H195.808C195.412 18.148 194.584 20.116 193.312 21.328C193.492 21.472 193.78 21.748 193.936 21.916C194.272 21.592 194.584 21.22 194.86 20.812C195.628 21.28 196.516 21.88 197.068 22.336C196.288 23.668 195.244 24.64 194.044 25.276C194.248 25.42 194.584 25.756 194.716 25.948C196.924 24.676 198.652 22.24 199.288 18.34L198.736 18.148L198.592 18.172H196.192C196.42 17.584 196.6 16.984 196.744 16.396H199.684V15.58H193.756V16.396ZM201.016 16.336H200.14V22.852H201.016V16.336ZM203.056 15.196V24.76C203.056 24.976 202.96 25.048 202.744 25.06C202.516 25.06 201.784 25.072 200.98 25.048C201.1 25.288 201.232 25.684 201.28 25.924C202.372 25.924 203.02 25.9 203.404 25.768C203.776 25.612 203.932 25.348 203.932 24.748V15.196H203.056Z" fill="black"/>
<g filter="url(#filter0_d_27_96)">
<line y1="111.5" x2="375" y2="111.5" stroke="black" stroke-opacity="0.2" shape-rendering="crispEdges"/>
</g>
<circle cx="337.5" cy="71.5" r="17.5" fill="#C4C4C4"/>
<path d="M299 68C299 66.4087 298.368 64.8826 297.243 63.7574C296.117 62.6321 294.591 62 293 62C291.409 62 289.883 62.6321 288.757 63.7574C287.632 64.8826 287 66.4087 287 68C287 75 284 77 284 77H302C302 77 299 75 299 68Z" stroke="#C4C4C4" stroke-width="2" stroke-linecap="round" stroke-linejoin="round"/>
<path d="M294.73 81C294.554 81.3031 294.302 81.5547 293.998 81.7295C293.695 81.9044 293.35 81.9965 293 81.9965C292.65 81.9965 292.305 81.9044 292.002 81.7295C291.698 81.5547 291.446 81.3031 291.27 81" stroke="#C4C4C4" stroke-width="2" stroke-linecap="round" stroke-linejoin="round"/>
<circle cx="187" cy="188" r="48" fill="#C4C4C4"/>
<path d="M148.84 264.6C148.62 266.34 148.24 268.14 147.62 269.36C147.9 269.46 148.5 269.72 148.72 269.9C149.36 268.62 149.82 266.7 150.1 264.82L148.84 264.6ZM152.94 264.88C153.44 266.02 153.84 267.54 153.94 268.5L155.1 268.16C154.98 267.18 154.54 265.7 154.04 264.56L152.94 264.88ZM159.78 267.26C159.42 267.26 159.34 267.1 159.34 266.58V263.74H163.58V262.56H160.96V260.52H163.46V259.34H161.94C162.34 258.58 162.82 257.5 163.26 256.54L162.06 256.14C161.84 257 161.38 258.26 161 259.06L161.74 259.34H158.6L159.52 259C159.4 258.28 159.02 257.14 158.56 256.28L157.6 256.62C158.02 257.46 158.38 258.58 158.5 259.34H157.38V260.52H159.68V262.56H157.22V263.74H158.06V266.56C158.06 267.98 158.4 268.44 159.78 268.44H162.12C162.58 268.44 163.04 268.44 163.32 268.38C163.28 268.06 163.22 267.5 163.2 267.18C162.92 267.24 162.38 267.26 162.1 267.26H159.78ZM165.6 254.22H155.3V263.28C154.94 262.2 154.24 260.76 153.5 259.64L152.42 260.08C152.74 260.6 153.04 261.18 153.32 261.76L150.44 261.9C151.8 260.2 153.3 257.94 154.44 256.12L153.2 255.54C152.64 256.62 151.88 257.92 151.06 259.16C150.76 258.76 150.4 258.32 149.98 257.88C150.74 256.76 151.6 255.14 152.28 253.76L150.98 253.28C150.56 254.38 149.86 255.9 149.2 257.04C149 256.84 148.8 256.66 148.6 256.48L147.8 257.42C148.7 258.28 149.7 259.42 150.28 260.32C149.86 260.92 149.44 261.48 149.04 261.98L147.66 262.04L147.8 263.38L150.94 263.18V271.52H152.26V263.1L153.84 263C154.04 263.46 154.18 263.9 154.26 264.28L155.3 263.8V271.56H156.62V255.54H164.24V269.86C164.24 270.14 164.16 270.22 163.9 270.24C163.62 270.24 162.74 270.26 161.82 270.22C162.02 270.58 162.22 271.18 162.26 271.52C163.54 271.54 164.38 271.5 164.92 271.3C165.42 271.06 165.6 270.66 165.6 269.86V254.22ZM169.22 264.58C168.94 266.32 168.48 268.12 167.76 269.32C168.1 269.44 168.72 269.76 169 269.96C169.7 268.68 170.28 266.74 170.6 264.84L169.22 264.58ZM175.6 262.9C175.84 263.36 176.06 263.78 176.2 264.14L177.36 263.5C176.9 262.42 175.8 260.7 174.8 259.46L173.72 260.02C174.1 260.5 174.48 261.06 174.84 261.62C173.52 261.7 172.22 261.76 171.02 261.82C172.5 260.14 174.16 257.94 175.42 256.1L174.06 255.44C173.44 256.54 172.58 257.84 171.66 259.08C171.3 258.64 170.82 258.14 170.3 257.66C171.14 256.58 172.12 255.08 172.88 253.8L171.5 253.24C171 254.34 170.16 255.78 169.42 256.88C169.16 256.66 168.9 256.46 168.64 256.26L167.88 257.24C168.92 258.08 170.12 259.22 170.86 260.16C170.36 260.78 169.86 261.38 169.4 261.9L167.8 261.96L167.98 263.38C169.04 263.32 170.32 263.24 171.68 263.14V271.52H173.14V263.06L175.6 262.9ZM176.92 268.46C176.66 267.38 176.04 265.72 175.38 264.46L174.14 264.88C174.76 266.16 175.42 267.84 175.62 268.96L176.92 268.46ZM181.68 269.38V256.8H185.82V255.38H176.2V256.8H180.16V269.38H175.4V270.8H186.14V269.38H181.68ZM194.98 269.36V264.44H203.18V269.36H194.98ZM199.94 256.6C199.08 258.34 197.82 259.92 196.34 261.28C195.42 260.28 193.9 259 192.56 258.06C193.08 257.6 193.54 257.1 193.98 256.6H199.94ZM204.68 263.08H196.5C198.82 261.12 200.78 258.66 201.96 255.7L200.98 255.18L200.7 255.26H195.06C195.48 254.68 195.86 254.1 196.2 253.54L194.54 253.2C193.38 255.36 191.1 257.92 187.82 259.7C188.16 259.96 188.66 260.5 188.86 260.84C189.82 260.28 190.68 259.66 191.48 259.02C192.8 260 194.26 261.28 195.14 262.3C192.88 264.08 190.26 265.4 187.72 266.14C188.04 266.42 188.42 267.04 188.6 267.44C190.26 266.9 191.92 266.14 193.52 265.2V271.52H194.98V270.72H203.18V271.56H204.68V263.08ZM214.86 264.06C214.48 263.58 212.84 261.86 212.28 261.36V260.38H214.72V259.18C215.06 259.36 215.48 259.58 215.68 259.72C216.4 258.72 217.08 257.24 217.58 255.7C220.04 255.48 222.82 255.12 224.8 254.62L223.68 253.58C222.24 253.94 219.84 254.32 217.58 254.56L216.46 254.32C216.02 256.06 215.32 257.8 214.4 259H212.28V255.56C213.18 255.32 214.04 255.06 214.74 254.74L213.62 253.7C212.32 254.34 209.94 254.9 207.86 255.26C208.04 255.56 208.24 256.04 208.3 256.36C209.12 256.24 210.02 256.08 210.88 255.9V259H207.96V260.38H210.64C210 262.64 208.82 265.26 207.72 266.68C207.98 267.04 208.34 267.62 208.5 268.04C209.34 266.82 210.2 264.9 210.88 262.94V271.56H212.28V262.8C212.92 263.6 213.68 264.64 213.98 265.18L214.86 264.06ZM222.86 255.72C223.68 256.88 224.52 258.52 224.88 259.56L226.16 258.98C225.78 257.94 224.92 256.4 224.08 255.24L222.86 255.72ZM221.3 258.54C221.18 257.78 220.8 256.64 220.36 255.8L219.12 256.12C219.54 257 219.9 258.16 219.98 258.9L221.3 258.54ZM221.02 266.38V264.46H223.84V266.38H221.02ZM217.04 264.46H219.66V266.38H217.04V264.46ZM219.66 261.46V263.34H217.04V261.46H219.66ZM223.84 261.46V263.34H221.02V261.46H223.84ZM226.32 266.38H225.22V260.26H221.02V258.96H219.66V260.26H215.68V266.38H214.26V267.62H215.68V271.5H217.04V267.62H223.84V269.92C223.84 270.16 223.74 270.22 223.48 270.24C223.24 270.24 222.38 270.26 221.44 270.22C221.64 270.56 221.88 271.14 221.96 271.52C223.22 271.52 224.02 271.5 224.52 271.28C225.06 271.06 225.22 270.64 225.22 269.92V267.62H226.32V266.38Z" fill="black"/>
<rect x="134" y="288" width="106" height="36" rx="4" fill="#F3AA3B"/>
<path d="M182.56 299.6V302.3H175.92V299.6H182.56ZM183.36 306.7V309.8H175.92V306.7H183.36ZM174.5 311.08H184.8V305.44H175.92V303.54H184V298.34H179.36C179.62 297.78 179.9 297.12 180.14 296.48L178.46 296.2C178.34 296.82 178.06 297.64 177.82 298.34H174.5V311.08ZM172.84 299.84C172.14 298.88 170.64 297.6 169.36 296.76L168.26 297.66C169.56 298.54 171.04 299.86 171.66 300.82L172.84 299.84ZM172.28 304.1H168.04V305.5H170.82V310.56C169.82 311.4 168.7 312.24 167.78 312.84L168.58 314.34C169.64 313.48 170.64 312.62 171.6 311.78C172.88 313.32 174.66 314.04 177.26 314.14C179.46 314.22 183.56 314.18 185.74 314.1C185.8 313.64 186.06 312.94 186.22 312.58C183.88 312.74 179.44 312.8 177.26 312.72C174.96 312.62 173.22 311.94 172.28 310.48V304.1ZM206.36 303.02C205.9 302.16 204.98 300.84 204.14 299.7C204.4 298.7 204.6 297.62 204.72 296.46L203.5 296.34C203.24 299.12 202.58 301.48 201.14 302.96C201.4 303.16 201.88 303.6 202.04 303.84C202.74 303.08 203.28 302.14 203.7 301.06C204.4 302.06 205.08 303.16 205.44 303.92L206.36 303.02ZM201.9 301.12C201.72 300.88 201.02 300.08 200.56 299.56C200.8 298.6 200.98 297.56 201.12 296.5L199.88 296.34C199.54 299.16 198.88 301.68 197.56 303.34C197.84 303.54 198.32 303.96 198.5 304.2C199.22 303.28 199.78 302.12 200.2 300.8C200.58 301.34 200.98 301.98 201.16 302.36L201.9 301.12ZM196.5 296.3C196 297.78 194.92 299.64 193.78 300.86C194.04 301.08 194.42 301.52 194.6 301.78C195.86 300.46 197.06 298.44 197.78 296.68L196.5 296.3ZM189.82 298.42H192.54V301.94H189.82V298.42ZM196.68 300.78C196.14 302.58 195.12 304.8 193.92 306.4V306.12H192.02V303.24H193.76V297.12H188.64V303.24H190.82V311.3L189.7 311.6V305.1H188.58V311.86L187.78 312.06L188.06 313.42C189.84 312.92 192.16 312.3 194.4 311.64L194.24 310.4L192.02 310.98V307.42H193.92V307.12C194.08 307.34 194.26 307.56 194.36 307.72C194.78 307.22 195.2 306.64 195.58 306.02V314.5H196.82V303.74C197.24 302.86 197.6 301.98 197.9 301.14L196.68 300.78ZM202.86 308.62H205.68V307.36H202.86V303.92H201.56V312.2C200.84 311.58 200.28 310.52 199.92 308.72C200.04 307.62 200.1 306.56 200.12 305.64L198.84 305.58C198.82 308.02 198.64 311.78 197.06 313.78C197.34 313.94 197.76 314.32 197.98 314.54C198.7 313.64 199.18 312.44 199.5 311.12C200.48 313.68 201.98 314.26 203.94 314.26H205.9C205.96 313.9 206.14 313.3 206.3 312.96C205.84 312.98 204.38 312.98 204.06 312.98C203.64 312.98 203.24 312.94 202.86 312.86V308.62Z" fill="black"/>
<path d="M32 358.02L30.08 358.58V354.64H32.02V353.28H30.08V349.28H28.64V353.28H25.96V354.64H28.64V359C27.5 359.34 26.44 359.64 25.62 359.84L25.96 361.28L28.64 360.46V365.72C28.64 366.02 28.56 366.1 28.3 366.1C28.04 366.12 27.22 366.12 26.32 366.08C26.52 366.48 26.7 367.14 26.76 367.5C28.08 367.52 28.88 367.48 29.4 367.24C29.9 366.98 30.08 366.56 30.08 365.72V360.02L32.18 359.36L32 358.02ZM35.1 362.34H38.36V365.12H35.1V362.34ZM38.36 357.04H35.1V354.36H38.36V357.04ZM38.36 361.04H35.1V358.32H38.36V361.04ZM44.14 365.12H39.72V362.34H43.32V361.04H39.72V358.32H43.32V357.04H39.72V354.36H43.8V353.02H39.82C40.3 352 40.84 350.78 41.28 349.68L39.72 349.32C39.42 350.4 38.88 351.88 38.36 353.02H35.3C35.8 351.92 36.22 350.78 36.58 349.6L35.16 349.24C34.34 352.12 32.94 354.86 31.2 356.62C31.5 356.92 32 357.56 32.2 357.86C32.72 357.3 33.22 356.66 33.68 355.96V367.5H35.1V366.48H44.14V365.12ZM48.94 367.52C49.9 366.78 50.54 365.56 50.94 364.46L49.84 364.02C49.48 365.04 48.78 366.2 47.9 366.84L48.94 367.52ZM52.2 364.3C52.46 365.24 52.64 366.46 52.62 367.26L53.84 367.06C53.82 366.3 53.62 365.08 53.34 364.14L52.2 364.3ZM54.8 364.24C55.3 365.04 55.76 366.14 55.94 366.88L57.08 366.46C56.88 365.76 56.4 364.68 55.88 363.9L54.8 364.24ZM57.5 364C58.08 364.58 58.7 365.38 58.98 365.94L60 365.38C59.7 364.86 59.08 364.1 58.46 363.54L57.5 364ZM56.54 355.78H53.3V354.68H56.54V355.78ZM61.24 356.72V358.22H57.84V356.72H61.24ZM53.3 356.72H56.54V358.22H53.3V356.72ZM52.02 358.22H48.78V356.72H52.02V358.22ZM52.02 354.68V355.78H48.78V354.68H52.02ZM55.6 352.3H54.22V353.6H47.4V358.24C47.4 360.72 47.24 364.2 45.68 366.7C46.04 366.84 46.64 367.24 46.88 367.44C48.36 365.12 48.7 361.78 48.76 359.18H50.82C50.5 360.68 50.08 362.46 49.7 363.6L51.06 363.8L51.18 363.4H61.88C61.72 365.26 61.54 366.02 61.32 366.28C61.18 366.4 61.02 366.42 60.74 366.42C60.46 366.42 59.82 366.42 59.12 366.34C59.3 366.66 59.4 367.16 59.42 367.48C60.22 367.54 60.96 367.54 61.36 367.5C61.82 367.46 62.16 367.36 62.44 367.08C62.86 366.62 63.08 365.54 63.3 362.88C63.32 362.7 63.34 362.34 63.34 362.34H51.48C51.56 361.98 51.66 361.62 51.74 361.24H63.5V360.18H52L52.24 359.18H62.68V355.78H57.84V354.68H63.5V353.6H55.6V352.3ZM59.18 350.62V349.26H57.7V350.62H52.32V349.26H50.86V350.62H46.24V351.82H50.86V353.08H52.32V351.82H57.7V353.08H59.18V351.82H63.84V350.62H59.18ZM71.22 351.58C70.46 350.86 68.88 349.98 67.64 349.44L66.82 350.52C68.08 351.1 69.62 352.06 70.36 352.76L71.22 351.58ZM70.3 356.78C69.5 356.12 67.9 355.28 66.64 354.78L65.82 355.9C67.12 356.44 68.68 357.34 69.46 358.02L70.3 356.78ZM67.68 367.24C68.78 365.38 70.1 362.88 71.08 360.76L69.96 359.84C68.88 362.12 67.42 364.74 66.42 366.3L67.68 367.24ZM74.44 362.84V361.34H81.22V362.84H74.44ZM81.22 358.82V360.28H74.44V358.82H81.22ZM82.62 357.66H73.06V367.48H74.44V363.92H81.22V365.84C81.22 366.1 81.12 366.18 80.84 366.18C80.56 366.2 79.62 366.2 78.6 366.18C78.8 366.52 79 367.08 79.04 367.44C80.46 367.44 81.36 367.42 81.92 367.22C82.46 367.02 82.62 366.62 82.62 365.86V357.66ZM78.3 355.4V354H83.02V352.92H78.3V351.66H83.5V350.56H78.3V349.26H76.82V350.56H71.88V351.66H76.82V352.92H72.36V354H76.82V355.4H71.22V356.54H84.16V355.4H78.3ZM101.06 352.92H97.2V351.04H101.06V352.92ZM102.44 350.04H95.84V353.92H102.44V350.04ZM92.84 352.92H89.02V351.04H92.84V352.92ZM94.24 350.04H87.68V353.92H94.24V350.04ZM89.66 360.68V358.96H94.18V360.68H89.66ZM89.66 356.12H94.18V357.82H89.66V356.12ZM100.46 357.82H95.7V356.12H100.46V357.82ZM100.46 360.68H95.7V358.96H100.46V360.68ZM103.82 363.4H95.7V361.88H101.98V354.92H88.22V361.88H94.18V363.4H86.22V364.7H94.18V367.52H95.7V364.7H103.82V363.4Z" fill="black"/>
<path d="M163.56 352.6V355.3H156.92V352.6H163.56ZM164.36 359.7V362.8H156.92V359.7H164.36ZM155.5 364.08H165.8V358.44H156.92V356.54H165V351.34H160.36C160.62 350.78 160.9 350.12 161.14 349.48L159.46 349.2C159.34 349.82 159.06 350.64 158.82 351.34H155.5V364.08ZM153.84 352.84C153.14 351.88 151.64 350.6 150.36 349.76L149.26 350.66C150.56 351.54 152.04 352.86 152.66 353.82L153.84 352.84ZM153.28 357.1H149.04V358.5H151.82V363.56C150.82 364.4 149.7 365.24 148.78 365.84L149.58 367.34C150.64 366.48 151.64 365.62 152.6 364.78C153.88 366.32 155.66 367.04 158.26 367.14C160.46 367.22 164.56 367.18 166.74 367.1C166.8 366.64 167.06 365.94 167.22 365.58C164.88 365.74 160.44 365.8 158.26 365.72C155.96 365.62 154.22 364.94 153.28 363.48V357.1ZM187.36 356.02C186.9 355.16 185.98 353.84 185.14 352.7C185.4 351.7 185.6 350.62 185.72 349.46L184.5 349.34C184.24 352.12 183.58 354.48 182.14 355.96C182.4 356.16 182.88 356.6 183.04 356.84C183.74 356.08 184.28 355.14 184.7 354.06C185.4 355.06 186.08 356.16 186.44 356.92L187.36 356.02ZM182.9 354.12C182.72 353.88 182.02 353.08 181.56 352.56C181.8 351.6 181.98 350.56 182.12 349.5L180.88 349.34C180.54 352.16 179.88 354.68 178.56 356.34C178.84 356.54 179.32 356.96 179.5 357.2C180.22 356.28 180.78 355.12 181.2 353.8C181.58 354.34 181.98 354.98 182.16 355.36L182.9 354.12ZM177.5 349.3C177 350.78 175.92 352.64 174.78 353.86C175.04 354.08 175.42 354.52 175.6 354.78C176.86 353.46 178.06 351.44 178.78 349.68L177.5 349.3ZM170.82 351.42H173.54V354.94H170.82V351.42ZM177.68 353.78C177.14 355.58 176.12 357.8 174.92 359.4V359.12H173.02V356.24H174.76V350.12H169.64V356.24H171.82V364.3L170.7 364.6V358.1H169.58V364.86L168.78 365.06L169.06 366.42C170.84 365.92 173.16 365.3 175.4 364.64L175.24 363.4L173.02 363.98V360.42H174.92V360.12C175.08 360.34 175.26 360.56 175.36 360.72C175.78 360.22 176.2 359.64 176.58 359.02V367.5H177.82V356.74C178.24 355.86 178.6 354.98 178.9 354.14L177.68 353.78ZM183.86 361.62H186.68V360.36H183.86V356.92H182.56V365.2C181.84 364.58 181.28 363.52 180.92 361.72C181.04 360.62 181.1 359.56 181.12 358.64L179.84 358.58C179.82 361.02 179.64 364.78 178.06 366.78C178.34 366.94 178.76 367.32 178.98 367.54C179.7 366.64 180.18 365.44 180.5 364.12C181.48 366.68 182.98 367.26 184.94 367.26H186.9C186.96 366.9 187.14 366.3 187.3 365.96C186.84 365.98 185.38 365.98 185.06 365.98C184.64 365.98 184.24 365.94 183.86 365.86V361.62ZM192.6 352.18C193.02 353 193.4 353.98 193.54 354.6L194.8 354.12C194.66 353.6 194.38 352.86 194.02 352.18H197.72V351.02H192.48C192.72 350.54 192.94 350.04 193.12 349.54L191.72 349.18C191.1 350.92 190.02 352.66 188.8 353.82C189.16 354.02 189.74 354.42 190.02 354.64C190.64 353.98 191.28 353.12 191.84 352.18H192.6ZM196.08 356.2V357.74H191.84V356.2H196.08ZM191.84 360.46V358.86H196.08V360.46H191.84ZM194.24 362.62C194.74 363.16 195.22 363.78 195.66 364.42C194.34 364.6 193.04 364.8 191.84 364.98V361.64H197.48V355.02H190.46V365.16C189.9 365.24 189.38 365.3 188.92 365.36L189.14 366.72C191.1 366.42 193.78 366 196.42 365.56C196.72 366.08 196.96 366.56 197.14 366.98L198.38 366.34C197.84 365.12 196.62 363.36 195.4 362.06L194.24 362.62ZM206.2 355H199.16V367.42H200.54V356.36H204.78V363.42C204.78 363.7 204.68 363.8 204.36 363.8C204.06 363.82 202.98 363.82 201.78 363.78C202 364.18 202.2 364.76 202.26 365.18C203.82 365.18 204.82 365.16 205.42 364.92C206.04 364.68 206.2 364.26 206.2 363.44V355ZM200.28 351.02C200.54 350.54 200.76 350.04 200.96 349.54L199.54 349.18C198.9 350.98 197.68 352.64 196.3 353.74C196.64 353.94 197.24 354.36 197.5 354.6C198.24 353.96 198.96 353.12 199.58 352.18H200.98C201.6 353 202.24 354.02 202.48 354.7L203.78 354.2C203.54 353.62 203.08 352.88 202.56 352.18H206.9V351.02H200.28ZM212.68 364.6V361.32H223.14V364.6H212.68ZM223.14 356.62V359.9H212.68V356.62H223.14ZM223.14 351.96V355.2H212.68V351.96H223.14ZM211.22 350.52V367.42H212.68V366.06H223.14V367.42H224.68V350.52H211.22Z" fill="black"/>
<path d="M291.22 363.64C291.22 363.78 291.22 363.9 291.2 364.04H289.32V362.18H288.3V364.98H290.96C290.66 365.58 290.02 366.12 288.72 366.52C288.98 366.72 289.32 367.14 289.46 367.38C291.92 366.52 292.3 365.16 292.3 363.66V361.88H291.22V363.64ZM286.22 353.68H290.68V355.14H286.22V353.68ZM290.68 351.2V352.68H286.22V351.2H290.68ZM291.02 359.66C291.2 359.9 291.38 360.18 291.54 360.46L289.9 360.54C290.76 359.74 291.68 358.72 292.44 357.82L291.56 357.42C291.22 357.9 290.76 358.48 290.26 359.06C290.06 358.82 289.82 358.54 289.54 358.3C290.02 357.78 290.58 357.08 291.08 356.44L290.56 356.22H292.08V350.12H284.8V367.54H286.22V356.22H290.02C289.74 356.68 289.32 357.28 288.94 357.76C288.74 357.6 288.56 357.46 288.38 357.34L287.76 357.94C288.46 358.42 289.2 359.16 289.64 359.74C289.34 360.06 289.06 360.34 288.78 360.6L287.52 360.66L287.64 361.6C288.9 361.52 290.38 361.44 291.96 361.32C292.06 361.52 292.12 361.72 292.16 361.88L293 361.54C292.84 360.94 292.36 360.06 291.82 359.4L291.02 359.66ZM297.64 364.98V362.18H296.62V364.04H294.68V361.88H293.58V367.16H294.68V364.98H297.64ZM295.28 355.14V353.68H299.88V355.14H295.28ZM299.88 351.2V352.68H295.28V351.2H299.88ZM301.32 350.12H293.86V356.22H294.94C294.64 356.7 294.22 357.28 293.84 357.78C293.64 357.62 293.44 357.48 293.24 357.34L292.6 357.9C293.3 358.42 294.06 359.14 294.5 359.74C294.18 360.06 293.86 360.36 293.56 360.62L292.84 360.66L293.06 361.6C294.36 361.5 295.88 361.42 297.42 361.3C297.54 361.54 297.62 361.76 297.68 361.96L298.54 361.62C298.36 360.96 297.78 359.98 297.22 359.28L296.38 359.56C296.58 359.84 296.8 360.14 296.98 360.46C296.18 360.5 295.44 360.52 294.74 360.56C295.64 359.76 296.62 358.74 297.4 357.88L296.5 357.48C296.16 357.94 295.68 358.52 295.16 359.06C294.96 358.82 294.72 358.56 294.46 358.32C294.96 357.78 295.54 357.08 296.06 356.4L295.64 356.22H299.88V365.66C299.88 365.92 299.8 366.02 299.54 366.02C299.28 366.04 298.42 366.04 297.54 366C297.76 366.38 297.94 367.08 298.02 367.48C299.26 367.48 300.1 367.44 300.62 367.2C301.16 366.94 301.32 366.48 301.32 365.66V350.12ZM307.52 356.64C307.54 355.74 307.58 354.82 307.58 353.9H312.42V352.52H308.94V349.3H307.48V352.52H303.96V353.9H306.12C306.06 359 305.84 363.86 303.68 366.54C304.04 366.8 304.56 367.28 304.78 367.6C306.58 365.34 307.2 361.9 307.44 358H310C309.88 363.52 309.74 365.48 309.4 365.94C309.24 366.16 309.08 366.22 308.78 366.2C308.48 366.2 307.72 366.2 306.9 366.14C307.14 366.5 307.28 367.08 307.3 367.48C308.14 367.52 308.98 367.52 309.46 367.48C309.98 367.42 310.34 367.28 310.64 366.84C311.16 366.16 311.3 363.92 311.44 357.34C311.46 357.12 311.46 356.64 311.46 356.64H307.52ZM313.12 363.24C315.54 364.36 318.46 366.18 319.84 367.52L320.8 366.24C319.36 364.9 316.42 363.16 314.02 362.1L313.12 363.24ZM319.4 359.9C318.66 358.98 317.04 357.74 315.68 356.92L314.72 357.86C316.08 358.72 317.66 360.02 318.38 360.94L319.4 359.9ZM316.06 349.28C315.32 351.98 313.56 354.98 311.56 356.54C311.84 356.9 312.18 357.5 312.34 357.9C314.36 356.24 316.06 353.4 316.88 350.98C317.82 353.5 319.56 356.24 321.56 357.86C321.76 357.42 322.08 356.82 322.34 356.44C320.44 355.06 318.6 352.2 317.56 349.28H316.06ZM341.36 353.12C340.72 352.18 339.32 350.78 338.18 349.8L337.04 350.58C338.2 351.6 339.56 353.04 340.16 353.98L341.36 353.12ZM339.58 357.48C338.9 358.76 338.02 359.98 336.96 361.12C336.62 359.8 336.34 358.26 336.14 356.56H341.86V355.14H335.98C335.82 353.36 335.74 351.44 335.74 349.44H334.22C334.24 351.4 334.32 353.32 334.5 355.14H329.92V351.66C331.14 351.4 332.3 351.08 333.26 350.74L332.2 349.52C330.32 350.22 327.1 350.9 324.3 351.32C324.5 351.68 324.7 352.2 324.78 352.56C325.96 352.4 327.22 352.2 328.46 351.96V355.14H324.18V356.56H328.46V360.06C326.72 360.42 325.1 360.76 323.9 360.96L324.32 362.46C325.52 362.2 326.96 361.86 328.46 361.54V365.6C328.46 365.96 328.34 366.06 327.98 366.06C327.64 366.08 326.46 366.1 325.18 366.04C325.4 366.46 325.66 367.14 325.74 367.54C327.36 367.54 328.44 367.5 329.06 367.26C329.68 367.02 329.92 366.58 329.92 365.62V361.18C331.14 360.9 332.38 360.62 333.6 360.32L333.5 358.98C332.32 359.24 331.1 359.5 329.92 359.76V356.56H334.62C334.88 358.72 335.26 360.7 335.74 362.36C334.32 363.68 332.68 364.78 331 365.6C331.38 365.92 331.8 366.42 332.02 366.78C333.52 366 334.94 365 336.24 363.84C337.16 366.18 338.36 367.58 339.94 367.58C341.44 367.58 341.96 366.62 342.24 363.32C341.82 363.18 341.3 362.84 340.98 362.52C340.86 365.08 340.62 366.1 340.08 366.1C339.08 366.1 338.18 364.82 337.42 362.72C338.82 361.3 340 359.72 340.9 358.02L339.58 357.48Z" fill="black"/>
<line y1="380.5" x2="375" y2="380.5" stroke="black" stroke-opacity="0.2"/>
<line y1="378.5" x2="125" y2="378.5" stroke="black" stroke-opacity="0.6" stroke-width="3"/>
<rect x="24" y="393" width="40" height="40" fill="#C4C4C4"/>
<rect x="64" y="433" width="40" height="40" fill="#C4C4C4"/>
<rect x="64" y="393" width="40" height="40" fill="#E6E6E6"/>
<rect x="64" y="393" width="40" height="40" fill="#E6E6E6"/>
<rect x="64" y="393" width="40" height="40" fill="#E6E6E6"/>
<rect x="64" y="393" width="40" height="40" fill="#E6E6E6"/>
<rect x="24" y="433" width="40" height="40" fill="#E6E6E6"/>
<rect x="24" y="433" width="40" height="40" fill="#E6E6E6"/>
<rect x="24" y="433" width="40" height="40" fill="#E6E6E6"/>
<rect x="24" y="433" width="40" height="40" fill="#E6E6E6"/>
<path d="M129.248 396.096C128.608 395.568 127.328 394.896 126.352 394.528L125.312 395.936C126.32 396.368 127.568 397.104 128.144 397.664L129.248 396.096ZM128.464 400.352C127.824 399.808 126.496 399.184 125.504 398.832L124.496 400.256C125.504 400.688 126.768 401.392 127.376 401.936L128.464 400.352ZM126.608 409.168C127.504 407.6 128.448 405.76 129.248 404.064L127.808 402.88C126.896 404.752 125.744 406.768 124.944 407.984L126.608 409.168ZM132.144 405.216V404.448H136.496V405.216H132.144ZM136.496 402.528V403.232H132.144V402.528H136.496ZM138.304 401.136H130.384V409.36H132.144V406.48H136.496V407.472C136.496 407.664 136.416 407.712 136.208 407.712C136 407.728 135.248 407.728 134.592 407.712C134.8 408.144 135.04 408.848 135.104 409.328C136.208 409.328 137.008 409.312 137.568 409.04C138.16 408.784 138.304 408.336 138.304 407.488V401.136ZM135.088 399.184V398.528H138.544V397.248H135.088V396.64H138.976V395.28H135.088V394.448H133.2V395.28H129.52V396.64H133.2V397.248H129.952V398.528H133.2V399.184H129.024V400.544H139.488V399.184H135.088ZM152.48 397.136H150.192V396.208H152.48V397.136ZM154.256 395.072H148.512V398.272H154.256V395.072ZM145.76 397.136H143.52V396.208H145.76V397.136ZM147.536 395.072H141.824V398.272H147.536V395.072ZM144.256 403.44V402.576H146.96V403.44H144.256ZM144.256 400.368H146.96V401.216H144.256V400.368ZM151.792 401.216H148.912V400.368H151.792V401.216ZM151.792 403.44H148.912V402.576H151.792V403.44ZM155.136 405.728H148.912V404.896H153.744V398.896H142.4V404.896H146.96V405.728H140.88V407.36H146.96V409.392H148.912V407.36H155.136V405.728ZM162.928 407.04V403.92H168.352V407.04H162.928ZM165.744 397.68C165.168 398.736 164.416 399.728 163.52 400.608C162.848 399.92 161.824 399.12 160.976 398.496C161.248 398.224 161.504 397.952 161.76 397.68H165.744ZM170.336 402.192H164.624C166.224 400.672 167.52 398.8 168.336 396.608L167.024 395.92L166.704 396.016H163.072C163.36 395.6 163.632 395.184 163.872 394.768L161.728 394.368C160.8 396.112 159.04 398.064 156.416 399.456C156.848 399.776 157.472 400.48 157.76 400.944C158.4 400.56 158.992 400.16 159.536 399.728C160.384 400.4 161.344 401.232 161.984 401.936C160.32 403.168 158.384 404.128 156.384 404.704C156.784 405.088 157.264 405.872 157.488 406.4C158.704 405.984 159.904 405.472 161.024 404.832V409.376H162.928V408.752H168.352V409.392H170.336V402.192ZM178.432 403.104C178.144 402.784 176.912 401.536 176.48 401.168V400.752H178.08V399.312C178.496 399.52 178.976 399.808 179.216 400C179.792 399.216 180.352 398.08 180.752 396.864C182.72 396.672 184.896 396.352 186.56 395.904L185.216 394.576C184.064 394.928 182.272 395.248 180.528 395.456L179.312 395.2C179.008 396.624 178.432 398.064 177.664 399.024H176.48V396.672C177.152 396.496 177.776 396.288 178.336 396.064L177.008 394.72C175.92 395.232 174.112 395.696 172.464 395.984C172.672 396.336 172.896 396.976 172.976 397.36C173.52 397.28 174.096 397.2 174.672 397.088V399.024H172.608V400.752H174.368C173.904 402.288 173.136 404.032 172.352 405.072C172.64 405.552 173.056 406.336 173.216 406.88C173.744 406.128 174.24 405.056 174.672 403.904V409.392H176.48V403.088C176.832 403.632 177.184 404.192 177.376 404.56L178.432 403.104ZM184.448 396.88C185.024 397.776 185.616 399.024 185.856 399.824L187.488 399.12C187.216 398.304 186.624 397.152 186 396.256L184.448 396.88ZM183.584 404.896V403.936H185.008V404.896H183.584ZM180.544 403.936H181.872V404.896H180.544V403.936ZM181.872 401.632V402.544H180.544V401.632H181.872ZM185.008 401.632V402.544H183.584V401.632H185.008ZM187.552 404.896H186.768V400.144H183.584V399.232H182.432L183.792 398.848C183.712 398.256 183.424 397.392 183.088 396.752L181.52 397.168C181.808 397.792 182.064 398.656 182.128 399.232H181.872V400.144H178.816V404.896H177.824V406.432H178.816V409.36H180.544V406.432H185.008V407.472C185.008 407.664 184.928 407.712 184.72 407.728C184.512 407.728 183.824 407.744 183.2 407.712C183.44 408.144 183.712 408.88 183.792 409.36C184.8 409.36 185.536 409.344 186.064 409.056C186.608 408.784 186.768 408.32 186.768 407.504V406.432H187.552V404.896Z" fill="black"/>
<path d="M130.58 423.266V424.064H126.912V423.266H130.58ZM126.898 425.562C126.912 425.282 126.912 425.016 126.912 424.764V424.75H130.58V425.562H126.898ZM130.804 428.012V429.664H127.584V428.012H130.804ZM131.518 426.346V422.482H125.988V424.75C125.988 426.346 125.834 428.516 124.518 430.112C124.714 430.224 125.092 430.56 125.218 430.756C126.002 429.79 126.436 428.586 126.674 427.396V431.036H127.584V430.462H130.804V430.938H131.728V427.214H126.702C126.758 426.92 126.8 426.626 126.828 426.346H131.518ZM128.186 418.422C127.5 419.556 126.254 420.97 124.518 422.006C124.728 422.146 125.05 422.496 125.176 422.706C125.946 422.216 126.632 421.67 127.206 421.124V421.712H130.608V420.956H127.374C127.948 420.396 128.424 419.822 128.816 419.318C129.782 420.074 130.916 421.166 131.518 421.838L132.204 421.054C131.504 420.326 130.174 419.206 129.138 418.422H128.186ZM133.646 419.962H132.666V427.662H133.646V419.962ZM135.788 418.562V429.706C135.788 429.958 135.676 430.042 135.438 430.042C135.172 430.056 134.346 430.07 133.394 430.028C133.548 430.322 133.716 430.798 133.758 431.064C135.004 431.078 135.746 431.05 136.18 430.882C136.614 430.7 136.796 430.392 136.796 429.692V418.562H135.788ZM142.018 418.338C141.234 420.466 139.946 422.552 138.56 423.896C138.756 424.12 139.064 424.694 139.162 424.932C139.638 424.442 140.114 423.882 140.548 423.266V431.05H141.584V421.656C142.13 420.69 142.634 419.668 143.012 418.66L142.018 418.338ZM151.412 421.614V420.62H145.588C145.868 420.004 146.134 419.374 146.358 418.73L145.364 418.464C144.678 420.508 143.544 422.524 142.284 423.826C142.522 423.994 142.928 424.344 143.096 424.526C143.796 423.742 144.482 422.734 145.084 421.614H146.05V431.064H147.1V427.676H151.286V426.696H147.1V424.582H151.09V423.616H147.1V421.614H151.412ZM158.622 422.762V420.97H161.73C161.072 421.6 160.358 422.202 159.602 422.762H158.622ZM162.416 427.424H156.746V426.038H162.416V427.424ZM156.746 429.706V428.25H162.416V429.706H156.746ZM165.188 423.7V422.762H161.156C162.43 421.712 163.578 420.536 164.558 419.248L163.676 418.772C163.2 419.416 162.668 420.032 162.08 420.62V420.046H158.622V418.296H157.6V420.046H154.03V420.97H157.6V422.762H152.812V423.7H158.258C156.494 424.834 154.534 425.758 152.504 426.472C152.7 426.682 153.036 427.102 153.162 427.326C154.016 427.004 154.884 426.626 155.724 426.22V431.064H156.746V430.616H162.416V431.008H163.48V425.156H157.698C158.468 424.708 159.224 424.218 159.952 423.7H165.188ZM175.73 424.68C175.73 427.41 176.836 429.636 178.516 431.344L179.356 430.91C177.746 429.244 176.752 427.172 176.752 424.68C176.752 422.188 177.746 420.116 179.356 418.45L178.516 418.016C176.836 419.724 175.73 421.95 175.73 424.68ZM181.288 426.22C181.134 427.438 180.868 428.698 180.434 429.552C180.63 429.622 181.05 429.804 181.204 429.93C181.652 429.034 181.974 427.69 182.17 426.374L181.288 426.22ZM184.158 426.416C184.508 427.214 184.788 428.278 184.858 428.95L185.67 428.712C185.586 428.026 185.278 426.99 184.928 426.192L184.158 426.416ZM188.946 428.082C188.694 428.082 188.638 427.97 188.638 427.606V425.618H191.606V424.792H189.772V423.364H191.522V422.538H190.458C190.738 422.006 191.074 421.25 191.382 420.578L190.542 420.298C190.388 420.9 190.066 421.782 189.8 422.342L190.318 422.538H188.12L188.764 422.3C188.68 421.796 188.414 420.998 188.092 420.396L187.42 420.634C187.714 421.222 187.966 422.006 188.05 422.538H187.266V423.364H188.876V424.792H187.154V425.618H187.742V427.592C187.742 428.586 187.98 428.908 188.946 428.908H190.584C190.906 428.908 191.228 428.908 191.424 428.866C191.396 428.642 191.354 428.25 191.34 428.026C191.144 428.068 190.766 428.082 190.57 428.082H188.946ZM193.02 418.954H185.81V425.296C185.558 424.54 185.068 423.532 184.55 422.748L183.794 423.056C184.018 423.42 184.228 423.826 184.424 424.232L182.408 424.33C183.36 423.14 184.41 421.558 185.208 420.284L184.34 419.878C183.948 420.634 183.416 421.544 182.842 422.412C182.632 422.132 182.38 421.824 182.086 421.516C182.618 420.732 183.22 419.598 183.696 418.632L182.786 418.296C182.492 419.066 182.002 420.13 181.54 420.928C181.4 420.788 181.26 420.662 181.12 420.536L180.56 421.194C181.19 421.796 181.89 422.594 182.296 423.224C182.002 423.644 181.708 424.036 181.428 424.386L180.462 424.428L180.56 425.366L182.758 425.226V431.064H183.682V425.17L184.788 425.1C184.928 425.422 185.026 425.73 185.082 425.996L185.81 425.66V431.092H186.734V419.878H192.068V429.902C192.068 430.098 192.012 430.154 191.83 430.168C191.634 430.168 191.018 430.182 190.374 430.154C190.514 430.406 190.654 430.826 190.682 431.064C191.578 431.078 192.166 431.05 192.544 430.91C192.894 430.742 193.02 430.462 193.02 429.902V418.954ZM195.554 426.206C195.358 427.424 195.036 428.684 194.532 429.524C194.77 429.608 195.204 429.832 195.4 429.972C195.89 429.076 196.296 427.718 196.52 426.388L195.554 426.206ZM200.02 425.03C200.188 425.352 200.342 425.646 200.44 425.898L201.252 425.45C200.93 424.694 200.16 423.49 199.46 422.622L198.704 423.014C198.97 423.35 199.236 423.742 199.488 424.134C198.564 424.19 197.654 424.232 196.814 424.274C197.85 423.098 199.012 421.558 199.894 420.27L198.942 419.808C198.508 420.578 197.906 421.488 197.262 422.356C197.01 422.048 196.674 421.698 196.31 421.362C196.898 420.606 197.584 419.556 198.116 418.66L197.15 418.268C196.8 419.038 196.212 420.046 195.694 420.816C195.512 420.662 195.33 420.522 195.148 420.382L194.616 421.068C195.344 421.656 196.184 422.454 196.702 423.112C196.352 423.546 196.002 423.966 195.68 424.33L194.56 424.372L194.686 425.366C195.428 425.324 196.324 425.268 197.276 425.198V431.064H198.298V425.142L200.02 425.03ZM200.944 428.922C200.762 428.166 200.328 427.004 199.866 426.122L198.998 426.416C199.432 427.312 199.894 428.488 200.034 429.272L200.944 428.922ZM204.276 429.566V420.76H207.174V419.766H200.44V420.76H203.212V429.566H199.88V430.56H207.398V429.566H204.276ZM212.27 424.68C212.27 421.95 211.164 419.724 209.484 418.016L208.644 418.45C210.254 420.116 211.248 422.188 211.248 424.68C211.248 427.172 210.254 429.244 208.644 430.91L209.484 431.344C211.164 429.636 212.27 427.41 212.27 424.68Z" fill="black"/>
<rect x="124" y="444" width="226" height="3" fill="#C4C4C4"/>
<rect x="124" y="452" width="226" height="3" fill="#C4C4C4"/>
<rect x="124" y="460" width="113" height="3" fill="#C4C4C4"/>
<rect x="24" y="485" width="40" height="40" fill="#C4C4C4"/>
<rect x="64" y="525" width="40" height="40" fill="#C4C4C4"/>
<rect x="64" y="485" width="40" height="40" fill="#E6E6E6"/>
<rect x="64" y="485" width="40" height="40" fill="#E6E6E6"/>
<rect x="64" y="485" width="40" height="40" fill="#E6E6E6"/>
<rect x="64" y="485" width="40" height="40" fill="#E6E6E6"/>
<rect x="24" y="525" width="40" height="40" fill="#E6E6E6"/>
<rect x="24" y="525" width="40" height="40" fill="#E6E6E6"/>
<rect x="24" y="525" width="40" height="40" fill="#E6E6E6"/>
<rect x="24" y="525" width="40" height="40" fill="#E6E6E6"/>
<path d="M129.248 488.096C128.608 487.568 127.328 486.896 126.352 486.528L125.312 487.936C126.32 488.368 127.568 489.104 128.144 489.664L129.248 488.096ZM128.464 492.352C127.824 491.808 126.496 491.184 125.504 490.832L124.496 492.256C125.504 492.688 126.768 493.392 127.376 493.936L128.464 492.352ZM126.608 501.168C127.504 499.6 128.448 497.76 129.248 496.064L127.808 494.88C126.896 496.752 125.744 498.768 124.944 499.984L126.608 501.168ZM132.144 497.216V496.448H136.496V497.216H132.144ZM136.496 494.528V495.232H132.144V494.528H136.496ZM138.304 493.136H130.384V501.36H132.144V498.48H136.496V499.472C136.496 499.664 136.416 499.712 136.208 499.712C136 499.728 135.248 499.728 134.592 499.712C134.8 500.144 135.04 500.848 135.104 501.328C136.208 501.328 137.008 501.312 137.568 501.04C138.16 500.784 138.304 500.336 138.304 499.488V493.136ZM135.088 491.184V490.528H138.544V489.248H135.088V488.64H138.976V487.28H135.088V486.448H133.2V487.28H129.52V488.64H133.2V489.248H129.952V490.528H133.2V491.184H129.024V492.544H139.488V491.184H135.088ZM152.48 489.136H150.192V488.208H152.48V489.136ZM154.256 487.072H148.512V490.272H154.256V487.072ZM145.76 489.136H143.52V488.208H145.76V489.136ZM147.536 487.072H141.824V490.272H147.536V487.072ZM144.256 495.44V494.576H146.96V495.44H144.256ZM144.256 492.368H146.96V493.216H144.256V492.368ZM151.792 493.216H148.912V492.368H151.792V493.216ZM151.792 495.44H148.912V494.576H151.792V495.44ZM155.136 497.728H148.912V496.896H153.744V490.896H142.4V496.896H146.96V497.728H140.88V499.36H146.96V501.392H148.912V499.36H155.136V497.728ZM162.928 499.04V495.92H168.352V499.04H162.928ZM165.744 489.68C165.168 490.736 164.416 491.728 163.52 492.608C162.848 491.92 161.824 491.12 160.976 490.496C161.248 490.224 161.504 489.952 161.76 489.68H165.744ZM170.336 494.192H164.624C166.224 492.672 167.52 490.8 168.336 488.608L167.024 487.92L166.704 488.016H163.072C163.36 487.6 163.632 487.184 163.872 486.768L161.728 486.368C160.8 488.112 159.04 490.064 156.416 491.456C156.848 491.776 157.472 492.48 157.76 492.944C158.4 492.56 158.992 492.16 159.536 491.728C160.384 492.4 161.344 493.232 161.984 493.936C160.32 495.168 158.384 496.128 156.384 496.704C156.784 497.088 157.264 497.872 157.488 498.4C158.704 497.984 159.904 497.472 161.024 496.832V501.376H162.928V500.752H168.352V501.392H170.336V494.192ZM178.432 495.104C178.144 494.784 176.912 493.536 176.48 493.168V492.752H178.08V491.312C178.496 491.52 178.976 491.808 179.216 492C179.792 491.216 180.352 490.08 180.752 488.864C182.72 488.672 184.896 488.352 186.56 487.904L185.216 486.576C184.064 486.928 182.272 487.248 180.528 487.456L179.312 487.2C179.008 488.624 178.432 490.064 177.664 491.024H176.48V488.672C177.152 488.496 177.776 488.288 178.336 488.064L177.008 486.72C175.92 487.232 174.112 487.696 172.464 487.984C172.672 488.336 172.896 488.976 172.976 489.36C173.52 489.28 174.096 489.2 174.672 489.088V491.024H172.608V492.752H174.368C173.904 494.288 173.136 496.032 172.352 497.072C172.64 497.552 173.056 498.336 173.216 498.88C173.744 498.128 174.24 497.056 174.672 495.904V501.392H176.48V495.088C176.832 495.632 177.184 496.192 177.376 496.56L178.432 495.104ZM184.448 488.88C185.024 489.776 185.616 491.024 185.856 491.824L187.488 491.12C187.216 490.304 186.624 489.152 186 488.256L184.448 488.88ZM183.584 496.896V495.936H185.008V496.896H183.584ZM180.544 495.936H181.872V496.896H180.544V495.936ZM181.872 493.632V494.544H180.544V493.632H181.872ZM185.008 493.632V494.544H183.584V493.632H185.008ZM187.552 496.896H186.768V492.144H183.584V491.232H182.432L183.792 490.848C183.712 490.256 183.424 489.392 183.088 488.752L181.52 489.168C181.808 489.792 182.064 490.656 182.128 491.232H181.872V492.144H178.816V496.896H177.824V498.432H178.816V501.36H180.544V498.432H185.008V499.472C185.008 499.664 184.928 499.712 184.72 499.728C184.512 499.728 183.824 499.744 183.2 499.712C183.44 500.144 183.712 500.88 183.792 501.36C184.8 501.36 185.536 501.344 186.064 501.056C186.608 500.784 186.768 500.32 186.768 499.504V498.432H187.552V496.896Z" fill="black"/>
<path d="M130.58 515.266V516.064H126.912V515.266H130.58ZM126.898 517.562C126.912 517.282 126.912 517.016 126.912 516.764V516.75H130.58V517.562H126.898ZM130.804 520.012V521.664H127.584V520.012H130.804ZM131.518 518.346V514.482H125.988V516.75C125.988 518.346 125.834 520.516 124.518 522.112C124.714 522.224 125.092 522.56 125.218 522.756C126.002 521.79 126.436 520.586 126.674 519.396V523.036H127.584V522.462H130.804V522.938H131.728V519.214H126.702C126.758 518.92 126.8 518.626 126.828 518.346H131.518ZM128.186 510.422C127.5 511.556 126.254 512.97 124.518 514.006C124.728 514.146 125.05 514.496 125.176 514.706C125.946 514.216 126.632 513.67 127.206 513.124V513.712H130.608V512.956H127.374C127.948 512.396 128.424 511.822 128.816 511.318C129.782 512.074 130.916 513.166 131.518 513.838L132.204 513.054C131.504 512.326 130.174 511.206 129.138 510.422H128.186ZM133.646 511.962H132.666V519.662H133.646V511.962ZM135.788 510.562V521.706C135.788 521.958 135.676 522.042 135.438 522.042C135.172 522.056 134.346 522.07 133.394 522.028C133.548 522.322 133.716 522.798 133.758 523.064C135.004 523.078 135.746 523.05 136.18 522.882C136.614 522.7 136.796 522.392 136.796 521.692V510.562H135.788ZM142.018 510.338C141.234 512.466 139.946 514.552 138.56 515.896C138.756 516.12 139.064 516.694 139.162 516.932C139.638 516.442 140.114 515.882 140.548 515.266V523.05H141.584V513.656C142.13 512.69 142.634 511.668 143.012 510.66L142.018 510.338ZM151.412 513.614V512.62H145.588C145.868 512.004 146.134 511.374 146.358 510.73L145.364 510.464C144.678 512.508 143.544 514.524 142.284 515.826C142.522 515.994 142.928 516.344 143.096 516.526C143.796 515.742 144.482 514.734 145.084 513.614H146.05V523.064H147.1V519.676H151.286V518.696H147.1V516.582H151.09V515.616H147.1V513.614H151.412ZM158.622 514.762V512.97H161.73C161.072 513.6 160.358 514.202 159.602 514.762H158.622ZM162.416 519.424H156.746V518.038H162.416V519.424ZM156.746 521.706V520.25H162.416V521.706H156.746ZM165.188 515.7V514.762H161.156C162.43 513.712 163.578 512.536 164.558 511.248L163.676 510.772C163.2 511.416 162.668 512.032 162.08 512.62V512.046H158.622V510.296H157.6V512.046H154.03V512.97H157.6V514.762H152.812V515.7H158.258C156.494 516.834 154.534 517.758 152.504 518.472C152.7 518.682 153.036 519.102 153.162 519.326C154.016 519.004 154.884 518.626 155.724 518.22V523.064H156.746V522.616H162.416V523.008H163.48V517.156H157.698C158.468 516.708 159.224 516.218 159.952 515.7H165.188ZM175.73 516.68C175.73 519.41 176.836 521.636 178.516 523.344L179.356 522.91C177.746 521.244 176.752 519.172 176.752 516.68C176.752 514.188 177.746 512.116 179.356 510.45L178.516 510.016C176.836 511.724 175.73 513.95 175.73 516.68ZM181.288 518.22C181.134 519.438 180.868 520.698 180.434 521.552C180.63 521.622 181.05 521.804 181.204 521.93C181.652 521.034 181.974 519.69 182.17 518.374L181.288 518.22ZM184.158 518.416C184.508 519.214 184.788 520.278 184.858 520.95L185.67 520.712C185.586 520.026 185.278 518.99 184.928 518.192L184.158 518.416ZM188.946 520.082C188.694 520.082 188.638 519.97 188.638 519.606V517.618H191.606V516.792H189.772V515.364H191.522V514.538H190.458C190.738 514.006 191.074 513.25 191.382 512.578L190.542 512.298C190.388 512.9 190.066 513.782 189.8 514.342L190.318 514.538H188.12L188.764 514.3C188.68 513.796 188.414 512.998 188.092 512.396L187.42 512.634C187.714 513.222 187.966 514.006 188.05 514.538H187.266V515.364H188.876V516.792H187.154V517.618H187.742V519.592C187.742 520.586 187.98 520.908 188.946 520.908H190.584C190.906 520.908 191.228 520.908 191.424 520.866C191.396 520.642 191.354 520.25 191.34 520.026C191.144 520.068 190.766 520.082 190.57 520.082H188.946ZM193.02 510.954H185.81V517.296C185.558 516.54 185.068 515.532 184.55 514.748L183.794 515.056C184.018 515.42 184.228 515.826 184.424 516.232L182.408 516.33C183.36 515.14 184.41 513.558 185.208 512.284L184.34 511.878C183.948 512.634 183.416 513.544 182.842 514.412C182.632 514.132 182.38 513.824 182.086 513.516C182.618 512.732 183.22 511.598 183.696 510.632L182.786 510.296C182.492 511.066 182.002 512.13 181.54 512.928C181.4 512.788 181.26 512.662 181.12 512.536L180.56 513.194C181.19 513.796 181.89 514.594 182.296 515.224C182.002 515.644 181.708 516.036 181.428 516.386L180.462 516.428L180.56 517.366L182.758 517.226V523.064H183.682V517.17L184.788 517.1C184.928 517.422 185.026 517.73 185.082 517.996L185.81 517.66V523.092H186.734V511.878H192.068V521.902C192.068 522.098 192.012 522.154 191.83 522.168C191.634 522.168 191.018 522.182 190.374 522.154C190.514 522.406 190.654 522.826 190.682 523.064C191.578 523.078 192.166 523.05 192.544 522.91C192.894 522.742 193.02 522.462 193.02 521.902V510.954ZM195.554 518.206C195.358 519.424 195.036 520.684 194.532 521.524C194.77 521.608 195.204 521.832 195.4 521.972C195.89 521.076 196.296 519.718 196.52 518.388L195.554 518.206ZM200.02 517.03C200.188 517.352 200.342 517.646 200.44 517.898L201.252 517.45C200.93 516.694 200.16 515.49 199.46 514.622L198.704 515.014C198.97 515.35 199.236 515.742 199.488 516.134C198.564 516.19 197.654 516.232 196.814 516.274C197.85 515.098 199.012 513.558 199.894 512.27L198.942 511.808C198.508 512.578 197.906 513.488 197.262 514.356C197.01 514.048 196.674 513.698 196.31 513.362C196.898 512.606 197.584 511.556 198.116 510.66L197.15 510.268C196.8 511.038 196.212 512.046 195.694 512.816C195.512 512.662 195.33 512.522 195.148 512.382L194.616 513.068C195.344 513.656 196.184 514.454 196.702 515.112C196.352 515.546 196.002 515.966 195.68 516.33L194.56 516.372L194.686 517.366C195.428 517.324 196.324 517.268 197.276 517.198V523.064H198.298V517.142L200.02 517.03ZM200.944 520.922C200.762 520.166 200.328 519.004 199.866 518.122L198.998 518.416C199.432 519.312 199.894 520.488 200.034 521.272L200.944 520.922ZM204.276 521.566V512.76H207.174V511.766H200.44V512.76H203.212V521.566H199.88V522.56H207.398V521.566H204.276ZM212.27 516.68C212.27 513.95 211.164 511.724 209.484 510.016L208.644 510.45C210.254 512.116 211.248 514.188 211.248 516.68C211.248 519.172 210.254 521.244 208.644 522.91L209.484 523.344C211.164 521.636 212.27 519.41 212.27 516.68Z" fill="black"/>
<rect x="124" y="536" width="226" height="3" fill="#C4C4C4"/>
<rect x="124" y="544" width="226" height="3" fill="#C4C4C4"/>
<rect x="124" y="552" width="113" height="3" fill="#C4C4C4"/>
<rect x="24" y="575" width="40" height="40" fill="#C4C4C4"/>
<rect x="64" y="615" width="40" height="40" fill="#C4C4C4"/>
<rect x="64" y="575" width="40" height="40" fill="#E6E6E6"/>
<rect x="64" y="575" width="40" height="40" fill="#E6E6E6"/>
<rect x="64" y="575" width="40" height="40" fill="#E6E6E6"/>
<rect x="64" y="575" width="40" height="40" fill="#E6E6E6"/>
<rect x="24" y="615" width="40" height="40" fill="#E6E6E6"/>
<rect x="24" y="615" width="40" height="40" fill="#E6E6E6"/>
<rect x="24" y="615" width="40" height="40" fill="#E6E6E6"/>
<rect x="24" y="615" width="40" height="40" fill="#E6E6E6"/>
<path d="M129.248 578.096C128.608 577.568 127.328 576.896 126.352 576.528L125.312 577.936C126.32 578.368 127.568 579.104 128.144 579.664L129.248 578.096ZM128.464 582.352C127.824 581.808 126.496 581.184 125.504 580.832L124.496 582.256C125.504 582.688 126.768 583.392 127.376 583.936L128.464 582.352ZM126.608 591.168C127.504 589.6 128.448 587.76 129.248 586.064L127.808 584.88C126.896 586.752 125.744 588.768 124.944 589.984L126.608 591.168ZM132.144 587.216V586.448H136.496V587.216H132.144ZM136.496 584.528V585.232H132.144V584.528H136.496ZM138.304 583.136H130.384V591.36H132.144V588.48H136.496V589.472C136.496 589.664 136.416 589.712 136.208 589.712C136 589.728 135.248 589.728 134.592 589.712C134.8 590.144 135.04 590.848 135.104 591.328C136.208 591.328 137.008 591.312 137.568 591.04C138.16 590.784 138.304 590.336 138.304 589.488V583.136ZM135.088 581.184V580.528H138.544V579.248H135.088V578.64H138.976V577.28H135.088V576.448H133.2V577.28H129.52V578.64H133.2V579.248H129.952V580.528H133.2V581.184H129.024V582.544H139.488V581.184H135.088ZM152.48 579.136H150.192V578.208H152.48V579.136ZM154.256 577.072H148.512V580.272H154.256V577.072ZM145.76 579.136H143.52V578.208H145.76V579.136ZM147.536 577.072H141.824V580.272H147.536V577.072ZM144.256 585.44V584.576H146.96V585.44H144.256ZM144.256 582.368H146.96V583.216H144.256V582.368ZM151.792 583.216H148.912V582.368H151.792V583.216ZM151.792 585.44H148.912V584.576H151.792V585.44ZM155.136 587.728H148.912V586.896H153.744V580.896H142.4V586.896H146.96V587.728H140.88V589.36H146.96V591.392H148.912V589.36H155.136V587.728ZM162.928 589.04V585.92H168.352V589.04H162.928ZM165.744 579.68C165.168 580.736 164.416 581.728 163.52 582.608C162.848 581.92 161.824 581.12 160.976 580.496C161.248 580.224 161.504 579.952 161.76 579.68H165.744ZM170.336 584.192H164.624C166.224 582.672 167.52 580.8 168.336 578.608L167.024 577.92L166.704 578.016H163.072C163.36 577.6 163.632 577.184 163.872 576.768L161.728 576.368C160.8 578.112 159.04 580.064 156.416 581.456C156.848 581.776 157.472 582.48 157.76 582.944C158.4 582.56 158.992 582.16 159.536 581.728C160.384 582.4 161.344 583.232 161.984 583.936C160.32 585.168 158.384 586.128 156.384 586.704C156.784 587.088 157.264 587.872 157.488 588.4C158.704 587.984 159.904 587.472 161.024 586.832V591.376H162.928V590.752H168.352V591.392H170.336V584.192ZM178.432 585.104C178.144 584.784 176.912 583.536 176.48 583.168V582.752H178.08V581.312C178.496 581.52 178.976 581.808 179.216 582C179.792 581.216 180.352 580.08 180.752 578.864C182.72 578.672 184.896 578.352 186.56 577.904L185.216 576.576C184.064 576.928 182.272 577.248 180.528 577.456L179.312 577.2C179.008 578.624 178.432 580.064 177.664 581.024H176.48V578.672C177.152 578.496 177.776 578.288 178.336 578.064L177.008 576.72C175.92 577.232 174.112 577.696 172.464 577.984C172.672 578.336 172.896 578.976 172.976 579.36C173.52 579.28 174.096 579.2 174.672 579.088V581.024H172.608V582.752H174.368C173.904 584.288 173.136 586.032 172.352 587.072C172.64 587.552 173.056 588.336 173.216 588.88C173.744 588.128 174.24 587.056 174.672 585.904V591.392H176.48V585.088C176.832 585.632 177.184 586.192 177.376 586.56L178.432 585.104ZM184.448 578.88C185.024 579.776 185.616 581.024 185.856 581.824L187.488 581.12C187.216 580.304 186.624 579.152 186 578.256L184.448 578.88ZM183.584 586.896V585.936H185.008V586.896H183.584ZM180.544 585.936H181.872V586.896H180.544V585.936ZM181.872 583.632V584.544H180.544V583.632H181.872ZM185.008 583.632V584.544H183.584V583.632H185.008ZM187.552 586.896H186.768V582.144H183.584V581.232H182.432L183.792 580.848C183.712 580.256 183.424 579.392 183.088 578.752L181.52 579.168C181.808 579.792 182.064 580.656 182.128 581.232H181.872V582.144H178.816V586.896H177.824V588.432H178.816V591.36H180.544V588.432H185.008V589.472C185.008 589.664 184.928 589.712 184.72 589.728C184.512 589.728 183.824 589.744 183.2 589.712C183.44 590.144 183.712 590.88 183.792 591.36C184.8 591.36 185.536 591.344 186.064 591.056C186.608 590.784 186.768 590.32 186.768 589.504V588.432H187.552V586.896Z" fill="black"/>
<path d="M130.58 605.266V606.064H126.912V605.266H130.58ZM126.898 607.562C126.912 607.282 126.912 607.016 126.912 606.764V606.75H130.58V607.562H126.898ZM130.804 610.012V611.664H127.584V610.012H130.804ZM131.518 608.346V604.482H125.988V606.75C125.988 608.346 125.834 610.516 124.518 612.112C124.714 612.224 125.092 612.56 125.218 612.756C126.002 611.79 126.436 610.586 126.674 609.396V613.036H127.584V612.462H130.804V612.938H131.728V609.214H126.702C126.758 608.92 126.8 608.626 126.828 608.346H131.518ZM128.186 600.422C127.5 601.556 126.254 602.97 124.518 604.006C124.728 604.146 125.05 604.496 125.176 604.706C125.946 604.216 126.632 603.67 127.206 603.124V603.712H130.608V602.956H127.374C127.948 602.396 128.424 601.822 128.816 601.318C129.782 602.074 130.916 603.166 131.518 603.838L132.204 603.054C131.504 602.326 130.174 601.206 129.138 600.422H128.186ZM133.646 601.962H132.666V609.662H133.646V601.962ZM135.788 600.562V611.706C135.788 611.958 135.676 612.042 135.438 612.042C135.172 612.056 134.346 612.07 133.394 612.028C133.548 612.322 133.716 612.798 133.758 613.064C135.004 613.078 135.746 613.05 136.18 612.882C136.614 612.7 136.796 612.392 136.796 611.692V600.562H135.788ZM142.018 600.338C141.234 602.466 139.946 604.552 138.56 605.896C138.756 606.12 139.064 606.694 139.162 606.932C139.638 606.442 140.114 605.882 140.548 605.266V613.05H141.584V603.656C142.13 602.69 142.634 601.668 143.012 600.66L142.018 600.338ZM151.412 603.614V602.62H145.588C145.868 602.004 146.134 601.374 146.358 600.73L145.364 600.464C144.678 602.508 143.544 604.524 142.284 605.826C142.522 605.994 142.928 606.344 143.096 606.526C143.796 605.742 144.482 604.734 145.084 603.614H146.05V613.064H147.1V609.676H151.286V608.696H147.1V606.582H151.09V605.616H147.1V603.614H151.412ZM158.622 604.762V602.97H161.73C161.072 603.6 160.358 604.202 159.602 604.762H158.622ZM162.416 609.424H156.746V608.038H162.416V609.424ZM156.746 611.706V610.25H162.416V611.706H156.746ZM165.188 605.7V604.762H161.156C162.43 603.712 163.578 602.536 164.558 601.248L163.676 600.772C163.2 601.416 162.668 602.032 162.08 602.62V602.046H158.622V600.296H157.6V602.046H154.03V602.97H157.6V604.762H152.812V605.7H158.258C156.494 606.834 154.534 607.758 152.504 608.472C152.7 608.682 153.036 609.102 153.162 609.326C154.016 609.004 154.884 608.626 155.724 608.22V613.064H156.746V612.616H162.416V613.008H163.48V607.156H157.698C158.468 606.708 159.224 606.218 159.952 605.7H165.188ZM175.73 606.68C175.73 609.41 176.836 611.636 178.516 613.344L179.356 612.91C177.746 611.244 176.752 609.172 176.752 606.68C176.752 604.188 177.746 602.116 179.356 600.45L178.516 600.016C176.836 601.724 175.73 603.95 175.73 606.68ZM181.288 608.22C181.134 609.438 180.868 610.698 180.434 611.552C180.63 611.622 181.05 611.804 181.204 611.93C181.652 611.034 181.974 609.69 182.17 608.374L181.288 608.22ZM184.158 608.416C184.508 609.214 184.788 610.278 184.858 610.95L185.67 610.712C185.586 610.026 185.278 608.99 184.928 608.192L184.158 608.416ZM188.946 610.082C188.694 610.082 188.638 609.97 188.638 609.606V607.618H191.606V606.792H189.772V605.364H191.522V604.538H190.458C190.738 604.006 191.074 603.25 191.382 602.578L190.542 602.298C190.388 602.9 190.066 603.782 189.8 604.342L190.318 604.538H188.12L188.764 604.3C188.68 603.796 188.414 602.998 188.092 602.396L187.42 602.634C187.714 603.222 187.966 604.006 188.05 604.538H187.266V605.364H188.876V606.792H187.154V607.618H187.742V609.592C187.742 610.586 187.98 610.908 188.946 610.908H190.584C190.906 610.908 191.228 610.908 191.424 610.866C191.396 610.642 191.354 610.25 191.34 610.026C191.144 610.068 190.766 610.082 190.57 610.082H188.946ZM193.02 600.954H185.81V607.296C185.558 606.54 185.068 605.532 184.55 604.748L183.794 605.056C184.018 605.42 184.228 605.826 184.424 606.232L182.408 606.33C183.36 605.14 184.41 603.558 185.208 602.284L184.34 601.878C183.948 602.634 183.416 603.544 182.842 604.412C182.632 604.132 182.38 603.824 182.086 603.516C182.618 602.732 183.22 601.598 183.696 600.632L182.786 600.296C182.492 601.066 182.002 602.13 181.54 602.928C181.4 602.788 181.26 602.662 181.12 602.536L180.56 603.194C181.19 603.796 181.89 604.594 182.296 605.224C182.002 605.644 181.708 606.036 181.428 606.386L180.462 606.428L180.56 607.366L182.758 607.226V613.064H183.682V607.17L184.788 607.1C184.928 607.422 185.026 607.73 185.082 607.996L185.81 607.66V613.092H186.734V601.878H192.068V611.902C192.068 612.098 192.012 612.154 191.83 612.168C191.634 612.168 191.018 612.182 190.374 612.154C190.514 612.406 190.654 612.826 190.682 613.064C191.578 613.078 192.166 613.05 192.544 612.91C192.894 612.742 193.02 612.462 193.02 611.902V600.954ZM195.554 608.206C195.358 609.424 195.036 610.684 194.532 611.524C194.77 611.608 195.204 611.832 195.4 611.972C195.89 611.076 196.296 609.718 196.52 608.388L195.554 608.206ZM200.02 607.03C200.188 607.352 200.342 607.646 200.44 607.898L201.252 607.45C200.93 606.694 200.16 605.49 199.46 604.622L198.704 605.014C198.97 605.35 199.236 605.742 199.488 606.134C198.564 606.19 197.654 606.232 196.814 606.274C197.85 605.098 199.012 603.558 199.894 602.27L198.942 601.808C198.508 602.578 197.906 603.488 197.262 604.356C197.01 604.048 196.674 603.698 196.31 603.362C196.898 602.606 197.584 601.556 198.116 600.66L197.15 600.268C196.8 601.038 196.212 602.046 195.694 602.816C195.512 602.662 195.33 602.522 195.148 602.382L194.616 603.068C195.344 603.656 196.184 604.454 196.702 605.112C196.352 605.546 196.002 605.966 195.68 606.33L194.56 606.372L194.686 607.366C195.428 607.324 196.324 607.268 197.276 607.198V613.064H198.298V607.142L200.02 607.03ZM200.944 610.922C200.762 610.166 200.328 609.004 199.866 608.122L198.998 608.416C199.432 609.312 199.894 610.488 200.034 611.272L200.944 610.922ZM204.276 611.566V602.76H207.174V601.766H200.44V602.76H203.212V611.566H199.88V612.56H207.398V611.566H204.276ZM212.27 606.68C212.27 603.95 211.164 601.724 209.484 600.016L208.644 600.45C210.254 602.116 211.248 604.188 211.248 606.68C211.248 609.172 210.254 611.244 208.644 612.91L209.484 613.344C211.164 611.636 212.27 609.41 212.27 606.68Z" fill="black"/>
<rect x="124" y="626" width="226" height="3" fill="#C4C4C4"/>
<rect x="124" y="634" width="226" height="3" fill="#C4C4C4"/>
<rect x="124" y="642" width="113" height="3" fill="#C4C4C4"/>
</g>
<defs>
<filter id="filter0_d_27_96" x="-2" y="110" width="379" height="5" filterUnits="userSpaceOnUse" color-interpolation-filters="sRGB">
<feFlood flood-opacity="0" result="BackgroundImageFix"/>
<feColorMatrix in="SourceAlpha" type="matrix" values="0 0 0 0 0 0 0 0 0 0 0 0 0 0 0 0 0 0 127 0" result="hardAlpha"/>
<feOffset dy="1"/>
<feGaussianBlur stdDeviation="1"/>
<feComposite in2="hardAlpha" operator="out"/>
<feColorMatrix type="matrix" values="0 0 0 0 0 0 0 0 0 0 0 0 0 0 0 0 0 0 0.1 0"/>
<feBlend mode="normal" in2="BackgroundImageFix" result="effect1_dropShadow_27_96"/>
<feBlend mode="normal" in="SourceGraphic" in2="effect1_dropShadow_27_96" result="shape"/>
</filter>
<clipPath id="clip0_27_96">
<rect width="375" height="667" fill="white"/>
</clipPath>
</defs>
</svg>
